<?xml version="1.0" encoding="UTF-8"?>
<svg xmlns="http://www.w3.org/2000/svg" xmlns:xlink="http://www.w3.org/1999/xlink" width="346" height="93" viewBox="0 0 346 93">
<path fill-rule="nonzero" fill="rgb(0%, 0%, 0%)" fill-opacity="1" stroke-width="0.3985" stroke-linecap="butt" stroke-linejoin="miter" stroke="rgb(0%, 0%, 0%)" stroke-opacity="1" stroke-miterlimit="10" d="M -73.5045 0.00190625 C -73.5045 1.673781 -74.859969 3.033156 -76.53575 3.033156 C -78.211531 3.033156 -79.567 1.673781 -79.567 0.00190625 C -79.567 -1.673875 -78.211531 -3.03325 -76.53575 -3.03325 C -74.859969 -3.03325 -73.5045 -1.673875 -73.5045 0.00190625 Z M -73.5045 0.00190625 " transform="matrix(1, 0, 0, -1, 113.692, 56.748)"/>
<path fill="none" stroke-width="1.19553" stroke-linecap="butt" stroke-linejoin="miter" stroke="rgb(0%, 0%, 0%)" stroke-opacity="1" stroke-dasharray="2.98883 2.98883" stroke-miterlimit="10" d="M -55.094344 0.00190625 C -55.094344 11.84175 -64.692 21.443313 -76.53575 21.443313 C -88.3795 21.443313 -97.977156 11.84175 -97.977156 0.00190625 C -97.977156 -11.841844 -88.3795 -21.443406 -76.53575 -21.443406 C -64.692 -21.443406 -55.094344 -11.841844 -55.094344 0.00190625 Z M -55.094344 0.00190625 " transform="matrix(1, 0, 0, -1, 113.692, 56.748)"/>
<path fill-rule="nonzero" fill="rgb(0%, 0%, 0%)" fill-opacity="1" stroke-width="0.3985" stroke-linecap="butt" stroke-linejoin="miter" stroke="rgb(0%, 0%, 0%)" stroke-opacity="1" stroke-miterlimit="10" d="M -87.676375 28.345656 C -87.676375 30.021438 -89.03575 31.380813 -90.711531 31.380813 C -92.383406 31.380813 -93.742781 30.021438 -93.742781 28.345656 C -93.742781 26.673781 -92.383406 25.314406 -90.711531 25.314406 C -89.03575 25.314406 -87.676375 26.673781 -87.676375 28.345656 Z M -87.676375 28.345656 " transform="matrix(1, 0, 0, -1, 113.692, 56.748)"/>
<path fill="none" stroke-width="1.19553" stroke-linecap="butt" stroke-linejoin="miter" stroke="rgb(0%, 0%, 0%)" stroke-opacity="1" stroke-dasharray="2.98883 2.98883" stroke-miterlimit="10" d="M -69.266219 28.345656 C -69.266219 40.189406 -78.867781 49.790969 -90.711531 49.790969 C -102.551375 49.790969 -112.152938 40.189406 -112.152938 28.345656 C -112.152938 16.505813 -102.551375 6.90425 -90.711531 6.90425 C -78.867781 6.90425 -69.266219 16.505813 -69.266219 28.345656 Z M -69.266219 28.345656 " transform="matrix(1, 0, 0, -1, 113.692, 56.748)"/>
<path fill-rule="nonzero" fill="rgb(0%, 0%, 0%)" fill-opacity="1" stroke-width="0.3985" stroke-linecap="butt" stroke-linejoin="miter" stroke="rgb(0%, 0%, 0%)" stroke-opacity="1" stroke-miterlimit="10" d="M -47.992781 14.173781 C -47.992781 15.849563 -49.34825 17.205031 -51.024031 17.205031 C -52.699813 17.205031 -54.055281 15.849563 -54.055281 14.173781 C -54.055281 12.498 -52.699813 11.142531 -51.024031 11.142531 C -49.34825 11.142531 -47.992781 12.498 -47.992781 14.173781 Z M -47.992781 14.173781 " transform="matrix(1, 0, 0, -1, 113.692, 56.748)"/>
<path fill="none" stroke-width="1.19553" stroke-linecap="butt" stroke-linejoin="miter" stroke="rgb(0%, 0%, 0%)" stroke-opacity="1" stroke-dasharray="2.98883 2.98883" stroke-miterlimit="10" d="M -29.582625 14.173781 C -29.582625 26.017531 -39.180281 35.615188 -51.024031 35.615188 C -62.867781 35.615188 -72.465438 26.017531 -72.465438 14.173781 C -72.465438 2.330031 -62.867781 -7.267625 -51.024031 -7.267625 C -39.180281 -7.267625 -29.582625 2.330031 -29.582625 14.173781 Z M -29.582625 14.173781 " transform="matrix(1, 0, 0, -1, 113.692, 56.748)"/>
<path fill-rule="nonzero" fill="rgb(0%, 0%, 0%)" fill-opacity="1" stroke-width="0.3985" stroke-linecap="butt" stroke-linejoin="miter" stroke="rgb(0%, 0%, 0%)" stroke-opacity="1" stroke-miterlimit="10" d="M 3.034562 0.00190625 C 3.034562 1.673781 1.675187 3.033156 -0.00059375 3.033156 C -1.676375 3.033156 -3.031844 1.673781 -3.031844 0.00190625 C -3.031844 -1.673875 -1.676375 -3.03325 -0.00059375 -3.03325 C 1.675187 -3.03325 3.034562 -1.673875 3.034562 0.00190625 Z M 3.034562 0.00190625 " transform="matrix(1, 0, 0, -1, 113.692, 56.748)"/>
<path fill="none" stroke-width="1.19553" stroke-linecap="butt" stroke-linejoin="miter" stroke="rgb(0%, 0%, 0%)" stroke-opacity="1" stroke-dasharray="2.98883 2.98883" stroke-miterlimit="10" d="M 21.440812 0.00190625 C 21.440812 11.84175 11.843156 21.443313 -0.00059375 21.443313 C -11.844344 21.443313 -21.442 11.84175 -21.442 0.00190625 C -21.442 -11.841844 -11.844344 -21.443406 -0.00059375 -21.443406 C 11.843156 -21.443406 21.440812 -11.841844 21.440812 0.00190625 Z M 21.440812 0.00190625 " transform="matrix(1, 0, 0, -1, 113.692, 56.748)"/>
<path fill-rule="nonzero" fill="rgb(0%, 0%, 0%)" fill-opacity="1" stroke-width="0.3985" stroke-linecap="butt" stroke-linejoin="miter" stroke="rgb(0%, 0%, 0%)" stroke-opacity="1" stroke-miterlimit="10" d="M 31.378312 -14.173875 C 31.378312 -12.498094 30.022844 -11.142625 28.347062 -11.142625 C 26.671281 -11.142625 25.315812 -12.498094 25.315812 -14.173875 C 25.315812 -15.849656 26.671281 -17.205125 28.347062 -17.205125 C 30.022844 -17.205125 31.378312 -15.849656 31.378312 -14.173875 Z M 31.378312 -14.173875 " transform="matrix(1, 0, 0, -1, 113.692, 56.748)"/>
<path fill="none" stroke-width="1.19553" stroke-linecap="butt" stroke-linejoin="miter" stroke="rgb(0%, 0%, 0%)" stroke-opacity="1" stroke-dasharray="2.98883 2.98883" stroke-miterlimit="10" d="M 49.788469 -14.173875 C 49.788469 -2.330125 40.190812 7.267531 28.347062 7.267531 C 16.503312 7.267531 6.905656 -2.330125 6.905656 -14.173875 C 6.905656 -26.017625 16.503312 -35.615281 28.347062 -35.615281 C 40.190812 -35.615281 49.788469 -26.017625 49.788469 -14.173875 Z M 49.788469 -14.173875 " transform="matrix(1, 0, 0, -1, 113.692, 56.748)"/>
<path fill-rule="nonzero" fill="rgb(0%, 0%, 0%)" fill-opacity="1" stroke-width="0.3985" stroke-linecap="butt" stroke-linejoin="miter" stroke="rgb(0%, 0%, 0%)" stroke-opacity="1" stroke-miterlimit="10" d="M 48.386125 19.84175 C 48.386125 21.517531 47.030656 22.876906 45.354875 22.876906 C 43.679094 22.876906 42.323625 21.517531 42.323625 19.84175 C 42.323625 18.165969 43.679094 16.8105 45.354875 16.8105 C 47.030656 16.8105 48.386125 18.165969 48.386125 19.84175 Z M 48.386125 19.84175 " transform="matrix(1, 0, 0, -1, 113.692, 56.748)"/>
<path fill="none" stroke-width="1.19553" stroke-linecap="butt" stroke-linejoin="miter" stroke="rgb(0%, 0%, 0%)" stroke-opacity="1" stroke-dasharray="2.98883 2.98883" stroke-miterlimit="10" d="M 66.796281 19.84175 C 66.796281 31.6855 57.198625 41.283156 45.354875 41.283156 C 33.511125 41.283156 23.913469 31.6855 23.913469 19.84175 C 23.913469 8.001906 33.511125 -1.599656 45.354875 -1.599656 C 57.198625 -1.599656 66.796281 8.001906 66.796281 19.84175 Z M 66.796281 19.84175 " transform="matrix(1, 0, 0, -1, 113.692, 56.748)"/>
<path fill-rule="nonzero" fill="rgb(0%, 0%, 0%)" fill-opacity="1" stroke-width="0.3985" stroke-linecap="butt" stroke-linejoin="miter" stroke="rgb(0%, 0%, 0%)" stroke-opacity="1" stroke-miterlimit="10" d="M 102.2455 0.00190625 C 102.2455 1.673781 100.890031 3.033156 99.21425 3.033156 C 97.538469 3.033156 96.183 1.673781 96.183 0.00190625 C 96.183 -1.673875 97.538469 -3.03325 99.21425 -3.03325 C 100.890031 -3.03325 102.2455 -1.673875 102.2455 0.00190625 Z M 102.2455 0.00190625 " transform="matrix(1, 0, 0, -1, 113.692, 56.748)"/>
<path fill="none" stroke-width="1.19553" stroke-linecap="butt" stroke-linejoin="miter" stroke="rgb(0%, 0%, 0%)" stroke-opacity="1" stroke-dasharray="2.98883 2.98883" stroke-miterlimit="10" d="M 120.655656 0.00190625 C 120.655656 11.84175 111.058 21.443313 99.21425 21.443313 C 87.3705 21.443313 77.772844 11.84175 77.772844 0.00190625 C 77.772844 -11.841844 87.3705 -21.443406 99.21425 -21.443406 C 111.058 -21.443406 120.655656 -11.841844 120.655656 0.00190625 Z M 120.655656 0.00190625 " transform="matrix(1, 0, 0, -1, 113.692, 56.748)"/>
<path fill-rule="nonzero" fill="rgb(0%, 0%, 0%)" fill-opacity="1" stroke-width="0.3985" stroke-linecap="butt" stroke-linejoin="miter" stroke="rgb(0%, 0%, 0%)" stroke-opacity="1" stroke-miterlimit="10" d="M 102.2455 28.345656 C 102.2455 30.021438 100.890031 31.380813 99.21425 31.380813 C 97.538469 31.380813 96.183 30.021438 96.183 28.345656 C 96.183 26.673781 97.538469 25.314406 99.21425 25.314406 C 100.890031 25.314406 102.2455 26.673781 102.2455 28.345656 Z M 102.2455 28.345656 " transform="matrix(1, 0, 0, -1, 113.692, 56.748)"/>
<path fill="none" stroke-width="1.19553" stroke-linecap="butt" stroke-linejoin="miter" stroke="rgb(0%, 0%, 0%)" stroke-opacity="1" stroke-dasharray="2.98883 2.98883" stroke-miterlimit="10" d="M 120.655656 28.345656 C 120.655656 40.189406 111.058 49.790969 99.21425 49.790969 C 87.3705 49.790969 77.772844 40.189406 77.772844 28.345656 C 77.772844 16.505813 87.3705 6.90425 99.21425 6.90425 C 111.058 6.90425 120.655656 16.505813 120.655656 28.345656 Z M 120.655656 28.345656 " transform="matrix(1, 0, 0, -1, 113.692, 56.748)"/>
<path fill-rule="nonzero" fill="rgb(0%, 0%, 0%)" fill-opacity="1" stroke-width="0.3985" stroke-linecap="butt" stroke-linejoin="miter" stroke="rgb(0%, 0%, 0%)" stroke-opacity="1" stroke-miterlimit="10" d="M 130.593156 17.009719 C 130.593156 18.681594 129.233781 20.040969 127.561906 20.040969 C 125.886125 20.040969 124.52675 18.681594 124.52675 17.009719 C 124.52675 15.333938 125.886125 13.974563 127.561906 13.974563 C 129.233781 13.974563 130.593156 15.333938 130.593156 17.009719 Z M 130.593156 17.009719 " transform="matrix(1, 0, 0, -1, 113.692, 56.748)"/>
<path fill="none" stroke-width="1.19553" stroke-linecap="butt" stroke-linejoin="miter" stroke="rgb(0%, 0%, 0%)" stroke-opacity="1" stroke-dasharray="2.98883 2.98883" stroke-miterlimit="10" d="M 149.003312 17.009719 C 149.003312 28.849563 139.40175 38.451125 127.561906 38.451125 C 115.718156 38.451125 106.116594 28.849563 106.116594 17.009719 C 106.116594 5.165969 115.718156 -4.435594 127.561906 -4.435594 C 139.40175 -4.435594 149.003312 5.165969 149.003312 17.009719 Z M 149.003312 17.009719 " transform="matrix(1, 0, 0, -1, 113.692, 56.748)"/>
<path fill-rule="nonzero" fill="rgb(0%, 0%, 0%)" fill-opacity="1" stroke-width="0.3985" stroke-linecap="butt" stroke-linejoin="miter" stroke="rgb(0%, 0%, 0%)" stroke-opacity="1" stroke-miterlimit="10" d="M 158.940812 8.505813 C 158.940812 10.177688 157.581437 11.537063 155.905656 11.537063 C 154.233781 11.537063 152.874406 10.177688 152.874406 8.505813 C 152.874406 6.830031 154.233781 5.470656 155.905656 5.470656 C 157.581437 5.470656 158.940812 6.830031 158.940812 8.505813 Z M 158.940812 8.505813 " transform="matrix(1, 0, 0, -1, 113.692, 56.748)"/>
<path fill="none" stroke-width="1.19553" stroke-linecap="butt" stroke-linejoin="miter" stroke="rgb(0%, 0%, 0%)" stroke-opacity="1" stroke-dasharray="2.98883 2.98883" stroke-miterlimit="10" d="M 177.350969 8.505813 C 177.350969 20.345656 167.749406 29.947219 155.905656 29.947219 C 144.065812 29.947219 134.46425 20.345656 134.46425 8.505813 C 134.46425 -3.337937 144.065812 -12.9395 155.905656 -12.9395 C 167.749406 -12.9395 177.350969 -3.337937 177.350969 8.505813 Z M 177.350969 8.505813 " transform="matrix(1, 0, 0, -1, 113.692, 56.748)"/>
<path fill-rule="nonzero" fill="rgb(0%, 0%, 0%)" fill-opacity="1" stroke-width="0.3985" stroke-linecap="butt" stroke-linejoin="miter" stroke="rgb(0%, 0%, 0%)" stroke-opacity="1" stroke-miterlimit="10" d="M 187.288469 34.017531 C 187.288469 35.689406 185.929094 37.048781 184.253312 37.048781 C 182.577531 37.048781 181.222062 35.689406 181.222062 34.017531 C 181.222062 32.34175 182.577531 30.982375 184.253312 30.982375 C 185.929094 30.982375 187.288469 32.34175 187.288469 34.017531 Z M 187.288469 34.017531 " transform="matrix(1, 0, 0, -1, 113.692, 56.748)"/>
<path fill="none" stroke-width="1.19553" stroke-linecap="butt" stroke-linejoin="miter" stroke="rgb(0%, 0%, 0%)" stroke-opacity="1" stroke-dasharray="2.98883 2.98883" stroke-miterlimit="10" d="M 205.694719 34.017531 C 205.694719 45.857375 196.097062 55.458938 184.253312 55.458938 C 172.413469 55.458938 162.811906 45.857375 162.811906 34.017531 C 162.811906 22.173781 172.413469 12.572219 184.253312 12.572219 C 196.097062 12.572219 205.694719 22.173781 205.694719 34.017531 Z M 205.694719 34.017531 " transform="matrix(1, 0, 0, -1, 113.692, 56.748)"/>
<path fill-rule="nonzero" fill="rgb(0%, 0%, 0%)" fill-opacity="1" stroke-width="0.3985" stroke-linecap="butt" stroke-linejoin="miter" stroke="rgb(0%, 0%, 0%)" stroke-opacity="1" stroke-miterlimit="10" d="M 212.800187 14.173781 C 212.800187 15.849563 211.440812 17.205031 209.765031 17.205031 C 208.093156 17.205031 206.733781 15.849563 206.733781 14.173781 C 206.733781 12.498 208.093156 11.142531 209.765031 11.142531 C 211.440812 11.142531 212.800187 12.498 212.800187 14.173781 Z M 212.800187 14.173781 " transform="matrix(1, 0, 0, -1, 113.692, 56.748)"/>
<path fill="none" stroke-width="1.19553" stroke-linecap="butt" stroke-linejoin="miter" stroke="rgb(0%, 0%, 0%)" stroke-opacity="1" stroke-dasharray="2.98883 2.98883" stroke-miterlimit="10" d="M 231.210344 14.173781 C 231.210344 26.017531 221.608781 35.615188 209.765031 35.615188 C 197.925187 35.615188 188.323625 26.017531 188.323625 14.173781 C 188.323625 2.330031 197.925187 -7.267625 209.765031 -7.267625 C 221.608781 -7.267625 231.210344 2.330031 231.210344 14.173781 Z M 231.210344 14.173781 " transform="matrix(1, 0, 0, -1, 113.692, 56.748)"/>
</svg>
