<?xml version="1.0" encoding="UTF-8"?>
<svg xmlns="http://www.w3.org/2000/svg" xmlns:xlink="http://www.w3.org/1999/xlink" width="111" height="111" viewBox="0 0 111 111">
<path fill-rule="nonzero" fill="rgb(0%, 0%, 0%)" fill-opacity="1" d="M 41.476562 74.269531 C 41.476562 71.675781 39.375 69.574219 36.78125 69.574219 C 34.1875 69.574219 32.085938 71.675781 32.085938 74.269531 C 32.085938 76.859375 34.1875 78.964844 36.78125 78.964844 C 39.375 78.964844 41.476562 76.859375 41.476562 74.269531 Z M 41.476562 74.269531 "/>
<path fill-rule="nonzero" fill="rgb(0%, 0%, 0%)" fill-opacity="1" d="M 110.359375 74.269531 C 110.359375 71.675781 108.257812 69.574219 105.664062 69.574219 C 103.070312 69.574219 100.96875 71.675781 100.96875 74.269531 C 100.96875 76.859375 103.070312 78.964844 105.664062 78.964844 C 108.257812 78.964844 110.359375 76.859375 110.359375 74.269531 Z M 110.359375 74.269531 "/>
<path fill-rule="nonzero" fill="rgb(0%, 0%, 0%)" fill-opacity="1" d="M 41.476562 5.386719 C 41.476562 2.792969 39.375 0.691406 36.78125 0.691406 C 34.1875 0.691406 32.085938 2.792969 32.085938 5.386719 C 32.085938 7.980469 34.1875 10.082031 36.78125 10.082031 C 39.375 10.082031 41.476562 7.980469 41.476562 5.386719 Z M 41.476562 5.386719 "/>
<path fill-rule="nonzero" fill="rgb(0%, 0%, 0%)" fill-opacity="1" d="M 110.359375 5.386719 C 110.359375 2.792969 108.257812 0.691406 105.664062 0.691406 C 103.070312 0.691406 100.96875 2.792969 100.96875 5.386719 C 100.96875 7.980469 103.070312 10.082031 105.664062 10.082031 C 108.257812 10.082031 110.359375 7.980469 110.359375 5.386719 Z M 110.359375 5.386719 "/>
<path fill="none" stroke-width="0.79701" stroke-linecap="butt" stroke-linejoin="miter" stroke="rgb(0%, 0%, 0%)" stroke-opacity="1" stroke-miterlimit="10" d="M 4.893781 -0.00153125 L 63.983625 -0.00153125 " transform="matrix(1, 0, 0, -1, 36.782, 74.268)"/>
<path fill="none" stroke-width="0.79701" stroke-linecap="butt" stroke-linejoin="miter" stroke="rgb(0%, 0%, 0%)" stroke-opacity="1" stroke-miterlimit="10" d="M -0.00075 4.893 L -0.00075 63.982844 " transform="matrix(1, 0, 0, -1, 36.782, 74.268)"/>
<path fill="none" stroke-width="0.79701" stroke-linecap="butt" stroke-linejoin="miter" stroke="rgb(0%, 0%, 0%)" stroke-opacity="1" stroke-miterlimit="10" d="M 68.878156 4.893 L 68.878156 63.982844 " transform="matrix(1, 0, 0, -1, 36.782, 74.268)"/>
<path fill="none" stroke-width="0.79701" stroke-linecap="butt" stroke-linejoin="miter" stroke="rgb(0%, 0%, 0%)" stroke-opacity="1" stroke-miterlimit="10" d="M 4.893781 68.877375 L 63.983625 68.877375 " transform="matrix(1, 0, 0, -1, 36.782, 74.268)"/>
<path fill="none" stroke-width="0.79701" stroke-linecap="butt" stroke-linejoin="miter" stroke="rgb(0%, 0%, 0%)" stroke-opacity="1" stroke-miterlimit="10" d="M 3.460188 3.459406 L 65.417219 65.416438 " transform="matrix(1, 0, 0, -1, 36.782, 74.268)"/>
<path fill="none" stroke-width="0.79701" stroke-linecap="butt" stroke-linejoin="miter" stroke="rgb(0%, 0%, 0%)" stroke-opacity="1" stroke-miterlimit="10" d="M -0.00075 68.881281 C -28.004656 58.689875 -42.442156 27.725031 -32.246844 -0.274969 C -22.055437 -28.278875 8.9055 -42.716375 36.909406 -32.524969 C 51.893781 -27.071844 63.702375 -15.26325 69.159406 -0.274969 " transform="matrix(1, 0, 0, -1, 36.782, 74.268)"/>
</svg>
