<?xml version="1.0" encoding="UTF-8"?>
<svg xmlns="http://www.w3.org/2000/svg" xmlns:xlink="http://www.w3.org/1999/xlink" width="149" height="148" viewBox="0 0 149 148">
<path fill-rule="nonzero" fill="rgb(0%, 0%, 0%)" fill-opacity="1" d="M 44.773438 108.707031 C 44.773438 106.113281 42.671875 104.011719 40.078125 104.011719 C 37.484375 104.011719 35.382812 106.113281 35.382812 108.707031 C 35.382812 111.300781 37.484375 113.402344 40.078125 113.402344 C 42.671875 113.402344 44.773438 111.300781 44.773438 108.707031 Z M 44.773438 108.707031 "/>
<path fill-rule="nonzero" fill="rgb(0%, 0%, 0%)" fill-opacity="1" d="M 113.65625 108.707031 C 113.65625 106.113281 111.554688 104.011719 108.960938 104.011719 C 106.367188 104.011719 104.265625 106.113281 104.265625 108.707031 C 104.265625 111.300781 106.367188 113.402344 108.960938 113.402344 C 111.554688 113.402344 113.65625 111.300781 113.65625 108.707031 Z M 113.65625 108.707031 "/>
<path fill-rule="nonzero" fill="rgb(0%, 0%, 0%)" fill-opacity="1" d="M 44.773438 39.828125 C 44.773438 37.234375 42.671875 35.132812 40.078125 35.132812 C 37.484375 35.132812 35.382812 37.234375 35.382812 39.828125 C 35.382812 42.417969 37.484375 44.523438 40.078125 44.523438 C 42.671875 44.523438 44.773438 42.417969 44.773438 39.828125 Z M 44.773438 39.828125 "/>
<path fill-rule="nonzero" fill="rgb(0%, 0%, 0%)" fill-opacity="1" d="M 113.65625 39.828125 C 113.65625 37.234375 111.554688 35.132812 108.960938 35.132812 C 106.367188 35.132812 104.265625 37.234375 104.265625 39.828125 C 104.265625 42.417969 106.367188 44.523438 108.960938 44.523438 C 111.554688 44.523438 113.65625 42.417969 113.65625 39.828125 Z M 113.65625 39.828125 "/>
<path fill-rule="nonzero" fill="rgb(0%, 0%, 0%)" fill-opacity="1" d="M 79.214844 143.148438 C 79.214844 140.554688 77.113281 138.453125 74.519531 138.453125 C 71.925781 138.453125 69.824219 140.554688 69.824219 143.148438 C 69.824219 145.742188 71.925781 147.84375 74.519531 147.84375 C 77.113281 147.84375 79.214844 145.742188 79.214844 143.148438 Z M 79.214844 143.148438 "/>
<path fill-rule="nonzero" fill="rgb(0%, 0%, 0%)" fill-opacity="1" d="M 79.214844 5.386719 C 79.214844 2.792969 77.113281 0.691406 74.519531 0.691406 C 71.925781 0.691406 69.824219 2.792969 69.824219 5.386719 C 69.824219 7.980469 71.925781 10.082031 74.519531 10.082031 C 77.113281 10.082031 79.214844 7.980469 79.214844 5.386719 Z M 79.214844 5.386719 "/>
<path fill-rule="nonzero" fill="rgb(0%, 0%, 0%)" fill-opacity="1" d="M 10.332031 74.265625 C 10.332031 71.675781 8.230469 69.574219 5.636719 69.574219 C 3.046875 69.574219 0.941406 71.675781 0.941406 74.265625 C 0.941406 76.859375 3.046875 78.960938 5.636719 78.960938 C 8.230469 78.960938 10.332031 76.859375 10.332031 74.265625 Z M 10.332031 74.265625 "/>
<path fill-rule="nonzero" fill="rgb(0%, 0%, 0%)" fill-opacity="1" d="M 148.097656 74.265625 C 148.097656 71.675781 145.992188 69.574219 143.402344 69.574219 C 140.808594 69.574219 138.707031 71.675781 138.707031 74.265625 C 138.707031 76.859375 140.808594 78.960938 143.402344 78.960938 C 145.992188 78.960938 148.097656 76.859375 148.097656 74.265625 Z M 148.097656 74.265625 "/>
<path fill="none" stroke-width="0.79701" stroke-linecap="butt" stroke-linejoin="miter" stroke="rgb(0%, 0%, 0%)" stroke-opacity="1" stroke-miterlimit="10" d="M 4.893656 0.00096875 L 63.9835 0.00096875 " transform="matrix(1, 0, 0, -1, 40.079, 108.708)"/>
<path fill="none" stroke-width="0.79701" stroke-linecap="butt" stroke-linejoin="miter" stroke="rgb(0%, 0%, 0%)" stroke-opacity="1" stroke-miterlimit="10" d="M -0.000875 4.8955 L -0.000875 63.985344 " transform="matrix(1, 0, 0, -1, 40.079, 108.708)"/>
<path fill="none" stroke-width="0.79701" stroke-linecap="butt" stroke-linejoin="miter" stroke="rgb(0%, 0%, 0%)" stroke-opacity="1" stroke-miterlimit="10" d="M 68.878031 4.8955 L 68.878031 63.985344 " transform="matrix(1, 0, 0, -1, 40.079, 108.708)"/>
<path fill="none" stroke-width="0.79701" stroke-linecap="butt" stroke-linejoin="miter" stroke="rgb(0%, 0%, 0%)" stroke-opacity="1" stroke-miterlimit="10" d="M 4.893656 68.879875 L 63.9835 68.879875 " transform="matrix(1, 0, 0, -1, 40.079, 108.708)"/>
<path fill="none" stroke-width="0.79701" stroke-linecap="butt" stroke-linejoin="miter" stroke="rgb(0%, 0%, 0%)" stroke-opacity="1" stroke-miterlimit="10" d="M 3.460063 -3.459969 L 30.979594 -30.9795 " transform="matrix(1, 0, 0, -1, 40.079, 108.708)"/>
<path fill="none" stroke-width="0.79701" stroke-linecap="butt" stroke-linejoin="miter" stroke="rgb(0%, 0%, 0%)" stroke-opacity="1" stroke-miterlimit="10" d="M 65.417094 -3.459969 L 37.901469 -30.9795 " transform="matrix(1, 0, 0, -1, 40.079, 108.708)"/>
<path fill="none" stroke-width="0.79701" stroke-linecap="butt" stroke-linejoin="miter" stroke="rgb(0%, 0%, 0%)" stroke-opacity="1" stroke-miterlimit="10" d="M 3.460063 72.336906 L 30.979594 99.856437 " transform="matrix(1, 0, 0, -1, 40.079, 108.708)"/>
<path fill="none" stroke-width="0.79701" stroke-linecap="butt" stroke-linejoin="miter" stroke="rgb(0%, 0%, 0%)" stroke-opacity="1" stroke-miterlimit="10" d="M 65.417094 72.336906 L 37.897563 99.856437 " transform="matrix(1, 0, 0, -1, 40.079, 108.708)"/>
<path fill="none" stroke-width="0.79701" stroke-linecap="butt" stroke-linejoin="miter" stroke="rgb(0%, 0%, 0%)" stroke-opacity="1" stroke-miterlimit="10" d="M -3.461812 3.461906 L -30.977437 30.977531 " transform="matrix(1, 0, 0, -1, 40.079, 108.708)"/>
<path fill="none" stroke-width="0.79701" stroke-linecap="butt" stroke-linejoin="miter" stroke="rgb(0%, 0%, 0%)" stroke-opacity="1" stroke-miterlimit="10" d="M 72.338969 3.461906 L 99.8585 30.977531 " transform="matrix(1, 0, 0, -1, 40.079, 108.708)"/>
<path fill="none" stroke-width="0.79701" stroke-linecap="butt" stroke-linejoin="miter" stroke="rgb(0%, 0%, 0%)" stroke-opacity="1" stroke-miterlimit="10" d="M -3.461812 65.418937 L -30.977437 37.899406 " transform="matrix(1, 0, 0, -1, 40.079, 108.708)"/>
<path fill="none" stroke-width="0.79701" stroke-linecap="butt" stroke-linejoin="miter" stroke="rgb(0%, 0%, 0%)" stroke-opacity="1" stroke-miterlimit="10" d="M 72.338969 65.418937 L 99.8585 37.899406 " transform="matrix(1, 0, 0, -1, 40.079, 108.708)"/>
<path fill="none" stroke-width="0.79701" stroke-linecap="butt" stroke-linejoin="miter" stroke="rgb(0%, 0%, 0%)" stroke-opacity="1" stroke-miterlimit="10" d="M 3.460063 3.461906 L 65.417094 65.418937 " transform="matrix(1, 0, 0, -1, 40.079, 108.708)"/>
</svg>
