<?xml version="1.0" encoding="UTF-8"?>
<svg xmlns="http://www.w3.org/2000/svg" xmlns:xlink="http://www.w3.org/1999/xlink" width="80" height="125" viewBox="0 0 80 125">
<path fill-rule="nonzero" fill="rgb(0%, 0%, 0%)" fill-opacity="1" d="M 10.335938 85.746094 C 10.335938 83.15625 8.230469 81.054688 5.640625 81.054688 C 3.046875 81.054688 0.945312 83.15625 0.945312 85.746094 C 0.945312 88.339844 3.046875 90.441406 5.640625 90.441406 C 8.230469 90.441406 10.335938 88.339844 10.335938 85.746094 Z M 10.335938 85.746094 "/>
<path fill-rule="nonzero" fill="rgb(0%, 0%, 0%)" fill-opacity="1" d="M 79.214844 85.746094 C 79.214844 83.15625 77.113281 81.054688 74.519531 81.054688 C 71.925781 81.054688 69.824219 83.15625 69.824219 85.746094 C 69.824219 88.339844 71.925781 90.441406 74.519531 90.441406 C 77.113281 90.441406 79.214844 88.339844 79.214844 85.746094 Z M 79.214844 85.746094 "/>
<path fill-rule="nonzero" fill="rgb(0%, 0%, 0%)" fill-opacity="1" d="M 10.335938 39.828125 C 10.335938 37.234375 8.230469 35.132812 5.640625 35.132812 C 3.046875 35.132812 0.945312 37.234375 0.945312 39.828125 C 0.945312 42.421875 3.046875 44.523438 5.640625 44.523438 C 8.230469 44.523438 10.335938 42.421875 10.335938 39.828125 Z M 10.335938 39.828125 "/>
<path fill-rule="nonzero" fill="rgb(0%, 0%, 0%)" fill-opacity="1" d="M 79.214844 39.828125 C 79.214844 37.234375 77.113281 35.132812 74.519531 35.132812 C 71.925781 35.132812 69.824219 37.234375 69.824219 39.828125 C 69.824219 42.421875 71.925781 44.523438 74.519531 44.523438 C 77.113281 44.523438 79.214844 42.421875 79.214844 39.828125 Z M 79.214844 39.828125 "/>
<path fill-rule="nonzero" fill="rgb(0%, 0%, 0%)" fill-opacity="1" d="M 44.773438 120.1875 C 44.773438 117.59375 42.671875 115.492188 40.078125 115.492188 C 37.488281 115.492188 35.382812 117.59375 35.382812 120.1875 C 35.382812 122.78125 37.488281 124.882812 40.078125 124.882812 C 42.671875 124.882812 44.773438 122.78125 44.773438 120.1875 Z M 44.773438 120.1875 "/>
<path fill-rule="nonzero" fill="rgb(0%, 0%, 0%)" fill-opacity="1" d="M 44.773438 5.386719 C 44.773438 2.792969 42.671875 0.691406 40.078125 0.691406 C 37.488281 0.691406 35.382812 2.792969 35.382812 5.386719 C 35.382812 7.980469 37.488281 10.082031 40.078125 10.082031 C 42.671875 10.082031 44.773438 7.980469 44.773438 5.386719 Z M 44.773438 5.386719 "/>
<path fill="none" stroke-width="0.79701" stroke-linecap="butt" stroke-linejoin="miter" stroke="rgb(0%, 0%, 0%)" stroke-opacity="1" stroke-miterlimit="10" d="M 4.89225 0.00190625 L 63.986 0.00190625 " transform="matrix(1, 0, 0, -1, 5.639, 85.748)"/>
<path fill="none" stroke-width="0.79701" stroke-linecap="butt" stroke-linejoin="miter" stroke="rgb(0%, 0%, 0%)" stroke-opacity="1" stroke-miterlimit="10" d="M 0.001625 4.892531 L 0.001625 41.025344 " transform="matrix(1, 0, 0, -1, 5.639, 85.748)"/>
<path fill="none" stroke-width="0.79701" stroke-linecap="butt" stroke-linejoin="miter" stroke="rgb(0%, 0%, 0%)" stroke-opacity="1" stroke-miterlimit="10" d="M 68.876625 4.892531 L 68.876625 41.025344 " transform="matrix(1, 0, 0, -1, 5.639, 85.748)"/>
<path fill="none" stroke-width="0.79701" stroke-linecap="butt" stroke-linejoin="miter" stroke="rgb(0%, 0%, 0%)" stroke-opacity="1" stroke-miterlimit="10" d="M 4.89225 45.919875 L 63.986 45.919875 " transform="matrix(1, 0, 0, -1, 5.639, 85.748)"/>
<path fill="none" stroke-width="0.79701" stroke-linecap="butt" stroke-linejoin="miter" stroke="rgb(0%, 0%, 0%)" stroke-opacity="1" stroke-miterlimit="10" d="M 3.462563 -3.459031 L 30.978188 -30.978562 " transform="matrix(1, 0, 0, -1, 5.639, 85.748)"/>
<path fill="none" stroke-width="0.79701" stroke-linecap="butt" stroke-linejoin="miter" stroke="rgb(0%, 0%, 0%)" stroke-opacity="1" stroke-miterlimit="10" d="M 65.415688 -3.459031 L 37.900063 -30.978562 " transform="matrix(1, 0, 0, -1, 5.639, 85.748)"/>
<path fill="none" stroke-width="0.79701" stroke-linecap="butt" stroke-linejoin="miter" stroke="rgb(0%, 0%, 0%)" stroke-opacity="1" stroke-miterlimit="10" d="M 3.462563 49.380813 L 30.978188 76.896438 " transform="matrix(1, 0, 0, -1, 5.639, 85.748)"/>
<path fill="none" stroke-width="0.79701" stroke-linecap="butt" stroke-linejoin="miter" stroke="rgb(0%, 0%, 0%)" stroke-opacity="1" stroke-miterlimit="10" d="M 65.415688 49.380813 L 37.900063 76.896438 " transform="matrix(1, 0, 0, -1, 5.639, 85.748)"/>
</svg>
