<?xml version="1.0" encoding="UTF-8"?>
<svg xmlns="http://www.w3.org/2000/svg" xmlns:xlink="http://www.w3.org/1999/xlink" width="111" height="145" viewBox="0 0 111 145">
<path fill-rule="nonzero" fill="rgb(0%, 0%, 0%)" fill-opacity="1" d="M 41.476562 108.707031 C 41.476562 106.113281 39.375 104.011719 36.78125 104.011719 C 34.1875 104.011719 32.085938 106.113281 32.085938 108.707031 C 32.085938 111.300781 34.1875 113.402344 36.78125 113.402344 C 39.375 113.402344 41.476562 111.300781 41.476562 108.707031 Z M 41.476562 108.707031 "/>
<path fill-rule="nonzero" fill="rgb(0%, 0%, 0%)" fill-opacity="1" d="M 110.359375 108.707031 C 110.359375 106.113281 108.257812 104.011719 105.664062 104.011719 C 103.070312 104.011719 100.96875 106.113281 100.96875 108.707031 C 100.96875 111.300781 103.070312 113.402344 105.664062 113.402344 C 108.257812 113.402344 110.359375 111.300781 110.359375 108.707031 Z M 110.359375 108.707031 "/>
<path fill-rule="nonzero" fill="rgb(0%, 0%, 0%)" fill-opacity="1" d="M 41.476562 39.828125 C 41.476562 37.234375 39.375 35.132812 36.78125 35.132812 C 34.1875 35.132812 32.085938 37.234375 32.085938 39.828125 C 32.085938 42.417969 34.1875 44.523438 36.78125 44.523438 C 39.375 44.523438 41.476562 42.417969 41.476562 39.828125 Z M 41.476562 39.828125 "/>
<path fill-rule="nonzero" fill="rgb(0%, 0%, 0%)" fill-opacity="1" d="M 110.359375 39.828125 C 110.359375 37.234375 108.257812 35.132812 105.664062 35.132812 C 103.070312 35.132812 100.96875 37.234375 100.96875 39.828125 C 100.96875 42.417969 103.070312 44.523438 105.664062 44.523438 C 108.257812 44.523438 110.359375 42.417969 110.359375 39.828125 Z M 110.359375 39.828125 "/>
<path fill-rule="nonzero" fill="rgb(0%, 0%, 0%)" fill-opacity="1" d="M 75.917969 5.386719 C 75.917969 2.792969 73.816406 0.691406 71.222656 0.691406 C 68.628906 0.691406 66.527344 2.792969 66.527344 5.386719 C 66.527344 7.980469 68.628906 10.082031 71.222656 10.082031 C 73.816406 10.082031 75.917969 7.980469 75.917969 5.386719 Z M 75.917969 5.386719 "/>
<path fill="none" stroke-width="0.79701" stroke-linecap="butt" stroke-linejoin="miter" stroke="rgb(0%, 0%, 0%)" stroke-opacity="1" stroke-miterlimit="10" d="M 4.893781 0.00096875 L 63.983625 0.00096875 " transform="matrix(1, 0, 0, -1, 36.782, 108.708)"/>
<path fill="none" stroke-width="0.79701" stroke-linecap="butt" stroke-linejoin="miter" stroke="rgb(0%, 0%, 0%)" stroke-opacity="1" stroke-miterlimit="10" d="M -0.00075 4.8955 L -0.00075 63.985344 " transform="matrix(1, 0, 0, -1, 36.782, 108.708)"/>
<path fill="none" stroke-width="0.79701" stroke-linecap="butt" stroke-linejoin="miter" stroke="rgb(0%, 0%, 0%)" stroke-opacity="1" stroke-miterlimit="10" d="M 68.878156 4.8955 L 68.878156 63.985344 " transform="matrix(1, 0, 0, -1, 36.782, 108.708)"/>
<path fill="none" stroke-width="0.79701" stroke-linecap="butt" stroke-linejoin="miter" stroke="rgb(0%, 0%, 0%)" stroke-opacity="1" stroke-miterlimit="10" d="M 4.893781 68.879875 L 63.983625 68.879875 " transform="matrix(1, 0, 0, -1, 36.782, 108.708)"/>
<path fill="none" stroke-width="0.79701" stroke-linecap="butt" stroke-linejoin="miter" stroke="rgb(0%, 0%, 0%)" stroke-opacity="1" stroke-miterlimit="10" d="M 3.460188 3.461906 L 65.417219 65.418937 " transform="matrix(1, 0, 0, -1, 36.782, 108.708)"/>
<path fill="none" stroke-width="0.79701" stroke-linecap="butt" stroke-linejoin="miter" stroke="rgb(0%, 0%, 0%)" stroke-opacity="1" stroke-miterlimit="10" d="M 3.460188 72.336906 L 30.979719 99.856437 " transform="matrix(1, 0, 0, -1, 36.782, 108.708)"/>
<path fill="none" stroke-width="0.79701" stroke-linecap="butt" stroke-linejoin="miter" stroke="rgb(0%, 0%, 0%)" stroke-opacity="1" stroke-miterlimit="10" d="M 65.417219 72.336906 L 37.897688 99.856437 " transform="matrix(1, 0, 0, -1, 36.782, 108.708)"/>
<path fill="none" stroke-width="0.79701" stroke-linecap="butt" stroke-linejoin="miter" stroke="rgb(0%, 0%, 0%)" stroke-opacity="1" stroke-miterlimit="10" d="M -0.00075 68.879875 C -28.004656 58.688469 -42.442156 27.727531 -32.246844 -0.276375 C -22.055437 -28.280281 8.9055 -42.717781 36.909406 -32.526375 C 51.893781 -27.069344 63.702375 -15.26075 69.159406 -0.276375 " transform="matrix(1, 0, 0, -1, 36.782, 108.708)"/>
</svg>
