<?xml version="1.0" encoding="UTF-8"?>
<svg xmlns="http://www.w3.org/2000/svg" xmlns:xlink="http://www.w3.org/1999/xlink" width="433" height="36" viewBox="0 0 433 36">
<path fill-rule="nonzero" fill="rgb(100%, 100%, 100%)" fill-opacity="1" stroke-width="0.3985" stroke-linecap="butt" stroke-linejoin="miter" stroke="rgb(0%, 0%, 0%)" stroke-opacity="1" stroke-miterlimit="10" d="M 3.031031 28.345219 C 3.031031 30.021 1.675563 31.380375 -0.00021875 31.380375 C -1.676 31.380375 -3.031469 30.021 -3.031469 28.345219 C -3.031469 26.673344 -1.676 25.313969 -0.00021875 25.313969 C 1.675563 25.313969 3.031031 26.673344 3.031031 28.345219 Z M 3.031031 28.345219 " transform="matrix(1, 0, 0, -1, 4.176, 32.271)"/>
<path fill-rule="nonzero" fill="rgb(100%, 100%, 100%)" fill-opacity="1" stroke-width="0.3985" stroke-linecap="butt" stroke-linejoin="miter" stroke="rgb(0%, 0%, 0%)" stroke-opacity="1" stroke-miterlimit="10" d="M 31.378688 28.345219 C 31.378688 30.021 30.023219 31.380375 28.347438 31.380375 C 26.671656 31.380375 25.312281 30.021 25.312281 28.345219 C 25.312281 26.673344 26.671656 25.313969 28.347438 25.313969 C 30.023219 25.313969 31.378688 26.673344 31.378688 28.345219 Z M 31.378688 28.345219 " transform="matrix(1, 0, 0, -1, 4.176, 32.271)"/>
<path fill-rule="nonzero" fill="rgb(100%, 100%, 100%)" fill-opacity="1" stroke-width="0.3985" stroke-linecap="butt" stroke-linejoin="miter" stroke="rgb(0%, 0%, 0%)" stroke-opacity="1" stroke-miterlimit="10" d="M 3.031031 0.00146875 C 3.031031 1.673344 1.675563 3.032719 -0.00021875 3.032719 C -1.676 3.032719 -3.031469 1.673344 -3.031469 0.00146875 C -3.031469 -1.674313 -1.676 -3.033688 -0.00021875 -3.033688 C 1.675563 -3.033688 3.031031 -1.674313 3.031031 0.00146875 Z M 3.031031 0.00146875 " transform="matrix(1, 0, 0, -1, 4.176, 32.271)"/>
<path fill-rule="nonzero" fill="rgb(100%, 100%, 100%)" fill-opacity="1" stroke-width="0.3985" stroke-linecap="butt" stroke-linejoin="miter" stroke="rgb(0%, 0%, 0%)" stroke-opacity="1" stroke-miterlimit="10" d="M 31.378688 0.00146875 C 31.378688 1.673344 30.023219 3.032719 28.347438 3.032719 C 26.671656 3.032719 25.312281 1.673344 25.312281 0.00146875 C 25.312281 -1.674313 26.671656 -3.033688 28.347438 -3.033688 C 30.023219 -3.033688 31.378688 -1.674313 31.378688 0.00146875 Z M 31.378688 0.00146875 " transform="matrix(1, 0, 0, -1, 4.176, 32.271)"/>
<path fill-rule="nonzero" fill="rgb(100%, 100%, 100%)" fill-opacity="1" stroke-width="0.3985" stroke-linecap="butt" stroke-linejoin="miter" stroke="rgb(0%, 0%, 0%)" stroke-opacity="1" stroke-miterlimit="10" d="M 59.726344 28.345219 C 59.726344 30.021 58.366969 31.380375 56.695094 31.380375 C 55.019313 31.380375 53.659938 30.021 53.659938 28.345219 C 53.659938 26.673344 55.019313 25.313969 56.695094 25.313969 C 58.366969 25.313969 59.726344 26.673344 59.726344 28.345219 Z M 59.726344 28.345219 " transform="matrix(1, 0, 0, -1, 4.176, 32.271)"/>
<path fill-rule="nonzero" fill="rgb(100%, 100%, 100%)" fill-opacity="1" stroke-width="0.3985" stroke-linecap="butt" stroke-linejoin="miter" stroke="rgb(0%, 0%, 0%)" stroke-opacity="1" stroke-miterlimit="10" d="M 88.074 28.345219 C 88.074 30.021 86.714625 31.380375 85.038844 31.380375 C 83.366969 31.380375 82.007594 30.021 82.007594 28.345219 C 82.007594 26.673344 83.366969 25.313969 85.038844 25.313969 C 86.714625 25.313969 88.074 26.673344 88.074 28.345219 Z M 88.074 28.345219 " transform="matrix(1, 0, 0, -1, 4.176, 32.271)"/>
<path fill-rule="nonzero" fill="rgb(100%, 100%, 100%)" fill-opacity="1" stroke-width="0.3985" stroke-linecap="butt" stroke-linejoin="miter" stroke="rgb(0%, 0%, 0%)" stroke-opacity="1" stroke-miterlimit="10" d="M 59.726344 0.00146875 C 59.726344 1.673344 58.366969 3.032719 56.695094 3.032719 C 55.019313 3.032719 53.659938 1.673344 53.659938 0.00146875 C 53.659938 -1.674313 55.019313 -3.033688 56.695094 -3.033688 C 58.366969 -3.033688 59.726344 -1.674313 59.726344 0.00146875 Z M 59.726344 0.00146875 " transform="matrix(1, 0, 0, -1, 4.176, 32.271)"/>
<path fill-rule="nonzero" fill="rgb(100%, 100%, 100%)" fill-opacity="1" stroke-width="0.3985" stroke-linecap="butt" stroke-linejoin="miter" stroke="rgb(0%, 0%, 0%)" stroke-opacity="1" stroke-miterlimit="10" d="M 88.074 0.00146875 C 88.074 1.673344 86.714625 3.032719 85.038844 3.032719 C 83.366969 3.032719 82.007594 1.673344 82.007594 0.00146875 C 82.007594 -1.674313 83.366969 -3.033688 85.038844 -3.033688 C 86.714625 -3.033688 88.074 -1.674313 88.074 0.00146875 Z M 88.074 0.00146875 " transform="matrix(1, 0, 0, -1, 4.176, 32.271)"/>
<path fill-rule="nonzero" fill="rgb(100%, 100%, 100%)" fill-opacity="1" stroke-width="0.3985" stroke-linecap="butt" stroke-linejoin="miter" stroke="rgb(0%, 0%, 0%)" stroke-opacity="1" stroke-miterlimit="10" d="M 116.421656 28.345219 C 116.421656 30.021 115.062281 31.380375 113.3865 31.380375 C 111.710719 31.380375 110.35525 30.021 110.35525 28.345219 C 110.35525 26.673344 111.710719 25.313969 113.3865 25.313969 C 115.062281 25.313969 116.421656 26.673344 116.421656 28.345219 Z M 116.421656 28.345219 " transform="matrix(1, 0, 0, -1, 4.176, 32.271)"/>
<path fill-rule="nonzero" fill="rgb(100%, 100%, 100%)" fill-opacity="1" stroke-width="0.3985" stroke-linecap="butt" stroke-linejoin="miter" stroke="rgb(0%, 0%, 0%)" stroke-opacity="1" stroke-miterlimit="10" d="M 144.765406 28.345219 C 144.765406 30.021 143.409938 31.380375 141.734156 31.380375 C 140.058375 31.380375 138.702906 30.021 138.702906 28.345219 C 138.702906 26.673344 140.058375 25.313969 141.734156 25.313969 C 143.409938 25.313969 144.765406 26.673344 144.765406 28.345219 Z M 144.765406 28.345219 " transform="matrix(1, 0, 0, -1, 4.176, 32.271)"/>
<path fill-rule="nonzero" fill="rgb(100%, 100%, 100%)" fill-opacity="1" stroke-width="0.3985" stroke-linecap="butt" stroke-linejoin="miter" stroke="rgb(0%, 0%, 0%)" stroke-opacity="1" stroke-miterlimit="10" d="M 116.421656 0.00146875 C 116.421656 1.673344 115.062281 3.032719 113.3865 3.032719 C 111.710719 3.032719 110.35525 1.673344 110.35525 0.00146875 C 110.35525 -1.674313 111.710719 -3.033688 113.3865 -3.033688 C 115.062281 -3.033688 116.421656 -1.674313 116.421656 0.00146875 Z M 116.421656 0.00146875 " transform="matrix(1, 0, 0, -1, 4.176, 32.271)"/>
<path fill-rule="nonzero" fill="rgb(100%, 100%, 100%)" fill-opacity="1" stroke-width="0.3985" stroke-linecap="butt" stroke-linejoin="miter" stroke="rgb(0%, 0%, 0%)" stroke-opacity="1" stroke-miterlimit="10" d="M 144.765406 0.00146875 C 144.765406 1.673344 143.409938 3.032719 141.734156 3.032719 C 140.058375 3.032719 138.702906 1.673344 138.702906 0.00146875 C 138.702906 -1.674313 140.058375 -3.033688 141.734156 -3.033688 C 143.409938 -3.033688 144.765406 -1.674313 144.765406 0.00146875 Z M 144.765406 0.00146875 " transform="matrix(1, 0, 0, -1, 4.176, 32.271)"/>
<path fill-rule="nonzero" fill="rgb(100%, 100%, 100%)" fill-opacity="1" stroke-width="0.3985" stroke-linecap="butt" stroke-linejoin="miter" stroke="rgb(0%, 0%, 0%)" stroke-opacity="1" stroke-miterlimit="10" d="M 173.113063 28.345219 C 173.113063 30.021 171.757594 31.380375 170.081813 31.380375 C 168.406031 31.380375 167.046656 30.021 167.046656 28.345219 C 167.046656 26.673344 168.406031 25.313969 170.081813 25.313969 C 171.757594 25.313969 173.113063 26.673344 173.113063 28.345219 Z M 173.113063 28.345219 " transform="matrix(1, 0, 0, -1, 4.176, 32.271)"/>
<path fill-rule="nonzero" fill="rgb(100%, 100%, 100%)" fill-opacity="1" stroke-width="0.3985" stroke-linecap="butt" stroke-linejoin="miter" stroke="rgb(0%, 0%, 0%)" stroke-opacity="1" stroke-miterlimit="10" d="M 201.460719 28.345219 C 201.460719 30.021 200.101344 31.380375 198.429469 31.380375 C 196.753688 31.380375 195.394313 30.021 195.394313 28.345219 C 195.394313 26.673344 196.753688 25.313969 198.429469 25.313969 C 200.101344 25.313969 201.460719 26.673344 201.460719 28.345219 Z M 201.460719 28.345219 " transform="matrix(1, 0, 0, -1, 4.176, 32.271)"/>
<path fill-rule="nonzero" fill="rgb(100%, 100%, 100%)" fill-opacity="1" stroke-width="0.3985" stroke-linecap="butt" stroke-linejoin="miter" stroke="rgb(0%, 0%, 0%)" stroke-opacity="1" stroke-miterlimit="10" d="M 173.113063 0.00146875 C 173.113063 1.673344 171.757594 3.032719 170.081813 3.032719 C 168.406031 3.032719 167.046656 1.673344 167.046656 0.00146875 C 167.046656 -1.674313 168.406031 -3.033688 170.081813 -3.033688 C 171.757594 -3.033688 173.113063 -1.674313 173.113063 0.00146875 Z M 173.113063 0.00146875 " transform="matrix(1, 0, 0, -1, 4.176, 32.271)"/>
<path fill-rule="nonzero" fill="rgb(100%, 100%, 100%)" fill-opacity="1" stroke-width="0.3985" stroke-linecap="butt" stroke-linejoin="miter" stroke="rgb(0%, 0%, 0%)" stroke-opacity="1" stroke-miterlimit="10" d="M 201.460719 0.00146875 C 201.460719 1.673344 200.101344 3.032719 198.429469 3.032719 C 196.753688 3.032719 195.394313 1.673344 195.394313 0.00146875 C 195.394313 -1.674313 196.753688 -3.033688 198.429469 -3.033688 C 200.101344 -3.033688 201.460719 -1.674313 201.460719 0.00146875 Z M 201.460719 0.00146875 " transform="matrix(1, 0, 0, -1, 4.176, 32.271)"/>
<path fill-rule="nonzero" fill="rgb(100%, 100%, 100%)" fill-opacity="1" stroke-width="0.3985" stroke-linecap="butt" stroke-linejoin="miter" stroke="rgb(0%, 0%, 0%)" stroke-opacity="1" stroke-miterlimit="10" d="M 229.808375 28.345219 C 229.808375 30.021 228.449 31.380375 226.773219 31.380375 C 225.101344 31.380375 223.741969 30.021 223.741969 28.345219 C 223.741969 26.673344 225.101344 25.313969 226.773219 25.313969 C 228.449 25.313969 229.808375 26.673344 229.808375 28.345219 Z M 229.808375 28.345219 " transform="matrix(1, 0, 0, -1, 4.176, 32.271)"/>
<path fill-rule="nonzero" fill="rgb(100%, 100%, 100%)" fill-opacity="1" stroke-width="0.3985" stroke-linecap="butt" stroke-linejoin="miter" stroke="rgb(0%, 0%, 0%)" stroke-opacity="1" stroke-miterlimit="10" d="M 258.152125 28.345219 C 258.152125 30.021 256.796656 31.380375 255.120875 31.380375 C 253.445094 31.380375 252.089625 30.021 252.089625 28.345219 C 252.089625 26.673344 253.445094 25.313969 255.120875 25.313969 C 256.796656 25.313969 258.152125 26.673344 258.152125 28.345219 Z M 258.152125 28.345219 " transform="matrix(1, 0, 0, -1, 4.176, 32.271)"/>
<path fill-rule="nonzero" fill="rgb(100%, 100%, 100%)" fill-opacity="1" stroke-width="0.3985" stroke-linecap="butt" stroke-linejoin="miter" stroke="rgb(0%, 0%, 0%)" stroke-opacity="1" stroke-miterlimit="10" d="M 229.808375 0.00146875 C 229.808375 1.673344 228.449 3.032719 226.773219 3.032719 C 225.101344 3.032719 223.741969 1.673344 223.741969 0.00146875 C 223.741969 -1.674313 225.101344 -3.033688 226.773219 -3.033688 C 228.449 -3.033688 229.808375 -1.674313 229.808375 0.00146875 Z M 229.808375 0.00146875 " transform="matrix(1, 0, 0, -1, 4.176, 32.271)"/>
<path fill-rule="nonzero" fill="rgb(100%, 100%, 100%)" fill-opacity="1" stroke-width="0.3985" stroke-linecap="butt" stroke-linejoin="miter" stroke="rgb(0%, 0%, 0%)" stroke-opacity="1" stroke-miterlimit="10" d="M 258.152125 0.00146875 C 258.152125 1.673344 256.796656 3.032719 255.120875 3.032719 C 253.445094 3.032719 252.089625 1.673344 252.089625 0.00146875 C 252.089625 -1.674313 253.445094 -3.033688 255.120875 -3.033688 C 256.796656 -3.033688 258.152125 -1.674313 258.152125 0.00146875 Z M 258.152125 0.00146875 " transform="matrix(1, 0, 0, -1, 4.176, 32.271)"/>
<path fill-rule="nonzero" fill="rgb(100%, 100%, 100%)" fill-opacity="1" stroke-width="0.3985" stroke-linecap="butt" stroke-linejoin="miter" stroke="rgb(0%, 0%, 0%)" stroke-opacity="1" stroke-miterlimit="10" d="M 286.499781 28.345219 C 286.499781 30.021 285.144313 31.380375 283.468531 31.380375 C 281.79275 31.380375 280.437281 30.021 280.437281 28.345219 C 280.437281 26.673344 281.79275 25.313969 283.468531 25.313969 C 285.144313 25.313969 286.499781 26.673344 286.499781 28.345219 Z M 286.499781 28.345219 " transform="matrix(1, 0, 0, -1, 4.176, 32.271)"/>
<path fill-rule="nonzero" fill="rgb(100%, 100%, 100%)" fill-opacity="1" stroke-width="0.3985" stroke-linecap="butt" stroke-linejoin="miter" stroke="rgb(0%, 0%, 0%)" stroke-opacity="1" stroke-miterlimit="10" d="M 314.847438 28.345219 C 314.847438 30.021 313.488063 31.380375 311.816188 31.380375 C 310.140406 31.380375 308.781031 30.021 308.781031 28.345219 C 308.781031 26.673344 310.140406 25.313969 311.816188 25.313969 C 313.488063 25.313969 314.847438 26.673344 314.847438 28.345219 Z M 314.847438 28.345219 " transform="matrix(1, 0, 0, -1, 4.176, 32.271)"/>
<path fill-rule="nonzero" fill="rgb(100%, 100%, 100%)" fill-opacity="1" stroke-width="0.3985" stroke-linecap="butt" stroke-linejoin="miter" stroke="rgb(0%, 0%, 0%)" stroke-opacity="1" stroke-miterlimit="10" d="M 286.499781 0.00146875 C 286.499781 1.673344 285.144313 3.032719 283.468531 3.032719 C 281.79275 3.032719 280.437281 1.673344 280.437281 0.00146875 C 280.437281 -1.674313 281.79275 -3.033688 283.468531 -3.033688 C 285.144313 -3.033688 286.499781 -1.674313 286.499781 0.00146875 Z M 286.499781 0.00146875 " transform="matrix(1, 0, 0, -1, 4.176, 32.271)"/>
<path fill-rule="nonzero" fill="rgb(100%, 100%, 100%)" fill-opacity="1" stroke-width="0.3985" stroke-linecap="butt" stroke-linejoin="miter" stroke="rgb(0%, 0%, 0%)" stroke-opacity="1" stroke-miterlimit="10" d="M 314.847438 0.00146875 C 314.847438 1.673344 313.488063 3.032719 311.816188 3.032719 C 310.140406 3.032719 308.781031 1.673344 308.781031 0.00146875 C 308.781031 -1.674313 310.140406 -3.033688 311.816188 -3.033688 C 313.488063 -3.033688 314.847438 -1.674313 314.847438 0.00146875 Z M 314.847438 0.00146875 " transform="matrix(1, 0, 0, -1, 4.176, 32.271)"/>
<path fill-rule="nonzero" fill="rgb(100%, 100%, 100%)" fill-opacity="1" stroke-width="0.3985" stroke-linecap="butt" stroke-linejoin="miter" stroke="rgb(0%, 0%, 0%)" stroke-opacity="1" stroke-miterlimit="10" d="M 343.195094 28.345219 C 343.195094 30.021 341.835719 31.380375 340.159938 31.380375 C 338.488063 31.380375 337.128688 30.021 337.128688 28.345219 C 337.128688 26.673344 338.488063 25.313969 340.159938 25.313969 C 341.835719 25.313969 343.195094 26.673344 343.195094 28.345219 Z M 343.195094 28.345219 " transform="matrix(1, 0, 0, -1, 4.176, 32.271)"/>
<path fill-rule="nonzero" fill="rgb(100%, 100%, 100%)" fill-opacity="1" stroke-width="0.3985" stroke-linecap="butt" stroke-linejoin="miter" stroke="rgb(0%, 0%, 0%)" stroke-opacity="1" stroke-miterlimit="10" d="M 371.54275 28.345219 C 371.54275 30.021 370.183375 31.380375 368.507594 31.380375 C 366.831813 31.380375 365.476344 30.021 365.476344 28.345219 C 365.476344 26.673344 366.831813 25.313969 368.507594 25.313969 C 370.183375 25.313969 371.54275 26.673344 371.54275 28.345219 Z M 371.54275 28.345219 " transform="matrix(1, 0, 0, -1, 4.176, 32.271)"/>
<path fill-rule="nonzero" fill="rgb(100%, 100%, 100%)" fill-opacity="1" stroke-width="0.3985" stroke-linecap="butt" stroke-linejoin="miter" stroke="rgb(0%, 0%, 0%)" stroke-opacity="1" stroke-miterlimit="10" d="M 343.195094 0.00146875 C 343.195094 1.673344 341.835719 3.032719 340.159938 3.032719 C 338.488063 3.032719 337.128688 1.673344 337.128688 0.00146875 C 337.128688 -1.674313 338.488063 -3.033688 340.159938 -3.033688 C 341.835719 -3.033688 343.195094 -1.674313 343.195094 0.00146875 Z M 343.195094 0.00146875 " transform="matrix(1, 0, 0, -1, 4.176, 32.271)"/>
<path fill-rule="nonzero" fill="rgb(100%, 100%, 100%)" fill-opacity="1" stroke-width="0.3985" stroke-linecap="butt" stroke-linejoin="miter" stroke="rgb(0%, 0%, 0%)" stroke-opacity="1" stroke-miterlimit="10" d="M 371.54275 0.00146875 C 371.54275 1.673344 370.183375 3.032719 368.507594 3.032719 C 366.831813 3.032719 365.476344 1.673344 365.476344 0.00146875 C 365.476344 -1.674313 366.831813 -3.033688 368.507594 -3.033688 C 370.183375 -3.033688 371.54275 -1.674313 371.54275 0.00146875 Z M 371.54275 0.00146875 " transform="matrix(1, 0, 0, -1, 4.176, 32.271)"/>
<path fill-rule="nonzero" fill="rgb(100%, 100%, 100%)" fill-opacity="1" stroke-width="0.3985" stroke-linecap="butt" stroke-linejoin="miter" stroke="rgb(0%, 0%, 0%)" stroke-opacity="1" stroke-miterlimit="10" d="M 399.8865 28.345219 C 399.8865 30.021 398.531031 31.380375 396.85525 31.380375 C 395.179469 31.380375 393.824 30.021 393.824 28.345219 C 393.824 26.673344 395.179469 25.313969 396.85525 25.313969 C 398.531031 25.313969 399.8865 26.673344 399.8865 28.345219 Z M 399.8865 28.345219 " transform="matrix(1, 0, 0, -1, 4.176, 32.271)"/>
<path fill-rule="nonzero" fill="rgb(100%, 100%, 100%)" fill-opacity="1" stroke-width="0.3985" stroke-linecap="butt" stroke-linejoin="miter" stroke="rgb(0%, 0%, 0%)" stroke-opacity="1" stroke-miterlimit="10" d="M 428.234156 28.345219 C 428.234156 30.021 426.878688 31.380375 425.202906 31.380375 C 423.527125 31.380375 422.16775 30.021 422.16775 28.345219 C 422.16775 26.673344 423.527125 25.313969 425.202906 25.313969 C 426.878688 25.313969 428.234156 26.673344 428.234156 28.345219 Z M 428.234156 28.345219 " transform="matrix(1, 0, 0, -1, 4.176, 32.271)"/>
<path fill-rule="nonzero" fill="rgb(100%, 100%, 100%)" fill-opacity="1" stroke-width="0.3985" stroke-linecap="butt" stroke-linejoin="miter" stroke="rgb(0%, 0%, 0%)" stroke-opacity="1" stroke-miterlimit="10" d="M 399.8865 0.00146875 C 399.8865 1.673344 398.531031 3.032719 396.85525 3.032719 C 395.179469 3.032719 393.824 1.673344 393.824 0.00146875 C 393.824 -1.674313 395.179469 -3.033688 396.85525 -3.033688 C 398.531031 -3.033688 399.8865 -1.674313 399.8865 0.00146875 Z M 399.8865 0.00146875 " transform="matrix(1, 0, 0, -1, 4.176, 32.271)"/>
<path fill-rule="nonzero" fill="rgb(100%, 100%, 100%)" fill-opacity="1" stroke-width="0.3985" stroke-linecap="butt" stroke-linejoin="miter" stroke="rgb(0%, 0%, 0%)" stroke-opacity="1" stroke-miterlimit="10" d="M 428.234156 0.00146875 C 428.234156 1.673344 426.878688 3.032719 425.202906 3.032719 C 423.527125 3.032719 422.16775 1.673344 422.16775 0.00146875 C 422.16775 -1.674313 423.527125 -3.033688 425.202906 -3.033688 C 426.878688 -3.033688 428.234156 -1.674313 428.234156 0.00146875 Z M 428.234156 0.00146875 " transform="matrix(1, 0, 0, -1, 4.176, 32.271)"/>
<path fill="none" stroke-width="1.19553" stroke-linecap="butt" stroke-linejoin="miter" stroke="rgb(0%, 0%, 0%)" stroke-opacity="1" stroke-miterlimit="10" d="M 3.23025 28.345219 L 25.113063 28.345219 " transform="matrix(1, 0, 0, -1, 4.176, 32.271)"/>
<path fill="none" stroke-width="1.19553" stroke-linecap="butt" stroke-linejoin="miter" stroke="rgb(0%, 0%, 0%)" stroke-opacity="1" stroke-miterlimit="10" d="M 28.347438 25.11475 L 28.347438 3.231937 " transform="matrix(1, 0, 0, -1, 4.176, 32.271)"/>
<path fill="none" stroke-width="1.19553" stroke-linecap="butt" stroke-linejoin="miter" stroke="rgb(0%, 0%, 0%)" stroke-opacity="1" stroke-miterlimit="10" d="M 25.113063 0.00146875 L 3.23025 0.00146875 " transform="matrix(1, 0, 0, -1, 4.176, 32.271)"/>
<path fill="none" stroke-width="1.19553" stroke-linecap="butt" stroke-linejoin="miter" stroke="rgb(0%, 0%, 0%)" stroke-opacity="1" stroke-miterlimit="10" d="M -0.00021875 3.231937 L -0.00021875 25.11475 " transform="matrix(1, 0, 0, -1, 4.176, 32.271)"/>
<path fill="none" stroke-width="1.19553" stroke-linecap="butt" stroke-linejoin="miter" stroke="rgb(0%, 0%, 0%)" stroke-opacity="1" stroke-miterlimit="10" d="M 59.925563 28.345219 L 81.808375 28.345219 " transform="matrix(1, 0, 0, -1, 4.176, 32.271)"/>
<path fill="none" stroke-width="1.19553" stroke-linecap="butt" stroke-linejoin="miter" stroke="rgb(0%, 0%, 0%)" stroke-opacity="1" stroke-miterlimit="10" d="M 81.808375 0.00146875 L 59.925563 0.00146875 " transform="matrix(1, 0, 0, -1, 4.176, 32.271)"/>
<path fill="none" stroke-width="1.19553" stroke-linecap="butt" stroke-linejoin="miter" stroke="rgb(0%, 0%, 0%)" stroke-opacity="1" stroke-miterlimit="10" d="M 56.695094 3.231937 L 56.695094 25.11475 " transform="matrix(1, 0, 0, -1, 4.176, 32.271)"/>
<path fill="none" stroke-width="1.19553" stroke-linecap="butt" stroke-linejoin="miter" stroke="rgb(0%, 0%, 0%)" stroke-opacity="1" stroke-miterlimit="10" d="M 141.734156 3.231937 L 141.734156 25.11475 " transform="matrix(1, 0, 0, -1, 4.176, 32.271)"/>
<path fill="none" stroke-width="1.19553" stroke-linecap="butt" stroke-linejoin="miter" stroke="rgb(0%, 0%, 0%)" stroke-opacity="1" stroke-miterlimit="10" d="M 139.449 2.286625 L 115.671656 26.060062 " transform="matrix(1, 0, 0, -1, 4.176, 32.271)"/>
<path fill="none" stroke-width="1.19553" stroke-linecap="butt" stroke-linejoin="miter" stroke="rgb(0%, 0%, 0%)" stroke-opacity="1" stroke-miterlimit="10" d="M 138.503688 0.00146875 L 116.620875 0.00146875 " transform="matrix(1, 0, 0, -1, 4.176, 32.271)"/>
<path fill="none" stroke-width="1.19553" stroke-linecap="butt" stroke-linejoin="miter" stroke="rgb(0%, 0%, 0%)" stroke-opacity="1" stroke-miterlimit="10" d="M 173.312281 28.345219 L 195.195094 28.345219 " transform="matrix(1, 0, 0, -1, 4.176, 32.271)"/>
<path fill="none" stroke-width="1.19553" stroke-linecap="butt" stroke-linejoin="miter" stroke="rgb(0%, 0%, 0%)" stroke-opacity="1" stroke-miterlimit="10" d="M 196.144313 26.060062 L 172.366969 2.286625 " transform="matrix(1, 0, 0, -1, 4.176, 32.271)"/>
<path fill="none" stroke-width="1.19553" stroke-linecap="butt" stroke-linejoin="miter" stroke="rgb(0%, 0%, 0%)" stroke-opacity="1" stroke-miterlimit="10" d="M 173.312281 0.00146875 L 195.195094 0.00146875 " transform="matrix(1, 0, 0, -1, 4.176, 32.271)"/>
<path fill="none" stroke-width="1.19553" stroke-linecap="butt" stroke-linejoin="miter" stroke="rgb(0%, 0%, 0%)" stroke-opacity="1" stroke-miterlimit="10" d="M 196.144313 2.286625 L 172.366969 26.060062 " transform="matrix(1, 0, 0, -1, 4.176, 32.271)"/>
<path fill="none" stroke-width="1.19553" stroke-linecap="butt" stroke-linejoin="miter" stroke="rgb(0%, 0%, 0%)" stroke-opacity="1" stroke-miterlimit="10" d="M 230.007594 28.345219 L 251.890406 28.345219 " transform="matrix(1, 0, 0, -1, 4.176, 32.271)"/>
<path fill="none" stroke-width="1.19553" stroke-linecap="butt" stroke-linejoin="miter" stroke="rgb(0%, 0%, 0%)" stroke-opacity="1" stroke-miterlimit="10" d="M 226.773219 25.11475 L 226.773219 3.231937 " transform="matrix(1, 0, 0, -1, 4.176, 32.271)"/>
<path fill="none" stroke-width="1.19553" stroke-linecap="butt" stroke-linejoin="miter" stroke="rgb(0%, 0%, 0%)" stroke-opacity="1" stroke-miterlimit="10" d="M 229.058375 26.060062 L 252.835719 2.286625 " transform="matrix(1, 0, 0, -1, 4.176, 32.271)"/>
<path fill="none" stroke-width="1.19553" stroke-linecap="butt" stroke-linejoin="miter" stroke="rgb(0%, 0%, 0%)" stroke-opacity="1" stroke-miterlimit="10" d="M 286.699 28.345219 L 308.581813 28.345219 " transform="matrix(1, 0, 0, -1, 4.176, 32.271)"/>
<path fill="none" stroke-width="1.19553" stroke-linecap="butt" stroke-linejoin="miter" stroke="rgb(0%, 0%, 0%)" stroke-opacity="1" stroke-miterlimit="10" d="M 285.753688 26.060062 L 309.531031 2.286625 " transform="matrix(1, 0, 0, -1, 4.176, 32.271)"/>
<path fill="none" stroke-width="1.19553" stroke-linecap="butt" stroke-linejoin="miter" stroke="rgb(0%, 0%, 0%)" stroke-opacity="1" stroke-miterlimit="10" d="M 309.531031 26.060062 L 285.753688 2.286625 " transform="matrix(1, 0, 0, -1, 4.176, 32.271)"/>
<path fill="none" stroke-width="1.19553" stroke-linecap="butt" stroke-linejoin="miter" stroke="rgb(0%, 0%, 0%)" stroke-opacity="1" stroke-miterlimit="10" d="M 340.159938 25.11475 L 340.159938 3.231937 " transform="matrix(1, 0, 0, -1, 4.176, 32.271)"/>
<path fill="none" stroke-width="1.19553" stroke-linecap="butt" stroke-linejoin="miter" stroke="rgb(0%, 0%, 0%)" stroke-opacity="1" stroke-miterlimit="10" d="M 342.445094 2.286625 L 366.222438 26.060062 " transform="matrix(1, 0, 0, -1, 4.176, 32.271)"/>
<path fill="none" stroke-width="1.19553" stroke-linecap="butt" stroke-linejoin="miter" stroke="rgb(0%, 0%, 0%)" stroke-opacity="1" stroke-miterlimit="10" d="M 368.507594 25.11475 L 368.507594 3.231937 " transform="matrix(1, 0, 0, -1, 4.176, 32.271)"/>
<path fill="none" stroke-width="1.19553" stroke-linecap="butt" stroke-linejoin="miter" stroke="rgb(0%, 0%, 0%)" stroke-opacity="1" stroke-miterlimit="10" d="M 396.85525 25.11475 L 396.85525 3.231937 " transform="matrix(1, 0, 0, -1, 4.176, 32.271)"/>
<path fill="none" stroke-width="1.19553" stroke-linecap="butt" stroke-linejoin="miter" stroke="rgb(0%, 0%, 0%)" stroke-opacity="1" stroke-miterlimit="10" d="M 422.91775 26.060062 L 399.140406 2.286625 " transform="matrix(1, 0, 0, -1, 4.176, 32.271)"/>
<path fill="none" stroke-width="1.19553" stroke-linecap="butt" stroke-linejoin="miter" stroke="rgb(0%, 0%, 0%)" stroke-opacity="1" stroke-miterlimit="10" d="M 425.202906 25.11475 L 425.202906 3.231937 " transform="matrix(1, 0, 0, -1, 4.176, 32.271)"/>
<path fill="none" stroke-width="1.19553" stroke-linecap="butt" stroke-linejoin="miter" stroke="rgb(0%, 0%, 0%)" stroke-opacity="1" stroke-miterlimit="10" d="M 400.085719 0.00146875 L 421.968531 0.00146875 " transform="matrix(1, 0, 0, -1, 4.176, 32.271)"/>
</svg>
