<?xml version="1.0" encoding="UTF-8"?>
<svg xmlns="http://www.w3.org/2000/svg" xmlns:xlink="http://www.w3.org/1999/xlink" width="70pt" height="62pt" viewBox="0 0 70 62" version="1.1">
<g id="surface1">
<path style="fill:none;stroke-width:1.19553;stroke-linecap:butt;stroke-linejoin:miter;stroke:rgb(0%,0%,0%);stroke-opacity:1;stroke-miterlimit:10;" d="M 19.316844 24.549031 C 19.316844 27.388875 17.012156 29.689656 14.172313 29.689656 C 11.332469 29.689656 9.031688 27.388875 9.031688 24.549031 C 9.031688 21.709187 11.332469 19.408406 14.172313 19.408406 C 17.012156 19.408406 19.316844 21.709187 19.316844 24.549031 Z M 19.316844 24.549031 " transform="matrix(1,0,0,-1,35.023,31.092)"/>
<path style="fill:none;stroke-width:1.19553;stroke-linecap:butt;stroke-linejoin:miter;stroke:rgb(0%,0%,0%);stroke-opacity:1;stroke-miterlimit:10;" d="M -9.030812 24.549031 C -9.030812 27.388875 -11.331594 29.689656 -14.171437 29.689656 C -17.015187 29.689656 -19.315969 27.388875 -19.315969 24.549031 C -19.315969 21.709187 -17.015187 19.408406 -14.171437 19.408406 C -11.331594 19.408406 -9.030812 21.709187 -9.030812 24.549031 Z M -9.030812 24.549031 " transform="matrix(1,0,0,-1,35.023,31.092)"/>
<path style="fill:none;stroke-width:1.19553;stroke-linecap:butt;stroke-linejoin:miter;stroke:rgb(0%,0%,0%);stroke-opacity:1;stroke-miterlimit:10;" d="M -23.202687 -0.00175 C -23.202687 2.842 -25.507375 5.142781 -28.347219 5.142781 C -31.187062 5.142781 -33.487844 2.842 -33.487844 -0.00175 C -33.487844 -2.841594 -31.187062 -5.142375 -28.347219 -5.142375 C -25.507375 -5.142375 -23.202687 -2.841594 -23.202687 -0.00175 Z M -23.202687 -0.00175 " transform="matrix(1,0,0,-1,35.023,31.092)"/>
<path style="fill:none;stroke-width:1.19553;stroke-linecap:butt;stroke-linejoin:miter;stroke:rgb(0%,0%,0%);stroke-opacity:1;stroke-miterlimit:10;" d="M -9.030812 -24.548625 C -9.030812 -21.708781 -11.331594 -19.408 -14.171437 -19.408 C -17.015187 -19.408 -19.315969 -21.708781 -19.315969 -24.548625 C -19.315969 -27.388469 -17.015187 -29.693156 -14.171437 -29.693156 C -11.331594 -29.693156 -9.030812 -27.388469 -9.030812 -24.548625 Z M -9.030812 -24.548625 " transform="matrix(1,0,0,-1,35.023,31.092)"/>
<path style="fill:none;stroke-width:1.19553;stroke-linecap:butt;stroke-linejoin:miter;stroke:rgb(0%,0%,0%);stroke-opacity:1;stroke-miterlimit:10;" d="M 19.316844 -24.548625 C 19.316844 -21.708781 17.012156 -19.408 14.172313 -19.408 C 11.332469 -19.408 9.031688 -21.708781 9.031688 -24.548625 C 9.031688 -27.388469 11.332469 -29.693156 14.172313 -29.693156 C 17.012156 -29.693156 19.316844 -27.388469 19.316844 -24.548625 Z M 19.316844 -24.548625 " transform="matrix(1,0,0,-1,35.023,31.092)"/>
<path style="fill:none;stroke-width:1.19553;stroke-linecap:butt;stroke-linejoin:miter;stroke:rgb(0%,0%,0%);stroke-opacity:1;stroke-miterlimit:10;" d="M 33.488719 -0.00175 C 33.488719 2.842 31.187938 5.142781 28.348094 5.142781 C 25.50825 5.142781 23.203563 2.842 23.203563 -0.00175 C 23.203563 -2.841594 25.50825 -5.142375 28.348094 -5.142375 C 31.187938 -5.142375 33.488719 -2.841594 33.488719 -0.00175 Z M 33.488719 -0.00175 " transform="matrix(1,0,0,-1,35.023,31.092)"/>
<path style="fill:none;stroke-width:1.19553;stroke-linecap:butt;stroke-linejoin:miter;stroke:rgb(0%,0%,0%);stroke-opacity:1;stroke-miterlimit:10;" d="M 8.434031 24.549031 L -8.433156 24.549031 " transform="matrix(1,0,0,-1,35.023,31.092)"/>
<path style="fill:none;stroke-width:1.19553;stroke-linecap:butt;stroke-linejoin:miter;stroke:rgb(0%,0%,0%);stroke-opacity:1;stroke-miterlimit:10;" d="M -17.042531 19.576375 L -25.476125 4.970906 " transform="matrix(1,0,0,-1,35.023,31.092)"/>
<path style="fill:none;stroke-width:1.19553;stroke-linecap:butt;stroke-linejoin:miter;stroke:rgb(0%,0%,0%);stroke-opacity:1;stroke-miterlimit:10;" d="M -25.476125 -4.9705 L -17.042531 -19.579875 " transform="matrix(1,0,0,-1,35.023,31.092)"/>
<path style="fill:none;stroke-width:1.19553;stroke-linecap:butt;stroke-linejoin:miter;stroke:rgb(0%,0%,0%);stroke-opacity:1;stroke-miterlimit:10;" d="M -8.433156 -24.548625 L 8.434031 -24.548625 " transform="matrix(1,0,0,-1,35.023,31.092)"/>
<path style="fill:none;stroke-width:1.19553;stroke-linecap:butt;stroke-linejoin:miter;stroke:rgb(0%,0%,0%);stroke-opacity:1;stroke-miterlimit:10;" d="M 17.043406 -19.579875 L 25.477 -4.9705 " transform="matrix(1,0,0,-1,35.023,31.092)"/>
<path style="fill:none;stroke-width:1.19553;stroke-linecap:butt;stroke-linejoin:miter;stroke:rgb(0%,0%,0%);stroke-opacity:1;stroke-miterlimit:10;" d="M 25.477 4.970906 L 17.043406 19.576375 " transform="matrix(1,0,0,-1,35.023,31.092)"/>
</g>
</svg>
