<?xml version="1.0" encoding="UTF-8"?>
<svg xmlns="http://www.w3.org/2000/svg" xmlns:xlink="http://www.w3.org/1999/xlink" width="41pt" height="69pt" viewBox="0 0 41 69" version="1.1">
<g id="surface1">
<path style="fill:none;stroke-width:1.19553;stroke-linecap:butt;stroke-linejoin:miter;stroke:rgb(0%,0%,0%);stroke-opacity:1;stroke-miterlimit:10;" d="M 33.490969 56.693031 C 33.490969 59.532875 31.186281 61.837562 28.346438 61.837562 C 25.506594 61.837562 23.205813 59.532875 23.205813 56.693031 C 23.205813 53.853187 25.506594 51.552406 28.346438 51.552406 C 31.186281 51.552406 33.490969 53.853187 33.490969 56.693031 Z M 33.490969 56.693031 " transform="matrix(1,0,0,-1,6.677,63.236)"/>
<path style="fill:none;stroke-width:1.19553;stroke-linecap:butt;stroke-linejoin:miter;stroke:rgb(0%,0%,0%);stroke-opacity:1;stroke-miterlimit:10;" d="M 33.490969 28.345375 C 33.490969 31.185219 31.186281 33.489906 28.346438 33.489906 C 25.506594 33.489906 23.205813 31.185219 23.205813 28.345375 C 23.205813 25.505531 25.506594 23.20475 28.346438 23.20475 C 31.186281 23.20475 33.490969 25.505531 33.490969 28.345375 Z M 33.490969 28.345375 " transform="matrix(1,0,0,-1,6.677,63.236)"/>
<path style="fill:none;stroke-width:1.19553;stroke-linecap:butt;stroke-linejoin:miter;stroke:rgb(0%,0%,0%);stroke-opacity:1;stroke-miterlimit:10;" d="M 33.490969 0.001625 C 33.490969 2.841469 31.186281 5.14225 28.346438 5.14225 C 25.506594 5.14225 23.205813 2.841469 23.205813 0.001625 C 23.205813 -2.838219 25.506594 -5.142906 28.346438 -5.142906 C 31.186281 -5.142906 33.490969 -2.838219 33.490969 0.001625 Z M 33.490969 0.001625 " transform="matrix(1,0,0,-1,6.677,63.236)"/>
<path style="fill:none;stroke-width:1.19553;stroke-linecap:butt;stroke-linejoin:miter;stroke:rgb(0%,0%,0%);stroke-opacity:1;stroke-miterlimit:10;" d="M 5.143313 0.001625 C 5.143313 2.841469 2.838625 5.14225 -0.00121875 5.14225 C -2.841062 5.14225 -5.141844 2.841469 -5.141844 0.001625 C -5.141844 -2.838219 -2.841062 -5.142906 -0.00121875 -5.142906 C 2.838625 -5.142906 5.143313 -2.838219 5.143313 0.001625 Z M 5.143313 0.001625 " transform="matrix(1,0,0,-1,6.677,63.236)"/>
<path style="fill:none;stroke-width:1.19553;stroke-linecap:butt;stroke-linejoin:miter;stroke:rgb(0%,0%,0%);stroke-opacity:1;stroke-miterlimit:10;" d="M 5.143313 28.345375 C 5.143313 31.185219 2.838625 33.489906 -0.00121875 33.489906 C -2.841062 33.489906 -5.141844 31.185219 -5.141844 28.345375 C -5.141844 25.505531 -2.841062 23.20475 -0.00121875 23.20475 C 2.838625 23.20475 5.143313 25.505531 5.143313 28.345375 Z M 5.143313 28.345375 " transform="matrix(1,0,0,-1,6.677,63.236)"/>
<path style="fill:none;stroke-width:1.19553;stroke-linecap:butt;stroke-linejoin:miter;stroke:rgb(0%,0%,0%);stroke-opacity:1;stroke-miterlimit:10;" d="M 28.346438 50.95475 L 28.346438 34.087562 " transform="matrix(1,0,0,-1,6.677,63.236)"/>
<path style="fill:none;stroke-width:1.19553;stroke-linecap:butt;stroke-linejoin:miter;stroke:rgb(0%,0%,0%);stroke-opacity:1;stroke-miterlimit:10;" d="M 28.346438 22.607094 L 28.346438 5.739906 " transform="matrix(1,0,0,-1,6.677,63.236)"/>
<path style="fill:none;stroke-width:1.19553;stroke-linecap:butt;stroke-linejoin:miter;stroke:rgb(0%,0%,0%);stroke-opacity:1;stroke-miterlimit:10;" d="M 22.608156 0.001625 L 5.740969 0.001625 " transform="matrix(1,0,0,-1,6.677,63.236)"/>
<path style="fill:none;stroke-width:1.19553;stroke-linecap:butt;stroke-linejoin:miter;stroke:rgb(0%,0%,0%);stroke-opacity:1;stroke-miterlimit:10;" d="M -0.00121875 5.739906 L -0.00121875 22.607094 " transform="matrix(1,0,0,-1,6.677,63.236)"/>
<path style="fill:none;stroke-width:1.19553;stroke-linecap:butt;stroke-linejoin:miter;stroke:rgb(0%,0%,0%);stroke-opacity:1;stroke-miterlimit:10;" d="M 4.057375 32.403969 L 24.287844 52.634437 " transform="matrix(1,0,0,-1,6.677,63.236)"/>
</g>
</svg>
