<?xml version="1.0" encoding="UTF-8"?>
<svg xmlns="http://www.w3.org/2000/svg" xmlns:xlink="http://www.w3.org/1999/xlink" width="62pt" height="55pt" viewBox="0 0 62 55" version="1.1">
<g id="surface1">
<path style="fill:none;stroke-width:1.19553;stroke-linecap:butt;stroke-linejoin:miter;stroke:rgb(0%,0%,0%);stroke-opacity:1;stroke-miterlimit:10;" d="M 5.142188 28.347031 C 5.142188 31.186875 2.841406 33.487656 0.0015625 33.487656 C -2.838281 33.487656 -5.142969 31.186875 -5.142969 28.347031 C -5.142969 25.507187 -2.838281 23.2025 0.0015625 23.2025 C 2.841406 23.2025 5.142188 25.507187 5.142188 28.347031 Z M 5.142188 28.347031 " transform="matrix(1,0,0,-1,31.225,34.89)"/>
<path style="fill:none;stroke-width:1.19553;stroke-linecap:butt;stroke-linejoin:miter;stroke:rgb(0%,0%,0%);stroke-opacity:1;stroke-miterlimit:10;" d="M -19.408594 -14.1725 C -19.408594 -11.332656 -21.709375 -9.031875 -24.549219 -9.031875 C -27.389062 -9.031875 -29.689844 -11.332656 -29.689844 -14.1725 C -29.689844 -17.012344 -27.389062 -19.317031 -24.549219 -19.317031 C -21.709375 -19.317031 -19.408594 -17.012344 -19.408594 -14.1725 Z M -19.408594 -14.1725 " transform="matrix(1,0,0,-1,31.225,34.89)"/>
<path style="fill:none;stroke-width:1.19553;stroke-linecap:butt;stroke-linejoin:miter;stroke:rgb(0%,0%,0%);stroke-opacity:1;stroke-miterlimit:10;" d="M 29.692969 -14.1725 C 29.692969 -11.332656 27.388281 -9.031875 24.548438 -9.031875 C 21.708594 -9.031875 19.407813 -11.332656 19.407813 -14.1725 C 19.407813 -17.012344 21.708594 -19.317031 24.548438 -19.317031 C 27.388281 -19.317031 29.692969 -17.012344 29.692969 -14.1725 Z M 29.692969 -14.1725 " transform="matrix(1,0,0,-1,31.225,34.89)"/>
<path style="fill:none;stroke-width:1.19553;stroke-linecap:butt;stroke-linejoin:miter;stroke:rgb(0%,0%,0%);stroke-opacity:1;stroke-miterlimit:10;" d="M -2.869531 23.374375 L -21.678125 -9.20375 " transform="matrix(1,0,0,-1,31.225,34.89)"/>
<path style="fill:none;stroke-width:1.19553;stroke-linecap:butt;stroke-linejoin:miter;stroke:rgb(0%,0%,0%);stroke-opacity:1;stroke-miterlimit:10;" d="M -18.807031 -14.1725 L 18.810156 -14.1725 " transform="matrix(1,0,0,-1,31.225,34.89)"/>
<path style="fill:none;stroke-width:1.19553;stroke-linecap:butt;stroke-linejoin:miter;stroke:rgb(0%,0%,0%);stroke-opacity:1;stroke-miterlimit:10;" d="M 21.677344 -9.20375 L 2.86875 23.374375 " transform="matrix(1,0,0,-1,31.225,34.89)"/>
</g>
</svg>
