<?xml version="1.0" encoding="UTF-8"?>
<svg xmlns="http://www.w3.org/2000/svg" xmlns:xlink="http://www.w3.org/1999/xlink" width="257" height="87" viewBox="0 0 257 87">
<path fill-rule="nonzero" fill="rgb(75%, 75%, 75%)" fill-opacity="1" stroke-width="1.59404" stroke-linecap="butt" stroke-linejoin="miter" stroke="rgb(0%, 0%, 0%)" stroke-opacity="1" stroke-miterlimit="10" d="M -0.00053125 0.00165625 L -0.00053125 56.693062 L 85.038531 56.693062 L 85.038531 0.00165625 Z M -0.00053125 0.00165625 " transform="matrix(1, 0, 0, -1, 1.356, 85.529)"/>
<path fill="none" stroke-width="1.59404" stroke-linecap="butt" stroke-linejoin="miter" stroke="rgb(0%, 0%, 0%)" stroke-opacity="1" stroke-miterlimit="10" d="M 42.519 56.693062 L 42.519 83.833687 " transform="matrix(1, 0, 0, -1, 1.356, 85.529)"/>
<path fill="none" stroke-width="1.27522" stroke-linecap="round" stroke-linejoin="round" stroke="rgb(0%, 0%, 0%)" stroke-opacity="1" stroke-miterlimit="10" d="M -2.270764 3.028544 C -2.083264 1.891825 -0.0012325 0.1887 0.56908 0.0012 C -0.0012325 -0.190206 -2.083264 -1.893331 -2.270764 -3.03005 " transform="matrix(0, -1, -1, 0, 43.8762, 1.69408)"/>
<path fill-rule="nonzero" fill="rgb(75%, 75%, 75%)" fill-opacity="1" stroke-width="1.59404" stroke-linecap="butt" stroke-linejoin="miter" stroke="rgb(0%, 0%, 0%)" stroke-opacity="1" stroke-miterlimit="10" d="M 141.733844 0.00165625 L 141.733844 56.693062 L 226.772906 56.693062 L 226.772906 0.00165625 Z M 141.733844 0.00165625 " transform="matrix(1, 0, 0, -1, 1.356, 85.529)"/>
<path fill="none" stroke-width="1.59404" stroke-linecap="butt" stroke-linejoin="miter" stroke="rgb(0%, 0%, 0%)" stroke-opacity="1" stroke-miterlimit="10" d="M 226.772906 28.345406 L 253.917438 28.345406 " transform="matrix(1, 0, 0, -1, 1.356, 85.529)"/>
<path fill="none" stroke-width="1.27522" stroke-linecap="round" stroke-linejoin="round" stroke="rgb(0%, 0%, 0%)" stroke-opacity="1" stroke-miterlimit="10" d="M -2.27179 3.029856 C -2.080384 1.893137 0.0016475 0.190012 0.568054 -0.00139375 C 0.0016475 -0.188894 -2.080384 -1.892019 -2.27179 -3.028738 " transform="matrix(1, 0, 0, -1, 255.27179, 57.1822)"/>
</svg>
