<?xml version="1.0" encoding="UTF-8"?>
<svg xmlns="http://www.w3.org/2000/svg" xmlns:xlink="http://www.w3.org/1999/xlink" width="185" height="100" viewBox="0 0 185 100">
<defs>
<clipPath id="clip-0">
<path clip-rule="nonzero" d="M 86 0.882812 L 100 0.882812 L 100 15 L 86 15 Z M 86 0.882812 "/>
</clipPath>
<clipPath id="clip-1">
<path clip-rule="nonzero" d="M 0 0.882812 L 105 0.882812 L 105 100 L 0 100 Z M 0 0.882812 "/>
</clipPath>
<clipPath id="clip-2">
<path clip-rule="nonzero" d="M 80 0.882812 L 185 0.882812 L 185 100 L 80 100 Z M 80 0.882812 "/>
</clipPath>
</defs>
<g clip-path="url(#clip-0)">
<path fill-rule="nonzero" fill="rgb(0%, 0%, 0%)" fill-opacity="1" d="M 99.28125 7.503906 C 99.28125 3.847656 96.316406 0.882812 92.660156 0.882812 C 89.003906 0.882812 86.039062 3.847656 86.039062 7.503906 C 86.039062 11.160156 89.003906 14.125 92.660156 14.125 C 96.316406 14.125 99.28125 11.160156 99.28125 7.503906 Z M 99.28125 7.503906 "/>
</g>
<path fill-rule="nonzero" fill="rgb(0%, 0%, 0%)" fill-opacity="1" d="M 14.242188 92.542969 C 14.242188 88.886719 11.277344 85.921875 7.621094 85.921875 C 3.964844 85.921875 1 88.886719 1 92.542969 C 1 96.203125 3.964844 99.167969 7.621094 99.167969 C 11.277344 99.167969 14.242188 96.203125 14.242188 92.542969 Z M 14.242188 92.542969 "/>
<path fill-rule="nonzero" fill="rgb(0%, 0%, 0%)" fill-opacity="1" d="M 184.324219 92.542969 C 184.324219 88.886719 181.359375 85.921875 177.703125 85.921875 C 174.042969 85.921875 171.078125 88.886719 171.078125 92.542969 C 171.078125 96.203125 174.042969 99.167969 177.703125 99.167969 C 181.359375 99.167969 184.324219 96.203125 184.324219 92.542969 Z M 184.324219 92.542969 "/>
<g clip-path="url(#clip-1)">
<path fill="none" stroke-width="1.19553" stroke-linecap="butt" stroke-linejoin="miter" stroke="rgb(0%, 0%, 0%)" stroke-opacity="1" stroke-miterlimit="10" d="M -4.825063 -4.824125 L -80.215688 -80.218656 " transform="matrix(1, 0, 0, -1, 92.661, 7.504)"/>
</g>
<g clip-path="url(#clip-2)">
<path fill="none" stroke-width="1.19553" stroke-linecap="butt" stroke-linejoin="miter" stroke="rgb(0%, 0%, 0%)" stroke-opacity="1" stroke-miterlimit="10" d="M 4.823375 -4.824125 L 80.217906 -80.218656 " transform="matrix(1, 0, 0, -1, 92.661, 7.504)"/>
</g>
<path fill="none" stroke-width="1.19553" stroke-linecap="butt" stroke-linejoin="miter" stroke="rgb(0%, 0%, 0%)" stroke-opacity="1" stroke-miterlimit="10" d="M -78.219594 -85.038969 L 78.217906 -85.038969 " transform="matrix(1, 0, 0, -1, 92.661, 7.504)"/>
</svg>
