<?xml version="1.0" encoding="UTF-8"?>
<svg xmlns="http://www.w3.org/2000/svg" xmlns:xlink="http://www.w3.org/1999/xlink" width="99" height="99" viewBox="0 0 99 99">
<path fill-rule="nonzero" fill="rgb(0%, 0%, 0%)" fill-opacity="1" d="M 13.605469 92.28125 C 13.605469 88.625 10.640625 85.660156 6.984375 85.660156 C 3.328125 85.660156 0.363281 88.625 0.363281 92.28125 C 0.363281 95.9375 3.328125 98.902344 6.984375 98.902344 C 10.640625 98.902344 13.605469 95.9375 13.605469 92.28125 Z M 13.605469 92.28125 "/>
<path fill-rule="nonzero" fill="rgb(0%, 0%, 0%)" fill-opacity="1" d="M 98.648438 92.28125 C 98.648438 88.625 95.683594 85.660156 92.027344 85.660156 C 88.367188 85.660156 85.402344 88.625 85.402344 92.28125 C 85.402344 95.9375 88.367188 98.902344 92.027344 98.902344 C 95.683594 98.902344 98.648438 95.9375 98.648438 92.28125 Z M 98.648438 92.28125 "/>
<path fill-rule="nonzero" fill="rgb(0%, 0%, 0%)" fill-opacity="1" d="M 13.605469 7.242188 C 13.605469 3.582031 10.640625 0.617188 6.984375 0.617188 C 3.328125 0.617188 0.363281 3.582031 0.363281 7.242188 C 0.363281 10.898438 3.328125 13.863281 6.984375 13.863281 C 10.640625 13.863281 13.605469 10.898438 13.605469 7.242188 Z M 13.605469 7.242188 "/>
<path fill-rule="nonzero" fill="rgb(0%, 0%, 0%)" fill-opacity="1" d="M 98.648438 7.242188 C 98.648438 3.582031 95.683594 0.617188 92.027344 0.617188 C 88.367188 0.617188 85.402344 3.582031 85.402344 7.242188 C 85.402344 10.898438 88.367188 13.863281 92.027344 13.863281 C 95.683594 13.863281 98.648438 10.898438 98.648438 7.242188 Z M 98.648438 7.242188 "/>
<path fill="none" stroke-width="1.19553" stroke-linecap="butt" stroke-linejoin="miter" stroke="rgb(0%, 0%, 0%)" stroke-opacity="1" stroke-miterlimit="10" d="M 6.819688 -0.00025 L 78.218125 -0.00025 " transform="matrix(1, 0, 0, -1, 6.985, 92.281)"/>
<path fill="none" stroke-width="1.19553" stroke-linecap="butt" stroke-linejoin="miter" stroke="rgb(0%, 0%, 0%)" stroke-opacity="1" stroke-miterlimit="10" d="M -0.000625 6.820063 L -0.000625 78.2185 " transform="matrix(1, 0, 0, -1, 6.985, 92.281)"/>
<path fill="none" stroke-width="1.19553" stroke-linecap="butt" stroke-linejoin="miter" stroke="rgb(0%, 0%, 0%)" stroke-opacity="1" stroke-miterlimit="10" d="M 85.042344 6.820063 L 85.042344 78.2185 " transform="matrix(1, 0, 0, -1, 6.985, 92.281)"/>
<path fill="none" stroke-width="1.19553" stroke-linecap="butt" stroke-linejoin="miter" stroke="rgb(0%, 0%, 0%)" stroke-opacity="1" stroke-miterlimit="10" d="M 6.819688 85.038813 L 78.218125 85.038813 " transform="matrix(1, 0, 0, -1, 6.985, 92.281)"/>
</svg>
