<?xml version="1.0" encoding="UTF-8"?>
<svg xmlns="http://www.w3.org/2000/svg" xmlns:xlink="http://www.w3.org/1999/xlink" width="200pt" height="66pt" viewBox="0 0 200 66" version="1.1">
<g id="surface1">
<path style="fill-rule:nonzero;fill:rgb(50%,50%,50%);fill-opacity:1;stroke-width:0.3985;stroke-linecap:butt;stroke-linejoin:miter;stroke:rgb(50%,50%,50%);stroke-opacity:1;stroke-miterlimit:10;" d="M 0.00071875 85.04 L 0.00071875 70.868125 L 56.692125 70.868125 L 56.692125 85.04 Z M 0.00071875 85.04 " transform="matrix(1,0,0,-1,1.136,111.165)"/>
<path style="fill-rule:nonzero;fill:rgb(50%,50%,50%);fill-opacity:1;stroke-width:0.3985;stroke-linecap:butt;stroke-linejoin:miter;stroke:rgb(50%,50%,50%);stroke-opacity:1;stroke-miterlimit:10;" d="M 113.387438 92.125938 L 113.387438 63.782188 L 155.906969 63.782188 L 155.906969 92.125938 Z M 113.387438 92.125938 " transform="matrix(1,0,0,-1,1.136,111.165)"/>
<path style="fill-rule:nonzero;fill:rgb(50%,50%,50%);fill-opacity:1;stroke-width:0.3985;stroke-linecap:butt;stroke-linejoin:miter;stroke:rgb(50%,50%,50%);stroke-opacity:1;stroke-miterlimit:10;" d="M 141.735094 77.954063 C 141.735094 93.610313 116.352281 106.301719 85.039781 106.301719 C 53.727281 106.301719 28.348375 93.610313 28.348375 77.954063 C 28.348375 62.297813 53.727281 49.606406 85.039781 49.606406 C 116.352281 49.606406 141.735094 62.297813 141.735094 77.954063 Z M 141.735094 77.954063 " transform="matrix(1,0,0,-1,1.136,111.165)"/>
<path style="fill-rule:nonzero;fill:rgb(100%,100%,100%);fill-opacity:1;stroke-width:0.3985;stroke-linecap:butt;stroke-linejoin:miter;stroke:rgb(100%,100%,100%);stroke-opacity:1;stroke-miterlimit:10;" d="M 127.559313 77.954063 C 127.559313 89.69625 108.524156 99.211875 85.039781 99.211875 C 61.555406 99.211875 42.52025 89.69625 42.52025 77.954063 C 42.52025 66.211875 61.555406 56.692344 85.039781 56.692344 C 108.524156 56.692344 127.559313 66.211875 127.559313 77.954063 Z M 127.559313 77.954063 " transform="matrix(1,0,0,-1,1.136,111.165)"/>
<path style="fill-rule:nonzero;fill:rgb(50%,50%,50%);fill-opacity:1;stroke-width:0.3985;stroke-linecap:butt;stroke-linejoin:miter;stroke:rgb(50%,50%,50%);stroke-opacity:1;stroke-miterlimit:10;" d="M 198.4265 107.719688 C 167.117906 107.719688 141.735094 95.028281 141.735094 79.372031 C 141.735094 63.715781 167.117906 51.024375 198.4265 51.024375 " transform="matrix(1,0,0,-1,1.136,111.165)"/>
<path style="fill-rule:nonzero;fill:rgb(100%,100%,100%);fill-opacity:1;stroke-width:0.3985;stroke-linecap:butt;stroke-linejoin:miter;stroke:rgb(100%,100%,100%);stroke-opacity:1;stroke-miterlimit:10;" d="M 205.512438 100.629844 C 178.117906 100.629844 155.906969 91.114219 155.906969 79.372031 C 155.906969 67.629844 178.117906 58.110313 205.512438 58.110313 " transform="matrix(1,0,0,-1,1.136,111.165)"/>
<path style="fill-rule:nonzero;fill:rgb(0%,0%,0%);fill-opacity:1;stroke-width:0.3985;stroke-linecap:butt;stroke-linejoin:miter;stroke:rgb(0%,0%,0%);stroke-opacity:1;stroke-miterlimit:10;" d="M 41.481188 110.165 L 36.016344 103.649375 L 57.731188 85.430625 L 63.196031 91.942344 Z M 41.481188 110.165 " transform="matrix(1,0,0,-1,1.136,111.165)"/>
<path style="fill-rule:nonzero;fill:rgb(0%,0%,0%);fill-opacity:1;stroke-width:0.3985;stroke-linecap:butt;stroke-linejoin:miter;stroke:rgb(0%,0%,0%);stroke-opacity:1;stroke-miterlimit:10;" d="M 41.848375 45.875938 L 36.379625 52.391563 L 58.094469 70.610313 L 63.563219 64.098594 Z M 41.848375 45.875938 " transform="matrix(1,0,0,-1,1.136,111.165)"/>
<path style="fill-rule:nonzero;fill:rgb(0%,0%,0%);fill-opacity:1;stroke-width:0.3985;stroke-linecap:butt;stroke-linejoin:miter;stroke:rgb(0%,0%,0%);stroke-opacity:1;stroke-miterlimit:10;" d="M 99.797594 91.942344 L 105.262438 85.430625 L 126.977281 103.649375 L 121.512438 110.165 Z M 99.797594 91.942344 " transform="matrix(1,0,0,-1,1.136,111.165)"/>
<path style="fill-rule:nonzero;fill:rgb(0%,0%,0%);fill-opacity:1;stroke-width:0.3985;stroke-linecap:butt;stroke-linejoin:miter;stroke:rgb(0%,0%,0%);stroke-opacity:1;stroke-miterlimit:10;" d="M 99.430406 64.098594 L 104.899156 70.610313 L 126.614 52.391563 L 121.14525 45.875938 Z M 99.430406 64.098594 " transform="matrix(1,0,0,-1,1.136,111.165)"/>
<path style="fill-rule:nonzero;fill:rgb(0%,0%,0%);fill-opacity:1;stroke-width:0.3985;stroke-linecap:butt;stroke-linejoin:miter;stroke:rgb(0%,0%,0%);stroke-opacity:1;stroke-miterlimit:10;" d="M 120.473375 82.204063 L 120.473375 73.700156 L 162.992906 73.700156 L 162.992906 82.204063 Z M 120.473375 82.204063 " transform="matrix(1,0,0,-1,1.136,111.165)"/>
<path style="fill-rule:nonzero;fill:rgb(0%,0%,0%);fill-opacity:1;stroke-width:0.3985;stroke-linecap:butt;stroke-linejoin:miter;stroke:rgb(0%,0%,0%);stroke-opacity:1;stroke-miterlimit:10;" d="M 161.95775 110.165 L 156.489 103.649375 L 178.203844 85.430625 L 183.672594 91.942344 Z M 161.95775 110.165 " transform="matrix(1,0,0,-1,1.136,111.165)"/>
<path style="fill-rule:nonzero;fill:rgb(0%,0%,0%);fill-opacity:1;stroke-width:0.3985;stroke-linecap:butt;stroke-linejoin:miter;stroke:rgb(0%,0%,0%);stroke-opacity:1;stroke-miterlimit:10;" d="M 162.321031 45.875938 L 156.856188 52.391563 L 178.571031 70.610313 L 184.035875 64.098594 Z M 162.321031 45.875938 " transform="matrix(1,0,0,-1,1.136,111.165)"/>
</g>
</svg>
