<?xml version="1.0" encoding="UTF-8"?>
<svg xmlns="http://www.w3.org/2000/svg" xmlns:xlink="http://www.w3.org/1999/xlink" width="406" height="256" viewBox="0 0 406 256">
<defs>
<clipPath id="clip-0">
<path clip-rule="nonzero" d="M 0.332031 1 L 405.542969 1 L 405.542969 256 L 0.332031 256 Z M 0.332031 1 "/>
</clipPath>
<linearGradient id="linear-pattern-0" gradientUnits="userSpaceOnUse" x1="0" y1="0" x2="0" y2="255.118" gradientTransform="matrix(1, 0, 0, -1, 0.331, 256)">
<stop offset="0" stop-color="rgb(95.999146%, 95.999146%, 95.999146%)" stop-opacity="1"/>
<stop offset="0.0625" stop-color="rgb(96.124268%, 96.124268%, 96.124268%)" stop-opacity="1"/>
<stop offset="0.125" stop-color="rgb(96.374512%, 96.374512%, 96.374512%)" stop-opacity="1"/>
<stop offset="0.1875" stop-color="rgb(96.624756%, 96.624756%, 96.624756%)" stop-opacity="1"/>
<stop offset="0.25" stop-color="rgb(96.873474%, 96.873474%, 96.873474%)" stop-opacity="1"/>
<stop offset="0.3125" stop-color="rgb(97.123718%, 97.123718%, 97.123718%)" stop-opacity="1"/>
<stop offset="0.375" stop-color="rgb(97.373962%, 97.373962%, 97.373962%)" stop-opacity="1"/>
<stop offset="0.4375" stop-color="rgb(97.624207%, 97.624207%, 97.624207%)" stop-opacity="1"/>
<stop offset="0.5" stop-color="rgb(97.874451%, 97.874451%, 97.874451%)" stop-opacity="1"/>
<stop offset="0.5625" stop-color="rgb(98.124695%, 98.124695%, 98.124695%)" stop-opacity="1"/>
<stop offset="0.625" stop-color="rgb(98.373413%, 98.373413%, 98.373413%)" stop-opacity="1"/>
<stop offset="0.6875" stop-color="rgb(98.623657%, 98.623657%, 98.623657%)" stop-opacity="1"/>
<stop offset="0.75" stop-color="rgb(98.873901%, 98.873901%, 98.873901%)" stop-opacity="1"/>
<stop offset="0.8125" stop-color="rgb(99.124146%, 99.124146%, 99.124146%)" stop-opacity="1"/>
<stop offset="0.875" stop-color="rgb(99.37439%, 99.37439%, 99.37439%)" stop-opacity="1"/>
<stop offset="0.9375" stop-color="rgb(99.624634%, 99.624634%, 99.624634%)" stop-opacity="1"/>
<stop offset="1" stop-color="rgb(99.873352%, 99.873352%, 99.873352%)" stop-opacity="1"/>
</linearGradient>
<clipPath id="clip-1">
<path clip-rule="nonzero" d="M 6 0.882812 L 206 0.882812 L 206 201 L 6 201 Z M 6 0.882812 "/>
</clipPath>
</defs>
<g clip-path="url(#clip-0)">
<path fill-rule="nonzero" fill="url(#linear-pattern-0)" d="M 0.332031 256 L 0.332031 0.882812 L 405.542969 0.882812 L 405.542969 256 Z M 0.332031 256 "/>
</g>
<g clip-path="url(#clip-1)">
<path fill="none" stroke-width="0.79701" stroke-linecap="butt" stroke-linejoin="miter" stroke="rgb(50%, 50%, 50%)" stroke-opacity="1" stroke-miterlimit="10" d="M -17.716562 -14.175063 L 180.709219 -14.175063 M -17.716562 -7.085219 L 180.709219 -7.085219 M -17.716562 0.00071875 L 180.709219 0.00071875 M -17.716562 7.086656 L 180.709219 7.086656 M -17.716562 14.172594 L 180.709219 14.172594 M -17.716562 21.262437 L 180.709219 21.262437 M -17.716562 28.348375 L 180.709219 28.348375 M -17.716562 35.434312 L 180.709219 35.434312 M -17.716562 42.524156 L 180.709219 42.524156 M -17.716562 49.610094 L 180.709219 49.610094 M -17.716562 56.696031 L 180.709219 56.696031 M -17.716562 63.785875 L 180.709219 63.785875 M -17.716562 70.871812 L 180.709219 70.871812 M -17.716562 77.95775 L 180.709219 77.95775 M -17.716562 85.043687 L 180.709219 85.043687 M -17.716562 92.133531 L 180.709219 92.133531 M -17.716562 99.219469 L 180.709219 99.219469 M -17.716562 106.305406 L 180.709219 106.305406 M -17.716562 113.39525 L 180.709219 113.39525 M -17.716562 120.481187 L 180.709219 120.481187 M -17.716562 127.567125 L 180.709219 127.567125 M -17.716562 134.656969 L 180.709219 134.656969 M -17.716562 141.742906 L 180.709219 141.742906 M -17.716562 148.828844 L 180.709219 148.828844 M -17.716562 155.914781 L 180.709219 155.914781 M -17.716562 163.004625 L 180.709219 163.004625 M -17.716562 170.090562 L 180.709219 170.090562 M -17.716562 177.1765 L 180.709219 177.1765 M -14.173594 -17.718031 L -14.173594 180.711656 M -7.087656 -17.718031 L -7.087656 180.711656 M -0.00171875 -17.718031 L -0.00171875 180.711656 M 7.088125 -17.718031 L 7.088125 180.711656 M 14.174063 -17.718031 L 14.174063 180.711656 M 21.26 -17.718031 L 21.26 180.711656 M 28.349844 -17.718031 L 28.349844 180.711656 M 35.435781 -17.718031 L 35.435781 180.711656 M 42.521719 -17.718031 L 42.521719 180.711656 M 49.611563 -17.718031 L 49.611563 180.711656 M 56.6975 -17.718031 L 56.6975 180.711656 M 63.783438 -17.718031 L 63.783438 180.711656 M 70.869375 -17.718031 L 70.869375 180.711656 M 77.959219 -17.718031 L 77.959219 180.711656 M 85.045156 -17.718031 L 85.045156 180.711656 M 92.131094 -17.718031 L 92.131094 180.711656 M 99.220938 -17.718031 L 99.220938 180.711656 M 106.306875 -17.718031 L 106.306875 180.711656 M 113.392813 -17.718031 L 113.392813 180.711656 M 120.482656 -17.718031 L 120.482656 180.711656 M 127.568594 -17.718031 L 127.568594 180.711656 M 134.654531 -17.718031 L 134.654531 180.711656 M 141.744375 -17.718031 L 141.744375 180.711656 M 148.830312 -17.718031 L 148.830312 180.711656 M 155.91625 -17.718031 L 155.91625 180.711656 M 163.002187 -17.718031 L 163.002187 180.711656 M 170.092031 -17.718031 L 170.092031 180.711656 M 177.177969 -17.718031 L 177.177969 180.711656 " transform="matrix(1, 0, 0, -1, 24.115, 181.989)"/>
</g>
</svg>
