<?xml version="1.0" encoding="UTF-8"?>
<svg xmlns="http://www.w3.org/2000/svg" xmlns:xlink="http://www.w3.org/1999/xlink" width="111.656" height="15.369" viewBox="0 0 111.656 15.369">
<defs>
<clipPath id="clip-0">
<path clip-rule="nonzero" d="M 0 0 L 23 0 L 23 15.367188 L 0 15.367188 Z M 0 0 "/>
</clipPath>
<clipPath id="clip-1">
<path clip-rule="nonzero" d="M 0 0 L 29 0 L 29 15.367188 L 0 15.367188 Z M 0 0 "/>
</clipPath>
<clipPath id="clip-2">
<path clip-rule="nonzero" d="M 0 0 L 35 0 L 35 15.367188 L 0 15.367188 Z M 0 0 "/>
</clipPath>
<clipPath id="clip-3">
<path clip-rule="nonzero" d="M 31 0 L 68 0 L 68 15.367188 L 31 15.367188 Z M 31 0 "/>
</clipPath>
<clipPath id="clip-4">
<path clip-rule="nonzero" d="M 36 0 L 71 0 L 71 15.367188 L 36 15.367188 Z M 36 0 "/>
</clipPath>
<clipPath id="clip-5">
<path clip-rule="nonzero" d="M 39 0 L 76 0 L 76 15.367188 L 39 15.367188 Z M 39 0 "/>
</clipPath>
<clipPath id="clip-6">
<path clip-rule="nonzero" d="M 44 0 L 79 0 L 79 15.367188 L 44 15.367188 Z M 44 0 "/>
</clipPath>
<clipPath id="clip-7">
<path clip-rule="nonzero" d="M 47 0 L 82 0 L 82 15.367188 L 47 15.367188 Z M 47 0 "/>
</clipPath>
<clipPath id="clip-8">
<path clip-rule="nonzero" d="M 78 0 L 111.65625 0 L 111.65625 15.367188 L 78 15.367188 Z M 78 0 "/>
</clipPath>
<clipPath id="clip-9">
<path clip-rule="nonzero" d="M 83 0 L 111.65625 0 L 111.65625 15.367188 L 83 15.367188 Z M 83 0 "/>
</clipPath>
<clipPath id="clip-10">
<path clip-rule="nonzero" d="M 86 0 L 111.65625 0 L 111.65625 15.367188 L 86 15.367188 Z M 86 0 "/>
</clipPath>
<clipPath id="clip-11">
<path clip-rule="nonzero" d="M 91 0 L 111.65625 0 L 111.65625 15.367188 L 91 15.367188 Z M 91 0 "/>
</clipPath>
</defs>
<g clip-path="url(#clip-0)">
<path fill="none" stroke-width="1.19553" stroke-linecap="butt" stroke-linejoin="miter" stroke="rgb(0%, 0%, 0%)" stroke-opacity="1" stroke-miterlimit="10" d="M 2.294438 0.00146875 L -2.381344 14.173344 " transform="matrix(1, 0, 0, -1, 2.979, 14.771)"/>
</g>
<g clip-path="url(#clip-1)">
<path fill="none" stroke-width="1.19553" stroke-linecap="butt" stroke-linejoin="miter" stroke="rgb(0%, 0%, 0%)" stroke-opacity="1" stroke-miterlimit="10" d="M -1.815281 0.00146875 L 1.645656 14.173344 " transform="matrix(1, 0, 0, -1, 9.702, 14.771)"/>
</g>
<g clip-path="url(#clip-2)">
<path fill="none" stroke-width="1.19553" stroke-linecap="butt" stroke-linejoin="miter" stroke="rgb(0%, 0%, 0%)" stroke-opacity="1" stroke-miterlimit="10" d="M 1.502594 0.00146875 L -2.098969 14.173344 " transform="matrix(1, 0, 0, -1, 16.056, 14.771)"/>
</g>
<g clip-path="url(#clip-3)">
<path fill="none" stroke-width="1.19553" stroke-linecap="butt" stroke-linejoin="miter" stroke="rgb(0%, 0%, 0%)" stroke-opacity="1" stroke-miterlimit="10" d="M -1.872375 0.00146875 L 0.4245 14.173344 " transform="matrix(1, 0, 0, -1, 50.388, 14.771)"/>
</g>
<g clip-path="url(#clip-4)">
<path fill="none" stroke-width="1.19553" stroke-linecap="butt" stroke-linejoin="miter" stroke="rgb(0%, 0%, 0%)" stroke-opacity="1" stroke-miterlimit="10" d="M -1.729094 0.00146875 L -2.182219 14.173344 " transform="matrix(1, 0, 0, -1, 55.608, 14.771)"/>
</g>
<g clip-path="url(#clip-5)">
<path fill="none" stroke-width="1.19553" stroke-linecap="butt" stroke-linejoin="miter" stroke="rgb(0%, 0%, 0%)" stroke-opacity="1" stroke-miterlimit="10" d="M 2.2115 0.00146875 L 0.141188 14.173344 " transform="matrix(1, 0, 0, -1, 56.351, 14.771)"/>
</g>
<g clip-path="url(#clip-6)">
<path fill="none" stroke-width="1.19553" stroke-linecap="butt" stroke-linejoin="miter" stroke="rgb(0%, 0%, 0%)" stroke-opacity="1" stroke-miterlimit="10" d="M 1.730562 0.00146875 L 1.304781 14.173344 " transform="matrix(1, 0, 0, -1, 59.871, 14.771)"/>
</g>
<g clip-path="url(#clip-7)">
<path fill="none" stroke-width="1.19553" stroke-linecap="butt" stroke-linejoin="miter" stroke="rgb(0%, 0%, 0%)" stroke-opacity="1" stroke-miterlimit="10" d="M -0.366156 0.00146875 L 0.114312 14.173344 " transform="matrix(1, 0, 0, -1, 64.581, 14.771)"/>
</g>
<g clip-path="url(#clip-8)">
<path fill="none" stroke-width="1.19553" stroke-linecap="butt" stroke-linejoin="miter" stroke="rgb(0%, 0%, 0%)" stroke-opacity="1" stroke-miterlimit="10" d="M 2.180781 0.00146875 L 0.282344 14.173344 " transform="matrix(1, 0, 0, -1, 95.37, 14.771)"/>
</g>
<g clip-path="url(#clip-9)">
<path fill="none" stroke-width="1.19553" stroke-linecap="butt" stroke-linejoin="miter" stroke="rgb(0%, 0%, 0%)" stroke-opacity="1" stroke-miterlimit="10" d="M -1.275219 0.00146875 L -1.786938 14.173344 " transform="matrix(1, 0, 0, -1, 101.951, 14.771)"/>
</g>
<g clip-path="url(#clip-10)">
<path fill="none" stroke-width="1.19553" stroke-linecap="butt" stroke-linejoin="miter" stroke="rgb(0%, 0%, 0%)" stroke-opacity="1" stroke-miterlimit="10" d="M 1.559031 0.00146875 L -1.358938 14.173344 " transform="matrix(1, 0, 0, -1, 104.648, 14.771)"/>
</g>
<g clip-path="url(#clip-11)">
<path fill="none" stroke-width="1.19553" stroke-linecap="butt" stroke-linejoin="miter" stroke="rgb(0%, 0%, 0%)" stroke-opacity="1" stroke-miterlimit="10" d="M -1.841688 0.00146875 L 0.396594 14.173344 " transform="matrix(1, 0, 0, -1, 110.662, 14.771)"/>
</g>
</svg>
