<?xml version="1.0" encoding="UTF-8"?>
<svg xmlns="http://www.w3.org/2000/svg" xmlns:xlink="http://www.w3.org/1999/xlink" width="51.912pt" height="58.49pt" viewBox="0 0 51.912 58.49" version="1.1">
<defs>
<clipPath id="clip1">
  <path d="M 0 49 L 10 49 L 10 58.488281 L 0 58.488281 Z M 0 49 "/>
</clipPath>
<clipPath id="clip2">
  <path d="M 42 24 L 51.910156 24 L 51.910156 34 L 42 34 Z M 42 24 "/>
</clipPath>
</defs>
<g id="surface1">
<path style=" stroke:none;fill-rule:nonzero;fill:rgb(0%,0%,0%);fill-opacity:1;" d="M 23.566406 29.246094 C 23.566406 26.652344 21.460938 24.546875 18.867188 24.546875 C 16.273438 24.546875 14.171875 26.652344 14.171875 29.246094 C 14.171875 31.839844 16.273438 33.941406 18.867188 33.941406 C 21.460938 33.941406 23.566406 31.839844 23.566406 29.246094 Z M 23.566406 29.246094 "/>
<path style=" stroke:none;fill-rule:nonzero;fill:rgb(0%,0%,0%);fill-opacity:1;" d="M 9.390625 4.695312 C 9.390625 2.101562 7.289062 0 4.695312 0 C 2.101562 0 0 2.101562 0 4.695312 C 0 7.289062 2.101562 9.390625 4.695312 9.390625 C 7.289062 9.390625 9.390625 7.289062 9.390625 4.695312 Z M 9.390625 4.695312 "/>
<path style="fill:none;stroke-width:0.3985;stroke-linecap:butt;stroke-linejoin:miter;stroke:rgb(0%,0%,0%);stroke-opacity:1;stroke-miterlimit:10;" d="M -2.447125 4.241094 L -11.724469 20.311406 " transform="matrix(1,0,0,-1,18.869,29.245)"/>
<g clip-path="url(#clip1)" clip-rule="nonzero">
<path style=" stroke:none;fill-rule:nonzero;fill:rgb(0%,0%,0%);fill-opacity:1;" d="M 9.390625 53.792969 C 9.390625 51.199219 7.289062 49.097656 4.695312 49.097656 C 2.101562 49.097656 0 51.199219 0 53.792969 C 0 56.386719 2.101562 58.492188 4.695312 58.492188 C 7.289062 58.492188 9.390625 56.386719 9.390625 53.792969 Z M 9.390625 53.792969 "/>
</g>
<path style="fill:none;stroke-width:0.3985;stroke-linecap:butt;stroke-linejoin:miter;stroke:rgb(0%,0%,0%);stroke-opacity:1;stroke-miterlimit:10;" d="M -2.447125 -4.239375 L -11.724469 -20.309687 " transform="matrix(1,0,0,-1,18.869,29.245)"/>
<g clip-path="url(#clip2)" clip-rule="nonzero">
<path style=" stroke:none;fill-rule:nonzero;fill:rgb(0%,0%,0%);fill-opacity:1;" d="M 51.914062 29.246094 C 51.914062 26.652344 49.808594 24.546875 47.214844 24.546875 C 44.621094 24.546875 42.519531 26.652344 42.519531 29.246094 C 42.519531 31.839844 44.621094 33.941406 47.214844 33.941406 C 49.808594 33.941406 51.914062 31.839844 51.914062 29.246094 Z M 51.914062 29.246094 "/>
</g>
<path style="fill:none;stroke-width:0.3985;stroke-linecap:butt;stroke-linejoin:miter;stroke:rgb(0%,0%,0%);stroke-opacity:1;stroke-miterlimit:10;" d="M 4.896625 -0.00109375 L 23.451313 -0.00109375 " transform="matrix(1,0,0,-1,18.869,29.245)"/>
</g>
</svg>
