<?xml version="1.0" encoding="UTF-8"?>
<svg xmlns="http://www.w3.org/2000/svg" xmlns:xlink="http://www.w3.org/1999/xlink" width="164.272pt" height="15.369pt" viewBox="0 0 164.272 15.369" version="1.1">
<defs>
<clipPath id="clip1">
  <path d="M 0 0 L 18 0 L 18 15.367188 L 0 15.367188 Z M 0 0 "/>
</clipPath>
<clipPath id="clip2">
  <path d="M 0 0 L 23 0 L 23 15.367188 L 0 15.367188 Z M 0 0 "/>
</clipPath>
<clipPath id="clip3">
  <path d="M 0 0 L 27 0 L 27 15.367188 L 0 15.367188 Z M 0 0 "/>
</clipPath>
<clipPath id="clip4">
  <path d="M 0 0 L 30 0 L 30 15.367188 L 0 15.367188 Z M 0 0 "/>
</clipPath>
<clipPath id="clip5">
  <path d="M 0 0 L 33 0 L 33 15.367188 L 0 15.367188 Z M 0 0 "/>
</clipPath>
<clipPath id="clip6">
  <path d="M 29 0 L 66 0 L 66 15.367188 L 29 15.367188 Z M 29 0 "/>
</clipPath>
<clipPath id="clip7">
  <path d="M 34 0 L 72 0 L 72 15.367188 L 34 15.367188 Z M 34 0 "/>
</clipPath>
<clipPath id="clip8">
  <path d="M 40 0 L 76 0 L 76 15.367188 L 40 15.367188 Z M 40 0 "/>
</clipPath>
<clipPath id="clip9">
  <path d="M 72 0 L 108 0 L 108 15.367188 L 72 15.367188 Z M 72 0 "/>
</clipPath>
<clipPath id="clip10">
  <path d="M 76 0 L 112 0 L 112 15.367188 L 76 15.367188 Z M 76 0 "/>
</clipPath>
<clipPath id="clip11">
  <path d="M 80 0 L 119 0 L 119 15.367188 L 80 15.367188 Z M 80 0 "/>
</clipPath>
<clipPath id="clip12">
  <path d="M 87 0 L 122 0 L 122 15.367188 L 87 15.367188 Z M 87 0 "/>
</clipPath>
<clipPath id="clip13">
  <path d="M 90 0 L 129 0 L 129 15.367188 L 90 15.367188 Z M 90 0 "/>
</clipPath>
<clipPath id="clip14">
  <path d="M 97 0 L 132 0 L 132 15.367188 L 97 15.367188 Z M 97 0 "/>
</clipPath>
<clipPath id="clip15">
  <path d="M 99 0 L 134 0 L 134 15.367188 L 99 15.367188 Z M 99 0 "/>
</clipPath>
<clipPath id="clip16">
  <path d="M 102 0 L 139 0 L 139 15.367188 L 102 15.367188 Z M 102 0 "/>
</clipPath>
<clipPath id="clip17">
  <path d="M 107 0 L 144 0 L 144 15.367188 L 107 15.367188 Z M 107 0 "/>
</clipPath>
<clipPath id="clip18">
  <path d="M 140 0 L 164.273438 0 L 164.273438 15.367188 L 140 15.367188 Z M 140 0 "/>
</clipPath>
<clipPath id="clip19">
  <path d="M 144 0 L 164.273438 0 L 164.273438 15.367188 L 144 15.367188 Z M 144 0 "/>
</clipPath>
</defs>
<g id="surface1">
<g clip-path="url(#clip1)" clip-rule="nonzero">
<path style="fill:none;stroke-width:1.19553;stroke-linecap:butt;stroke-linejoin:miter;stroke:rgb(0%,0%,0%);stroke-opacity:1;stroke-miterlimit:10;" d="M -1.445344 0.00146875 L -1.332063 14.173344 " transform="matrix(1,0,0,-1,2.043,14.771)"/>
</g>
<g clip-path="url(#clip2)" clip-rule="nonzero">
<path style="fill:none;stroke-width:1.19553;stroke-linecap:butt;stroke-linejoin:miter;stroke:rgb(0%,0%,0%);stroke-opacity:1;stroke-miterlimit:10;" d="M 2.578 0.00146875 L 0.652219 14.173344 " transform="matrix(1,0,0,-1,2.672,14.771)"/>
</g>
<g clip-path="url(#clip3)" clip-rule="nonzero">
<path style="fill:none;stroke-width:1.19553;stroke-linecap:butt;stroke-linejoin:miter;stroke:rgb(0%,0%,0%);stroke-opacity:1;stroke-miterlimit:10;" d="M 2.494469 0.00146875 L 0.877281 14.173344 " transform="matrix(1,0,0,-1,6.986,14.771)"/>
</g>
<g clip-path="url(#clip4)" clip-rule="nonzero">
<path style="fill:none;stroke-width:1.19553;stroke-linecap:butt;stroke-linejoin:miter;stroke:rgb(0%,0%,0%);stroke-opacity:1;stroke-miterlimit:10;" d="M -1.105781 0.00146875 L -1.58625 14.173344 " transform="matrix(1,0,0,-1,13.68,14.771)"/>
</g>
<g clip-path="url(#clip5)" clip-rule="nonzero">
<path style="fill:none;stroke-width:1.19553;stroke-linecap:butt;stroke-linejoin:miter;stroke:rgb(0%,0%,0%);stroke-opacity:1;stroke-miterlimit:10;" d="M -1.3325 0.00146875 L -0.594219 14.173344 " transform="matrix(1,0,0,-1,16.52,14.771)"/>
</g>
<g clip-path="url(#clip6)" clip-rule="nonzero">
<path style="fill:none;stroke-width:1.19553;stroke-linecap:butt;stroke-linejoin:miter;stroke:rgb(0%,0%,0%);stroke-opacity:1;stroke-miterlimit:10;" d="M -2.325187 0.00146875 L -0.567375 14.173344 " transform="matrix(1,0,0,-1,49.208,14.771)"/>
</g>
<g clip-path="url(#clip7)" clip-rule="nonzero">
<path style="fill:none;stroke-width:1.19553;stroke-linecap:butt;stroke-linejoin:miter;stroke:rgb(0%,0%,0%);stroke-opacity:1;stroke-miterlimit:10;" d="M 1.954781 0.00146875 L -1.842094 14.173344 " transform="matrix(1,0,0,-1,53.096,14.771)"/>
</g>
<g clip-path="url(#clip8)" clip-rule="nonzero">
<path style="fill:none;stroke-width:1.19553;stroke-linecap:butt;stroke-linejoin:miter;stroke:rgb(0%,0%,0%);stroke-opacity:1;stroke-miterlimit:10;" d="M -0.623937 0.00146875 L 0.594813 14.173344 " transform="matrix(1,0,0,-1,58.288,14.771)"/>
</g>
<g clip-path="url(#clip9)" clip-rule="nonzero">
<path style="fill:none;stroke-width:1.19553;stroke-linecap:butt;stroke-linejoin:miter;stroke:rgb(0%,0%,0%);stroke-opacity:1;stroke-miterlimit:10;" d="M -2.20925 0.00146875 L -1.674094 14.173344 " transform="matrix(1,0,0,-1,92.053,14.771)"/>
</g>
<g clip-path="url(#clip10)" clip-rule="nonzero">
<path style="fill:none;stroke-width:1.19553;stroke-linecap:butt;stroke-linejoin:miter;stroke:rgb(0%,0%,0%);stroke-opacity:1;stroke-miterlimit:10;" d="M 0.311937 0.00146875 L -1.531813 14.173344 " transform="matrix(1,0,0,-1,94.524,14.771)"/>
</g>
<g clip-path="url(#clip11)" clip-rule="nonzero">
<path style="fill:none;stroke-width:1.19553;stroke-linecap:butt;stroke-linejoin:miter;stroke:rgb(0%,0%,0%);stroke-opacity:1;stroke-miterlimit:10;" d="M 1.673687 0.00146875 L -2.181781 14.173344 " transform="matrix(1,0,0,-1,99.631,14.771)"/>
</g>
<g clip-path="url(#clip12)" clip-rule="nonzero">
<path style="fill:none;stroke-width:1.19553;stroke-linecap:butt;stroke-linejoin:miter;stroke:rgb(0%,0%,0%);stroke-opacity:1;stroke-miterlimit:10;" d="M 1.645969 0.00146875 L 2.153781 14.173344 " transform="matrix(1,0,0,-1,102.272,14.771)"/>
</g>
<g clip-path="url(#clip13)" clip-rule="nonzero">
<path style="fill:none;stroke-width:1.19553;stroke-linecap:butt;stroke-linejoin:miter;stroke:rgb(0%,0%,0%);stroke-opacity:1;stroke-miterlimit:10;" d="M 1.841344 0.00146875 L -2.521938 14.173344 " transform="matrix(1,0,0,-1,109.561,14.771)"/>
</g>
<g clip-path="url(#clip14)" clip-rule="nonzero">
<path style="fill:none;stroke-width:1.19553;stroke-linecap:butt;stroke-linejoin:miter;stroke:rgb(0%,0%,0%);stroke-opacity:1;stroke-miterlimit:10;" d="M 0.991625 0.00146875 L 1.218187 14.173344 " transform="matrix(1,0,0,-1,113.024,14.771)"/>
</g>
<g clip-path="url(#clip15)" clip-rule="nonzero">
<path style="fill:none;stroke-width:1.19553;stroke-linecap:butt;stroke-linejoin:miter;stroke:rgb(0%,0%,0%);stroke-opacity:1;stroke-miterlimit:10;" d="M -0.87925 0.00146875 L -0.992531 14.173344 " transform="matrix(1,0,0,-1,117.848,14.771)"/>
</g>
<g clip-path="url(#clip16)" clip-rule="nonzero">
<path style="fill:none;stroke-width:1.19553;stroke-linecap:butt;stroke-linejoin:miter;stroke:rgb(0%,0%,0%);stroke-opacity:1;stroke-miterlimit:10;" d="M 1.929063 0.00146875 L -0.0279687 14.173344 " transform="matrix(1,0,0,-1,119.61,14.771)"/>
</g>
<g clip-path="url(#clip17)" clip-rule="nonzero">
<path style="fill:none;stroke-width:1.19553;stroke-linecap:butt;stroke-linejoin:miter;stroke:rgb(0%,0%,0%);stroke-opacity:1;stroke-miterlimit:10;" d="M -2.297562 0.00146875 L 0.112594 14.173344 " transform="matrix(1,0,0,-1,126.446,14.771)"/>
</g>
<g clip-path="url(#clip18)" clip-rule="nonzero">
<path style="fill:none;stroke-width:1.19553;stroke-linecap:butt;stroke-linejoin:miter;stroke:rgb(0%,0%,0%);stroke-opacity:1;stroke-miterlimit:10;" d="M 0.480312 0.00146875 L -0.820469 14.173344 " transform="matrix(1,0,0,-1,158.34,14.771)"/>
</g>
<g clip-path="url(#clip19)" clip-rule="nonzero">
<path style="fill:none;stroke-width:1.19553;stroke-linecap:butt;stroke-linejoin:miter;stroke:rgb(0%,0%,0%);stroke-opacity:1;stroke-miterlimit:10;" d="M -0.1395 0.00146875 L 2.098781 14.173344 " transform="matrix(1,0,0,-1,161.577,14.771)"/>
</g>
</g>
</svg>
