<?xml version="1.0" encoding="UTF-8"?>
<svg xmlns="http://www.w3.org/2000/svg" xmlns:xlink="http://www.w3.org/1999/xlink" width="37.936pt" height="15.442pt" viewBox="0 0 37.936 15.442" version="1.1">
<defs>
<clipPath id="clip1">
  <path d="M 0 0 L 20 0 L 20 15.441406 L 0 15.441406 Z M 0 0 "/>
</clipPath>
<clipPath id="clip2">
  <path d="M 0 0 L 26 0 L 26 15.441406 L 0 15.441406 Z M 0 0 "/>
</clipPath>
<clipPath id="clip3">
  <path d="M 0 0 L 29 0 L 29 15.441406 L 0 15.441406 Z M 0 0 "/>
</clipPath>
<clipPath id="clip4">
  <path d="M 0 0 L 35 0 L 35 15.441406 L 0 15.441406 Z M 0 0 "/>
</clipPath>
<clipPath id="clip5">
  <path d="M 1 0 L 37.9375 0 L 37.9375 15.441406 L 1 15.441406 Z M 1 0 "/>
</clipPath>
<clipPath id="clip6">
  <path d="M 5 0 L 37.9375 0 L 37.9375 15.441406 L 5 15.441406 Z M 5 0 "/>
</clipPath>
<clipPath id="clip7">
  <path d="M 12 0 L 37.9375 0 L 37.9375 15.441406 L 12 15.441406 Z M 12 0 "/>
</clipPath>
<clipPath id="clip8">
  <path d="M 16 0 L 37.9375 0 L 37.9375 15.441406 L 16 15.441406 Z M 16 0 "/>
</clipPath>
</defs>
<g id="surface1">
<g clip-path="url(#clip1)" clip-rule="nonzero">
<path style="fill:none;stroke-width:1.28685;stroke-linecap:butt;stroke-linejoin:miter;stroke:rgb(0%,0%,0%);stroke-opacity:1;stroke-miterlimit:10;" d="M -1.25675 -0.00178125 L -1.768469 14.154469 " transform="matrix(1,0,0,-1,2.413,14.799)"/>
</g>
<g clip-path="url(#clip2)" clip-rule="nonzero">
<path style="fill:none;stroke-width:1.28685;stroke-linecap:butt;stroke-linejoin:miter;stroke:rgb(0%,0%,0%);stroke-opacity:1;stroke-miterlimit:10;" d="M 2.112594 -0.00178125 L 0.886031 14.154469 " transform="matrix(1,0,0,-1,4.696,14.799)"/>
</g>
<g clip-path="url(#clip3)" clip-rule="nonzero">
<path style="fill:none;stroke-width:1.28685;stroke-linecap:butt;stroke-linejoin:miter;stroke:rgb(0%,0%,0%);stroke-opacity:1;stroke-miterlimit:10;" d="M -0.998844 -0.00178125 L -2.026187 14.154469 " transform="matrix(1,0,0,-1,11.409,14.799)"/>
</g>
<g clip-path="url(#clip4)" clip-rule="nonzero">
<path style="fill:none;stroke-width:1.28685;stroke-linecap:butt;stroke-linejoin:miter;stroke:rgb(0%,0%,0%);stroke-opacity:1;stroke-miterlimit:10;" d="M -2.171062 -0.00178125 L 0.598469 14.154469 " transform="matrix(1,0,0,-1,16.007,14.799)"/>
</g>
<g clip-path="url(#clip5)" clip-rule="nonzero">
<path style="fill:none;stroke-width:1.28685;stroke-linecap:butt;stroke-linejoin:miter;stroke:rgb(0%,0%,0%);stroke-opacity:1;stroke-miterlimit:10;" d="M 0.828281 -0.00178125 L 2.511875 14.154469 " transform="matrix(1,0,0,-1,19.035,14.799)"/>
</g>
<g clip-path="url(#clip6)" clip-rule="nonzero">
<path style="fill:none;stroke-width:1.28685;stroke-linecap:butt;stroke-linejoin:miter;stroke:rgb(0%,0%,0%);stroke-opacity:1;stroke-miterlimit:10;" d="M -1.455906 -0.00178125 L 2.14175 14.154469 " transform="matrix(1,0,0,-1,25.577,14.799)"/>
</g>
<g clip-path="url(#clip7)" clip-rule="nonzero">
<path style="fill:none;stroke-width:1.28685;stroke-linecap:butt;stroke-linejoin:miter;stroke:rgb(0%,0%,0%);stroke-opacity:1;stroke-miterlimit:10;" d="M 1.171469 -0.00178125 L -1.141031 14.154469 " transform="matrix(1,0,0,-1,31.434,14.799)"/>
</g>
<g clip-path="url(#clip8)" clip-rule="nonzero">
<path style="fill:none;stroke-width:1.28685;stroke-linecap:butt;stroke-linejoin:miter;stroke:rgb(0%,0%,0%);stroke-opacity:1;stroke-miterlimit:10;" d="M 0.911906 -0.00178125 L 0.0837813 14.154469 " transform="matrix(1,0,0,-1,35.092,14.799)"/>
</g>
</g>
</svg>
