<?xml version="1.0" encoding="UTF-8"?>
<svg xmlns="http://www.w3.org/2000/svg" xmlns:xlink="http://www.w3.org/1999/xlink" width="68.399pt" height="15.442pt" viewBox="0 0 68.399 15.442" version="1.1">
<defs>
<clipPath id="clip1">
  <path d="M 0 0 L 20 0 L 20 15.441406 L 0 15.441406 Z M 0 0 "/>
</clipPath>
<clipPath id="clip2">
  <path d="M 9 0 L 48 0 L 48 15.441406 L 9 15.441406 Z M 9 0 "/>
</clipPath>
<clipPath id="clip3">
  <path d="M 13 0 L 51 0 L 51 15.441406 L 13 15.441406 Z M 13 0 "/>
</clipPath>
<clipPath id="clip4">
  <path d="M 39 0 L 68.398438 0 L 68.398438 15.441406 L 39 15.441406 Z M 39 0 "/>
</clipPath>
<clipPath id="clip5">
  <path d="M 44 0 L 68.398438 0 L 68.398438 15.441406 L 44 15.441406 Z M 44 0 "/>
</clipPath>
</defs>
<g id="surface1">
<g clip-path="url(#clip1)" clip-rule="nonzero">
<path style="fill:none;stroke-width:1.28685;stroke-linecap:butt;stroke-linejoin:miter;stroke:rgb(0%,0%,0%);stroke-opacity:1;stroke-miterlimit:10;" d="M -1.455219 -0.00178125 L -2.111469 14.154469 " transform="matrix(1,0,0,-1,2.756,14.799)"/>
</g>
<g clip-path="url(#clip2)" clip-rule="nonzero">
<path style="fill:none;stroke-width:1.28685;stroke-linecap:butt;stroke-linejoin:miter;stroke:rgb(0%,0%,0%);stroke-opacity:1;stroke-miterlimit:10;" d="M 2.568687 -0.00178125 L 1.568687 14.154469 " transform="matrix(1,0,0,-1,26.486,14.799)"/>
</g>
<g clip-path="url(#clip3)" clip-rule="nonzero">
<path style="fill:none;stroke-width:1.28685;stroke-linecap:butt;stroke-linejoin:miter;stroke:rgb(0%,0%,0%);stroke-opacity:1;stroke-miterlimit:10;" d="M -2.398094 -0.00178125 L -2.198875 14.154469 " transform="matrix(1,0,0,-1,34.027,14.799)"/>
</g>
<g clip-path="url(#clip4)" clip-rule="nonzero">
<path style="fill:none;stroke-width:1.28685;stroke-linecap:butt;stroke-linejoin:miter;stroke:rgb(0%,0%,0%);stroke-opacity:1;stroke-miterlimit:10;" d="M -0.1985 -0.00178125 L -2.483656 14.154469 " transform="matrix(1,0,0,-1,60.386,14.799)"/>
</g>
<g clip-path="url(#clip5)" clip-rule="nonzero">
<path style="fill:none;stroke-width:1.28685;stroke-linecap:butt;stroke-linejoin:miter;stroke:rgb(0%,0%,0%);stroke-opacity:1;stroke-miterlimit:10;" d="M -2.396594 -0.00178125 L 1.25575 14.154469 " transform="matrix(1,0,0,-1,65.213,14.799)"/>
</g>
</g>
</svg>
