<?xml version="1.0" encoding="UTF-8"?>
<svg xmlns="http://www.w3.org/2000/svg" xmlns:xlink="http://www.w3.org/1999/xlink" width="66.085pt" height="58.49pt" viewBox="0 0 66.085 58.49" version="1.1">
<defs>
<clipPath id="clip1">
  <path d="M 14 49 L 24 49 L 24 58.488281 L 14 58.488281 Z M 14 49 "/>
</clipPath>
<clipPath id="clip2">
  <path d="M 42 49 L 52 49 L 52 58.488281 L 42 58.488281 Z M 42 49 "/>
</clipPath>
<clipPath id="clip3">
  <path d="M 56 24 L 66.085938 24 L 66.085938 34 L 56 34 Z M 56 24 "/>
</clipPath>
</defs>
<g id="surface1">
<path style=" stroke:none;fill-rule:nonzero;fill:rgb(0%,0%,0%);fill-opacity:1;" d="M 37.738281 29.246094 C 37.738281 26.652344 35.636719 24.546875 33.042969 24.546875 C 30.449219 24.546875 28.347656 26.652344 28.347656 29.246094 C 28.347656 31.839844 30.449219 33.941406 33.042969 33.941406 C 35.636719 33.941406 37.738281 31.839844 37.738281 29.246094 Z M 37.738281 29.246094 "/>
<path style=" stroke:none;fill-rule:nonzero;fill:rgb(0%,0%,0%);fill-opacity:1;" d="M 51.914062 4.695312 C 51.914062 2.101562 49.808594 0 47.214844 0 C 44.621094 0 42.519531 2.101562 42.519531 4.695312 C 42.519531 7.289062 44.621094 9.390625 47.214844 9.390625 C 49.808594 9.390625 51.914062 7.289062 51.914062 4.695312 Z M 51.914062 4.695312 "/>
<path style="fill:none;stroke-width:0.3985;stroke-linecap:butt;stroke-linejoin:miter;stroke:rgb(0%,0%,0%);stroke-opacity:1;stroke-miterlimit:10;" d="M 2.449188 4.241094 L 11.726531 20.311406 " transform="matrix(1,0,0,-1,33.043,29.245)"/>
<path style=" stroke:none;fill-rule:nonzero;fill:rgb(0%,0%,0%);fill-opacity:1;" d="M 23.566406 4.695312 C 23.566406 2.101562 21.464844 0 18.871094 0 C 16.277344 0 14.171875 2.101562 14.171875 4.695312 C 14.171875 7.289062 16.277344 9.390625 18.871094 9.390625 C 21.464844 9.390625 23.566406 7.289062 23.566406 4.695312 Z M 23.566406 4.695312 "/>
<path style="fill:none;stroke-width:0.3985;stroke-linecap:butt;stroke-linejoin:miter;stroke:rgb(0%,0%,0%);stroke-opacity:1;stroke-miterlimit:10;" d="M -2.44925 4.241094 L -11.726594 20.311406 " transform="matrix(1,0,0,-1,33.043,29.245)"/>
<path style=" stroke:none;fill-rule:nonzero;fill:rgb(0%,0%,0%);fill-opacity:1;" d="M 9.390625 29.246094 C 9.390625 26.652344 7.289062 24.546875 4.695312 24.546875 C 2.101562 24.546875 0 26.652344 0 29.246094 C 0 31.839844 2.101562 33.941406 4.695312 33.941406 C 7.289062 33.941406 9.390625 31.839844 9.390625 29.246094 Z M 9.390625 29.246094 "/>
<path style="fill:none;stroke-width:0.3985;stroke-linecap:butt;stroke-linejoin:miter;stroke:rgb(0%,0%,0%);stroke-opacity:1;stroke-miterlimit:10;" d="M -4.894562 -0.00109375 L -23.453156 -0.00109375 " transform="matrix(1,0,0,-1,33.043,29.245)"/>
<g clip-path="url(#clip1)" clip-rule="nonzero">
<path style=" stroke:none;fill-rule:nonzero;fill:rgb(0%,0%,0%);fill-opacity:1;" d="M 23.566406 53.792969 C 23.566406 51.199219 21.464844 49.097656 18.871094 49.097656 C 16.277344 49.097656 14.171875 51.199219 14.171875 53.792969 C 14.171875 56.386719 16.277344 58.492188 18.871094 58.492188 C 21.464844 58.492188 23.566406 56.386719 23.566406 53.792969 Z M 23.566406 53.792969 "/>
</g>
<path style="fill:none;stroke-width:0.3985;stroke-linecap:butt;stroke-linejoin:miter;stroke:rgb(0%,0%,0%);stroke-opacity:1;stroke-miterlimit:10;" d="M -2.44925 -4.239375 L -11.726594 -20.309687 " transform="matrix(1,0,0,-1,33.043,29.245)"/>
<g clip-path="url(#clip2)" clip-rule="nonzero">
<path style=" stroke:none;fill-rule:nonzero;fill:rgb(0%,0%,0%);fill-opacity:1;" d="M 51.914062 53.792969 C 51.914062 51.199219 49.808594 49.097656 47.214844 49.097656 C 44.621094 49.097656 42.519531 51.199219 42.519531 53.792969 C 42.519531 56.386719 44.621094 58.492188 47.214844 58.492188 C 49.808594 58.492188 51.914062 56.386719 51.914062 53.792969 Z M 51.914062 53.792969 "/>
</g>
<path style="fill:none;stroke-width:0.3985;stroke-linecap:butt;stroke-linejoin:miter;stroke:rgb(0%,0%,0%);stroke-opacity:1;stroke-miterlimit:10;" d="M 2.449188 -4.239375 L 11.726531 -20.309687 " transform="matrix(1,0,0,-1,33.043,29.245)"/>
<g clip-path="url(#clip3)" clip-rule="nonzero">
<path style=" stroke:none;fill-rule:nonzero;fill:rgb(0%,0%,0%);fill-opacity:1;" d="M 66.085938 29.246094 C 66.085938 26.652344 63.984375 24.546875 61.390625 24.546875 C 58.796875 24.546875 56.695312 26.652344 56.695312 29.246094 C 56.695312 31.839844 58.796875 33.941406 61.390625 33.941406 C 63.984375 33.941406 66.085938 31.839844 66.085938 29.246094 Z M 66.085938 29.246094 "/>
</g>
<path style="fill:none;stroke-width:0.3985;stroke-linecap:butt;stroke-linejoin:miter;stroke:rgb(0%,0%,0%);stroke-opacity:1;stroke-miterlimit:10;" d="M 4.8945 -0.00109375 L 23.453094 -0.00109375 " transform="matrix(1,0,0,-1,33.043,29.245)"/>
</g>
</svg>
