<?xml version="1.0" encoding="UTF-8"?>
<svg xmlns="http://www.w3.org/2000/svg" xmlns:xlink="http://www.w3.org/1999/xlink" width="562.256287pt" height="649.23761pt" viewBox="0 0 562.256287 649.23761" version="1.1">
<g id="surface1">
<path style=" stroke:none;fill-rule:evenodd;fill:rgb(0%,0%,0%);fill-opacity:1;" d="M 4 484.617188 L 281.128906 644.617188 L 558.257812 484.617188 L 558.257812 164.617188 L 281.128906 4.617188 L 4 164.617188 Z M 4 484.617188 "/>
<path style="fill:none;stroke-width:8;stroke-linecap:butt;stroke-linejoin:miter;stroke:rgb(0%,0%,0%);stroke-opacity:1;stroke-miterlimit:4;" d="M 4 484.617188 L 281.128906 644.617188 L 558.257812 484.617188 L 558.257812 164.617188 L 281.128906 4.617188 L 4 164.617188 Z M 4 484.617188 "/>
<path style="fill:none;stroke-width:136;stroke-linecap:butt;stroke-linejoin:miter;stroke:rgb(0%,0%,0%);stroke-opacity:1;stroke-miterlimit:4;" d="M 4 324.617188 C 61.164062 324.617188 113.984375 355.113281 142.5625 404.617188 C 171.144531 454.121094 171.144531 515.113281 142.5625 564.617188 "/>
<path style="fill:none;stroke-width:136;stroke-linecap:butt;stroke-linejoin:miter;stroke:rgb(0%,0%,0%);stroke-opacity:1;stroke-miterlimit:4;" d="M 419.691406 84.617188 C 391.109375 134.121094 338.289062 164.617188 281.128906 164.617188 C 223.964844 164.617188 171.144531 134.121094 142.5625 84.617188 "/>
<path style="fill:none;stroke-width:136;stroke-linecap:butt;stroke-linejoin:miter;stroke:rgb(0%,0%,0%);stroke-opacity:1;stroke-miterlimit:4;" d="M 419.691406 564.617188 C 391.109375 515.113281 391.109375 454.121094 419.691406 404.617188 C 448.273438 355.113281 501.09375 324.617188 558.257812 324.617188 "/>
<path style="fill:none;stroke-width:120;stroke-linecap:butt;stroke-linejoin:miter;stroke:rgb(100%,100%,0%);stroke-opacity:1;stroke-miterlimit:4;" d="M 4 324.617188 C 61.164062 324.617188 113.984375 355.113281 142.5625 404.617188 C 171.144531 454.121094 171.144531 515.113281 142.5625 564.617188 "/>
<path style="fill:none;stroke-width:120;stroke-linecap:butt;stroke-linejoin:miter;stroke:rgb(0%,0%,100%);stroke-opacity:1;stroke-miterlimit:4;" d="M 419.691406 84.617188 C 391.109375 134.121094 338.289062 164.617188 281.128906 164.617188 C 223.964844 164.617188 171.144531 134.121094 142.5625 84.617188 "/>
<path style="fill:none;stroke-width:120;stroke-linecap:butt;stroke-linejoin:miter;stroke:rgb(0%,66.665649%,0%);stroke-opacity:1;stroke-miterlimit:4;" d="M 419.691406 564.617188 C 391.109375 515.113281 391.109375 454.121094 419.691406 404.617188 C 448.273438 355.113281 501.09375 324.617188 558.257812 324.617188 "/>
<path style="fill:none;stroke-width:8;stroke-linecap:butt;stroke-linejoin:miter;stroke:rgb(0%,0%,0%);stroke-opacity:1;stroke-miterlimit:4;" d="M 4 484.617188 L 281.128906 644.617188 L 558.257812 484.617188 L 558.257812 164.617188 L 281.128906 4.617188 L 4 164.617188 Z M 4 484.617188 "/>
</g>
</svg>
