<?xml version="1.0" encoding="UTF-8"?>
<svg xmlns="http://www.w3.org/2000/svg" xmlns:xlink="http://www.w3.org/1999/xlink" width="624.047607pt" height="557.511841pt" viewBox="0 0 624.047607 557.511841" version="1.1">
<defs>
<clipPath id="clip1">
  <path d="M 16 0 L 608 0 L 608 557.511719 L 16 557.511719 Z M 16 0 "/>
</clipPath>
<clipPath id="clip2">
  <path d="M 453 171 L 624.046875 171 L 624.046875 386 L 453 386 Z M 453 171 "/>
</clipPath>
<clipPath id="clip3">
  <path d="M 80 386 L 296 386 L 296 557.511719 L 80 557.511719 Z M 80 386 "/>
</clipPath>
<clipPath id="clip4">
  <path d="M 329 386 L 544 386 L 544 557.511719 L 329 557.511719 Z M 329 386 "/>
</clipPath>
</defs>
<g id="surface1">
<g clip-path="url(#clip1)" clip-rule="nonzero">
<path style="fill:none;stroke-width:8.407138;stroke-linecap:butt;stroke-linejoin:miter;stroke:rgb(0%,0%,0%);stroke-opacity:1;stroke-miterlimit:4;" d="M 560.265625 278.757812 C 560.265625 415.855469 449.125 527 312.023438 527 C 174.921875 527 63.78125 415.855469 63.78125 278.757812 C 63.78125 141.65625 174.921875 30.515625 312.023438 30.515625 C 449.125 30.515625 560.265625 141.65625 560.265625 278.757812 Z M 560.265625 278.757812 "/>
</g>
<path style=" stroke:none;fill-rule:nonzero;fill:rgb(100%,100%,0%);fill-opacity:1;" d="M 619.84375 278.753906 C 619.84375 311.660156 593.171875 338.332031 560.265625 338.332031 C 527.363281 338.332031 500.6875 311.660156 500.6875 278.753906 C 500.6875 245.851562 527.363281 219.175781 560.265625 219.175781 C 593.171875 219.175781 619.84375 245.851562 619.84375 278.753906 Z M 619.84375 278.753906 "/>
<g clip-path="url(#clip2)" clip-rule="nonzero">
<path style="fill:none;stroke-width:8.407138;stroke-linecap:butt;stroke-linejoin:miter;stroke:rgb(0%,0%,0%);stroke-opacity:1;stroke-miterlimit:4;" d="M 619.84375 278.753906 C 619.84375 311.660156 593.171875 338.332031 560.265625 338.332031 C 527.363281 338.332031 500.6875 311.660156 500.6875 278.753906 C 500.6875 245.851562 527.363281 219.175781 560.265625 219.175781 C 593.171875 219.175781 619.84375 245.851562 619.84375 278.753906 Z M 619.84375 278.753906 "/>
</g>
<path style="fill-rule:nonzero;fill:rgb(100%,0%,0%);fill-opacity:1;stroke-width:8.407138;stroke-linecap:butt;stroke-linejoin:miter;stroke:rgb(0%,0%,0%);stroke-opacity:1;stroke-miterlimit:4;" d="M 123.359375 278.757812 C 123.359375 311.660156 96.6875 338.335938 63.78125 338.335938 C 30.878906 338.335938 4.203125 311.660156 4.203125 278.757812 C 4.203125 245.851562 30.878906 219.179688 63.78125 219.179688 C 96.6875 219.179688 123.359375 245.851562 123.359375 278.757812 Z M 123.359375 278.757812 "/>
<path style="fill-rule:nonzero;fill:rgb(0%,66.665649%,0%);fill-opacity:1;stroke-width:7.280795;stroke-linecap:butt;stroke-linejoin:miter;stroke:rgb(0%,0%,0%);stroke-opacity:1;stroke-miterlimit:4;" d="M 192.623279 354.722543 C 192.6226 383.219029 169.521416 406.318217 141.026622 406.320467 C 112.530136 406.319788 89.430949 383.218604 89.431628 354.722119 C 89.432307 326.225633 112.530561 303.128137 141.025355 303.125886 C 169.521841 303.126565 192.623958 326.226058 192.623279 354.722543 Z M 192.623279 354.722543 " transform="matrix(0.57735,-1,1,0.57735,0,0)"/>
<path style=" stroke:none;fill-rule:nonzero;fill:rgb(100%,100%,0%);fill-opacity:1;" d="M 217.691406 442.144531 C 246.1875 458.597656 255.953125 495.035156 239.5 523.527344 C 223.046875 552.023438 186.609375 561.789062 158.113281 545.335938 C 129.617188 528.882812 119.855469 492.445312 136.308594 463.949219 C 152.757812 435.453125 189.195312 425.691406 217.691406 442.144531 Z M 217.691406 442.144531 "/>
<g clip-path="url(#clip3)" clip-rule="nonzero">
<path style="fill:none;stroke-width:7.280795;stroke-linecap:butt;stroke-linejoin:miter;stroke:rgb(0%,0%,0%);stroke-opacity:1;stroke-miterlimit:4;" d="M -237.345354 354.722746 C -237.346033 383.219232 -260.445525 406.321349 -288.939081 406.318979 C -317.435567 406.3183 -340.537684 383.218807 -340.537005 354.722321 C -340.536326 326.225836 -317.435142 303.126648 -288.938656 303.127327 C -260.443862 303.125076 -237.344675 326.22626 -237.345354 354.722746 Z M -237.345354 354.722746 " transform="matrix(0.57735,-1,1,0.57735,0,0)"/>
</g>
<path style="fill-rule:nonzero;fill:rgb(0%,66.665649%,0%);fill-opacity:1;stroke-width:7.280795;stroke-linecap:butt;stroke-linejoin:miter;stroke:rgb(0%,0%,0%);stroke-opacity:1;stroke-miterlimit:4;" d="M -77.596881 113.312722 C -77.596202 141.809208 -100.698319 164.9087 -129.194805 164.909379 C -157.689599 164.907129 -180.790784 141.807941 -180.788533 113.313147 C -180.789212 84.816661 -157.690024 61.715477 -129.193539 61.714798 C -100.698744 61.717049 -77.59756 84.816236 -77.596881 113.312722 Z M -77.596881 113.312722 " transform="matrix(-0.57735,-1,1,-0.57735,0,0)"/>
<path style=" stroke:none;fill-rule:nonzero;fill:rgb(100%,0%,0%);fill-opacity:1;" d="M 406.355469 442.144531 C 434.851562 425.691406 471.289062 435.453125 487.742188 463.949219 C 504.191406 492.445312 494.429688 528.882812 465.933594 545.335938 C 437.4375 561.789062 401 552.023438 384.550781 523.527344 C 368.097656 495.03125 377.859375 458.59375 406.355469 442.144531 Z M 406.355469 442.144531 "/>
<g clip-path="url(#clip4)" clip-rule="nonzero">
<path style="fill:none;stroke-width:7.280795;stroke-linecap:butt;stroke-linejoin:miter;stroke:rgb(0%,0%,0%);stroke-opacity:1;stroke-miterlimit:4;" d="M -507.565514 113.312519 C -507.564835 141.809005 -530.664023 164.910189 -559.160508 164.910868 C -587.655303 164.908617 -610.756487 141.80943 -610.757166 113.312944 C -610.757845 84.816458 -587.655728 61.716966 -559.160933 61.719216 C -530.664448 61.718537 -507.563263 84.817725 -507.565514 113.312519 Z M -507.565514 113.312519 " transform="matrix(-0.57735,-1,1,-0.57735,0,0)"/>
</g>
</g>
</svg>
