<?xml version="1.0" encoding="UTF-8"?>
<svg xmlns="http://www.w3.org/2000/svg" xmlns:xlink="http://www.w3.org/1999/xlink" width="238pt" height="103pt" viewBox="0 0 238 103" version="1.1">
<defs>
<clipPath id="clip1">
  <path d="M 38 0.882812 L 59 0.882812 L 59 16 L 38 16 Z M 38 0.882812 "/>
</clipPath>
<clipPath id="clip2">
  <path d="M 35 0.882812 L 104 0.882812 L 104 49 L 35 49 Z M 35 0.882812 "/>
</clipPath>
<clipPath id="clip3">
  <path d="M 33 0.882812 L 106 0.882812 L 106 83 L 33 83 Z M 33 0.882812 "/>
</clipPath>
<clipPath id="clip4">
  <path d="M 0 0.882812 L 63 0.882812 L 63 83 L 0 83 Z M 0 0.882812 "/>
</clipPath>
<clipPath id="clip5">
  <path d="M 179 0.882812 L 201 0.882812 L 201 16 L 179 16 Z M 179 0.882812 "/>
</clipPath>
<clipPath id="clip6">
  <path d="M 134 0.882812 L 203 0.882812 L 203 49 L 134 49 Z M 134 0.882812 "/>
</clipPath>
</defs>
<g id="surface1">
<path style=" stroke:none;fill-rule:nonzero;fill:rgb(0%,0%,0%);fill-opacity:1;" d="M 52.738281 5.589844 C 52.738281 3.097656 50.71875 1.078125 48.226562 1.078125 C 45.738281 1.078125 43.71875 3.097656 43.71875 5.589844 C 43.71875 8.078125 45.738281 10.097656 48.226562 10.097656 C 50.71875 10.097656 52.738281 8.078125 52.738281 5.589844 Z M 52.738281 5.589844 "/>
<g clip-path="url(#clip1)" clip-rule="nonzero">
<path style="fill:none;stroke-width:0.3985;stroke-linecap:butt;stroke-linejoin:miter;stroke:rgb(0%,0%,0%);stroke-opacity:1;stroke-miterlimit:10;" d="M 47.030281 92.126156 C 47.030281 94.618344 45.01075 96.637875 42.518562 96.637875 C 40.030281 96.637875 38.01075 94.618344 38.01075 92.126156 C 38.01075 89.637875 40.030281 87.618344 42.518562 87.618344 C 45.01075 87.618344 47.030281 89.637875 47.030281 92.126156 Z M 47.030281 92.126156 " transform="matrix(1,0,0,-1,5.708,97.716)"/>
</g>
<path style="fill-rule:nonzero;fill:rgb(0%,0%,0%);fill-opacity:1;stroke-width:0.3985;stroke-linecap:butt;stroke-linejoin:miter;stroke:rgb(0%,0%,0%);stroke-opacity:1;stroke-miterlimit:10;" d="M 89.549813 63.7785 C 89.549813 66.270688 87.530281 68.290219 85.042 68.290219 C 82.549813 68.290219 80.530281 66.270688 80.530281 63.7785 C 80.530281 61.290219 82.549813 59.270688 85.042 59.270688 C 87.530281 59.270688 89.549813 61.290219 89.549813 63.7785 Z M 89.549813 63.7785 " transform="matrix(1,0,0,-1,5.708,97.716)"/>
<path style="fill-rule:nonzero;fill:rgb(0%,0%,0%);fill-opacity:1;stroke-width:0.3985;stroke-linecap:butt;stroke-linejoin:miter;stroke:rgb(0%,0%,0%);stroke-opacity:1;stroke-miterlimit:10;" d="M 89.549813 28.344906 C 89.549813 30.837094 87.530281 32.856625 85.042 32.856625 C 82.549813 32.856625 80.530281 30.837094 80.530281 28.344906 C 80.530281 25.856625 82.549813 23.837094 85.042 23.837094 C 87.530281 23.837094 89.549813 25.856625 89.549813 28.344906 Z M 89.549813 28.344906 " transform="matrix(1,0,0,-1,5.708,97.716)"/>
<path style="fill-rule:nonzero;fill:rgb(0%,0%,0%);fill-opacity:1;stroke-width:0.3985;stroke-linecap:butt;stroke-linejoin:miter;stroke:rgb(0%,0%,0%);stroke-opacity:1;stroke-miterlimit:10;" d="M 47.030281 0.00115625 C 47.030281 2.489438 45.01075 4.508969 42.518562 4.508969 C 40.030281 4.508969 38.01075 2.489438 38.01075 0.00115625 C 38.01075 -2.491031 40.030281 -4.510562 42.518562 -4.510562 C 45.01075 -4.510562 47.030281 -2.491031 47.030281 0.00115625 Z M 47.030281 0.00115625 " transform="matrix(1,0,0,-1,5.708,97.716)"/>
<path style="fill-rule:nonzero;fill:rgb(0%,0%,0%);fill-opacity:1;stroke-width:0.3985;stroke-linecap:butt;stroke-linejoin:miter;stroke:rgb(0%,0%,0%);stroke-opacity:1;stroke-miterlimit:10;" d="M 4.51075 28.344906 C 4.51075 30.837094 2.491219 32.856625 -0.00096875 32.856625 C -2.48925 32.856625 -4.508781 30.837094 -4.508781 28.344906 C -4.508781 25.856625 -2.48925 23.837094 -0.00096875 23.837094 C 2.491219 23.837094 4.51075 25.856625 4.51075 28.344906 Z M 4.51075 28.344906 " transform="matrix(1,0,0,-1,5.708,97.716)"/>
<path style="fill-rule:nonzero;fill:rgb(0%,0%,0%);fill-opacity:1;stroke-width:0.3985;stroke-linecap:butt;stroke-linejoin:miter;stroke:rgb(0%,0%,0%);stroke-opacity:1;stroke-miterlimit:10;" d="M 4.51075 63.7785 C 4.51075 66.270688 2.491219 68.290219 -0.00096875 68.290219 C -2.48925 68.290219 -4.508781 66.270688 -4.508781 63.7785 C -4.508781 61.290219 -2.48925 59.270688 -0.00096875 59.270688 C 2.491219 59.270688 4.51075 61.290219 4.51075 63.7785 Z M 4.51075 63.7785 " transform="matrix(1,0,0,-1,5.708,97.716)"/>
<g clip-path="url(#clip2)" clip-rule="nonzero">
<path style="fill:none;stroke-width:1.19553;stroke-linecap:butt;stroke-linejoin:miter;stroke:rgb(0%,0%,0%);stroke-opacity:1;stroke-miterlimit:10;" d="M 46.436531 89.516781 L 81.124031 66.391781 " transform="matrix(1,0,0,-1,5.708,97.716)"/>
</g>
<g clip-path="url(#clip3)" clip-rule="nonzero">
<path style="fill:none;stroke-width:1.19553;stroke-linecap:butt;stroke-linejoin:miter;stroke:rgb(0%,0%,0%);stroke-opacity:1;stroke-miterlimit:10;" d="M 45.131844 88.208188 L 82.428719 32.262875 " transform="matrix(1,0,0,-1,5.708,97.716)"/>
</g>
<path style="fill:none;stroke-width:1.19553;stroke-linecap:butt;stroke-linejoin:miter;stroke:rgb(0%,0%,0%);stroke-opacity:1;stroke-miterlimit:10;" d="M 42.518562 87.419125 L 42.518562 4.708188 " transform="matrix(1,0,0,-1,5.708,97.716)"/>
<g clip-path="url(#clip4)" clip-rule="nonzero">
<path style="fill:none;stroke-width:1.19553;stroke-linecap:butt;stroke-linejoin:miter;stroke:rgb(0%,0%,0%);stroke-opacity:1;stroke-miterlimit:10;" d="M 39.909187 88.208188 L 2.612312 32.262875 " transform="matrix(1,0,0,-1,5.708,97.716)"/>
</g>
<path style="fill:none;stroke-width:1.19553;stroke-linecap:butt;stroke-linejoin:miter;stroke:rgb(0%,0%,0%);stroke-opacity:1;stroke-miterlimit:10;" d="M 82.428719 59.864438 L 45.131844 3.919125 " transform="matrix(1,0,0,-1,5.708,97.716)"/>
<path style="fill:none;stroke-width:1.19553;stroke-linecap:butt;stroke-linejoin:miter;stroke:rgb(0%,0%,0%);stroke-opacity:1;stroke-miterlimit:10;" d="M 80.331063 63.7785 L 4.709969 63.7785 " transform="matrix(1,0,0,-1,5.708,97.716)"/>
<path style="fill:none;stroke-width:1.19553;stroke-linecap:butt;stroke-linejoin:miter;stroke:rgb(0%,0%,0%);stroke-opacity:1;stroke-miterlimit:10;" d="M 80.331063 28.344906 L 4.709969 28.344906 " transform="matrix(1,0,0,-1,5.708,97.716)"/>
<path style="fill:none;stroke-width:1.19553;stroke-linecap:butt;stroke-linejoin:miter;stroke:rgb(0%,0%,0%);stroke-opacity:1;stroke-miterlimit:10;" d="M -0.00096875 33.055844 L -0.00096875 59.071469 " transform="matrix(1,0,0,-1,5.708,97.716)"/>
<path style=" stroke:none;fill-rule:nonzero;fill:rgb(0%,0%,0%);fill-opacity:1;" d="M 194.472656 5.589844 C 194.472656 3.097656 192.453125 1.078125 189.960938 1.078125 C 187.472656 1.078125 185.453125 3.097656 185.453125 5.589844 C 185.453125 8.078125 187.472656 10.097656 189.960938 10.097656 C 192.453125 10.097656 194.472656 8.078125 194.472656 5.589844 Z M 194.472656 5.589844 "/>
<g clip-path="url(#clip5)" clip-rule="nonzero">
<path style="fill:none;stroke-width:0.3985;stroke-linecap:butt;stroke-linejoin:miter;stroke:rgb(0%,0%,100%);stroke-opacity:1;stroke-miterlimit:10;" d="M 188.764656 92.126156 C 188.764656 94.618344 186.745125 96.637875 184.252938 96.637875 C 181.764656 96.637875 179.745125 94.618344 179.745125 92.126156 C 179.745125 89.637875 181.764656 87.618344 184.252938 87.618344 C 186.745125 87.618344 188.764656 89.637875 188.764656 92.126156 Z M 188.764656 92.126156 " transform="matrix(1,0,0,-1,5.708,97.716)"/>
</g>
<path style="fill-rule:nonzero;fill:rgb(0%,0%,0%);fill-opacity:1;stroke-width:0.3985;stroke-linecap:butt;stroke-linejoin:miter;stroke:rgb(0%,0%,100%);stroke-opacity:1;stroke-miterlimit:10;" d="M 231.284188 63.7785 C 231.284188 66.270688 229.264656 68.290219 226.776375 68.290219 C 224.284188 68.290219 222.264656 66.270688 222.264656 63.7785 C 222.264656 61.290219 224.284188 59.270688 226.776375 59.270688 C 229.264656 59.270688 231.284188 61.290219 231.284188 63.7785 Z M 231.284188 63.7785 " transform="matrix(1,0,0,-1,5.708,97.716)"/>
<path style="fill-rule:nonzero;fill:rgb(0%,0%,0%);fill-opacity:1;stroke-width:0.3985;stroke-linecap:butt;stroke-linejoin:miter;stroke:rgb(0%,0%,100%);stroke-opacity:1;stroke-miterlimit:10;" d="M 231.284188 28.344906 C 231.284188 30.837094 229.264656 32.856625 226.776375 32.856625 C 224.284188 32.856625 222.264656 30.837094 222.264656 28.344906 C 222.264656 25.856625 224.284188 23.837094 226.776375 23.837094 C 229.264656 23.837094 231.284188 25.856625 231.284188 28.344906 Z M 231.284188 28.344906 " transform="matrix(1,0,0,-1,5.708,97.716)"/>
<path style="fill-rule:nonzero;fill:rgb(0%,0%,0%);fill-opacity:1;stroke-width:0.3985;stroke-linecap:butt;stroke-linejoin:miter;stroke:rgb(0%,0%,100%);stroke-opacity:1;stroke-miterlimit:10;" d="M 188.764656 0.00115625 C 188.764656 2.489438 186.745125 4.508969 184.252938 4.508969 C 181.764656 4.508969 179.745125 2.489438 179.745125 0.00115625 C 179.745125 -2.491031 181.764656 -4.510562 184.252938 -4.510562 C 186.745125 -4.510562 188.764656 -2.491031 188.764656 0.00115625 Z M 188.764656 0.00115625 " transform="matrix(1,0,0,-1,5.708,97.716)"/>
<path style="fill-rule:nonzero;fill:rgb(0%,0%,0%);fill-opacity:1;stroke-width:0.3985;stroke-linecap:butt;stroke-linejoin:miter;stroke:rgb(0%,0%,100%);stroke-opacity:1;stroke-miterlimit:10;" d="M 146.241219 28.344906 C 146.241219 30.837094 144.225594 32.856625 141.733406 32.856625 C 139.245125 32.856625 137.225594 30.837094 137.225594 28.344906 C 137.225594 25.856625 139.245125 23.837094 141.733406 23.837094 C 144.225594 23.837094 146.241219 25.856625 146.241219 28.344906 Z M 146.241219 28.344906 " transform="matrix(1,0,0,-1,5.708,97.716)"/>
<path style="fill-rule:nonzero;fill:rgb(0%,0%,0%);fill-opacity:1;stroke-width:0.3985;stroke-linecap:butt;stroke-linejoin:miter;stroke:rgb(0%,0%,100%);stroke-opacity:1;stroke-miterlimit:10;" d="M 146.241219 63.7785 C 146.241219 66.270688 144.225594 68.290219 141.733406 68.290219 C 139.245125 68.290219 137.225594 66.270688 137.225594 63.7785 C 137.225594 61.290219 139.245125 59.270688 141.733406 59.270688 C 144.225594 59.270688 146.241219 61.290219 146.241219 63.7785 Z M 146.241219 63.7785 " transform="matrix(1,0,0,-1,5.708,97.716)"/>
<g clip-path="url(#clip6)" clip-rule="nonzero">
<path style="fill:none;stroke-width:1.19553;stroke-linecap:butt;stroke-linejoin:miter;stroke:rgb(0%,0%,100%);stroke-opacity:1;stroke-miterlimit:10;" d="M 180.334969 89.516781 L 145.651375 66.391781 " transform="matrix(1,0,0,-1,5.708,97.716)"/>
</g>
<path style="fill:none;stroke-width:1.19553;stroke-linecap:butt;stroke-linejoin:miter;stroke:rgb(0%,0%,100%);stroke-opacity:1;stroke-miterlimit:10;" d="M 226.776375 59.071469 L 226.776375 33.055844 " transform="matrix(1,0,0,-1,5.708,97.716)"/>
<path style="fill:none;stroke-width:1.19553;stroke-linecap:butt;stroke-linejoin:miter;stroke:rgb(0%,0%,100%);stroke-opacity:1;stroke-miterlimit:10;" d="M 222.428719 61.969906 L 146.081063 30.157406 " transform="matrix(1,0,0,-1,5.708,97.716)"/>
<path style="fill:none;stroke-width:1.19553;stroke-linecap:butt;stroke-linejoin:miter;stroke:rgb(0%,0%,100%);stroke-opacity:1;stroke-miterlimit:10;" d="M 222.858406 25.735531 L 188.170906 2.610531 " transform="matrix(1,0,0,-1,5.708,97.716)"/>
<path style="fill:none;stroke-width:1.19553;stroke-linecap:butt;stroke-linejoin:miter;stroke:rgb(0%,0%,100%);stroke-opacity:1;stroke-miterlimit:10;" d="M 222.428719 30.157406 L 146.081063 61.969906 " transform="matrix(1,0,0,-1,5.708,97.716)"/>
<path style="fill:none;stroke-width:1.19553;stroke-linecap:butt;stroke-linejoin:miter;stroke:rgb(0%,0%,100%);stroke-opacity:1;stroke-miterlimit:10;" d="M 180.334969 2.610531 L 145.651375 25.735531 " transform="matrix(1,0,0,-1,5.708,97.716)"/>
<path style="fill:none;stroke-width:1.19553;stroke-linecap:butt;stroke-linejoin:miter;stroke:rgb(0%,0%,100%);stroke-opacity:1;stroke-miterlimit:10;" d="M 181.643563 3.919125 L 144.346688 59.864438 " transform="matrix(1,0,0,-1,5.708,97.716)"/>
</g>
</svg>
