<?xml version="1.0" encoding="UTF-8"?>
<svg xmlns="http://www.w3.org/2000/svg" xmlns:xlink="http://www.w3.org/1999/xlink" width="200" height="70" viewBox="0 0 200 70">
<path fill-rule="nonzero" fill="rgb(75%, 75%, 75%)" fill-opacity="1" stroke-width="0.3985" stroke-linecap="butt" stroke-linejoin="miter" stroke="rgb(75%, 75%, 75%)" stroke-opacity="1" stroke-miterlimit="10" d="M 0.00021875 85.040687 L 0.00021875 70.868812 L 56.695531 70.868812 L 56.695531 85.040687 Z M 0.00021875 85.040687 " transform="matrix(1, 0, 0, -1, 1.199, 113.236)"/>
<path fill-rule="nonzero" fill="rgb(75%, 75%, 75%)" fill-opacity="1" stroke-width="0.3985" stroke-linecap="butt" stroke-linejoin="miter" stroke="rgb(75%, 75%, 75%)" stroke-opacity="1" stroke-miterlimit="10" d="M 113.386937 92.126625 L 113.386937 63.778969 L 155.906469 63.778969 L 155.906469 92.126625 Z M 113.386937 92.126625 " transform="matrix(1, 0, 0, -1, 1.199, 113.236)"/>
<path fill-rule="nonzero" fill="rgb(75%, 75%, 75%)" fill-opacity="1" stroke-width="0.3985" stroke-linecap="butt" stroke-linejoin="miter" stroke="rgb(75%, 75%, 75%)" stroke-opacity="1" stroke-miterlimit="10" d="M 141.734594 77.95475 C 141.734594 93.611 116.351781 106.302406 85.039281 106.302406 C 53.730687 106.302406 28.347875 93.611 28.347875 77.95475 C 28.347875 62.2985 53.730687 49.607094 85.039281 49.607094 C 116.351781 49.607094 141.734594 62.2985 141.734594 77.95475 Z M 141.734594 77.95475 " transform="matrix(1, 0, 0, -1, 1.199, 113.236)"/>
<path fill-rule="nonzero" fill="rgb(100%, 100%, 100%)" fill-opacity="1" stroke-width="0.3985" stroke-linecap="butt" stroke-linejoin="miter" stroke="rgb(100%, 100%, 100%)" stroke-opacity="1" stroke-miterlimit="10" d="M 127.558812 77.95475 C 127.558812 89.696937 108.523656 99.212562 85.039281 99.212562 C 61.554906 99.212562 42.51975 89.696937 42.51975 77.95475 C 42.51975 66.212562 61.554906 56.693031 85.039281 56.693031 C 108.523656 56.693031 127.558812 66.212562 127.558812 77.95475 Z M 127.558812 77.95475 " transform="matrix(1, 0, 0, -1, 1.199, 113.236)"/>
<path fill-rule="nonzero" fill="rgb(75%, 75%, 75%)" fill-opacity="1" stroke-width="0.3985" stroke-linecap="butt" stroke-linejoin="miter" stroke="rgb(75%, 75%, 75%)" stroke-opacity="1" stroke-miterlimit="10" d="M 198.426 107.716469 C 167.117406 107.716469 141.734594 95.025062 141.734594 79.372719 C 141.734594 63.716469 167.117406 51.025062 198.426 51.025062 " transform="matrix(1, 0, 0, -1, 1.199, 113.236)"/>
<path fill-rule="nonzero" fill="rgb(100%, 100%, 100%)" fill-opacity="1" stroke-width="0.3985" stroke-linecap="butt" stroke-linejoin="miter" stroke="rgb(100%, 100%, 100%)" stroke-opacity="1" stroke-miterlimit="10" d="M 205.515844 100.630531 C 178.117406 100.630531 155.906469 91.111 155.906469 79.372719 C 155.906469 67.630531 178.117406 58.111 205.515844 58.111 " transform="matrix(1, 0, 0, -1, 1.199, 113.236)"/>
<path fill-rule="nonzero" fill="rgb(50%, 50%, 50%)" fill-opacity="1" stroke-width="0.3985" stroke-linecap="butt" stroke-linejoin="miter" stroke="rgb(50%, 50%, 50%)" stroke-opacity="1" stroke-miterlimit="10" d="M 67.160375 111.728187 L 59.168187 108.818031 L 66.441625 88.841469 L 74.433812 91.747719 Z M 67.160375 111.728187 " transform="matrix(1, 0, 0, -1, 1.199, 113.236)"/>
<path fill-rule="nonzero" fill="rgb(50%, 50%, 50%)" fill-opacity="1" stroke-width="0.3985" stroke-linecap="butt" stroke-linejoin="miter" stroke="rgb(50%, 50%, 50%)" stroke-opacity="1" stroke-miterlimit="10" d="M 67.156469 67.275062 L 75.148656 64.368812 L 67.875219 44.388344 L 59.883031 47.2985 Z M 67.156469 67.275062 " transform="matrix(1, 0, 0, -1, 1.199, 113.236)"/>
<path fill-rule="nonzero" fill="rgb(50%, 50%, 50%)" fill-opacity="1" stroke-width="0.3985" stroke-linecap="butt" stroke-linejoin="miter" stroke="rgb(50%, 50%, 50%)" stroke-opacity="1" stroke-miterlimit="10" d="M 94.859594 92.474281 L 102.847875 89.564125 L 110.121312 109.544594 L 102.129125 112.450844 Z M 94.859594 92.474281 " transform="matrix(1, 0, 0, -1, 1.199, 113.236)"/>
<path fill-rule="nonzero" fill="rgb(50%, 50%, 50%)" fill-opacity="1" stroke-width="0.3985" stroke-linecap="butt" stroke-linejoin="miter" stroke="rgb(50%, 50%, 50%)" stroke-opacity="1" stroke-miterlimit="10" d="M 95.656469 64.290687 L 103.648656 67.200844 L 110.922094 47.220375 L 102.929906 44.314125 Z M 95.656469 64.290687 " transform="matrix(1, 0, 0, -1, 1.199, 113.236)"/>
<path fill-rule="nonzero" fill="rgb(50%, 50%, 50%)" fill-opacity="1" stroke-width="0.3985" stroke-linecap="butt" stroke-linejoin="miter" stroke="rgb(50%, 50%, 50%)" stroke-opacity="1" stroke-miterlimit="10" d="M 120.472875 82.20475 L 120.472875 73.700844 L 162.992406 73.700844 L 162.992406 82.20475 Z M 120.472875 82.20475 " transform="matrix(1, 0, 0, -1, 1.199, 113.236)"/>
<path fill-rule="nonzero" fill="rgb(50%, 50%, 50%)" fill-opacity="1" stroke-width="0.3985" stroke-linecap="butt" stroke-linejoin="miter" stroke="rgb(50%, 50%, 50%)" stroke-opacity="1" stroke-miterlimit="10" d="M 165.386937 105.747719 L 171.902562 111.216469 L 185.570531 94.931312 L 179.054906 89.462562 Z M 165.386937 105.747719 " transform="matrix(1, 0, 0, -1, 1.199, 113.236)"/>
<path fill-rule="nonzero" fill="rgb(50%, 50%, 50%)" fill-opacity="1" stroke-width="0.3985" stroke-linecap="butt" stroke-linejoin="miter" stroke="rgb(50%, 50%, 50%)" stroke-opacity="1" stroke-miterlimit="10" d="M 171.902562 44.693031 L 165.386937 50.157875 L 179.054906 66.443031 L 185.570531 60.978187 Z M 171.902562 44.693031 " transform="matrix(1, 0, 0, -1, 1.199, 113.236)"/>
</svg>
