<?xml version="1.0" encoding="UTF-8"?>
<svg xmlns="http://www.w3.org/2000/svg" xmlns:xlink="http://www.w3.org/1999/xlink" width="200pt" height="124pt" viewBox="0 0 200 124" version="1.1">
<defs>
<clipPath id="clip1">
  <path d="M 76 0.882812 L 97 0.882812 L 97 16 L 76 16 Z M 76 0.882812 "/>
</clipPath>
</defs>
<g id="surface1">
<path style="fill-rule:nonzero;fill:rgb(63.999939%,67.999268%,81.999207%);fill-opacity:1;stroke-width:0.3985;stroke-linecap:butt;stroke-linejoin:miter;stroke:rgb(63.999939%,67.999268%,81.999207%);stroke-opacity:1;stroke-miterlimit:10;" d="M 0.00021875 85.040687 L 0.00021875 70.868812 L 56.695531 70.868812 L 56.695531 85.040687 Z M 0.00021875 85.040687 " transform="matrix(1,0,0,-1,1.199,140.236)"/>
<path style="fill-rule:nonzero;fill:rgb(63.999939%,67.999268%,81.999207%);fill-opacity:1;stroke-width:0.3985;stroke-linecap:butt;stroke-linejoin:miter;stroke:rgb(63.999939%,67.999268%,81.999207%);stroke-opacity:1;stroke-miterlimit:10;" d="M 113.386937 92.126625 L 113.386937 63.778969 L 155.906469 63.778969 L 155.906469 92.126625 Z M 113.386937 92.126625 " transform="matrix(1,0,0,-1,1.199,140.236)"/>
<path style="fill-rule:nonzero;fill:rgb(63.999939%,67.999268%,81.999207%);fill-opacity:1;stroke-width:0.3985;stroke-linecap:butt;stroke-linejoin:miter;stroke:rgb(63.999939%,67.999268%,81.999207%);stroke-opacity:1;stroke-miterlimit:10;" d="M 141.734594 77.95475 C 141.734594 93.611 116.351781 106.302406 85.039281 106.302406 C 53.730687 106.302406 28.347875 93.611 28.347875 77.95475 C 28.347875 62.2985 53.730687 49.607094 85.039281 49.607094 C 116.351781 49.607094 141.734594 62.2985 141.734594 77.95475 Z M 141.734594 77.95475 " transform="matrix(1,0,0,-1,1.199,140.236)"/>
<path style="fill-rule:nonzero;fill:rgb(100%,100%,100%);fill-opacity:1;stroke-width:0.3985;stroke-linecap:butt;stroke-linejoin:miter;stroke:rgb(100%,100%,100%);stroke-opacity:1;stroke-miterlimit:10;" d="M 127.558812 77.95475 C 127.558812 89.696937 108.523656 99.212562 85.039281 99.212562 C 61.554906 99.212562 42.51975 89.696937 42.51975 77.95475 C 42.51975 66.212562 61.554906 56.693031 85.039281 56.693031 C 108.523656 56.693031 127.558812 66.212562 127.558812 77.95475 Z M 127.558812 77.95475 " transform="matrix(1,0,0,-1,1.199,140.236)"/>
<path style="fill-rule:nonzero;fill:rgb(63.999939%,67.999268%,81.999207%);fill-opacity:1;stroke-width:0.3985;stroke-linecap:butt;stroke-linejoin:miter;stroke:rgb(63.999939%,67.999268%,81.999207%);stroke-opacity:1;stroke-miterlimit:10;" d="M 198.426 107.716469 C 167.117406 107.716469 141.734594 95.025062 141.734594 79.372719 C 141.734594 63.716469 167.117406 51.025062 198.426 51.025062 " transform="matrix(1,0,0,-1,1.199,140.236)"/>
<path style="fill-rule:nonzero;fill:rgb(100%,100%,100%);fill-opacity:1;stroke-width:0.3985;stroke-linecap:butt;stroke-linejoin:miter;stroke:rgb(100%,100%,100%);stroke-opacity:1;stroke-miterlimit:10;" d="M 205.515844 100.630531 C 178.117406 100.630531 155.906469 91.111 155.906469 79.372719 C 155.906469 67.630531 178.117406 58.111 205.515844 58.111 " transform="matrix(1,0,0,-1,1.199,140.236)"/>
<path style="fill-rule:nonzero;fill:rgb(50%,50%,50%);fill-opacity:1;stroke-width:0.3985;stroke-linecap:butt;stroke-linejoin:miter;stroke:rgb(50%,50%,50%);stroke-opacity:1;stroke-miterlimit:10;" d="M 67.160375 111.728187 L 59.168187 108.818031 L 66.441625 88.841469 L 74.433812 91.747719 Z M 67.160375 111.728187 " transform="matrix(1,0,0,-1,1.199,140.236)"/>
<path style="fill-rule:nonzero;fill:rgb(50%,50%,50%);fill-opacity:1;stroke-width:0.3985;stroke-linecap:butt;stroke-linejoin:miter;stroke:rgb(50%,50%,50%);stroke-opacity:1;stroke-miterlimit:10;" d="M 67.156469 67.275062 L 75.148656 64.368812 L 67.875219 44.388344 L 59.883031 47.2985 Z M 67.156469 67.275062 " transform="matrix(1,0,0,-1,1.199,140.236)"/>
<path style="fill-rule:nonzero;fill:rgb(50%,50%,50%);fill-opacity:1;stroke-width:0.3985;stroke-linecap:butt;stroke-linejoin:miter;stroke:rgb(50%,50%,50%);stroke-opacity:1;stroke-miterlimit:10;" d="M 94.859594 92.474281 L 102.847875 89.564125 L 110.121312 109.544594 L 102.129125 112.450844 Z M 94.859594 92.474281 " transform="matrix(1,0,0,-1,1.199,140.236)"/>
<path style="fill-rule:nonzero;fill:rgb(50%,50%,50%);fill-opacity:1;stroke-width:0.3985;stroke-linecap:butt;stroke-linejoin:miter;stroke:rgb(50%,50%,50%);stroke-opacity:1;stroke-miterlimit:10;" d="M 95.656469 64.290687 L 103.648656 67.200844 L 110.922094 47.220375 L 102.929906 44.314125 Z M 95.656469 64.290687 " transform="matrix(1,0,0,-1,1.199,140.236)"/>
<path style="fill-rule:nonzero;fill:rgb(50%,50%,50%);fill-opacity:1;stroke-width:0.3985;stroke-linecap:butt;stroke-linejoin:miter;stroke:rgb(50%,50%,50%);stroke-opacity:1;stroke-miterlimit:10;" d="M 120.472875 82.20475 L 120.472875 73.700844 L 162.992406 73.700844 L 162.992406 82.20475 Z M 120.472875 82.20475 " transform="matrix(1,0,0,-1,1.199,140.236)"/>
<path style="fill-rule:nonzero;fill:rgb(50%,50%,50%);fill-opacity:1;stroke-width:0.3985;stroke-linecap:butt;stroke-linejoin:miter;stroke:rgb(50%,50%,50%);stroke-opacity:1;stroke-miterlimit:10;" d="M 165.386937 105.747719 L 171.902562 111.216469 L 185.570531 94.931312 L 179.054906 89.462562 Z M 165.386937 105.747719 " transform="matrix(1,0,0,-1,1.199,140.236)"/>
<path style="fill-rule:nonzero;fill:rgb(50%,50%,50%);fill-opacity:1;stroke-width:0.3985;stroke-linecap:butt;stroke-linejoin:miter;stroke:rgb(50%,50%,50%);stroke-opacity:1;stroke-miterlimit:10;" d="M 171.902562 44.693031 L 165.386937 50.157875 L 179.054906 66.443031 L 185.570531 60.978187 Z M 171.902562 44.693031 " transform="matrix(1,0,0,-1,1.199,140.236)"/>
<path style=" stroke:none;fill-rule:nonzero;fill:rgb(0%,0%,0%);fill-opacity:1;" d="M 90.75 5.589844 C 90.75 3.097656 88.730469 1.078125 86.238281 1.078125 C 83.75 1.078125 81.730469 3.097656 81.730469 5.589844 C 81.730469 8.078125 83.75 10.097656 86.238281 10.097656 C 88.730469 10.097656 90.75 8.078125 90.75 5.589844 Z M 90.75 5.589844 "/>
<g clip-path="url(#clip1)" clip-rule="nonzero">
<path style="fill:none;stroke-width:0.3985;stroke-linecap:butt;stroke-linejoin:miter;stroke:rgb(0%,0%,0%);stroke-opacity:1;stroke-miterlimit:10;" d="M 89.551 134.646156 C 89.551 137.138344 87.531469 139.157875 85.039281 139.157875 C 82.551 139.157875 80.531469 137.138344 80.531469 134.646156 C 80.531469 132.157875 82.551 130.138344 85.039281 130.138344 C 87.531469 130.138344 89.551 132.157875 89.551 134.646156 Z M 89.551 134.646156 " transform="matrix(1,0,0,-1,1.199,140.236)"/>
</g>
<path style="fill-rule:nonzero;fill:rgb(0%,0%,0%);fill-opacity:1;stroke-width:0.3985;stroke-linecap:butt;stroke-linejoin:miter;stroke:rgb(0%,0%,0%);stroke-opacity:1;stroke-miterlimit:10;" d="M 89.551 77.95475 C 89.551 80.443031 87.531469 82.462562 85.039281 82.462562 C 82.551 82.462562 80.531469 80.443031 80.531469 77.95475 C 80.531469 75.462562 82.551 73.443031 85.039281 73.443031 C 87.531469 73.443031 89.551 75.462562 89.551 77.95475 Z M 89.551 77.95475 " transform="matrix(1,0,0,-1,1.199,140.236)"/>
<path style="fill-rule:nonzero;fill:rgb(0%,0%,0%);fill-opacity:1;stroke-width:0.3985;stroke-linecap:butt;stroke-linejoin:miter;stroke:rgb(0%,0%,0%);stroke-opacity:1;stroke-miterlimit:10;" d="M 89.551 21.259437 C 89.551 23.751625 87.531469 25.76725 85.039281 25.76725 C 82.551 25.76725 80.531469 23.751625 80.531469 21.259437 C 80.531469 18.771156 82.551 16.751625 85.039281 16.751625 C 87.531469 16.751625 89.551 18.771156 89.551 21.259437 Z M 89.551 21.259437 " transform="matrix(1,0,0,-1,1.199,140.236)"/>
<path style="fill-rule:nonzero;fill:rgb(0%,0%,0%);fill-opacity:1;stroke-width:0.3985;stroke-linecap:butt;stroke-linejoin:miter;stroke:rgb(0%,0%,0%);stroke-opacity:1;stroke-miterlimit:10;" d="M 195.851781 77.95475 C 195.851781 80.443031 193.83225 82.462562 191.340062 82.462562 C 188.851781 82.462562 186.83225 80.443031 186.83225 77.95475 C 186.83225 75.462562 188.851781 73.443031 191.340062 73.443031 C 193.83225 73.443031 195.851781 75.462562 195.851781 77.95475 Z M 195.851781 77.95475 " transform="matrix(1,0,0,-1,1.199,140.236)"/>
</g>
</svg>
