<?xml version="1.0" encoding="UTF-8"?>
<svg xmlns="http://www.w3.org/2000/svg" xmlns:xlink="http://www.w3.org/1999/xlink" width="32pt" height="57pt" viewBox="0 0 32 57" version="1.1">
<g id="surface1">
<path style="fill-rule:nonzero;fill:rgb(0%,0%,0%);fill-opacity:1;stroke-width:0.3985;stroke-linecap:butt;stroke-linejoin:miter;stroke:rgb(0%,0%,0%);stroke-opacity:1;stroke-miterlimit:10;" d="M 4.507156 -0.0008125 C 4.507156 2.491375 2.491531 4.510906 -0.00065625 4.510906 C -2.488937 4.510906 -4.508469 2.491375 -4.508469 -0.0008125 C -4.508469 -2.489094 -2.488937 -4.508625 -0.00065625 -4.508625 C 2.491531 -4.508625 4.507156 -2.489094 4.507156 -0.0008125 Z M 4.507156 -0.0008125 " transform="matrix(1,0,0,-1,27.028,52.257)"/>
<path style="fill:none;stroke-width:1.19553;stroke-linecap:butt;stroke-linejoin:miter;stroke:rgb(0%,0%,0%);stroke-opacity:1;stroke-miterlimit:10;" d="M -25.906906 51.811688 L -2.531906 5.065594 " transform="matrix(1,0,0,-1,27.028,52.257)"/>
<path style="fill:none;stroke-width:0.9564;stroke-linecap:round;stroke-linejoin:round;stroke:rgb(0%,0%,0%);stroke-opacity:1;stroke-miterlimit:10;" d="M -1.911932 2.551448 C -1.75294 1.594057 0.00112845 0.157984 0.476332 -0.000995341 C -0.000615773 -0.159983 -1.752911 -1.594341 -1.911886 -2.549988 " transform="matrix(0.44717,0.89436,0.89436,-0.44717,24.49492,47.19073)"/>
</g>
</svg>
