<?xml version="1.0" encoding="UTF-8"?>
<svg xmlns="http://www.w3.org/2000/svg" xmlns:xlink="http://www.w3.org/1999/xlink" width="173" height="165" viewBox="0 0 173 165">
<defs>
<clipPath id="clip-0">
<path clip-rule="nonzero" d="M 76 0.882812 L 98 0.882812 L 98 16 L 76 16 Z M 76 0.882812 "/>
</clipPath>
<clipPath id="clip-1">
<path clip-rule="nonzero" d="M 0 0.882812 L 101 0.882812 L 101 78 L 0 78 Z M 0 0.882812 "/>
</clipPath>
<clipPath id="clip-2">
<path clip-rule="nonzero" d="M 73 0.882812 L 173 0.882812 L 173 80 L 73 80 Z M 73 0.882812 "/>
</clipPath>
<clipPath id="clip-3">
<path clip-rule="nonzero" d="M 69 0.882812 L 104 0.882812 L 104 48 L 69 48 Z M 69 0.882812 "/>
</clipPath>
</defs>
<path fill-rule="nonzero" fill="rgb(0%, 0%, 0%)" fill-opacity="1" d="M 91.601562 5.589844 C 91.601562 3.097656 89.585938 1.078125 87.09375 1.078125 C 84.605469 1.078125 82.585938 3.097656 82.585938 5.589844 C 82.585938 8.078125 84.605469 10.097656 87.09375 10.097656 C 89.585938 10.097656 91.601562 8.078125 91.601562 5.589844 Z M 91.601562 5.589844 "/>
<g clip-path="url(#clip-0)">
<path fill="none" stroke-width="0.3985" stroke-linecap="butt" stroke-linejoin="miter" stroke="rgb(0%, 0%, 0%)" stroke-opacity="1" stroke-miterlimit="10" d="M 5.249562 85.035156 C 5.249562 87.527344 3.233937 89.546875 0.74175 89.546875 C -1.746531 89.546875 -3.766063 87.527344 -3.766063 85.035156 C -3.766063 82.546875 -1.746531 80.527344 0.74175 80.527344 C 3.233937 80.527344 5.249562 82.546875 5.249562 85.035156 Z M 5.249562 85.035156 " transform="matrix(1, 0, 0, -1, 86.352, 90.625)"/>
</g>
<path fill-rule="nonzero" fill="rgb(0%, 0%, 0%)" fill-opacity="1" stroke-width="0.3985" stroke-linecap="butt" stroke-linejoin="miter" stroke="rgb(0%, 0%, 0%)" stroke-opacity="1" stroke-miterlimit="10" d="M -76.137156 26.984375 C -76.137156 29.472656 -78.152781 31.492188 -80.644969 31.492188 C -83.13325 31.492188 -85.152781 29.472656 -85.152781 26.984375 C -85.152781 24.492188 -83.13325 22.472656 -80.644969 22.472656 C -78.152781 22.472656 -76.137156 24.492188 -76.137156 26.984375 Z M -76.137156 26.984375 " transform="matrix(1, 0, 0, -1, 86.352, 90.625)"/>
<path fill-rule="nonzero" fill="rgb(0%, 0%, 0%)" fill-opacity="1" stroke-width="0.3985" stroke-linecap="butt" stroke-linejoin="miter" stroke="rgb(0%, 0%, 0%)" stroke-opacity="1" stroke-miterlimit="10" d="M -46.074656 -68.359375 C -46.074656 -65.867188 -48.094188 -63.851562 -50.582469 -63.851562 C -53.074656 -63.851562 -55.094188 -65.867188 -55.094188 -68.359375 C -55.094188 -70.851562 -53.074656 -72.867188 -50.582469 -72.867188 C -48.094188 -72.867188 -46.074656 -70.851562 -46.074656 -68.359375 Z M -46.074656 -68.359375 " transform="matrix(1, 0, 0, -1, 86.352, 90.625)"/>
<path fill-rule="nonzero" fill="rgb(0%, 0%, 0%)" fill-opacity="1" stroke-width="0.3985" stroke-linecap="butt" stroke-linejoin="miter" stroke="rgb(0%, 0%, 0%)" stroke-opacity="1" stroke-miterlimit="10" d="M 53.890187 -69.230469 C 53.890187 -66.742188 51.870656 -64.722656 49.382375 -64.722656 C 46.890187 -64.722656 44.874562 -66.742188 44.874562 -69.230469 C 44.874562 -71.722656 46.890187 -73.742188 49.382375 -73.742188 C 51.870656 -73.742188 53.890187 -71.722656 53.890187 -69.230469 Z M 53.890187 -69.230469 " transform="matrix(1, 0, 0, -1, 86.352, 90.625)"/>
<path fill-rule="nonzero" fill="rgb(0%, 0%, 0%)" fill-opacity="1" stroke-width="0.3985" stroke-linecap="butt" stroke-linejoin="miter" stroke="rgb(0%, 0%, 0%)" stroke-opacity="1" stroke-miterlimit="10" d="M 85.612844 25.570312 C 85.612844 28.0625 83.593312 30.082031 81.105031 30.082031 C 78.612844 30.082031 76.593312 28.0625 76.593312 25.570312 C 76.593312 23.082031 78.612844 21.0625 81.105031 21.0625 C 83.593312 21.0625 85.612844 23.082031 85.612844 25.570312 Z M 85.612844 25.570312 " transform="matrix(1, 0, 0, -1, 86.352, 90.625)"/>
<path fill-rule="nonzero" fill="rgb(0%, 0%, 0%)" fill-opacity="1" stroke-width="0.3985" stroke-linecap="butt" stroke-linejoin="miter" stroke="rgb(0%, 0%, 0%)" stroke-opacity="1" stroke-miterlimit="10" d="M 4.99175 55.273438 C 4.99175 57.761719 2.972219 59.78125 0.483937 59.78125 C -2.00825 59.78125 -4.027781 57.761719 -4.027781 55.273438 C -4.027781 52.78125 -2.00825 50.765625 0.483937 50.765625 C 2.972219 50.765625 4.99175 52.78125 4.99175 55.273438 Z M 4.99175 55.273438 " transform="matrix(1, 0, 0, -1, 86.352, 90.625)"/>
<path fill-rule="nonzero" fill="rgb(0%, 0%, 0%)" fill-opacity="1" stroke-width="0.3985" stroke-linecap="butt" stroke-linejoin="miter" stroke="rgb(0%, 0%, 0%)" stroke-opacity="1" stroke-miterlimit="10" d="M -47.910594 17.539062 C -47.910594 20.027344 -49.926219 22.046875 -52.418406 22.046875 C -54.910594 22.046875 -56.926219 20.027344 -56.926219 17.539062 C -56.926219 15.046875 -54.910594 13.03125 -52.418406 13.03125 C -49.926219 13.03125 -47.910594 15.046875 -47.910594 17.539062 Z M -47.910594 17.539062 " transform="matrix(1, 0, 0, -1, 86.352, 90.625)"/>
<path fill-rule="nonzero" fill="rgb(0%, 0%, 0%)" fill-opacity="1" stroke-width="0.3985" stroke-linecap="butt" stroke-linejoin="miter" stroke="rgb(0%, 0%, 0%)" stroke-opacity="1" stroke-miterlimit="10" d="M -28.371531 -44.433594 C -28.371531 -41.941406 -30.387156 -39.925781 -32.879344 -39.925781 C -35.367625 -39.925781 -37.387156 -41.941406 -37.387156 -44.433594 C -37.387156 -46.921875 -35.367625 -48.941406 -32.879344 -48.941406 C -30.387156 -48.941406 -28.371531 -46.921875 -28.371531 -44.433594 Z M -28.371531 -44.433594 " transform="matrix(1, 0, 0, -1, 86.352, 90.625)"/>
<path fill-rule="nonzero" fill="rgb(0%, 0%, 0%)" fill-opacity="1" stroke-width="0.3985" stroke-linecap="butt" stroke-linejoin="miter" stroke="rgb(0%, 0%, 0%)" stroke-opacity="1" stroke-miterlimit="10" d="M 36.608937 -45 C 36.608937 -42.511719 34.589406 -40.492188 32.097219 -40.492188 C 29.608937 -40.492188 27.589406 -42.511719 27.589406 -45 C 27.589406 -47.492188 29.608937 -49.507812 32.097219 -49.507812 C 34.589406 -49.507812 36.608937 -47.492188 36.608937 -45 Z M 36.608937 -45 " transform="matrix(1, 0, 0, -1, 86.352, 90.625)"/>
<path fill-rule="nonzero" fill="rgb(0%, 0%, 0%)" fill-opacity="1" stroke-width="0.3985" stroke-linecap="butt" stroke-linejoin="miter" stroke="rgb(0%, 0%, 0%)" stroke-opacity="1" stroke-miterlimit="10" d="M 57.226125 16.621094 C 57.226125 19.113281 55.206594 21.128906 52.718312 21.128906 C 50.226125 21.128906 48.206594 19.113281 48.206594 16.621094 C 48.206594 14.132812 50.226125 12.113281 52.718312 12.113281 C 55.206594 12.113281 57.226125 14.132812 57.226125 16.621094 Z M 57.226125 16.621094 " transform="matrix(1, 0, 0, -1, 86.352, 90.625)"/>
<path fill-rule="nonzero" fill="rgb(0%, 0%, 0%)" fill-opacity="1" stroke-width="0.3985" stroke-linecap="butt" stroke-linejoin="miter" stroke="rgb(0%, 0%, 0%)" stroke-opacity="1" stroke-miterlimit="10" d="M 4.323781 -21.257812 C 4.323781 -18.769531 2.30425 -16.75 -0.184031 -16.75 C -2.676219 -16.75 -4.69575 -18.769531 -4.69575 -21.257812 C -4.69575 -23.75 -2.676219 -25.769531 -0.184031 -25.769531 C 2.30425 -25.769531 4.323781 -23.75 4.323781 -21.257812 Z M 4.323781 -21.257812 " transform="matrix(1, 0, 0, -1, 86.352, 90.625)"/>
<path fill-rule="nonzero" fill="rgb(0%, 0%, 0%)" fill-opacity="1" stroke-width="0.3985" stroke-linecap="butt" stroke-linejoin="miter" stroke="rgb(0%, 0%, 0%)" stroke-opacity="1" stroke-miterlimit="10" d="M 24.671437 -6.746094 C 24.671437 -4.253906 22.651906 -2.238281 20.159719 -2.238281 C 17.671437 -2.238281 15.651906 -4.253906 15.651906 -6.746094 C 15.651906 -9.234375 17.671437 -11.253906 20.159719 -11.253906 C 22.651906 -11.253906 24.671437 -9.234375 24.671437 -6.746094 Z M 24.671437 -6.746094 " transform="matrix(1, 0, 0, -1, 86.352, 90.625)"/>
<path fill-rule="nonzero" fill="rgb(0%, 0%, 0%)" fill-opacity="1" stroke-width="0.3985" stroke-linecap="butt" stroke-linejoin="miter" stroke="rgb(0%, 0%, 0%)" stroke-opacity="1" stroke-miterlimit="10" d="M 17.155812 17.089844 C 17.155812 19.578125 15.136281 21.597656 12.644094 21.597656 C 10.155812 21.597656 8.136281 19.578125 8.136281 17.089844 C 8.136281 14.597656 10.155812 12.582031 12.644094 12.582031 C 15.136281 12.582031 17.155812 14.597656 17.155812 17.089844 Z M 17.155812 17.089844 " transform="matrix(1, 0, 0, -1, 86.352, 90.625)"/>
<path fill-rule="nonzero" fill="rgb(0%, 0%, 0%)" fill-opacity="1" stroke-width="0.3985" stroke-linecap="butt" stroke-linejoin="miter" stroke="rgb(0%, 0%, 0%)" stroke-opacity="1" stroke-miterlimit="10" d="M -7.836375 17.308594 C -7.836375 19.796875 -9.855906 21.816406 -12.344188 21.816406 C -14.836375 21.816406 -16.855906 19.796875 -16.855906 17.308594 C -16.855906 14.816406 -14.836375 12.800781 -12.344188 12.800781 C -9.855906 12.800781 -7.836375 14.816406 -7.836375 17.308594 Z M -7.836375 17.308594 " transform="matrix(1, 0, 0, -1, 86.352, 90.625)"/>
<path fill-rule="nonzero" fill="rgb(0%, 0%, 0%)" fill-opacity="1" stroke-width="0.3985" stroke-linecap="butt" stroke-linejoin="miter" stroke="rgb(0%, 0%, 0%)" stroke-opacity="1" stroke-miterlimit="10" d="M -15.766063 -6.394531 C -15.766063 -3.902344 -17.785594 -1.882812 -20.273875 -1.882812 C -22.766063 -1.882812 -24.785594 -3.902344 -24.785594 -6.394531 C -24.785594 -8.882812 -22.766063 -10.902344 -20.273875 -10.902344 C -17.785594 -10.902344 -15.766063 -8.882812 -15.766063 -6.394531 Z M -15.766063 -6.394531 " transform="matrix(1, 0, 0, -1, 86.352, 90.625)"/>
<g clip-path="url(#clip-1)">
<path fill="none" stroke-width="1.19553" stroke-linecap="butt" stroke-linejoin="miter" stroke="rgb(0%, 0%, 0%)" stroke-opacity="1" stroke-miterlimit="10" d="M -3.090281 82.3125 L -76.82075 29.722656 " transform="matrix(1, 0, 0, -1, 86.352, 90.625)"/>
</g>
<path fill="none" stroke-width="1.19553" stroke-linecap="butt" stroke-linejoin="miter" stroke="rgb(0%, 0%, 0%)" stroke-opacity="1" stroke-miterlimit="10" d="M -79.234813 22.496094 L -52.004344 -63.875 " transform="matrix(1, 0, 0, -1, 86.352, 90.625)"/>
<path fill="none" stroke-width="1.19553" stroke-linecap="butt" stroke-linejoin="miter" stroke="rgb(0%, 0%, 0%)" stroke-opacity="1" stroke-miterlimit="10" d="M -45.879344 -68.40625 L 44.67925 -69.199219 " transform="matrix(1, 0, 0, -1, 86.352, 90.625)"/>
<path fill="none" stroke-width="1.19553" stroke-linecap="butt" stroke-linejoin="miter" stroke="rgb(0%, 0%, 0%)" stroke-opacity="1" stroke-miterlimit="10" d="M 50.882375 -64.773438 L 79.61675 21.109375 " transform="matrix(1, 0, 0, -1, 86.352, 90.625)"/>
<g clip-path="url(#clip-2)">
<path fill="none" stroke-width="1.19553" stroke-linecap="butt" stroke-linejoin="miter" stroke="rgb(0%, 0%, 0%)" stroke-opacity="1" stroke-miterlimit="10" d="M 77.327687 28.375 L 4.526906 82.242188 " transform="matrix(1, 0, 0, -1, 86.352, 90.625)"/>
</g>
<g clip-path="url(#clip-3)">
<path fill="none" stroke-width="1.19553" stroke-linecap="butt" stroke-linejoin="miter" stroke="rgb(0%, 0%, 0%)" stroke-opacity="1" stroke-miterlimit="10" d="M 0.702687 80.335938 L 0.523 59.988281 " transform="matrix(1, 0, 0, -1, 86.352, 90.625)"/>
</g>
<path fill="none" stroke-width="1.19553" stroke-linecap="butt" stroke-linejoin="miter" stroke="rgb(0%, 0%, 0%)" stroke-opacity="1" stroke-miterlimit="10" d="M -76.187938 25.492188 L -56.887156 19.035156 " transform="matrix(1, 0, 0, -1, 86.352, 90.625)"/>
<path fill="none" stroke-width="1.19553" stroke-linecap="butt" stroke-linejoin="miter" stroke="rgb(0%, 0%, 0%)" stroke-opacity="1" stroke-miterlimit="10" d="M -47.7895 -64.582031 L -35.684031 -48.222656 " transform="matrix(1, 0, 0, -1, 86.352, 90.625)"/>
<path fill="none" stroke-width="1.19553" stroke-linecap="butt" stroke-linejoin="miter" stroke="rgb(0%, 0%, 0%)" stroke-opacity="1" stroke-miterlimit="10" d="M 46.651906 -65.40625 L 34.8355 -48.839844 " transform="matrix(1, 0, 0, -1, 86.352, 90.625)"/>
<path fill="none" stroke-width="1.19553" stroke-linecap="butt" stroke-linejoin="miter" stroke="rgb(0%, 0%, 0%)" stroke-opacity="1" stroke-miterlimit="10" d="M 76.620656 24.15625 L 57.214406 18.039062 " transform="matrix(1, 0, 0, -1, 86.352, 90.625)"/>
<path fill="none" stroke-width="1.19553" stroke-linecap="butt" stroke-linejoin="miter" stroke="rgb(0%, 0%, 0%)" stroke-opacity="1" stroke-miterlimit="10" d="M 3.648 -18.527344 L 16.331594 -9.480469 " transform="matrix(1, 0, 0, -1, 86.352, 90.625)"/>
<path fill="none" stroke-width="1.19553" stroke-linecap="butt" stroke-linejoin="miter" stroke="rgb(0%, 0%, 0%)" stroke-opacity="1" stroke-miterlimit="10" d="M 18.745656 -2.257812 L 14.062062 12.601562 " transform="matrix(1, 0, 0, -1, 86.352, 90.625)"/>
<path fill="none" stroke-width="1.19553" stroke-linecap="butt" stroke-linejoin="miter" stroke="rgb(0%, 0%, 0%)" stroke-opacity="1" stroke-miterlimit="10" d="M 7.937062 17.132812 L -7.637156 17.269531 " transform="matrix(1, 0, 0, -1, 86.352, 90.625)"/>
<path fill="none" stroke-width="1.19553" stroke-linecap="butt" stroke-linejoin="miter" stroke="rgb(0%, 0%, 0%)" stroke-opacity="1" stroke-miterlimit="10" d="M -13.840281 12.84375 L -18.785594 -1.929688 " transform="matrix(1, 0, 0, -1, 86.352, 90.625)"/>
<path fill="none" stroke-width="1.19553" stroke-linecap="butt" stroke-linejoin="miter" stroke="rgb(0%, 0%, 0%)" stroke-opacity="1" stroke-miterlimit="10" d="M -16.492625 -9.195312 L -3.969188 -18.460938 " transform="matrix(1, 0, 0, -1, 86.352, 90.625)"/>
<path fill="none" stroke-width="1.19553" stroke-linecap="butt" stroke-linejoin="miter" stroke="rgb(0%, 0%, 0%)" stroke-opacity="1" stroke-miterlimit="10" d="M -3.352 52.542969 L -48.590281 20.277344 " transform="matrix(1, 0, 0, -1, 86.352, 90.625)"/>
<path fill-rule="nonzero" fill="rgb(0%, 0%, 0%)" fill-opacity="1" stroke-width="1.19553" stroke-linecap="butt" stroke-linejoin="miter" stroke="rgb(0%, 0%, 0%)" stroke-opacity="1" stroke-miterlimit="10" d="M -21.461375 36.410156 C -21.461375 38.898438 -23.480906 40.917969 -25.969188 40.917969 C -28.461375 40.917969 -30.480906 38.898438 -30.480906 36.410156 C -30.480906 33.917969 -28.461375 31.902344 -25.969188 31.902344 C -23.480906 31.902344 -21.461375 33.917969 -21.461375 36.410156 Z M -21.461375 36.410156 " transform="matrix(1, 0, 0, -1, 86.352, 90.625)"/>
<path fill="none" stroke-width="1.19553" stroke-linecap="butt" stroke-linejoin="miter" stroke="rgb(0%, 0%, 0%)" stroke-opacity="1" stroke-miterlimit="10" d="M -51.00825 13.050781 L -34.297313 -39.945312 " transform="matrix(1, 0, 0, -1, 86.352, 90.625)"/>
<path fill-rule="nonzero" fill="rgb(0%, 0%, 0%)" fill-opacity="1" stroke-width="1.19553" stroke-linecap="butt" stroke-linejoin="miter" stroke="rgb(0%, 0%, 0%)" stroke-opacity="1" stroke-miterlimit="10" d="M -38.144969 -13.449219 C -38.144969 -10.957031 -40.1645 -8.9375 -42.652781 -8.9375 C -45.144969 -8.9375 -47.160594 -10.957031 -47.160594 -13.449219 C -47.160594 -15.9375 -45.144969 -17.957031 -42.652781 -17.957031 C -40.1645 -17.957031 -38.144969 -15.9375 -38.144969 -13.449219 Z M -38.144969 -13.449219 " transform="matrix(1, 0, 0, -1, 86.352, 90.625)"/>
<path fill="none" stroke-width="1.19553" stroke-linecap="butt" stroke-linejoin="miter" stroke="rgb(0%, 0%, 0%)" stroke-opacity="1" stroke-miterlimit="10" d="M -28.172313 -44.476562 L 27.394094 -44.964844 " transform="matrix(1, 0, 0, -1, 86.352, 90.625)"/>
<path fill-rule="nonzero" fill="rgb(0%, 0%, 0%)" fill-opacity="1" stroke-width="1.19553" stroke-linecap="butt" stroke-linejoin="miter" stroke="rgb(0%, 0%, 0%)" stroke-opacity="1" stroke-miterlimit="10" d="M 4.11675 -44.722656 C 4.11675 -42.230469 2.101125 -40.210938 -0.391063 -40.210938 C -2.879344 -40.210938 -4.898875 -42.230469 -4.898875 -44.722656 C -4.898875 -47.210938 -2.879344 -49.230469 -0.391063 -49.230469 C 2.101125 -49.230469 4.11675 -47.210938 4.11675 -44.722656 Z M 4.11675 -44.722656 " transform="matrix(1, 0, 0, -1, 86.352, 90.625)"/>
<path fill="none" stroke-width="1.19553" stroke-linecap="butt" stroke-linejoin="miter" stroke="rgb(0%, 0%, 0%)" stroke-opacity="1" stroke-miterlimit="10" d="M 33.593312 -40.539062 L 51.230031 12.15625 " transform="matrix(1, 0, 0, -1, 86.352, 90.625)"/>
<path fill-rule="nonzero" fill="rgb(0%, 0%, 0%)" fill-opacity="1" stroke-width="1.19553" stroke-linecap="butt" stroke-linejoin="miter" stroke="rgb(0%, 0%, 0%)" stroke-opacity="1" stroke-miterlimit="10" d="M 46.921437 -14.191406 C 46.921437 -11.699219 44.901906 -9.683594 42.409719 -9.683594 C 39.921437 -9.683594 37.901906 -11.699219 37.901906 -14.191406 C 37.901906 -16.679688 39.921437 -18.699219 42.409719 -18.699219 C 44.901906 -18.699219 46.921437 -16.679688 46.921437 -14.191406 Z M 46.921437 -14.191406 " transform="matrix(1, 0, 0, -1, 86.352, 90.625)"/>
<path fill="none" stroke-width="1.19553" stroke-linecap="butt" stroke-linejoin="miter" stroke="rgb(0%, 0%, 0%)" stroke-opacity="1" stroke-miterlimit="10" d="M 48.937062 19.421875 L 4.269094 52.476562 " transform="matrix(1, 0, 0, -1, 86.352, 90.625)"/>
<path fill-rule="nonzero" fill="rgb(0%, 0%, 0%)" fill-opacity="1" stroke-width="1.19553" stroke-linecap="butt" stroke-linejoin="miter" stroke="rgb(0%, 0%, 0%)" stroke-opacity="1" stroke-miterlimit="10" d="M 31.112844 35.949219 C 31.112844 38.441406 29.093312 40.460938 26.601125 40.460938 C 24.112844 40.460938 22.093312 38.441406 22.093312 35.949219 C 22.093312 33.460938 24.112844 31.441406 26.601125 31.441406 C 29.093312 31.441406 31.112844 33.460938 31.112844 35.949219 Z M 31.112844 35.949219 " transform="matrix(1, 0, 0, -1, 86.352, 90.625)"/>
<path fill="none" stroke-width="1.19553" stroke-linecap="butt" stroke-linejoin="miter" stroke="rgb(0%, 0%, 0%)" stroke-opacity="1" stroke-miterlimit="10" d="M -0.227 -25.96875 L -0.348094 -39.617188 " transform="matrix(1, 0, 0, -1, 86.352, 90.625)"/>
<path fill="none" stroke-width="1.19553" stroke-linecap="butt" stroke-linejoin="miter" stroke="rgb(0%, 0%, 0%)" stroke-opacity="1" stroke-miterlimit="10" d="M 24.628469 -8.242188 L 37.573781 -12.574219 " transform="matrix(1, 0, 0, -1, 86.352, 90.625)"/>
<path fill="none" stroke-width="1.19553" stroke-linecap="butt" stroke-linejoin="miter" stroke="rgb(0%, 0%, 0%)" stroke-opacity="1" stroke-miterlimit="10" d="M 15.448781 20.875 L 23.565969 31.847656 " transform="matrix(1, 0, 0, -1, 86.352, 90.625)"/>
<path fill="none" stroke-width="1.19553" stroke-linecap="butt" stroke-linejoin="miter" stroke="rgb(0%, 0%, 0%)" stroke-opacity="1" stroke-miterlimit="10" d="M -15.078563 21.144531 L -23.00825 32.257812 " transform="matrix(1, 0, 0, -1, 86.352, 90.625)"/>
<path fill="none" stroke-width="1.19553" stroke-linecap="butt" stroke-linejoin="miter" stroke="rgb(0%, 0%, 0%)" stroke-opacity="1" stroke-miterlimit="10" d="M -24.769969 -7.808594 L -37.785594 -11.914062 " transform="matrix(1, 0, 0, -1, 86.352, 90.625)"/>
</svg>
