<?xml version="1.0" encoding="UTF-8"?>
<svg xmlns="http://www.w3.org/2000/svg" xmlns:xlink="http://www.w3.org/1999/xlink" width="32pt" height="57pt" viewBox="0 0 32 57" version="1.1">
<g id="surface1">
<path style="fill-rule:nonzero;fill:rgb(0%,0%,0%);fill-opacity:1;stroke-width:0.3985;stroke-linecap:butt;stroke-linejoin:miter;stroke:rgb(0%,0%,0%);stroke-opacity:1;stroke-miterlimit:10;" d="M 4.507156 -0.0008125 C 4.507156 2.491375 2.491531 4.510906 -0.00065625 4.510906 C -2.488937 4.510906 -4.508469 2.491375 -4.508469 -0.0008125 C -4.508469 -2.489094 -2.488937 -4.508625 -0.00065625 -4.508625 C 2.491531 -4.508625 4.507156 -2.489094 4.507156 -0.0008125 Z M 4.507156 -0.0008125 " transform="matrix(1,0,0,-1,27.028,52.257)"/>
<path style="fill:none;stroke-width:1.19553;stroke-linecap:butt;stroke-linejoin:miter;stroke:rgb(0%,0%,0%);stroke-opacity:1;stroke-miterlimit:10;" d="M -25.906906 51.811688 L -5.641281 11.280438 " transform="matrix(1,0,0,-1,27.028,52.257)"/>
<path style="fill-rule:nonzero;fill:rgb(0%,0%,0%);fill-opacity:1;stroke-width:1.19553;stroke-linecap:butt;stroke-linejoin:miter;stroke:rgb(0%,0%,0%);stroke-opacity:1;stroke-miterlimit:10;" d="M 6.67497 -0.000975674 C 5.857339 0.416566 2.251371 2.769833 -0.000621299 5.332761 L -0.000525893 -5.333084 C 2.251421 -2.76837 5.855599 -0.416785 6.67497 -0.000975674 Z M 6.67497 -0.000975674 " transform="matrix(0.44717,0.89436,0.89436,-0.44717,21.38712,40.97505)"/>
</g>
</svg>
