<?xml version="1.0" encoding="UTF-8"?>
<svg xmlns="http://www.w3.org/2000/svg" xmlns:xlink="http://www.w3.org/1999/xlink" width="34pt" height="57pt" viewBox="0 0 34 57" version="1.1">
<g id="surface1">
<path style="fill-rule:nonzero;fill:rgb(0%,0%,0%);fill-opacity:1;stroke-width:0.3985;stroke-linecap:butt;stroke-linejoin:miter;stroke:rgb(0%,0%,0%);stroke-opacity:1;stroke-miterlimit:10;" d="M 4.507156 -0.0008125 C 4.507156 2.491375 2.491531 4.510906 -0.00065625 4.510906 C -2.488937 4.510906 -4.508469 2.491375 -4.508469 -0.0008125 C -4.508469 -2.489094 -2.488937 -4.508625 -0.00065625 -4.508625 C 2.491531 -4.508625 4.507156 -2.489094 4.507156 -0.0008125 Z M 4.507156 -0.0008125 " transform="matrix(1,0,0,-1,29.028,52.257)"/>
<path style="fill:none;stroke-width:1.19553;stroke-linecap:butt;stroke-linejoin:miter;stroke:rgb(0%,0%,0%);stroke-opacity:1;stroke-miterlimit:10;" d="M -2.106125 4.210125 L -22.37175 44.741375 " transform="matrix(1,0,0,-1,29.028,52.257)"/>
<path style="fill-rule:nonzero;fill:rgb(0%,0%,0%);fill-opacity:1;stroke-width:1.19553;stroke-linecap:butt;stroke-linejoin:miter;stroke:rgb(0%,0%,0%);stroke-opacity:1;stroke-miterlimit:10;" d="M 6.67365 -0.000258713 C 5.856052 0.417285 2.250239 2.770543 -0.00163669 5.33343 L -0.00173209 -5.332081 C 2.253684 -2.769234 5.854298 -0.41604 6.67365 -0.000258713 Z M 6.67365 -0.000258713 " transform="matrix(-0.4472,-0.89438,-0.89438,0.4472,6.6561,7.51577)"/>
</g>
</svg>
