<?xml version="1.0" encoding="UTF-8"?>
<svg xmlns="http://www.w3.org/2000/svg" xmlns:xlink="http://www.w3.org/1999/xlink" width="33pt" height="57pt" viewBox="0 0 33 57" version="1.1">
<g id="surface1">
<path style="fill-rule:nonzero;fill:rgb(0%,0%,0%);fill-opacity:1;stroke-width:0.3985;stroke-linecap:butt;stroke-linejoin:miter;stroke:rgb(0%,0%,0%);stroke-opacity:1;stroke-miterlimit:10;" d="M 4.507156 -0.0008125 C 4.507156 2.491375 2.491531 4.510906 -0.00065625 4.510906 C -2.488937 4.510906 -4.508469 2.491375 -4.508469 -0.0008125 C -4.508469 -2.489094 -2.488937 -4.508625 -0.00065625 -4.508625 C 2.491531 -4.508625 4.507156 -2.489094 4.507156 -0.0008125 Z M 4.507156 -0.0008125 " transform="matrix(1,0,0,-1,28.028,52.257)"/>
<path style="fill:none;stroke-width:1.19553;stroke-linecap:butt;stroke-linejoin:miter;stroke:rgb(0%,0%,0%);stroke-opacity:1;stroke-miterlimit:10;" d="M -2.106125 4.210125 L -25.481125 50.956219 " transform="matrix(1,0,0,-1,28.028,52.257)"/>
<path style="fill:none;stroke-width:0.9564;stroke-linecap:round;stroke-linejoin:round;stroke:rgb(0%,0%,0%);stroke-opacity:1;stroke-miterlimit:10;" d="M -1.91316 2.552105 C -1.754191 1.594741 -0.000203191 0.158681 0.478477 -0.0020487 C -0.00195305 -0.159276 -1.754219 -1.593557 -1.913206 -2.549171 " transform="matrix(-0.4472,-0.89438,-0.89438,0.4472,2.54808,1.29995)"/>
</g>
</svg>
