<?xml version="1.0" encoding="UTF-8"?>
<svg xmlns="http://www.w3.org/2000/svg" xmlns:xlink="http://www.w3.org/1999/xlink" width="101" height="101" viewBox="0 0 101 101">
<path fill="none" stroke-width="0.3985" stroke-linecap="butt" stroke-linejoin="miter" stroke="rgb(0%, 0%, 0%)" stroke-opacity="1" stroke-miterlimit="10" d="M -14.173969 -0.0018125 L 84.583844 -0.0018125 " transform="matrix(1, 0, 0, -1, 15.131, 86.131)"/>
<path fill="none" stroke-width="0.31879" stroke-linecap="round" stroke-linejoin="round" stroke="rgb(0%, 0%, 0%)" stroke-opacity="1" stroke-miterlimit="10" d="M -1.193609 1.595844 C -1.095952 0.998188 0.00170375 0.09975 0.298579 -0.0018125 C 0.00170375 -0.0994687 -1.095952 -0.997906 -1.193609 -1.595562 " transform="matrix(1, 0, 0, -1, 99.71314, 86.131)"/>
<path fill="none" stroke-width="0.3985" stroke-linecap="butt" stroke-linejoin="miter" stroke="rgb(0%, 0%, 0%)" stroke-opacity="1" stroke-miterlimit="10" d="M 0.0018125 -14.173687 L 0.0018125 84.580219 " transform="matrix(1, 0, 0, -1, 15.131, 86.131)"/>
<path fill="none" stroke-width="0.31879" stroke-linecap="round" stroke-linejoin="round" stroke="rgb(0%, 0%, 0%)" stroke-opacity="1" stroke-miterlimit="10" d="M -1.197234 1.595844 C -1.095671 0.998188 -0.00192125 0.09975 0.29886 -0.0018125 C -0.00192125 -0.0994687 -1.095671 -0.997906 -1.197234 -1.595562 " transform="matrix(0, -1, -1, 0, 15.131, 1.54886)"/>
<path fill="none" stroke-width="0.79701" stroke-linecap="butt" stroke-linejoin="miter" stroke="rgb(0%, 0%, 0%)" stroke-opacity="1" stroke-miterlimit="10" d="M -14.173969 14.173969 L 56.693219 85.041156 " transform="matrix(1, 0, 0, -1, 15.131, 86.131)"/>
<path fill="none" stroke-width="0.79701" stroke-linecap="butt" stroke-linejoin="miter" stroke="rgb(0%, 0%, 0%)" stroke-opacity="1" stroke-miterlimit="10" d="M 28.345562 85.041156 L 61.427594 -14.173687 " transform="matrix(1, 0, 0, -1, 15.131, 86.131)"/>
</svg>
