<?xml version="1.0" encoding="UTF-8"?>
<svg xmlns="http://www.w3.org/2000/svg" xmlns:xlink="http://www.w3.org/1999/xlink" width="406pt" height="256pt" viewBox="0 0 406 256" version="1.1">
<defs>
<clipPath id="clip1">
  <path d="M 0.332031 1 L 405.542969 1 L 405.542969 256 L 0.332031 256 Z M 0.332031 1 "/>
</clipPath>
<linearGradient id="linear0" gradientUnits="userSpaceOnUse" x1="0" y1="0" x2="0" y2="255.118" gradientTransform="matrix(1,0,0,-1,0.331,256)">
<stop offset="0" style="stop-color:rgb(95.999146%,95.999146%,95.999146%);stop-opacity:1;"/>
<stop offset="0.0625" style="stop-color:rgb(96.124268%,96.124268%,96.124268%);stop-opacity:1;"/>
<stop offset="0.125" style="stop-color:rgb(96.374512%,96.374512%,96.374512%);stop-opacity:1;"/>
<stop offset="0.1875" style="stop-color:rgb(96.624756%,96.624756%,96.624756%);stop-opacity:1;"/>
<stop offset="0.25" style="stop-color:rgb(96.873474%,96.873474%,96.873474%);stop-opacity:1;"/>
<stop offset="0.3125" style="stop-color:rgb(97.123718%,97.123718%,97.123718%);stop-opacity:1;"/>
<stop offset="0.375" style="stop-color:rgb(97.373962%,97.373962%,97.373962%);stop-opacity:1;"/>
<stop offset="0.4375" style="stop-color:rgb(97.624207%,97.624207%,97.624207%);stop-opacity:1;"/>
<stop offset="0.5" style="stop-color:rgb(97.874451%,97.874451%,97.874451%);stop-opacity:1;"/>
<stop offset="0.5625" style="stop-color:rgb(98.124695%,98.124695%,98.124695%);stop-opacity:1;"/>
<stop offset="0.625" style="stop-color:rgb(98.373413%,98.373413%,98.373413%);stop-opacity:1;"/>
<stop offset="0.6875" style="stop-color:rgb(98.623657%,98.623657%,98.623657%);stop-opacity:1;"/>
<stop offset="0.75" style="stop-color:rgb(98.873901%,98.873901%,98.873901%);stop-opacity:1;"/>
<stop offset="0.8125" style="stop-color:rgb(99.124146%,99.124146%,99.124146%);stop-opacity:1;"/>
<stop offset="0.875" style="stop-color:rgb(99.37439%,99.37439%,99.37439%);stop-opacity:1;"/>
<stop offset="0.9375" style="stop-color:rgb(99.624634%,99.624634%,99.624634%);stop-opacity:1;"/>
<stop offset="1" style="stop-color:rgb(99.873352%,99.873352%,99.873352%);stop-opacity:1;"/>
</linearGradient>
<clipPath id="clip2">
  <path d="M 31 0.882812 L 48 0.882812 L 48 17 L 31 17 Z M 31 0.882812 "/>
</clipPath>
<clipPath id="clip3">
  <path d="M 82 0.882812 L 99 0.882812 L 99 17 L 82 17 Z M 82 0.882812 "/>
</clipPath>
</defs>
<g id="surface1">
<g clip-path="url(#clip1)" clip-rule="nonzero">
<path style=" stroke:none;fill-rule:nonzero;fill:url(#linear0);" d="M 0.332031 256 L 0.332031 0.882812 L 405.542969 0.882812 L 405.542969 256 Z M 0.332031 256 "/>
</g>
<path style=" stroke:none;fill-rule:nonzero;fill:rgb(100%,0%,0%);fill-opacity:1;" d="M 21.890625 42.84375 C 21.890625 38.453125 18.335938 34.898438 13.945312 34.898438 C 9.558594 34.898438 6 38.453125 6 42.84375 C 6 47.230469 9.558594 50.789062 13.945312 50.789062 C 18.335938 50.789062 21.890625 47.230469 21.890625 42.84375 Z M 21.890625 42.84375 "/>
<path style=" stroke:none;fill-rule:nonzero;fill:rgb(0%,0%,100%);fill-opacity:1;" d="M 26.144531 17.332031 C 26.144531 12.941406 22.585938 9.382812 18.199219 9.382812 C 13.808594 9.382812 10.253906 12.941406 10.253906 17.332031 C 10.253906 21.71875 13.808594 25.277344 18.199219 25.277344 C 22.585938 25.277344 26.144531 21.71875 26.144531 17.332031 Z M 26.144531 17.332031 "/>
<path style=" stroke:none;fill-rule:nonzero;fill:rgb(0%,0%,100%);fill-opacity:1;" d="M 51.65625 51.347656 C 51.65625 46.957031 48.097656 43.402344 43.710938 43.402344 C 39.320312 43.402344 35.765625 46.957031 35.765625 51.347656 C 35.765625 55.734375 39.320312 59.292969 43.710938 59.292969 C 48.097656 59.292969 51.65625 55.734375 51.65625 51.347656 Z M 51.65625 51.347656 "/>
<path style=" stroke:none;fill-rule:nonzero;fill:rgb(0%,0%,100%);fill-opacity:1;" d="M 43.152344 32.214844 C 43.152344 27.824219 39.59375 24.265625 35.207031 24.265625 C 30.816406 24.265625 27.261719 27.824219 27.261719 32.214844 C 27.261719 36.601562 30.816406 40.160156 35.207031 40.160156 C 39.59375 40.160156 43.152344 36.601562 43.152344 32.214844 Z M 43.152344 32.214844 "/>
<g clip-path="url(#clip2)" clip-rule="nonzero">
<path style=" stroke:none;fill-rule:nonzero;fill:rgb(100%,0%,0%);fill-opacity:1;" d="M 47.402344 8.828125 C 47.402344 4.4375 43.847656 0.878906 39.457031 0.878906 C 35.070312 0.878906 31.511719 4.4375 31.511719 8.828125 C 31.511719 13.214844 35.070312 16.773438 39.457031 16.773438 C 43.847656 16.773438 47.402344 13.214844 47.402344 8.828125 Z M 47.402344 8.828125 "/>
</g>
<path style=" stroke:none;fill-rule:nonzero;fill:rgb(0%,0%,100%);fill-opacity:1;" d="M 72.917969 17.332031 C 72.917969 12.941406 69.359375 9.382812 64.96875 9.382812 C 60.582031 9.382812 57.023438 12.941406 57.023438 17.332031 C 57.023438 21.71875 60.582031 25.277344 64.96875 25.277344 C 69.359375 25.277344 72.917969 21.71875 72.917969 17.332031 Z M 72.917969 17.332031 "/>
<path style=" stroke:none;fill-rule:nonzero;fill:rgb(100%,0%,0%);fill-opacity:1;" d="M 68.664062 38.589844 C 68.664062 34.203125 65.105469 30.644531 60.71875 30.644531 C 56.328125 30.644531 52.773438 34.203125 52.773438 38.589844 C 52.773438 42.980469 56.328125 46.535156 60.71875 46.535156 C 65.105469 46.535156 68.664062 42.980469 68.664062 38.589844 Z M 68.664062 38.589844 "/>
<path style=" stroke:none;fill-rule:nonzero;fill:rgb(100%,0%,0%);fill-opacity:1;" d="M 89.925781 51.347656 C 89.925781 46.957031 86.367188 43.402344 81.976562 43.402344 C 77.589844 43.402344 74.03125 46.957031 74.03125 51.347656 C 74.03125 55.734375 77.589844 59.292969 81.976562 59.292969 C 86.367188 59.292969 89.925781 55.734375 89.925781 51.347656 Z M 89.925781 51.347656 "/>
<path style=" stroke:none;fill-rule:nonzero;fill:rgb(0%,0%,100%);fill-opacity:1;" d="M 89.925781 30.085938 C 89.925781 25.699219 86.367188 22.140625 81.976562 22.140625 C 77.589844 22.140625 74.03125 25.699219 74.03125 30.085938 C 74.03125 34.476562 77.589844 38.03125 81.976562 38.03125 C 86.367188 38.03125 89.925781 34.476562 89.925781 30.085938 Z M 89.925781 30.085938 "/>
<g clip-path="url(#clip3)" clip-rule="nonzero">
<path style=" stroke:none;fill-rule:nonzero;fill:rgb(100%,0%,0%);fill-opacity:1;" d="M 98.429688 8.828125 C 98.429688 4.4375 94.871094 0.878906 90.480469 0.878906 C 86.09375 0.878906 82.535156 4.4375 82.535156 8.828125 C 82.535156 13.214844 86.09375 16.773438 90.480469 16.773438 C 94.871094 16.773438 98.429688 13.214844 98.429688 8.828125 Z M 98.429688 8.828125 "/>
</g>
<path style=" stroke:none;fill-rule:nonzero;fill:rgb(0%,0%,100%);fill-opacity:1;" d="M 111.183594 25.835938 C 111.183594 21.445312 107.628906 17.886719 103.238281 17.886719 C 98.851562 17.886719 95.292969 21.445312 95.292969 25.835938 C 95.292969 30.222656 98.851562 33.78125 103.238281 33.78125 C 107.628906 33.78125 111.183594 30.222656 111.183594 25.835938 Z M 111.183594 25.835938 "/>
</g>
</svg>
