<?xml version="1.0" encoding="UTF-8"?>
<svg xmlns="http://www.w3.org/2000/svg" xmlns:xlink="http://www.w3.org/1999/xlink" width="406pt" height="256pt" viewBox="0 0 406 256" version="1.1">
<defs>
<clipPath id="clip1">
  <path d="M 0.332031 1 L 405.542969 1 L 405.542969 256 L 0.332031 256 Z M 0.332031 1 "/>
</clipPath>
<linearGradient id="linear0" gradientUnits="userSpaceOnUse" x1="0" y1="0" x2="0" y2="255.118" gradientTransform="matrix(1,0,0,-1,0.331,256)">
<stop offset="0" style="stop-color:rgb(95.999146%,95.999146%,95.999146%);stop-opacity:1;"/>
<stop offset="0.0625" style="stop-color:rgb(96.124268%,96.124268%,96.124268%);stop-opacity:1;"/>
<stop offset="0.125" style="stop-color:rgb(96.374512%,96.374512%,96.374512%);stop-opacity:1;"/>
<stop offset="0.1875" style="stop-color:rgb(96.624756%,96.624756%,96.624756%);stop-opacity:1;"/>
<stop offset="0.25" style="stop-color:rgb(96.873474%,96.873474%,96.873474%);stop-opacity:1;"/>
<stop offset="0.3125" style="stop-color:rgb(97.123718%,97.123718%,97.123718%);stop-opacity:1;"/>
<stop offset="0.375" style="stop-color:rgb(97.373962%,97.373962%,97.373962%);stop-opacity:1;"/>
<stop offset="0.4375" style="stop-color:rgb(97.624207%,97.624207%,97.624207%);stop-opacity:1;"/>
<stop offset="0.5" style="stop-color:rgb(97.874451%,97.874451%,97.874451%);stop-opacity:1;"/>
<stop offset="0.5625" style="stop-color:rgb(98.124695%,98.124695%,98.124695%);stop-opacity:1;"/>
<stop offset="0.625" style="stop-color:rgb(98.373413%,98.373413%,98.373413%);stop-opacity:1;"/>
<stop offset="0.6875" style="stop-color:rgb(98.623657%,98.623657%,98.623657%);stop-opacity:1;"/>
<stop offset="0.75" style="stop-color:rgb(98.873901%,98.873901%,98.873901%);stop-opacity:1;"/>
<stop offset="0.8125" style="stop-color:rgb(99.124146%,99.124146%,99.124146%);stop-opacity:1;"/>
<stop offset="0.875" style="stop-color:rgb(99.37439%,99.37439%,99.37439%);stop-opacity:1;"/>
<stop offset="0.9375" style="stop-color:rgb(99.624634%,99.624634%,99.624634%);stop-opacity:1;"/>
<stop offset="1" style="stop-color:rgb(99.873352%,99.873352%,99.873352%);stop-opacity:1;"/>
</linearGradient>
<clipPath id="clip2">
  <path d="M 77 0.882812 L 94 0.882812 L 94 17 L 77 17 Z M 77 0.882812 "/>
</clipPath>
<clipPath id="clip3">
  <path d="M 128 0.882812 L 145 0.882812 L 145 17 L 128 17 Z M 128 0.882812 "/>
</clipPath>
</defs>
<g id="surface1">
<g clip-path="url(#clip1)" clip-rule="nonzero">
<path style=" stroke:none;fill-rule:nonzero;fill:url(#linear0);" d="M 0.332031 256 L 0.332031 0.882812 L 405.542969 0.882812 L 405.542969 256 Z M 0.332031 256 "/>
</g>
<path style="fill-rule:nonzero;fill:rgb(100%,94.898987%,0%);fill-opacity:1;stroke-width:0.3985;stroke-linecap:butt;stroke-linejoin:miter;stroke:rgb(0%,0%,0%);stroke-opacity:1;stroke-miterlimit:10;" d="M -5.366625 42.521062 C -5.366625 51.298406 -12.483812 58.411687 -21.261156 58.411687 C -30.0385 58.411687 -37.151781 51.298406 -37.151781 42.521062 C -37.151781 33.743719 -30.0385 26.626531 -21.261156 26.626531 C -12.483812 26.626531 -5.366625 33.743719 -5.366625 42.521062 Z M -5.366625 42.521062 " transform="matrix(1,0,0,-1,43.351,72.607)"/>
<path style=" stroke:none;fill-rule:nonzero;fill:rgb(100%,0%,0%);fill-opacity:1;" d="M 68.304688 42.84375 C 68.304688 38.453125 64.746094 34.898438 60.359375 34.898438 C 55.96875 34.898438 52.414062 38.453125 52.414062 42.84375 C 52.414062 47.230469 55.96875 50.789062 60.359375 50.789062 C 64.746094 50.789062 68.304688 47.230469 68.304688 42.84375 Z M 68.304688 42.84375 "/>
<path style=" stroke:none;fill-rule:nonzero;fill:rgb(0%,0%,100%);fill-opacity:1;" d="M 72.558594 17.332031 C 72.558594 12.941406 69 9.382812 64.609375 9.382812 C 60.222656 9.382812 56.664062 12.941406 56.664062 17.332031 C 56.664062 21.71875 60.222656 25.277344 64.609375 25.277344 C 69 25.277344 72.558594 21.71875 72.558594 17.332031 Z M 72.558594 17.332031 "/>
<path style=" stroke:none;fill-rule:nonzero;fill:rgb(0%,0%,100%);fill-opacity:1;" d="M 98.070312 51.347656 C 98.070312 46.957031 94.511719 43.402344 90.125 43.402344 C 85.734375 43.402344 82.175781 46.957031 82.175781 51.347656 C 82.175781 55.734375 85.734375 59.292969 90.125 59.292969 C 94.511719 59.292969 98.070312 55.734375 98.070312 51.347656 Z M 98.070312 51.347656 "/>
<path style=" stroke:none;fill-rule:nonzero;fill:rgb(0%,0%,100%);fill-opacity:1;" d="M 89.566406 32.214844 C 89.566406 27.824219 86.007812 24.265625 81.617188 24.265625 C 77.230469 24.265625 73.671875 27.824219 73.671875 32.214844 C 73.671875 36.601562 77.230469 40.160156 81.617188 40.160156 C 86.007812 40.160156 89.566406 36.601562 89.566406 32.214844 Z M 89.566406 32.214844 "/>
<g clip-path="url(#clip2)" clip-rule="nonzero">
<path style=" stroke:none;fill-rule:nonzero;fill:rgb(100%,0%,0%);fill-opacity:1;" d="M 93.816406 8.828125 C 93.816406 4.4375 90.257812 0.878906 85.871094 0.878906 C 81.484375 0.878906 77.925781 4.4375 77.925781 8.828125 C 77.925781 13.214844 81.484375 16.773438 85.871094 16.773438 C 90.257812 16.773438 93.816406 13.214844 93.816406 8.828125 Z M 93.816406 8.828125 "/>
</g>
<path style=" stroke:none;fill-rule:nonzero;fill:rgb(0%,0%,100%);fill-opacity:1;" d="M 119.328125 17.332031 C 119.328125 12.941406 115.773438 9.382812 111.382812 9.382812 C 106.996094 9.382812 103.4375 12.941406 103.4375 17.332031 C 103.4375 21.71875 106.996094 25.277344 111.382812 25.277344 C 115.773438 25.277344 119.328125 21.71875 119.328125 17.332031 Z M 119.328125 17.332031 "/>
<path style=" stroke:none;fill-rule:nonzero;fill:rgb(100%,0%,0%);fill-opacity:1;" d="M 115.078125 38.589844 C 115.078125 34.203125 111.519531 30.644531 107.132812 30.644531 C 102.742188 30.644531 99.183594 34.203125 99.183594 38.589844 C 99.183594 42.980469 102.742188 46.535156 107.132812 46.535156 C 111.519531 46.535156 115.078125 42.980469 115.078125 38.589844 Z M 115.078125 38.589844 "/>
<path style=" stroke:none;fill-rule:nonzero;fill:rgb(100%,0%,0%);fill-opacity:1;" d="M 136.335938 51.347656 C 136.335938 46.957031 132.78125 43.402344 128.390625 43.402344 C 124.003906 43.402344 120.445312 46.957031 120.445312 51.347656 C 120.445312 55.734375 124.003906 59.292969 128.390625 59.292969 C 132.78125 59.292969 136.335938 55.734375 136.335938 51.347656 Z M 136.335938 51.347656 "/>
<path style=" stroke:none;fill-rule:nonzero;fill:rgb(0%,0%,100%);fill-opacity:1;" d="M 136.335938 30.085938 C 136.335938 25.699219 132.78125 22.140625 128.390625 22.140625 C 124.003906 22.140625 120.445312 25.699219 120.445312 30.085938 C 120.445312 34.476562 124.003906 38.03125 128.390625 38.03125 C 132.78125 38.03125 136.335938 34.476562 136.335938 30.085938 Z M 136.335938 30.085938 "/>
<g clip-path="url(#clip3)" clip-rule="nonzero">
<path style=" stroke:none;fill-rule:nonzero;fill:rgb(100%,0%,0%);fill-opacity:1;" d="M 144.839844 8.828125 C 144.839844 4.4375 141.285156 0.878906 136.894531 0.878906 C 132.507812 0.878906 128.949219 4.4375 128.949219 8.828125 C 128.949219 13.214844 132.507812 16.773438 136.894531 16.773438 C 141.285156 16.773438 144.839844 13.214844 144.839844 8.828125 Z M 144.839844 8.828125 "/>
</g>
<path style=" stroke:none;fill-rule:nonzero;fill:rgb(0%,0%,100%);fill-opacity:1;" d="M 157.597656 25.835938 C 157.597656 21.445312 154.039062 17.886719 149.652344 17.886719 C 145.261719 17.886719 141.707031 21.445312 141.707031 25.835938 C 141.707031 30.222656 145.261719 33.78125 149.652344 33.78125 C 154.039062 33.78125 157.597656 30.222656 157.597656 25.835938 Z M 157.597656 25.835938 "/>
</g>
</svg>
