<?xml version="1.0" encoding="UTF-8"?>
<svg xmlns="http://www.w3.org/2000/svg" xmlns:xlink="http://www.w3.org/1999/xlink" width="59pt" height="59pt" viewBox="0 0 59 59" version="1.1">
<g id="surface1">
<path style="fill:none;stroke-width:1.19553;stroke-linecap:butt;stroke-linejoin:miter;stroke:rgb(0%,0%,0%);stroke-opacity:1;stroke-miterlimit:10;" d="M 28.345562 0.00090625 C 28.345562 15.657156 15.654156 28.348562 0.0018125 28.348562 C -15.654438 28.348562 -28.345844 15.657156 -28.345844 0.00090625 C -28.345844 -15.655344 -15.654438 -28.34675 0.0018125 -28.34675 C 15.654156 -28.34675 28.345562 -15.655344 28.345562 0.00090625 Z M 28.345562 0.00090625 " transform="matrix(1,0,0,-1,29.881,29.747)"/>
<path style="fill:none;stroke-width:1.19553;stroke-linecap:butt;stroke-linejoin:miter;stroke:rgb(0%,0%,0%);stroke-opacity:1;stroke-miterlimit:10;" d="M 0.0018125 28.348562 L 0.0018125 -28.34675 " transform="matrix(1,0,0,-1,29.881,29.747)"/>
<path style="fill-rule:nonzero;fill:rgb(100%,100%,100%);fill-opacity:1;stroke-width:1.19553;stroke-linecap:butt;stroke-linejoin:miter;stroke:rgb(0%,0%,0%);stroke-opacity:1;stroke-miterlimit:10;" d="M 17.009625 0.00090625 C 17.009625 9.395437 9.392437 17.008719 0.0018125 17.008719 C -9.392719 17.008719 -17.009906 9.395437 -17.009906 0.00090625 C -17.009906 -9.393625 -9.392719 -17.006906 0.0018125 -17.006906 C 9.392437 -17.006906 17.009625 -9.393625 17.009625 0.00090625 Z M 17.009625 0.00090625 " transform="matrix(1,0,0,-1,29.881,29.747)"/>
<path style="fill:none;stroke-width:1.19553;stroke-linecap:butt;stroke-linejoin:miter;stroke:rgb(0%,0%,0%);stroke-opacity:1;stroke-miterlimit:10;" d="M -28.345844 0.00090625 L 28.345562 0.00090625 " transform="matrix(1,0,0,-1,29.881,29.747)"/>
</g>
</svg>
