<?xml version="1.0" encoding="UTF-8"?>
<svg xmlns="http://www.w3.org/2000/svg" xmlns:xlink="http://www.w3.org/1999/xlink" width="91.485pt" height="15.442pt" viewBox="0 0 91.485 15.442" version="1.1">
<defs>
<clipPath id="clip1">
  <path d="M 0 0 L 23 0 L 23 15.441406 L 0 15.441406 Z M 0 0 "/>
</clipPath>
<clipPath id="clip2">
  <path d="M 0 0 L 27 0 L 27 15.441406 L 0 15.441406 Z M 0 0 "/>
</clipPath>
<clipPath id="clip3">
  <path d="M 0 0 L 30 0 L 30 15.441406 L 0 15.441406 Z M 0 0 "/>
</clipPath>
<clipPath id="clip4">
  <path d="M 17 0 L 57 0 L 57 15.441406 L 17 15.441406 Z M 17 0 "/>
</clipPath>
<clipPath id="clip5">
  <path d="M 23 0 L 65 0 L 65 15.441406 L 23 15.441406 Z M 23 0 "/>
</clipPath>
<clipPath id="clip6">
  <path d="M 52 0 L 91.484375 0 L 91.484375 15.441406 L 52 15.441406 Z M 52 0 "/>
</clipPath>
<clipPath id="clip7">
  <path d="M 57 0 L 91.484375 0 L 91.484375 15.441406 L 57 15.441406 Z M 57 0 "/>
</clipPath>
<clipPath id="clip8">
  <path d="M 61 0 L 91.484375 0 L 91.484375 15.441406 L 61 15.441406 Z M 61 0 "/>
</clipPath>
<clipPath id="clip9">
  <path d="M 70 0 L 91.484375 0 L 91.484375 15.441406 L 70 15.441406 Z M 70 0 "/>
</clipPath>
</defs>
<g id="surface1">
<g clip-path="url(#clip1)" clip-rule="nonzero">
<path style="fill:none;stroke-width:1.28685;stroke-linecap:butt;stroke-linejoin:miter;stroke:rgb(0%,0%,0%);stroke-opacity:1;stroke-miterlimit:10;" d="M -2.511469 -0.00178125 L 1.054938 14.154469 " transform="matrix(1,0,0,-1,3.156,14.799)"/>
</g>
<g clip-path="url(#clip2)" clip-rule="nonzero">
<path style="fill:none;stroke-width:1.28685;stroke-linecap:butt;stroke-linejoin:miter;stroke:rgb(0%,0%,0%);stroke-opacity:1;stroke-miterlimit:10;" d="M -0.0858437 -0.00178125 L 1.226656 14.154469 " transform="matrix(1,0,0,-1,6.871,14.799)"/>
</g>
<g clip-path="url(#clip3)" clip-rule="nonzero">
<path style="fill:none;stroke-width:1.28685;stroke-linecap:butt;stroke-linejoin:miter;stroke:rgb(0%,0%,0%);stroke-opacity:1;stroke-miterlimit:10;" d="M 0.801125 -0.00178125 L 0.94175 14.154469 " transform="matrix(1,0,0,-1,10.527,14.799)"/>
</g>
<g clip-path="url(#clip4)" clip-rule="nonzero">
<path style="fill:none;stroke-width:1.28685;stroke-linecap:butt;stroke-linejoin:miter;stroke:rgb(0%,0%,0%);stroke-opacity:1;stroke-miterlimit:10;" d="M 0.799438 -0.00178125 L -2.481812 14.154469 " transform="matrix(1,0,0,-1,37.974,14.799)"/>
</g>
<g clip-path="url(#clip5)" clip-rule="nonzero">
<path style="fill:none;stroke-width:1.28685;stroke-linecap:butt;stroke-linejoin:miter;stroke:rgb(0%,0%,0%);stroke-opacity:1;stroke-miterlimit:10;" d="M 2.541031 -0.00178125 L -2.568344 14.154469 " transform="matrix(1,0,0,-1,43.916,14.799)"/>
</g>
<g clip-path="url(#clip6)" clip-rule="nonzero">
<path style="fill:none;stroke-width:1.28685;stroke-linecap:butt;stroke-linejoin:miter;stroke:rgb(0%,0%,0%);stroke-opacity:1;stroke-miterlimit:10;" d="M -0.629437 -0.00178125 L 2.339313 14.154469 " transform="matrix(1,0,0,-1,71.106,14.799)"/>
</g>
<g clip-path="url(#clip7)" clip-rule="nonzero">
<path style="fill:none;stroke-width:1.28685;stroke-linecap:butt;stroke-linejoin:miter;stroke:rgb(0%,0%,0%);stroke-opacity:1;stroke-miterlimit:10;" d="M -1.485469 -0.00178125 L -0.485469 14.154469 " transform="matrix(1,0,0,-1,77.505,14.799)"/>
</g>
<g clip-path="url(#clip8)" clip-rule="nonzero">
<path style="fill:none;stroke-width:1.28685;stroke-linecap:butt;stroke-linejoin:miter;stroke:rgb(0%,0%,0%);stroke-opacity:1;stroke-miterlimit:10;" d="M 2.599313 -0.00178125 L -1.912406 14.154469 " transform="matrix(1,0,0,-1,81.846,14.799)"/>
</g>
<g clip-path="url(#clip9)" clip-rule="nonzero">
<path style="fill:none;stroke-width:1.28685;stroke-linecap:butt;stroke-linejoin:miter;stroke:rgb(0%,0%,0%);stroke-opacity:1;stroke-miterlimit:10;" d="M 2.682688 -0.00178125 L 2.311594 14.154469 " transform="matrix(1,0,0,-1,86.872,14.799)"/>
</g>
</g>
</svg>
