<?xml version="1.0" encoding="UTF-8"?>
<svg xmlns="http://www.w3.org/2000/svg" xmlns:xlink="http://www.w3.org/1999/xlink" width="161.066pt" height="15.442pt" viewBox="0 0 161.066 15.442" version="1.1">
<defs>
<clipPath id="clip1">
  <path d="M 0 0 L 21 0 L 21 15.441406 L 0 15.441406 Z M 0 0 "/>
</clipPath>
<clipPath id="clip2">
  <path d="M 0 0 L 24 0 L 24 15.441406 L 0 15.441406 Z M 0 0 "/>
</clipPath>
<clipPath id="clip3">
  <path d="M 0 0 L 27 0 L 27 15.441406 L 0 15.441406 Z M 0 0 "/>
</clipPath>
<clipPath id="clip4">
  <path d="M 0 0 L 33 0 L 33 15.441406 L 0 15.441406 Z M 0 0 "/>
</clipPath>
<clipPath id="clip5">
  <path d="M 0 0 L 37 0 L 37 15.441406 L 0 15.441406 Z M 0 0 "/>
</clipPath>
<clipPath id="clip6">
  <path d="M 2 0 L 40 0 L 40 15.441406 L 2 15.441406 Z M 2 0 "/>
</clipPath>
<clipPath id="clip7">
  <path d="M 9 0 L 47 0 L 47 15.441406 L 9 15.441406 Z M 9 0 "/>
</clipPath>
<clipPath id="clip8">
  <path d="M 12 0 L 52 0 L 52 15.441406 L 12 15.441406 Z M 12 0 "/>
</clipPath>
<clipPath id="clip9">
  <path d="M 17 0 L 56 0 L 56 15.441406 L 17 15.441406 Z M 17 0 "/>
</clipPath>
<clipPath id="clip10">
  <path d="M 43 0 L 82 0 L 82 15.441406 L 43 15.441406 Z M 43 0 "/>
</clipPath>
<clipPath id="clip11">
  <path d="M 48 0 L 91 0 L 91 15.441406 L 48 15.441406 Z M 48 0 "/>
</clipPath>
<clipPath id="clip12">
  <path d="M 77 0 L 117 0 L 117 15.441406 L 77 15.441406 Z M 77 0 "/>
</clipPath>
<clipPath id="clip13">
  <path d="M 82 0 L 122 0 L 122 15.441406 L 82 15.441406 Z M 82 0 "/>
</clipPath>
<clipPath id="clip14">
  <path d="M 87 0 L 127 0 L 127 15.441406 L 87 15.441406 Z M 87 0 "/>
</clipPath>
<clipPath id="clip15">
  <path d="M 92 0 L 132 0 L 132 15.441406 L 92 15.441406 Z M 92 0 "/>
</clipPath>
<clipPath id="clip16">
  <path d="M 97 0 L 137 0 L 137 15.441406 L 97 15.441406 Z M 97 0 "/>
</clipPath>
<clipPath id="clip17">
  <path d="M 102 0 L 139 0 L 139 15.441406 L 102 15.441406 Z M 102 0 "/>
</clipPath>
<clipPath id="clip18">
  <path d="M 105 0 L 144 0 L 144 15.441406 L 105 15.441406 Z M 105 0 "/>
</clipPath>
<clipPath id="clip19">
  <path d="M 109 0 L 149 0 L 149 15.441406 L 109 15.441406 Z M 109 0 "/>
</clipPath>
<clipPath id="clip20">
  <path d="M 114 0 L 153 0 L 153 15.441406 L 114 15.441406 Z M 114 0 "/>
</clipPath>
<clipPath id="clip21">
  <path d="M 119 0 L 157 0 L 157 15.441406 L 119 15.441406 Z M 119 0 "/>
</clipPath>
<clipPath id="clip22">
  <path d="M 122 0 L 160 0 L 160 15.441406 L 122 15.441406 Z M 122 0 "/>
</clipPath>
<clipPath id="clip23">
  <path d="M 126 0 L 161.066406 0 L 161.066406 15.441406 L 126 15.441406 Z M 126 0 "/>
</clipPath>
<clipPath id="clip24">
  <path d="M 133 0 L 161.066406 0 L 161.066406 15.441406 L 133 15.441406 Z M 133 0 "/>
</clipPath>
<clipPath id="clip25">
  <path d="M 139 0 L 161.066406 0 L 161.066406 15.441406 L 139 15.441406 Z M 139 0 "/>
</clipPath>
</defs>
<g id="surface1">
<g clip-path="url(#clip1)" clip-rule="nonzero">
<path style="fill:none;stroke-width:1.28685;stroke-linecap:butt;stroke-linejoin:miter;stroke:rgb(0%,0%,0%);stroke-opacity:1;stroke-miterlimit:10;" d="M 1.427781 -0.00178125 L 1.513719 14.154469 " transform="matrix(1,0,0,-1,0.498,14.799)"/>
</g>
<g clip-path="url(#clip2)" clip-rule="nonzero">
<path style="fill:none;stroke-width:1.28685;stroke-linecap:butt;stroke-linejoin:miter;stroke:rgb(0%,0%,0%);stroke-opacity:1;stroke-miterlimit:10;" d="M 0.0579375 -0.00178125 L 0.999344 14.154469 " transform="matrix(1,0,0,-1,4.528,14.799)"/>
</g>
<g clip-path="url(#clip3)" clip-rule="nonzero">
<path style="fill:none;stroke-width:1.28685;stroke-linecap:butt;stroke-linejoin:miter;stroke:rgb(0%,0%,0%);stroke-opacity:1;stroke-miterlimit:10;" d="M -1.513844 -0.00178125 L -2.197438 14.154469 " transform="matrix(1,0,0,-1,10.299,14.799)"/>
</g>
<g clip-path="url(#clip4)" clip-rule="nonzero">
<path style="fill:none;stroke-width:1.28685;stroke-linecap:butt;stroke-linejoin:miter;stroke:rgb(0%,0%,0%);stroke-opacity:1;stroke-miterlimit:10;" d="M -2.198438 -0.00178125 L -0.854688 14.154469 " transform="matrix(1,0,0,-1,14.925,14.799)"/>
</g>
<g clip-path="url(#clip5)" clip-rule="nonzero">
<path style="fill:none;stroke-width:1.28685;stroke-linecap:butt;stroke-linejoin:miter;stroke:rgb(0%,0%,0%);stroke-opacity:1;stroke-miterlimit:10;" d="M -1.254531 -0.00178125 L -0.457656 14.154469 " transform="matrix(1,0,0,-1,18.61,14.799)"/>
</g>
<g clip-path="url(#clip6)" clip-rule="nonzero">
<path style="fill:none;stroke-width:1.28685;stroke-linecap:butt;stroke-linejoin:miter;stroke:rgb(0%,0%,0%);stroke-opacity:1;stroke-miterlimit:10;" d="M -1.854688 -0.00178125 L -2.510938 14.154469 " transform="matrix(1,0,0,-1,23.55,14.799)"/>
</g>
<g clip-path="url(#clip7)" clip-rule="nonzero">
<path style="fill:none;stroke-width:1.28685;stroke-linecap:butt;stroke-linejoin:miter;stroke:rgb(0%,0%,0%);stroke-opacity:1;stroke-miterlimit:10;" d="M 2.682625 -0.00178125 L 1.940437 14.154469 " transform="matrix(1,0,0,-1,25.833,14.799)"/>
</g>
<g clip-path="url(#clip8)" clip-rule="nonzero">
<path style="fill:none;stroke-width:1.28685;stroke-linecap:butt;stroke-linejoin:miter;stroke:rgb(0%,0%,0%);stroke-opacity:1;stroke-miterlimit:10;" d="M 0.997531 -0.00178125 L -1.057156 14.154469 " transform="matrix(1,0,0,-1,32.147,14.799)"/>
</g>
<g clip-path="url(#clip9)" clip-rule="nonzero">
<path style="fill:none;stroke-width:1.28685;stroke-linecap:butt;stroke-linejoin:miter;stroke:rgb(0%,0%,0%);stroke-opacity:1;stroke-miterlimit:10;" d="M -0.65725 -0.00178125 L 0.999 14.154469 " transform="matrix(1,0,0,-1,36.376,14.799)"/>
</g>
<g clip-path="url(#clip10)" clip-rule="nonzero">
<path style="fill:none;stroke-width:1.28685;stroke-linecap:butt;stroke-linejoin:miter;stroke:rgb(0%,0%,0%);stroke-opacity:1;stroke-miterlimit:10;" d="M -0.741625 -0.00178125 L -2.456469 14.154469 " transform="matrix(1,0,0,-1,63.851,14.799)"/>
</g>
<g clip-path="url(#clip11)" clip-rule="nonzero">
<path style="fill:none;stroke-width:1.28685;stroke-linecap:butt;stroke-linejoin:miter;stroke:rgb(0%,0%,0%);stroke-opacity:1;stroke-miterlimit:10;" d="M -2.79575 -0.00178125 L 2.798 14.154469 " transform="matrix(1,0,0,-1,69.077,14.799)"/>
</g>
<g clip-path="url(#clip12)" clip-rule="nonzero">
<path style="fill:none;stroke-width:1.28685;stroke-linecap:butt;stroke-linejoin:miter;stroke:rgb(0%,0%,0%);stroke-opacity:1;stroke-miterlimit:10;" d="M -1.457469 -0.00178125 L 1.026906 14.154469 " transform="matrix(1,0,0,-1,97.352,14.799)"/>
</g>
<g clip-path="url(#clip13)" clip-rule="nonzero">
<path style="fill:none;stroke-width:1.28685;stroke-linecap:butt;stroke-linejoin:miter;stroke:rgb(0%,0%,0%);stroke-opacity:1;stroke-miterlimit:10;" d="M -1.341875 -0.00178125 L 0.912031 14.154469 " transform="matrix(1,0,0,-1,102.295,14.799)"/>
</g>
<g clip-path="url(#clip14)" clip-rule="nonzero">
<path style="fill:none;stroke-width:1.28685;stroke-linecap:butt;stroke-linejoin:miter;stroke:rgb(0%,0%,0%);stroke-opacity:1;stroke-miterlimit:10;" d="M -0.801063 -0.00178125 L -2.85575 14.154469 " transform="matrix(1,0,0,-1,108.637,14.799)"/>
</g>
<g clip-path="url(#clip15)" clip-rule="nonzero">
<path style="fill:none;stroke-width:1.28685;stroke-linecap:butt;stroke-linejoin:miter;stroke:rgb(0%,0%,0%);stroke-opacity:1;stroke-miterlimit:10;" d="M -2.596594 -0.00178125 L -0.401281 14.154469 " transform="matrix(1,0,0,-1,113.663,14.799)"/>
</g>
<g clip-path="url(#clip16)" clip-rule="nonzero">
<path style="fill:none;stroke-width:1.28685;stroke-linecap:butt;stroke-linejoin:miter;stroke:rgb(0%,0%,0%);stroke-opacity:1;stroke-miterlimit:10;" d="M -0.314969 -0.00178125 L -2.057156 14.154469 " transform="matrix(1,0,0,-1,118.147,14.799)"/>
</g>
<g clip-path="url(#clip17)" clip-rule="nonzero">
<path style="fill:none;stroke-width:1.28685;stroke-linecap:butt;stroke-linejoin:miter;stroke:rgb(0%,0%,0%);stroke-opacity:1;stroke-miterlimit:10;" d="M -0.82725 -0.00178125 L -0.971781 14.154469 " transform="matrix(1,0,0,-1,121.546,14.799)"/>
</g>
<g clip-path="url(#clip18)" clip-rule="nonzero">
<path style="fill:none;stroke-width:1.28685;stroke-linecap:butt;stroke-linejoin:miter;stroke:rgb(0%,0%,0%);stroke-opacity:1;stroke-miterlimit:10;" d="M 1.428813 -0.00178125 L 0.284281 14.154469 " transform="matrix(1,0,0,-1,123.829,14.799)"/>
</g>
<g clip-path="url(#clip19)" clip-rule="nonzero">
<path style="fill:none;stroke-width:1.28685;stroke-linecap:butt;stroke-linejoin:miter;stroke:rgb(0%,0%,0%);stroke-opacity:1;stroke-miterlimit:10;" d="M -1.285875 -0.00178125 L 1.428969 14.154469 " transform="matrix(1,0,0,-1,129.114,14.799)"/>
</g>
<g clip-path="url(#clip20)" clip-rule="nonzero">
<path style="fill:none;stroke-width:1.28685;stroke-linecap:butt;stroke-linejoin:miter;stroke:rgb(0%,0%,0%);stroke-opacity:1;stroke-miterlimit:10;" d="M -0.456906 -0.00178125 L -1.714719 14.154469 " transform="matrix(1,0,0,-1,134.828,14.799)"/>
</g>
<g clip-path="url(#clip21)" clip-rule="nonzero">
<path style="fill:none;stroke-width:1.28685;stroke-linecap:butt;stroke-linejoin:miter;stroke:rgb(0%,0%,0%);stroke-opacity:1;stroke-miterlimit:10;" d="M -0.370188 -0.00178125 L 0.34075 14.154469 " transform="matrix(1,0,0,-1,137.628,14.799)"/>
</g>
<g clip-path="url(#clip22)" clip-rule="nonzero">
<path style="fill:none;stroke-width:1.28685;stroke-linecap:butt;stroke-linejoin:miter;stroke:rgb(0%,0%,0%);stroke-opacity:1;stroke-miterlimit:10;" d="M 0.686937 -0.00178125 L 1.25725 14.154469 " transform="matrix(1,0,0,-1,140.399,14.799)"/>
</g>
<g clip-path="url(#clip23)" clip-rule="nonzero">
<path style="fill:none;stroke-width:1.28685;stroke-linecap:butt;stroke-linejoin:miter;stroke:rgb(0%,0%,0%);stroke-opacity:1;stroke-miterlimit:10;" d="M 2.370125 -0.00178125 L -2.856437 14.154469 " transform="matrix(1,0,0,-1,147.083,14.799)"/>
</g>
<g clip-path="url(#clip24)" clip-rule="nonzero">
<path style="fill:none;stroke-width:1.28685;stroke-linecap:butt;stroke-linejoin:miter;stroke:rgb(0%,0%,0%);stroke-opacity:1;stroke-miterlimit:10;" d="M -1.625656 -0.00178125 L 0.569656 14.154469 " transform="matrix(1,0,0,-1,153.653,14.799)"/>
</g>
<g clip-path="url(#clip25)" clip-rule="nonzero">
<path style="fill:none;stroke-width:1.28685;stroke-linecap:butt;stroke-linejoin:miter;stroke:rgb(0%,0%,0%);stroke-opacity:1;stroke-miterlimit:10;" d="M 1.511063 -0.00178125 L 2.483719 14.154469 " transform="matrix(1,0,0,-1,156.653,14.799)"/>
</g>
</g>
</svg>
