<?xml version="1.0" encoding="UTF-8"?>
<svg xmlns="http://www.w3.org/2000/svg" xmlns:xlink="http://www.w3.org/1999/xlink" width="41pt" height="41pt" viewBox="0 0 41 41" version="1.1">
<g id="surface1">
<path style="fill:none;stroke-width:1.19553;stroke-linecap:butt;stroke-linejoin:miter;stroke:rgb(0%,0%,0%);stroke-opacity:1;stroke-miterlimit:10;" d="M 5.113719 28.345375 C 5.113719 31.169594 2.824656 33.458656 0.0004375 33.458656 C -2.823781 33.458656 -5.112844 31.169594 -5.112844 28.345375 C -5.112844 25.521156 -2.823781 23.232094 0.0004375 23.232094 C 2.824656 23.232094 5.113719 25.521156 5.113719 28.345375 Z M 5.113719 28.345375 " transform="matrix(1,0,0,-1,6.648,34.861)"/>
<path style="fill:none;stroke-width:1.19553;stroke-linecap:butt;stroke-linejoin:miter;stroke:rgb(0%,0%,0%);stroke-opacity:1;stroke-miterlimit:10;" d="M 33.461375 28.345375 C 33.461375 31.169594 31.172313 33.458656 28.348094 33.458656 C 25.523875 33.458656 23.234813 31.169594 23.234813 28.345375 C 23.234813 25.521156 25.523875 23.232094 28.348094 23.232094 C 31.172313 23.232094 33.461375 25.521156 33.461375 28.345375 Z M 33.461375 28.345375 " transform="matrix(1,0,0,-1,6.648,34.861)"/>
<path style="fill:none;stroke-width:1.19553;stroke-linecap:butt;stroke-linejoin:miter;stroke:rgb(0%,0%,0%);stroke-opacity:1;stroke-miterlimit:10;" d="M 33.461375 0.001625 C 33.461375 2.825844 31.172313 5.114906 28.348094 5.114906 C 25.523875 5.114906 23.234813 2.825844 23.234813 0.001625 C 23.234813 -2.822594 25.523875 -5.111656 28.348094 -5.111656 C 31.172313 -5.111656 33.461375 -2.822594 33.461375 0.001625 Z M 33.461375 0.001625 " transform="matrix(1,0,0,-1,6.648,34.861)"/>
<path style="fill:none;stroke-width:1.19553;stroke-linecap:butt;stroke-linejoin:miter;stroke:rgb(0%,0%,0%);stroke-opacity:1;stroke-miterlimit:10;" d="M 5.113719 0.001625 C 5.113719 2.825844 2.824656 5.114906 0.0004375 5.114906 C -2.823781 5.114906 -5.112844 2.825844 -5.112844 0.001625 C -5.112844 -2.822594 -2.823781 -5.111656 0.0004375 -5.111656 C 2.824656 -5.111656 5.113719 -2.822594 5.113719 0.001625 Z M 5.113719 0.001625 " transform="matrix(1,0,0,-1,6.648,34.861)"/>
<path style="fill:none;stroke-width:1.19553;stroke-linecap:butt;stroke-linejoin:miter;stroke:rgb(0%,0%,0%);stroke-opacity:1;stroke-miterlimit:10;" d="M 5.711375 28.345375 L 22.637156 28.345375 " transform="matrix(1,0,0,-1,6.648,34.861)"/>
<path style="fill:none;stroke-width:1.19553;stroke-linecap:butt;stroke-linejoin:miter;stroke:rgb(0%,0%,0%);stroke-opacity:1;stroke-miterlimit:10;" d="M 28.348094 22.634437 L 28.348094 5.712562 " transform="matrix(1,0,0,-1,6.648,34.861)"/>
<path style="fill:none;stroke-width:1.19553;stroke-linecap:butt;stroke-linejoin:miter;stroke:rgb(0%,0%,0%);stroke-opacity:1;stroke-miterlimit:10;" d="M 22.637156 0.001625 L 5.711375 0.001625 " transform="matrix(1,0,0,-1,6.648,34.861)"/>
<path style="fill:none;stroke-width:1.19553;stroke-linecap:butt;stroke-linejoin:miter;stroke:rgb(0%,0%,0%);stroke-opacity:1;stroke-miterlimit:10;" d="M 0.0004375 5.712562 L 0.0004375 22.634437 " transform="matrix(1,0,0,-1,6.648,34.861)"/>
</g>
</svg>
