<?xml version="1.0" encoding="UTF-8"?>
<svg xmlns="http://www.w3.org/2000/svg" xmlns:xlink="http://www.w3.org/1999/xlink" width="67" height="64" viewBox="0 0 67 64">
<path fill="none" stroke-width="1.19553" stroke-linecap="butt" stroke-linejoin="miter" stroke="rgb(0%, 0%, 0%)" stroke-opacity="1" stroke-miterlimit="10" d="M 5.11175 28.345375 C 5.11175 31.169594 2.822688 33.458656 -0.00153125 33.458656 C -2.82575 33.458656 -5.114812 31.169594 -5.114812 28.345375 C -5.114812 25.521156 -2.82575 23.232094 -0.00153125 23.232094 C 2.822688 23.232094 5.11175 25.521156 5.11175 28.345375 Z M 5.11175 28.345375 " transform="matrix(1, 0, 0, -1, 33.607, 34.861)"/>
<path fill="none" stroke-width="1.19553" stroke-linecap="butt" stroke-linejoin="miter" stroke="rgb(0%, 0%, 0%)" stroke-opacity="1" stroke-miterlimit="10" d="M 32.072688 8.759437 C 32.072688 11.583656 29.783625 13.872719 26.959406 13.872719 C 24.135188 13.872719 21.846125 11.583656 21.846125 8.759437 C 21.846125 5.935219 24.135188 3.646156 26.959406 3.646156 C 29.783625 3.646156 32.072688 5.935219 32.072688 8.759437 Z M 32.072688 8.759437 " transform="matrix(1, 0, 0, -1, 33.607, 34.861)"/>
<path fill="none" stroke-width="1.19553" stroke-linecap="butt" stroke-linejoin="miter" stroke="rgb(0%, 0%, 0%)" stroke-opacity="1" stroke-miterlimit="10" d="M 21.775813 -22.931969 C 21.775813 -20.10775 19.48675 -17.818688 16.662531 -17.818688 C 13.838313 -17.818688 11.54925 -20.10775 11.54925 -22.931969 C 11.54925 -25.756188 13.838313 -28.04525 16.662531 -28.04525 C 19.48675 -28.04525 21.775813 -25.756188 21.775813 -22.931969 Z M 21.775813 -22.931969 " transform="matrix(1, 0, 0, -1, 33.607, 34.861)"/>
<path fill="none" stroke-width="1.19553" stroke-linecap="butt" stroke-linejoin="miter" stroke="rgb(0%, 0%, 0%)" stroke-opacity="1" stroke-miterlimit="10" d="M -11.548406 -22.931969 C -11.548406 -20.10775 -13.837469 -17.818688 -16.661687 -17.818688 C -19.485906 -17.818688 -21.774969 -20.10775 -21.774969 -22.931969 C -21.774969 -25.756188 -19.485906 -28.04525 -16.661687 -28.04525 C -13.837469 -28.04525 -11.548406 -25.756188 -11.548406 -22.931969 Z M -11.548406 -22.931969 " transform="matrix(1, 0, 0, -1, 33.607, 34.861)"/>
<path fill="none" stroke-width="1.19553" stroke-linecap="butt" stroke-linejoin="miter" stroke="rgb(0%, 0%, 0%)" stroke-opacity="1" stroke-miterlimit="10" d="M -21.845281 8.759437 C -21.845281 11.583656 -24.134344 13.872719 -26.958562 13.872719 C -29.782781 13.872719 -32.071844 11.583656 -32.071844 8.759437 C -32.071844 5.935219 -29.782781 3.646156 -26.958562 3.646156 C -24.134344 3.646156 -21.845281 5.935219 -21.845281 8.759437 Z M -21.845281 8.759437 " transform="matrix(1, 0, 0, -1, 33.607, 34.861)"/>
<path fill="none" stroke-width="1.19553" stroke-linecap="butt" stroke-linejoin="miter" stroke="rgb(0%, 0%, 0%)" stroke-opacity="1" stroke-miterlimit="10" d="M 4.619563 24.989906 L 22.338313 12.114906 " transform="matrix(1, 0, 0, -1, 33.607, 34.861)"/>
<path fill="none" stroke-width="1.19553" stroke-linecap="butt" stroke-linejoin="miter" stroke="rgb(0%, 0%, 0%)" stroke-opacity="1" stroke-miterlimit="10" d="M 25.193781 3.32975 L 18.428156 -17.502281 " transform="matrix(1, 0, 0, -1, 33.607, 34.861)"/>
<path fill="none" stroke-width="1.19553" stroke-linecap="butt" stroke-linejoin="miter" stroke="rgb(0%, 0%, 0%)" stroke-opacity="1" stroke-miterlimit="10" d="M 10.951594 -22.931969 L -10.95075 -22.931969 " transform="matrix(1, 0, 0, -1, 33.607, 34.861)"/>
<path fill="none" stroke-width="1.19553" stroke-linecap="butt" stroke-linejoin="miter" stroke="rgb(0%, 0%, 0%)" stroke-opacity="1" stroke-miterlimit="10" d="M -18.427312 -17.502281 L -25.192937 3.32975 " transform="matrix(1, 0, 0, -1, 33.607, 34.861)"/>
<path fill="none" stroke-width="1.19553" stroke-linecap="butt" stroke-linejoin="miter" stroke="rgb(0%, 0%, 0%)" stroke-opacity="1" stroke-miterlimit="10" d="M -22.337469 12.114906 L -4.618719 24.989906 " transform="matrix(1, 0, 0, -1, 33.607, 34.861)"/>
</svg>
