<?xml version="1.0" encoding="UTF-8"?>
<svg xmlns="http://www.w3.org/2000/svg" xmlns:xlink="http://www.w3.org/1999/xlink" width="158pt" height="71pt" viewBox="0 0 158 71" version="1.1">
<g id="surface1">
<path style="fill-rule:nonzero;fill:rgb(0%,0%,0%);fill-opacity:1;stroke-width:1.19553;stroke-linecap:butt;stroke-linejoin:miter;stroke:rgb(0%,0%,0%);stroke-opacity:1;stroke-miterlimit:10;" d="M 0.0004375 -0.0005625 L 0.0004375 68.030687 L 15.875438 68.030687 L 15.875438 -0.0005625 Z M 0.0004375 -0.0005625 " transform="matrix(1,0,0,-1,14.148,69.601)"/>
<path style="fill:none;stroke-width:1.19553;stroke-linecap:butt;stroke-linejoin:miter;stroke:rgb(0%,0%,0%);stroke-opacity:1;stroke-miterlimit:10;" d="M 22.676219 -0.0005625 L 22.676219 68.030687 L 38.551219 68.030687 L 38.551219 -0.0005625 Z M 22.676219 -0.0005625 " transform="matrix(1,0,0,-1,14.148,69.601)"/>
<path style="fill-rule:nonzero;fill:rgb(50%,50%,50%);fill-opacity:1;stroke-width:1.19553;stroke-linecap:butt;stroke-linejoin:miter;stroke:rgb(0%,0%,0%);stroke-opacity:1;stroke-miterlimit:10;" d="M 45.355906 -0.0005625 L 45.355906 68.030687 L 61.230906 68.030687 L 61.230906 -0.0005625 Z M 45.355906 -0.0005625 " transform="matrix(1,0,0,-1,14.148,69.601)"/>
<path style="fill:none;stroke-width:1.19553;stroke-linecap:butt;stroke-linejoin:miter;stroke:rgb(0%,0%,0%);stroke-opacity:1;stroke-miterlimit:10;" d="M 68.031688 -0.0005625 L 68.031688 68.030687 L 83.906688 68.030687 L 83.906688 -0.0005625 Z M 68.031688 -0.0005625 " transform="matrix(1,0,0,-1,14.148,69.601)"/>
<path style="fill-rule:nonzero;fill:rgb(0%,0%,0%);fill-opacity:1;stroke-width:1.19553;stroke-linecap:butt;stroke-linejoin:miter;stroke:rgb(0%,0%,0%);stroke-opacity:1;stroke-miterlimit:10;" d="M 90.711375 -0.0005625 L 90.711375 68.030687 L 106.582469 68.030687 L 106.582469 -0.0005625 Z M 90.711375 -0.0005625 " transform="matrix(1,0,0,-1,14.148,69.601)"/>
<path style="fill-rule:nonzero;fill:rgb(50%,50%,50%);fill-opacity:1;stroke-width:1.19553;stroke-linecap:butt;stroke-linejoin:miter;stroke:rgb(0%,0%,0%);stroke-opacity:1;stroke-miterlimit:10;" d="M 113.387156 -0.0005625 L 113.387156 68.030687 L 129.262156 68.030687 L 129.262156 -0.0005625 Z M 113.387156 -0.0005625 " transform="matrix(1,0,0,-1,14.148,69.601)"/>
<path style="fill:none;stroke-width:1.19553;stroke-linecap:butt;stroke-linejoin:miter;stroke:rgb(0%,0%,0%);stroke-opacity:1;stroke-miterlimit:10;" d="M -13.605031 -0.0005625 L 142.867625 -0.0005625 " transform="matrix(1,0,0,-1,14.148,69.601)"/>
</g>
</svg>
