<?xml version="1.0" encoding="UTF-8"?>
<svg xmlns="http://www.w3.org/2000/svg" xmlns:xlink="http://www.w3.org/1999/xlink" width="48pt" height="54pt" viewBox="0 0 48 54" version="1.1">
<g id="surface1">
<path style="fill-rule:nonzero;fill:rgb(75%,75%,75%);fill-opacity:1;stroke-width:1.19553;stroke-linecap:butt;stroke-linejoin:miter;stroke:rgb(0%,0%,0%);stroke-opacity:1;stroke-miterlimit:10;" d="M 22.675531 0.001125 C 22.675531 3.130031 12.523187 5.669094 -0.00025 5.669094 C -12.523688 5.669094 -22.676031 3.130031 -22.676031 0.001125 C -22.676031 -3.131687 -12.523688 -5.67075 -0.00025 -5.67075 C 12.523187 -5.67075 22.675531 -3.131687 22.675531 0.001125 Z M 22.675531 0.001125 " transform="matrix(1,0,0,-1,24.219,46.923)"/>
<path style="fill-rule:nonzero;fill:rgb(75%,75%,75%);fill-opacity:1;stroke-width:0.3985;stroke-linecap:butt;stroke-linejoin:miter;stroke:rgb(75%,75%,75%);stroke-opacity:1;stroke-miterlimit:10;" d="M -22.336188 0.001125 L -22.336188 5.669094 L 22.335687 5.669094 L 22.335687 0.001125 Z M -22.336188 0.001125 " transform="matrix(1,0,0,-1,24.219,46.923)"/>
<path style="fill:none;stroke-width:1.19553;stroke-linecap:butt;stroke-linejoin:miter;stroke:rgb(0%,0%,0%);stroke-opacity:1;stroke-miterlimit:10;" d="M -22.676031 -0.565281 L -22.676031 5.669094 " transform="matrix(1,0,0,-1,24.219,46.923)"/>
<path style="fill:none;stroke-width:1.19553;stroke-linecap:butt;stroke-linejoin:miter;stroke:rgb(0%,0%,0%);stroke-opacity:1;stroke-miterlimit:10;" d="M 22.675531 -0.565281 L 22.675531 5.669094 " transform="matrix(1,0,0,-1,24.219,46.923)"/>
<path style="fill-rule:nonzero;fill:rgb(25%,25%,25%);fill-opacity:1;stroke-width:1.19553;stroke-linecap:butt;stroke-linejoin:miter;stroke:rgb(0%,0%,0%);stroke-opacity:1;stroke-miterlimit:10;" d="M 22.675531 5.669094 C 22.675531 8.801906 12.523187 11.337063 -0.00025 11.337063 C -12.523688 11.337063 -22.676031 8.801906 -22.676031 5.669094 C -22.676031 2.536281 -12.523688 0.001125 -0.00025 0.001125 C 12.523187 0.001125 22.675531 2.536281 22.675531 5.669094 Z M 22.675531 5.669094 " transform="matrix(1,0,0,-1,24.219,46.923)"/>
<path style="fill-rule:nonzero;fill:rgb(75%,75%,75%);fill-opacity:1;stroke-width:1.19553;stroke-linecap:butt;stroke-linejoin:miter;stroke:rgb(0%,0%,0%);stroke-opacity:1;stroke-miterlimit:10;" d="M 22.675531 5.669094 C 22.675531 8.801906 12.523187 11.337063 -0.00025 11.337063 C -12.523688 11.337063 -22.676031 8.801906 -22.676031 5.669094 C -22.676031 2.536281 -12.523688 0.001125 -0.00025 0.001125 C 12.523187 0.001125 22.675531 2.536281 22.675531 5.669094 Z M 22.675531 5.669094 " transform="matrix(1,0,0,-1,24.219,46.923)"/>
<path style="fill-rule:nonzero;fill:rgb(75%,75%,75%);fill-opacity:1;stroke-width:0.3985;stroke-linecap:butt;stroke-linejoin:miter;stroke:rgb(75%,75%,75%);stroke-opacity:1;stroke-miterlimit:10;" d="M -22.336188 5.669094 L -22.336188 11.337063 L 22.335687 11.337063 L 22.335687 5.669094 Z M -22.336188 5.669094 " transform="matrix(1,0,0,-1,24.219,46.923)"/>
<path style="fill:none;stroke-width:1.19553;stroke-linecap:butt;stroke-linejoin:miter;stroke:rgb(0%,0%,0%);stroke-opacity:1;stroke-miterlimit:10;" d="M -22.676031 5.102688 L -22.676031 11.337063 " transform="matrix(1,0,0,-1,24.219,46.923)"/>
<path style="fill:none;stroke-width:1.19553;stroke-linecap:butt;stroke-linejoin:miter;stroke:rgb(0%,0%,0%);stroke-opacity:1;stroke-miterlimit:10;" d="M 22.675531 5.102688 L 22.675531 11.337063 " transform="matrix(1,0,0,-1,24.219,46.923)"/>
<path style="fill-rule:nonzero;fill:rgb(25%,25%,25%);fill-opacity:1;stroke-width:1.19553;stroke-linecap:butt;stroke-linejoin:miter;stroke:rgb(0%,0%,0%);stroke-opacity:1;stroke-miterlimit:10;" d="M 22.675531 11.337063 C 22.675531 14.469875 12.523187 17.008938 -0.00025 17.008938 C -12.523688 17.008938 -22.676031 14.469875 -22.676031 11.337063 C -22.676031 8.208156 -12.523688 5.669094 -0.00025 5.669094 C 12.523187 5.669094 22.675531 8.208156 22.675531 11.337063 Z M 22.675531 11.337063 " transform="matrix(1,0,0,-1,24.219,46.923)"/>
<path style="fill-rule:nonzero;fill:rgb(75%,75%,75%);fill-opacity:1;stroke-width:1.19553;stroke-linecap:butt;stroke-linejoin:miter;stroke:rgb(0%,0%,0%);stroke-opacity:1;stroke-miterlimit:10;" d="M 22.675531 11.337063 C 22.675531 14.469875 12.523187 17.008938 -0.00025 17.008938 C -12.523688 17.008938 -22.676031 14.469875 -22.676031 11.337063 C -22.676031 8.208156 -12.523688 5.669094 -0.00025 5.669094 C 12.523187 5.669094 22.675531 8.208156 22.675531 11.337063 Z M 22.675531 11.337063 " transform="matrix(1,0,0,-1,24.219,46.923)"/>
<path style="fill-rule:nonzero;fill:rgb(75%,75%,75%);fill-opacity:1;stroke-width:0.3985;stroke-linecap:butt;stroke-linejoin:miter;stroke:rgb(75%,75%,75%);stroke-opacity:1;stroke-miterlimit:10;" d="M -22.336188 11.337063 L -22.336188 17.008938 L 22.335687 17.008938 L 22.335687 11.337063 Z M -22.336188 11.337063 " transform="matrix(1,0,0,-1,24.219,46.923)"/>
<path style="fill:none;stroke-width:1.19553;stroke-linecap:butt;stroke-linejoin:miter;stroke:rgb(0%,0%,0%);stroke-opacity:1;stroke-miterlimit:10;" d="M -22.676031 10.770656 L -22.676031 17.008938 " transform="matrix(1,0,0,-1,24.219,46.923)"/>
<path style="fill:none;stroke-width:1.19553;stroke-linecap:butt;stroke-linejoin:miter;stroke:rgb(0%,0%,0%);stroke-opacity:1;stroke-miterlimit:10;" d="M 22.675531 10.770656 L 22.675531 17.008938 " transform="matrix(1,0,0,-1,24.219,46.923)"/>
<path style="fill-rule:nonzero;fill:rgb(25%,25%,25%);fill-opacity:1;stroke-width:1.19553;stroke-linecap:butt;stroke-linejoin:miter;stroke:rgb(0%,0%,0%);stroke-opacity:1;stroke-miterlimit:10;" d="M 22.675531 17.008938 C 22.675531 20.137844 12.523187 22.676906 -0.00025 22.676906 C -12.523688 22.676906 -22.676031 20.137844 -22.676031 17.008938 C -22.676031 13.876125 -12.523688 11.337063 -0.00025 11.337063 C 12.523187 11.337063 22.675531 13.876125 22.675531 17.008938 Z M 22.675531 17.008938 " transform="matrix(1,0,0,-1,24.219,46.923)"/>
<path style="fill-rule:nonzero;fill:rgb(75%,75%,75%);fill-opacity:1;stroke-width:1.19553;stroke-linecap:butt;stroke-linejoin:miter;stroke:rgb(0%,0%,0%);stroke-opacity:1;stroke-miterlimit:10;" d="M 22.675531 17.008938 C 22.675531 20.137844 12.523187 22.676906 -0.00025 22.676906 C -12.523688 22.676906 -22.676031 20.137844 -22.676031 17.008938 C -22.676031 13.876125 -12.523688 11.337063 -0.00025 11.337063 C 12.523187 11.337063 22.675531 13.876125 22.675531 17.008938 Z M 22.675531 17.008938 " transform="matrix(1,0,0,-1,24.219,46.923)"/>
<path style="fill-rule:nonzero;fill:rgb(75%,75%,75%);fill-opacity:1;stroke-width:0.3985;stroke-linecap:butt;stroke-linejoin:miter;stroke:rgb(75%,75%,75%);stroke-opacity:1;stroke-miterlimit:10;" d="M -22.336188 17.008938 L -22.336188 22.676906 L 22.335687 22.676906 L 22.335687 17.008938 Z M -22.336188 17.008938 " transform="matrix(1,0,0,-1,24.219,46.923)"/>
<path style="fill:none;stroke-width:1.19553;stroke-linecap:butt;stroke-linejoin:miter;stroke:rgb(0%,0%,0%);stroke-opacity:1;stroke-miterlimit:10;" d="M -22.676031 16.442531 L -22.676031 22.676906 " transform="matrix(1,0,0,-1,24.219,46.923)"/>
<path style="fill:none;stroke-width:1.19553;stroke-linecap:butt;stroke-linejoin:miter;stroke:rgb(0%,0%,0%);stroke-opacity:1;stroke-miterlimit:10;" d="M 22.675531 16.442531 L 22.675531 22.676906 " transform="matrix(1,0,0,-1,24.219,46.923)"/>
<path style="fill-rule:nonzero;fill:rgb(25%,25%,25%);fill-opacity:1;stroke-width:1.19553;stroke-linecap:butt;stroke-linejoin:miter;stroke:rgb(0%,0%,0%);stroke-opacity:1;stroke-miterlimit:10;" d="M 22.675531 22.676906 C 22.675531 25.809719 12.523187 28.344875 -0.00025 28.344875 C -12.523688 28.344875 -22.676031 25.809719 -22.676031 22.676906 C -22.676031 19.544094 -12.523688 17.008938 -0.00025 17.008938 C 12.523187 17.008938 22.675531 19.544094 22.675531 22.676906 Z M 22.675531 22.676906 " transform="matrix(1,0,0,-1,24.219,46.923)"/>
<path style="fill-rule:nonzero;fill:rgb(75%,75%,75%);fill-opacity:1;stroke-width:1.19553;stroke-linecap:butt;stroke-linejoin:miter;stroke:rgb(0%,0%,0%);stroke-opacity:1;stroke-miterlimit:10;" d="M 22.675531 22.676906 C 22.675531 25.809719 12.523187 28.344875 -0.00025 28.344875 C -12.523688 28.344875 -22.676031 25.809719 -22.676031 22.676906 C -22.676031 19.544094 -12.523688 17.008938 -0.00025 17.008938 C 12.523187 17.008938 22.675531 19.544094 22.675531 22.676906 Z M 22.675531 22.676906 " transform="matrix(1,0,0,-1,24.219,46.923)"/>
<path style="fill-rule:nonzero;fill:rgb(75%,75%,75%);fill-opacity:1;stroke-width:0.3985;stroke-linecap:butt;stroke-linejoin:miter;stroke:rgb(75%,75%,75%);stroke-opacity:1;stroke-miterlimit:10;" d="M -22.336188 22.676906 L -22.336188 28.344875 L 22.335687 28.344875 L 22.335687 22.676906 Z M -22.336188 22.676906 " transform="matrix(1,0,0,-1,24.219,46.923)"/>
<path style="fill:none;stroke-width:1.19553;stroke-linecap:butt;stroke-linejoin:miter;stroke:rgb(0%,0%,0%);stroke-opacity:1;stroke-miterlimit:10;" d="M -22.676031 22.1105 L -22.676031 28.344875 " transform="matrix(1,0,0,-1,24.219,46.923)"/>
<path style="fill:none;stroke-width:1.19553;stroke-linecap:butt;stroke-linejoin:miter;stroke:rgb(0%,0%,0%);stroke-opacity:1;stroke-miterlimit:10;" d="M 22.675531 22.1105 L 22.675531 28.344875 " transform="matrix(1,0,0,-1,24.219,46.923)"/>
<path style="fill-rule:nonzero;fill:rgb(25%,25%,25%);fill-opacity:1;stroke-width:1.19553;stroke-linecap:butt;stroke-linejoin:miter;stroke:rgb(0%,0%,0%);stroke-opacity:1;stroke-miterlimit:10;" d="M 22.675531 28.344875 C 22.675531 31.477688 12.523187 34.01675 -0.00025 34.01675 C -12.523688 34.01675 -22.676031 31.477688 -22.676031 28.344875 C -22.676031 25.215969 -12.523688 22.676906 -0.00025 22.676906 C 12.523187 22.676906 22.675531 25.215969 22.675531 28.344875 Z M 22.675531 28.344875 " transform="matrix(1,0,0,-1,24.219,46.923)"/>
<path style="fill-rule:nonzero;fill:rgb(75%,75%,75%);fill-opacity:1;stroke-width:1.19553;stroke-linecap:butt;stroke-linejoin:miter;stroke:rgb(0%,0%,0%);stroke-opacity:1;stroke-miterlimit:10;" d="M 22.675531 28.344875 C 22.675531 31.477688 12.523187 34.01675 -0.00025 34.01675 C -12.523688 34.01675 -22.676031 31.477688 -22.676031 28.344875 C -22.676031 25.215969 -12.523688 22.676906 -0.00025 22.676906 C 12.523187 22.676906 22.675531 25.215969 22.675531 28.344875 Z M 22.675531 28.344875 " transform="matrix(1,0,0,-1,24.219,46.923)"/>
<path style="fill-rule:nonzero;fill:rgb(75%,75%,75%);fill-opacity:1;stroke-width:0.3985;stroke-linecap:butt;stroke-linejoin:miter;stroke:rgb(75%,75%,75%);stroke-opacity:1;stroke-miterlimit:10;" d="M -22.336188 28.344875 L -22.336188 34.01675 L 22.335687 34.01675 L 22.335687 28.344875 Z M -22.336188 28.344875 " transform="matrix(1,0,0,-1,24.219,46.923)"/>
<path style="fill:none;stroke-width:1.19553;stroke-linecap:butt;stroke-linejoin:miter;stroke:rgb(0%,0%,0%);stroke-opacity:1;stroke-miterlimit:10;" d="M -22.676031 27.778469 L -22.676031 34.01675 " transform="matrix(1,0,0,-1,24.219,46.923)"/>
<path style="fill:none;stroke-width:1.19553;stroke-linecap:butt;stroke-linejoin:miter;stroke:rgb(0%,0%,0%);stroke-opacity:1;stroke-miterlimit:10;" d="M 22.675531 27.778469 L 22.675531 34.01675 " transform="matrix(1,0,0,-1,24.219,46.923)"/>
<path style="fill-rule:nonzero;fill:rgb(25%,25%,25%);fill-opacity:1;stroke-width:1.19553;stroke-linecap:butt;stroke-linejoin:miter;stroke:rgb(0%,0%,0%);stroke-opacity:1;stroke-miterlimit:10;" d="M 22.675531 34.01675 C 22.675531 37.145656 12.523187 39.684719 -0.00025 39.684719 C -12.523688 39.684719 -22.676031 37.145656 -22.676031 34.01675 C -22.676031 30.883938 -12.523688 28.344875 -0.00025 28.344875 C 12.523187 28.344875 22.675531 30.883938 22.675531 34.01675 Z M 22.675531 34.01675 " transform="matrix(1,0,0,-1,24.219,46.923)"/>
<path style="fill-rule:nonzero;fill:rgb(75%,75%,75%);fill-opacity:1;stroke-width:1.19553;stroke-linecap:butt;stroke-linejoin:miter;stroke:rgb(0%,0%,0%);stroke-opacity:1;stroke-miterlimit:10;" d="M 22.675531 34.01675 C 22.675531 37.145656 12.523187 39.684719 -0.00025 39.684719 C -12.523688 39.684719 -22.676031 37.145656 -22.676031 34.01675 C -22.676031 30.883938 -12.523688 28.344875 -0.00025 28.344875 C 12.523187 28.344875 22.675531 30.883938 22.675531 34.01675 Z M 22.675531 34.01675 " transform="matrix(1,0,0,-1,24.219,46.923)"/>
<path style="fill-rule:nonzero;fill:rgb(75%,75%,75%);fill-opacity:1;stroke-width:0.3985;stroke-linecap:butt;stroke-linejoin:miter;stroke:rgb(75%,75%,75%);stroke-opacity:1;stroke-miterlimit:10;" d="M -22.336188 34.01675 L -22.336188 39.684719 L 22.335687 39.684719 L 22.335687 34.01675 Z M -22.336188 34.01675 " transform="matrix(1,0,0,-1,24.219,46.923)"/>
<path style="fill:none;stroke-width:1.19553;stroke-linecap:butt;stroke-linejoin:miter;stroke:rgb(0%,0%,0%);stroke-opacity:1;stroke-miterlimit:10;" d="M -22.676031 33.450344 L -22.676031 39.684719 " transform="matrix(1,0,0,-1,24.219,46.923)"/>
<path style="fill:none;stroke-width:1.19553;stroke-linecap:butt;stroke-linejoin:miter;stroke:rgb(0%,0%,0%);stroke-opacity:1;stroke-miterlimit:10;" d="M 22.675531 33.450344 L 22.675531 39.684719 " transform="matrix(1,0,0,-1,24.219,46.923)"/>
<path style="fill-rule:nonzero;fill:rgb(25%,25%,25%);fill-opacity:1;stroke-width:1.19553;stroke-linecap:butt;stroke-linejoin:miter;stroke:rgb(0%,0%,0%);stroke-opacity:1;stroke-miterlimit:10;" d="M 22.675531 39.684719 C 22.675531 42.817531 12.523187 45.352688 -0.00025 45.352688 C -12.523688 45.352688 -22.676031 42.817531 -22.676031 39.684719 C -22.676031 36.551906 -12.523688 34.01675 -0.00025 34.01675 C 12.523187 34.01675 22.675531 36.551906 22.675531 39.684719 Z M 22.675531 39.684719 " transform="matrix(1,0,0,-1,24.219,46.923)"/>
</g>
</svg>
