<?xml version="1.0" encoding="UTF-8"?>
<svg xmlns="http://www.w3.org/2000/svg" xmlns:xlink="http://www.w3.org/1999/xlink" width="102pt" height="32pt" viewBox="0 0 102 32" version="1.1">
<g id="surface1">
<path style=" stroke:none;fill-rule:nonzero;fill:rgb(0%,0%,0%);fill-opacity:1;" d="M 11.105469 5.667969 C 11.105469 3.074219 9.003906 0.972656 6.410156 0.972656 C 3.816406 0.972656 1.714844 3.074219 1.714844 5.667969 C 1.714844 8.261719 3.816406 10.363281 6.410156 10.363281 C 9.003906 10.363281 11.105469 8.261719 11.105469 5.667969 Z M 11.105469 5.667969 "/>
<path style="fill:none;stroke-width:1.59404;stroke-linecap:butt;stroke-linejoin:miter;stroke:rgb(0%,0%,0%);stroke-opacity:1;stroke-miterlimit:10;" d="M 0.00015625 0.00003125 L 0.00015625 -14.171844 " transform="matrix(1,0,0,-1,6.41,5.668)"/>
<path style="fill:none;stroke-width:1.59404;stroke-linecap:butt;stroke-linejoin:miter;stroke:rgb(0%,0%,0%);stroke-opacity:1;stroke-miterlimit:10;" d="M 0.00015625 -5.667937 L -5.667813 -11.339812 " transform="matrix(1,0,0,-1,6.41,5.668)"/>
<path style="fill:none;stroke-width:1.59404;stroke-linecap:butt;stroke-linejoin:miter;stroke:rgb(0%,0%,0%);stroke-opacity:1;stroke-miterlimit:10;" d="M 0.00015625 -5.667937 L 5.668125 -11.339812 " transform="matrix(1,0,0,-1,6.41,5.668)"/>
<path style="fill:none;stroke-width:1.59404;stroke-linecap:butt;stroke-linejoin:miter;stroke:rgb(0%,0%,0%);stroke-opacity:1;stroke-miterlimit:10;" d="M 0.00015625 -14.171844 L -2.835781 -25.511687 " transform="matrix(1,0,0,-1,6.41,5.668)"/>
<path style="fill:none;stroke-width:1.59404;stroke-linecap:butt;stroke-linejoin:miter;stroke:rgb(0%,0%,0%);stroke-opacity:1;stroke-miterlimit:10;" d="M 0.00015625 -14.171844 L 2.836094 -25.511687 " transform="matrix(1,0,0,-1,6.41,5.668)"/>
<path style=" stroke:none;fill-rule:nonzero;fill:rgb(0%,0%,0%);fill-opacity:1;" d="M 28.824219 5.667969 C 28.824219 3.074219 26.71875 0.972656 24.125 0.972656 C 21.53125 0.972656 19.429688 3.074219 19.429688 5.667969 C 19.429688 8.261719 21.53125 10.363281 24.125 10.363281 C 26.71875 10.363281 28.824219 8.261719 28.824219 5.667969 Z M 28.824219 5.667969 "/>
<path style="fill:none;stroke-width:1.59404;stroke-linecap:butt;stroke-linejoin:miter;stroke:rgb(0%,0%,0%);stroke-opacity:1;stroke-miterlimit:10;" d="M 17.715 0.00003125 L 17.715 -14.171844 " transform="matrix(1,0,0,-1,6.41,5.668)"/>
<path style="fill:none;stroke-width:1.59404;stroke-linecap:butt;stroke-linejoin:miter;stroke:rgb(0%,0%,0%);stroke-opacity:1;stroke-miterlimit:10;" d="M 17.715 -5.667937 L 12.047031 -11.339812 " transform="matrix(1,0,0,-1,6.41,5.668)"/>
<path style="fill:none;stroke-width:1.59404;stroke-linecap:butt;stroke-linejoin:miter;stroke:rgb(0%,0%,0%);stroke-opacity:1;stroke-miterlimit:10;" d="M 17.715 -5.667937 L 23.386875 -11.339812 " transform="matrix(1,0,0,-1,6.41,5.668)"/>
<path style="fill:none;stroke-width:1.59404;stroke-linecap:butt;stroke-linejoin:miter;stroke:rgb(0%,0%,0%);stroke-opacity:1;stroke-miterlimit:10;" d="M 17.715 -14.171844 L 14.882969 -25.511687 " transform="matrix(1,0,0,-1,6.41,5.668)"/>
<path style="fill:none;stroke-width:1.59404;stroke-linecap:butt;stroke-linejoin:miter;stroke:rgb(0%,0%,0%);stroke-opacity:1;stroke-miterlimit:10;" d="M 17.715 -14.171844 L 20.550937 -25.511687 " transform="matrix(1,0,0,-1,6.41,5.668)"/>
<path style=" stroke:none;fill-rule:nonzero;fill:rgb(0%,0%,0%);fill-opacity:1;" d="M 46.539062 5.667969 C 46.539062 3.074219 44.4375 0.972656 41.84375 0.972656 C 39.25 0.972656 37.148438 3.074219 37.148438 5.667969 C 37.148438 8.261719 39.25 10.363281 41.84375 10.363281 C 44.4375 10.363281 46.539062 8.261719 46.539062 5.667969 Z M 46.539062 5.667969 "/>
<path style="fill:none;stroke-width:1.59404;stroke-linecap:butt;stroke-linejoin:miter;stroke:rgb(0%,0%,0%);stroke-opacity:1;stroke-miterlimit:10;" d="M 35.43375 0.00003125 L 35.43375 -14.171844 " transform="matrix(1,0,0,-1,6.41,5.668)"/>
<path style="fill:none;stroke-width:1.59404;stroke-linecap:butt;stroke-linejoin:miter;stroke:rgb(0%,0%,0%);stroke-opacity:1;stroke-miterlimit:10;" d="M 35.43375 -5.667937 L 29.765781 -11.339812 " transform="matrix(1,0,0,-1,6.41,5.668)"/>
<path style="fill:none;stroke-width:1.59404;stroke-linecap:butt;stroke-linejoin:miter;stroke:rgb(0%,0%,0%);stroke-opacity:1;stroke-miterlimit:10;" d="M 35.43375 -5.667937 L 41.101719 -11.339812 " transform="matrix(1,0,0,-1,6.41,5.668)"/>
<path style="fill:none;stroke-width:1.59404;stroke-linecap:butt;stroke-linejoin:miter;stroke:rgb(0%,0%,0%);stroke-opacity:1;stroke-miterlimit:10;" d="M 35.43375 -14.171844 L 32.597812 -25.511687 " transform="matrix(1,0,0,-1,6.41,5.668)"/>
<path style="fill:none;stroke-width:1.59404;stroke-linecap:butt;stroke-linejoin:miter;stroke:rgb(0%,0%,0%);stroke-opacity:1;stroke-miterlimit:10;" d="M 35.43375 -14.171844 L 38.269687 -25.511687 " transform="matrix(1,0,0,-1,6.41,5.668)"/>
<path style=" stroke:none;fill-rule:nonzero;fill:rgb(0%,0%,0%);fill-opacity:1;" d="M 64.253906 5.667969 C 64.253906 3.074219 62.152344 0.972656 59.558594 0.972656 C 56.964844 0.972656 54.859375 3.074219 54.859375 5.667969 C 54.859375 8.261719 56.964844 10.363281 59.558594 10.363281 C 62.152344 10.363281 64.253906 8.261719 64.253906 5.667969 Z M 64.253906 5.667969 "/>
<path style="fill:none;stroke-width:1.59404;stroke-linecap:butt;stroke-linejoin:miter;stroke:rgb(0%,0%,0%);stroke-opacity:1;stroke-miterlimit:10;" d="M 53.148594 0.00003125 L 53.148594 -14.171844 " transform="matrix(1,0,0,-1,6.41,5.668)"/>
<path style="fill:none;stroke-width:1.59404;stroke-linecap:butt;stroke-linejoin:miter;stroke:rgb(0%,0%,0%);stroke-opacity:1;stroke-miterlimit:10;" d="M 53.148594 -5.667937 L 47.476719 -11.339812 " transform="matrix(1,0,0,-1,6.41,5.668)"/>
<path style="fill:none;stroke-width:1.59404;stroke-linecap:butt;stroke-linejoin:miter;stroke:rgb(0%,0%,0%);stroke-opacity:1;stroke-miterlimit:10;" d="M 53.148594 -5.667937 L 58.816562 -11.339812 " transform="matrix(1,0,0,-1,6.41,5.668)"/>
<path style="fill:none;stroke-width:1.59404;stroke-linecap:butt;stroke-linejoin:miter;stroke:rgb(0%,0%,0%);stroke-opacity:1;stroke-miterlimit:10;" d="M 53.148594 -14.171844 L 50.312656 -25.511687 " transform="matrix(1,0,0,-1,6.41,5.668)"/>
<path style="fill:none;stroke-width:1.59404;stroke-linecap:butt;stroke-linejoin:miter;stroke:rgb(0%,0%,0%);stroke-opacity:1;stroke-miterlimit:10;" d="M 53.148594 -14.171844 L 55.980625 -25.511687 " transform="matrix(1,0,0,-1,6.41,5.668)"/>
<path style=" stroke:none;fill-rule:nonzero;fill:rgb(0%,0%,0%);fill-opacity:1;" d="M 81.96875 5.667969 C 81.96875 3.074219 79.867188 0.972656 77.273438 0.972656 C 74.679688 0.972656 72.578125 3.074219 72.578125 5.667969 C 72.578125 8.261719 74.679688 10.363281 77.273438 10.363281 C 79.867188 10.363281 81.96875 8.261719 81.96875 5.667969 Z M 81.96875 5.667969 "/>
<path style="fill:none;stroke-width:1.59404;stroke-linecap:butt;stroke-linejoin:miter;stroke:rgb(0%,0%,0%);stroke-opacity:1;stroke-miterlimit:10;" d="M 70.863437 0.00003125 L 70.863437 -14.171844 " transform="matrix(1,0,0,-1,6.41,5.668)"/>
<path style="fill:none;stroke-width:1.59404;stroke-linecap:butt;stroke-linejoin:miter;stroke:rgb(0%,0%,0%);stroke-opacity:1;stroke-miterlimit:10;" d="M 70.863437 -5.667937 L 65.195469 -11.339812 " transform="matrix(1,0,0,-1,6.41,5.668)"/>
<path style="fill:none;stroke-width:1.59404;stroke-linecap:butt;stroke-linejoin:miter;stroke:rgb(0%,0%,0%);stroke-opacity:1;stroke-miterlimit:10;" d="M 70.863437 -5.667937 L 76.531406 -11.339812 " transform="matrix(1,0,0,-1,6.41,5.668)"/>
<path style="fill:none;stroke-width:1.59404;stroke-linecap:butt;stroke-linejoin:miter;stroke:rgb(0%,0%,0%);stroke-opacity:1;stroke-miterlimit:10;" d="M 70.863437 -14.171844 L 68.0275 -25.511687 " transform="matrix(1,0,0,-1,6.41,5.668)"/>
<path style="fill:none;stroke-width:1.59404;stroke-linecap:butt;stroke-linejoin:miter;stroke:rgb(0%,0%,0%);stroke-opacity:1;stroke-miterlimit:10;" d="M 70.863437 -14.171844 L 73.699375 -25.511687 " transform="matrix(1,0,0,-1,6.41,5.668)"/>
<path style=" stroke:none;fill-rule:nonzero;fill:rgb(0%,0%,0%);fill-opacity:1;" d="M 99.691406 5.667969 C 99.691406 3.074219 97.585938 0.972656 94.992188 0.972656 C 92.398438 0.972656 90.296875 3.074219 90.296875 5.667969 C 90.296875 8.261719 92.398438 10.363281 94.992188 10.363281 C 97.585938 10.363281 99.691406 8.261719 99.691406 5.667969 Z M 99.691406 5.667969 "/>
<path style="fill:none;stroke-width:1.59404;stroke-linecap:butt;stroke-linejoin:miter;stroke:rgb(0%,0%,0%);stroke-opacity:1;stroke-miterlimit:10;" d="M 88.582187 0.00003125 L 88.582187 -14.171844 " transform="matrix(1,0,0,-1,6.41,5.668)"/>
<path style="fill:none;stroke-width:1.59404;stroke-linecap:butt;stroke-linejoin:miter;stroke:rgb(0%,0%,0%);stroke-opacity:1;stroke-miterlimit:10;" d="M 88.582187 -5.667937 L 82.914219 -11.339812 " transform="matrix(1,0,0,-1,6.41,5.668)"/>
<path style="fill:none;stroke-width:1.59404;stroke-linecap:butt;stroke-linejoin:miter;stroke:rgb(0%,0%,0%);stroke-opacity:1;stroke-miterlimit:10;" d="M 88.582187 -5.667937 L 94.254062 -11.339812 " transform="matrix(1,0,0,-1,6.41,5.668)"/>
<path style="fill:none;stroke-width:1.59404;stroke-linecap:butt;stroke-linejoin:miter;stroke:rgb(0%,0%,0%);stroke-opacity:1;stroke-miterlimit:10;" d="M 88.582187 -14.171844 L 85.750156 -25.511687 " transform="matrix(1,0,0,-1,6.41,5.668)"/>
<path style="fill:none;stroke-width:1.59404;stroke-linecap:butt;stroke-linejoin:miter;stroke:rgb(0%,0%,0%);stroke-opacity:1;stroke-miterlimit:10;" d="M 88.582187 -14.171844 L 91.418125 -25.511687 " transform="matrix(1,0,0,-1,6.41,5.668)"/>
</g>
</svg>
