<?xml version="1.0" encoding="UTF-8"?>
<svg xmlns="http://www.w3.org/2000/svg" xmlns:xlink="http://www.w3.org/1999/xlink" width="87pt" height="59pt" viewBox="0 0 87 59" version="1.1">
<g id="surface1">
<path style="fill:none;stroke-width:0.3985;stroke-linecap:butt;stroke-linejoin:miter;stroke:rgb(0%,0%,0%);stroke-opacity:1;stroke-miterlimit:10;" d="M 0.00153125 0.00071875 L 0.00153125 14.172594 L 14.173406 14.172594 L 14.173406 0.00071875 Z M 0.00153125 0.00071875 " transform="matrix(1,0,0,-1,1.143,57.864)"/>
<path style="fill:none;stroke-width:0.3985;stroke-linecap:butt;stroke-linejoin:miter;stroke:rgb(0%,0%,0%);stroke-opacity:1;stroke-miterlimit:10;" d="M 14.173406 0.00071875 L 14.173406 14.172594 L 28.345281 14.172594 L 28.345281 0.00071875 Z M 14.173406 0.00071875 " transform="matrix(1,0,0,-1,1.143,57.864)"/>
<path style="fill:none;stroke-width:0.3985;stroke-linecap:butt;stroke-linejoin:miter;stroke:rgb(0%,0%,0%);stroke-opacity:1;stroke-miterlimit:10;" d="M 28.345281 0.00071875 L 28.345281 14.172594 L 42.521062 14.172594 L 42.521062 0.00071875 Z M 28.345281 0.00071875 " transform="matrix(1,0,0,-1,1.143,57.864)"/>
<path style="fill:none;stroke-width:0.3985;stroke-linecap:butt;stroke-linejoin:miter;stroke:rgb(0%,0%,0%);stroke-opacity:1;stroke-miterlimit:10;" d="M 42.521062 0.00071875 L 42.521062 14.172594 L 56.692937 14.172594 L 56.692937 0.00071875 Z M 42.521062 0.00071875 " transform="matrix(1,0,0,-1,1.143,57.864)"/>
<path style="fill:none;stroke-width:0.3985;stroke-linecap:butt;stroke-linejoin:miter;stroke:rgb(0%,0%,0%);stroke-opacity:1;stroke-miterlimit:10;" d="M 56.692937 0.00071875 L 56.692937 14.172594 L 70.868719 14.172594 L 70.868719 0.00071875 Z M 56.692937 0.00071875 " transform="matrix(1,0,0,-1,1.143,57.864)"/>
<path style="fill:none;stroke-width:0.3985;stroke-linecap:butt;stroke-linejoin:miter;stroke:rgb(0%,0%,0%);stroke-opacity:1;stroke-miterlimit:10;" d="M 70.868719 0.00071875 L 70.868719 14.172594 L 85.040594 14.172594 L 85.040594 0.00071875 Z M 70.868719 0.00071875 " transform="matrix(1,0,0,-1,1.143,57.864)"/>
<path style="fill:none;stroke-width:0.3985;stroke-linecap:butt;stroke-linejoin:miter;stroke:rgb(0%,0%,0%);stroke-opacity:1;stroke-miterlimit:10;" d="M 0.00153125 14.172594 L 0.00153125 28.348375 L 14.173406 28.348375 L 14.173406 14.172594 Z M 0.00153125 14.172594 " transform="matrix(1,0,0,-1,1.143,57.864)"/>
<path style="fill:none;stroke-width:0.3985;stroke-linecap:butt;stroke-linejoin:miter;stroke:rgb(0%,0%,0%);stroke-opacity:1;stroke-miterlimit:10;" d="M 14.173406 14.172594 L 14.173406 28.348375 L 28.345281 28.348375 L 28.345281 14.172594 Z M 14.173406 14.172594 " transform="matrix(1,0,0,-1,1.143,57.864)"/>
<path style="fill:none;stroke-width:0.3985;stroke-linecap:butt;stroke-linejoin:miter;stroke:rgb(0%,0%,0%);stroke-opacity:1;stroke-miterlimit:10;" d="M 28.345281 14.172594 L 28.345281 28.348375 L 42.521062 28.348375 L 42.521062 14.172594 Z M 28.345281 14.172594 " transform="matrix(1,0,0,-1,1.143,57.864)"/>
<path style="fill:none;stroke-width:0.3985;stroke-linecap:butt;stroke-linejoin:miter;stroke:rgb(0%,0%,0%);stroke-opacity:1;stroke-miterlimit:10;" d="M 42.521062 14.172594 L 42.521062 28.348375 L 56.692937 28.348375 L 56.692937 14.172594 Z M 42.521062 14.172594 " transform="matrix(1,0,0,-1,1.143,57.864)"/>
<path style="fill:none;stroke-width:0.3985;stroke-linecap:butt;stroke-linejoin:miter;stroke:rgb(0%,0%,0%);stroke-opacity:1;stroke-miterlimit:10;" d="M 56.692937 14.172594 L 56.692937 28.348375 L 70.868719 28.348375 L 70.868719 14.172594 Z M 56.692937 14.172594 " transform="matrix(1,0,0,-1,1.143,57.864)"/>
<path style="fill:none;stroke-width:0.3985;stroke-linecap:butt;stroke-linejoin:miter;stroke:rgb(0%,0%,0%);stroke-opacity:1;stroke-miterlimit:10;" d="M 70.868719 14.172594 L 70.868719 28.348375 L 85.040594 28.348375 L 85.040594 14.172594 Z M 70.868719 14.172594 " transform="matrix(1,0,0,-1,1.143,57.864)"/>
<path style="fill:none;stroke-width:0.3985;stroke-linecap:butt;stroke-linejoin:miter;stroke:rgb(0%,0%,0%);stroke-opacity:1;stroke-miterlimit:10;" d="M 0.00153125 28.348375 L 0.00153125 42.52025 L 14.173406 42.52025 L 14.173406 28.348375 Z M 0.00153125 28.348375 " transform="matrix(1,0,0,-1,1.143,57.864)"/>
<path style="fill:none;stroke-width:0.3985;stroke-linecap:butt;stroke-linejoin:miter;stroke:rgb(0%,0%,0%);stroke-opacity:1;stroke-miterlimit:10;" d="M 14.173406 28.348375 L 14.173406 42.52025 L 28.345281 42.52025 L 28.345281 28.348375 Z M 14.173406 28.348375 " transform="matrix(1,0,0,-1,1.143,57.864)"/>
<path style="fill:none;stroke-width:0.3985;stroke-linecap:butt;stroke-linejoin:miter;stroke:rgb(0%,0%,0%);stroke-opacity:1;stroke-miterlimit:10;" d="M 28.345281 28.348375 L 28.345281 42.52025 L 42.521062 42.52025 L 42.521062 28.348375 Z M 28.345281 28.348375 " transform="matrix(1,0,0,-1,1.143,57.864)"/>
<path style="fill:none;stroke-width:0.3985;stroke-linecap:butt;stroke-linejoin:miter;stroke:rgb(0%,0%,0%);stroke-opacity:1;stroke-miterlimit:10;" d="M 42.521062 28.348375 L 42.521062 42.52025 L 56.692937 42.52025 L 56.692937 28.348375 Z M 42.521062 28.348375 " transform="matrix(1,0,0,-1,1.143,57.864)"/>
<path style="fill:none;stroke-width:0.3985;stroke-linecap:butt;stroke-linejoin:miter;stroke:rgb(0%,0%,0%);stroke-opacity:1;stroke-miterlimit:10;" d="M 56.692937 28.348375 L 56.692937 42.52025 L 70.868719 42.52025 L 70.868719 28.348375 Z M 56.692937 28.348375 " transform="matrix(1,0,0,-1,1.143,57.864)"/>
<path style="fill:none;stroke-width:0.3985;stroke-linecap:butt;stroke-linejoin:miter;stroke:rgb(0%,0%,0%);stroke-opacity:1;stroke-miterlimit:10;" d="M 70.868719 28.348375 L 70.868719 42.52025 L 85.040594 42.52025 L 85.040594 28.348375 Z M 70.868719 28.348375 " transform="matrix(1,0,0,-1,1.143,57.864)"/>
<path style="fill:none;stroke-width:0.3985;stroke-linecap:butt;stroke-linejoin:miter;stroke:rgb(0%,0%,0%);stroke-opacity:1;stroke-miterlimit:10;" d="M 0.00153125 42.52025 L 0.00153125 56.692125 L 14.173406 56.692125 L 14.173406 42.52025 Z M 0.00153125 42.52025 " transform="matrix(1,0,0,-1,1.143,57.864)"/>
<path style="fill:none;stroke-width:0.3985;stroke-linecap:butt;stroke-linejoin:miter;stroke:rgb(0%,0%,0%);stroke-opacity:1;stroke-miterlimit:10;" d="M 14.173406 42.52025 L 14.173406 56.692125 L 28.345281 56.692125 L 28.345281 42.52025 Z M 14.173406 42.52025 " transform="matrix(1,0,0,-1,1.143,57.864)"/>
<path style="fill:none;stroke-width:0.3985;stroke-linecap:butt;stroke-linejoin:miter;stroke:rgb(0%,0%,0%);stroke-opacity:1;stroke-miterlimit:10;" d="M 28.345281 42.52025 L 28.345281 56.692125 L 42.521062 56.692125 L 42.521062 42.52025 Z M 28.345281 42.52025 " transform="matrix(1,0,0,-1,1.143,57.864)"/>
<path style="fill:none;stroke-width:0.3985;stroke-linecap:butt;stroke-linejoin:miter;stroke:rgb(0%,0%,0%);stroke-opacity:1;stroke-miterlimit:10;" d="M 42.521062 42.52025 L 42.521062 56.692125 L 56.692937 56.692125 L 56.692937 42.52025 Z M 42.521062 42.52025 " transform="matrix(1,0,0,-1,1.143,57.864)"/>
<path style="fill:none;stroke-width:0.3985;stroke-linecap:butt;stroke-linejoin:miter;stroke:rgb(0%,0%,0%);stroke-opacity:1;stroke-miterlimit:10;" d="M 56.692937 42.52025 L 56.692937 56.692125 L 70.868719 56.692125 L 70.868719 42.52025 Z M 56.692937 42.52025 " transform="matrix(1,0,0,-1,1.143,57.864)"/>
<path style="fill:none;stroke-width:0.3985;stroke-linecap:butt;stroke-linejoin:miter;stroke:rgb(0%,0%,0%);stroke-opacity:1;stroke-miterlimit:10;" d="M 70.868719 42.52025 L 70.868719 56.692125 L 85.040594 56.692125 L 85.040594 42.52025 Z M 70.868719 42.52025 " transform="matrix(1,0,0,-1,1.143,57.864)"/>
<path style="fill:none;stroke-width:0.3985;stroke-linecap:butt;stroke-linejoin:miter;stroke:rgb(0%,0%,0%);stroke-opacity:1;stroke-miterlimit:10;" d="M 25.954656 7.086656 C 25.954656 9.680406 23.853094 11.781969 21.259344 11.781969 C 18.665594 11.781969 16.564031 9.680406 16.564031 7.086656 C 16.564031 4.492906 18.665594 2.391344 21.259344 2.391344 C 23.853094 2.391344 25.954656 4.492906 25.954656 7.086656 Z M 25.954656 7.086656 " transform="matrix(1,0,0,-1,1.143,57.864)"/>
<path style="fill:none;stroke-width:0.3985;stroke-linecap:butt;stroke-linejoin:miter;stroke:rgb(0%,0%,0%);stroke-opacity:1;stroke-miterlimit:10;" d="M 11.782781 21.258531 C 11.782781 23.852281 9.681219 25.95775 7.087469 25.95775 C 4.493719 25.95775 2.392156 23.852281 2.392156 21.258531 C 2.392156 18.664781 4.493719 16.563219 7.087469 16.563219 C 9.681219 16.563219 11.782781 18.664781 11.782781 21.258531 Z M 11.782781 21.258531 " transform="matrix(1,0,0,-1,1.143,57.864)"/>
<path style="fill:none;stroke-width:0.3985;stroke-linecap:butt;stroke-linejoin:miter;stroke:rgb(0%,0%,0%);stroke-opacity:1;stroke-miterlimit:10;" d="M 40.130437 35.434313 C 40.130437 38.028063 38.028875 40.129625 35.435125 40.129625 C 32.841375 40.129625 30.735906 38.028063 30.735906 35.434313 C 30.735906 32.840563 32.841375 30.739 35.435125 30.739 C 38.028875 30.739 40.130437 32.840563 40.130437 35.434313 Z M 40.130437 35.434313 " transform="matrix(1,0,0,-1,1.143,57.864)"/>
<path style="fill:none;stroke-width:0.3985;stroke-linecap:butt;stroke-linejoin:miter;stroke:rgb(0%,0%,0%);stroke-opacity:1;stroke-miterlimit:10;" d="M 11.782781 49.606188 C 11.782781 52.199938 9.681219 54.3015 7.087469 54.3015 C 4.493719 54.3015 2.392156 52.199938 2.392156 49.606188 C 2.392156 47.012438 4.493719 44.910875 7.087469 44.910875 C 9.681219 44.910875 11.782781 47.012438 11.782781 49.606188 Z M 11.782781 49.606188 " transform="matrix(1,0,0,-1,1.143,57.864)"/>
<path style="fill-rule:nonzero;fill:rgb(0%,0%,0%);fill-opacity:1;stroke-width:0.3985;stroke-linecap:butt;stroke-linejoin:miter;stroke:rgb(0%,0%,0%);stroke-opacity:1;stroke-miterlimit:10;" d="M 68.478094 7.086656 C 68.478094 9.680406 66.372625 11.781969 63.778875 11.781969 C 61.185125 11.781969 59.083562 9.680406 59.083562 7.086656 C 59.083562 4.492906 61.185125 2.391344 63.778875 2.391344 C 66.372625 2.391344 68.478094 4.492906 68.478094 7.086656 Z M 68.478094 7.086656 " transform="matrix(1,0,0,-1,1.143,57.864)"/>
<path style="fill-rule:nonzero;fill:rgb(0%,0%,0%);fill-opacity:1;stroke-width:0.3985;stroke-linecap:butt;stroke-linejoin:miter;stroke:rgb(0%,0%,0%);stroke-opacity:1;stroke-miterlimit:10;" d="M 82.649969 21.258531 C 82.649969 23.852281 80.548406 25.95775 77.954656 25.95775 C 75.360906 25.95775 73.259344 23.852281 73.259344 21.258531 C 73.259344 18.664781 75.360906 16.563219 77.954656 16.563219 C 80.548406 16.563219 82.649969 18.664781 82.649969 21.258531 Z M 82.649969 21.258531 " transform="matrix(1,0,0,-1,1.143,57.864)"/>
<path style="fill-rule:nonzero;fill:rgb(0%,0%,0%);fill-opacity:1;stroke-width:0.3985;stroke-linecap:butt;stroke-linejoin:miter;stroke:rgb(0%,0%,0%);stroke-opacity:1;stroke-miterlimit:10;" d="M 68.478094 35.434313 C 68.478094 38.028063 66.372625 40.129625 63.778875 40.129625 C 61.185125 40.129625 59.083562 38.028063 59.083562 35.434313 C 59.083562 32.840563 61.185125 30.739 63.778875 30.739 C 66.372625 30.739 68.478094 32.840563 68.478094 35.434313 Z M 68.478094 35.434313 " transform="matrix(1,0,0,-1,1.143,57.864)"/>
<path style="fill-rule:nonzero;fill:rgb(0%,0%,0%);fill-opacity:1;stroke-width:0.3985;stroke-linecap:butt;stroke-linejoin:miter;stroke:rgb(0%,0%,0%);stroke-opacity:1;stroke-miterlimit:10;" d="M 54.302312 49.606188 C 54.302312 52.199938 52.20075 54.3015 49.607 54.3015 C 47.01325 54.3015 44.911687 52.199938 44.911687 49.606188 C 44.911687 47.012438 47.01325 44.910875 49.607 44.910875 C 52.20075 44.910875 54.302312 47.012438 54.302312 49.606188 Z M 54.302312 49.606188 " transform="matrix(1,0,0,-1,1.143,57.864)"/>
</g>
</svg>
