<?xml version="1.0" encoding="UTF-8"?>
<svg xmlns="http://www.w3.org/2000/svg" xmlns:xlink="http://www.w3.org/1999/xlink" width="52" height="62" viewBox="0 0 52 62">
<path fill-rule="nonzero" fill="rgb(50%, 50%, 50%)" fill-opacity="1" stroke-width="0.3985" stroke-linecap="butt" stroke-linejoin="miter" stroke="rgb(0%, 0%, 0%)" stroke-opacity="1" stroke-miterlimit="10" d="M 14.174156 -0.00065625 L 14.174156 14.175125 L 28.346031 14.175125 L 28.346031 28.347 L 42.521812 28.347 L 42.521812 42.518875 L 56.693687 42.518875 L 56.693687 -0.00065625 Z M 14.174156 -0.00065625 " transform="matrix(1, 0, 0, -1, -5.514, 61.347)"/>
<path fill="none" stroke-width="1.59404" stroke-linecap="butt" stroke-linejoin="miter" stroke="rgb(0%, 0%, 0%)" stroke-opacity="1" stroke-miterlimit="10" d="M 7.088219 3.835281 C 7.088219 27.37825 21.260094 41.554031 21.260094 19.214187 " transform="matrix(1, 0, 0, -1, -5.514, 61.347)"/>
<path fill="none" stroke-width="1.27522" stroke-linecap="round" stroke-linejoin="round" stroke="rgb(0%, 0%, 0%)" stroke-opacity="1" stroke-miterlimit="10" d="M -2.269559 3.027337 C -2.082059 1.894525 -0.0000275 0.187494 0.566379 -0.00000625 C -0.0000275 -0.187506 -2.082059 -1.894538 -2.269559 -3.02735 " transform="matrix(0, 1, 1, 0, 15.7461, 42.13284)"/>
<path fill="none" stroke-width="1.59404" stroke-linecap="butt" stroke-linejoin="miter" stroke="rgb(0%, 0%, 0%)" stroke-opacity="1" stroke-miterlimit="10" d="M 21.260094 18.007156 C 21.260094 49.401687 49.60775 77.749344 49.60775 47.561844 " transform="matrix(1, 0, 0, -1, -5.514, 61.347)"/>
<path fill="none" stroke-width="1.27522" stroke-linecap="round" stroke-linejoin="round" stroke="rgb(0%, 0%, 0%)" stroke-opacity="1" stroke-miterlimit="10" d="M -2.270415 3.028194 C -2.082915 1.891475 -0.00088375 0.18835 0.569429 0.00085 C -0.00088375 -0.190556 -2.082915 -1.893681 -2.270415 -3.0304 " transform="matrix(0, 1, 1, 0, 44.0929, 13.78604)"/>
</svg>
