<?xml version="1.0" encoding="UTF-8"?>
<svg xmlns="http://www.w3.org/2000/svg" xmlns:xlink="http://www.w3.org/1999/xlink" width="164pt" height="65pt" viewBox="0 0 164 65" version="1.1">
<g id="surface1">
<path style="fill-rule:nonzero;fill:rgb(0%,0%,0%);fill-opacity:1;stroke-width:0.3985;stroke-linecap:butt;stroke-linejoin:miter;stroke:rgb(0%,0%,0%);stroke-opacity:1;stroke-miterlimit:10;" d="M 17.493219 0.000375 C 17.493219 1.832406 16.008844 3.320687 14.172906 3.320687 C 12.340875 3.320687 10.852594 1.832406 10.852594 0.000375 C 10.852594 -1.835563 12.340875 -3.319938 14.172906 -3.319938 C 16.008844 -3.319938 17.493219 -1.835563 17.493219 0.000375 Z M 17.493219 0.000375 " transform="matrix(1,0,0,-1,4.456,61.016)"/>
<path style="fill-rule:nonzero;fill:rgb(0%,0%,0%);fill-opacity:1;stroke-width:0.3985;stroke-linecap:butt;stroke-linejoin:miter;stroke:rgb(0%,0%,0%);stroke-opacity:1;stroke-miterlimit:10;" d="M 3.321344 28.348031 C 3.321344 30.180062 1.833062 31.668344 0.00103125 31.668344 C -1.834906 31.668344 -3.319281 30.180062 -3.319281 28.348031 C -3.319281 26.512094 -1.834906 25.027719 0.00103125 25.027719 C 1.833062 25.027719 3.321344 26.512094 3.321344 28.348031 Z M 3.321344 28.348031 " transform="matrix(1,0,0,-1,4.456,61.016)"/>
<path style="fill-rule:nonzero;fill:rgb(0%,0%,0%);fill-opacity:1;stroke-width:0.3985;stroke-linecap:butt;stroke-linejoin:miter;stroke:rgb(0%,0%,0%);stroke-opacity:1;stroke-miterlimit:10;" d="M 31.669 28.348031 C 31.669 30.180062 30.180719 31.668344 28.348687 31.668344 C 26.51275 31.668344 25.024469 30.180062 25.024469 28.348031 C 25.024469 26.512094 26.51275 25.027719 28.348687 25.027719 C 30.180719 25.027719 31.669 26.512094 31.669 28.348031 Z M 31.669 28.348031 " transform="matrix(1,0,0,-1,4.456,61.016)"/>
<path style="fill:none;stroke-width:1.19553;stroke-linecap:butt;stroke-linejoin:miter;stroke:rgb(0%,0%,0%);stroke-opacity:1;stroke-miterlimit:10;" d="M 12.598687 3.148812 L 1.57525 25.199594 " transform="matrix(1,0,0,-1,4.456,61.016)"/>
<path style="fill:none;stroke-width:1.19553;stroke-linecap:butt;stroke-linejoin:miter;stroke:rgb(0%,0%,0%);stroke-opacity:1;stroke-miterlimit:10;" d="M 15.747125 3.148812 L 26.774469 25.199594 " transform="matrix(1,0,0,-1,4.456,61.016)"/>
<path style="fill-rule:nonzero;fill:rgb(0%,0%,0%);fill-opacity:1;stroke-width:0.3985;stroke-linecap:butt;stroke-linejoin:miter;stroke:rgb(0%,0%,0%);stroke-opacity:1;stroke-miterlimit:10;" d="M 74.188531 0.000375 C 74.188531 1.832406 72.70025 3.320687 70.868219 3.320687 C 69.032281 3.320687 67.547906 1.832406 67.547906 0.000375 C 67.547906 -1.835563 69.032281 -3.319938 70.868219 -3.319938 C 72.70025 -3.319938 74.188531 -1.835563 74.188531 0.000375 Z M 74.188531 0.000375 " transform="matrix(1,0,0,-1,4.456,61.016)"/>
<path style="fill-rule:nonzero;fill:rgb(0%,0%,0%);fill-opacity:1;stroke-width:0.3985;stroke-linecap:butt;stroke-linejoin:miter;stroke:rgb(0%,0%,0%);stroke-opacity:1;stroke-miterlimit:10;" d="M 60.01275 28.348031 C 60.01275 30.180062 58.528375 31.668344 56.692437 31.668344 C 54.860406 31.668344 53.372125 30.180062 53.372125 28.348031 C 53.372125 26.512094 54.860406 25.027719 56.692437 25.027719 C 58.528375 25.027719 60.01275 26.512094 60.01275 28.348031 Z M 60.01275 28.348031 " transform="matrix(1,0,0,-1,4.456,61.016)"/>
<path style="fill-rule:nonzero;fill:rgb(0%,0%,0%);fill-opacity:1;stroke-width:0.3985;stroke-linecap:butt;stroke-linejoin:miter;stroke:rgb(0%,0%,0%);stroke-opacity:1;stroke-miterlimit:10;" d="M 88.360406 28.348031 C 88.360406 30.180062 86.876031 31.668344 85.040094 31.668344 C 83.208062 31.668344 81.719781 30.180062 81.719781 28.348031 C 81.719781 26.512094 83.208062 25.027719 85.040094 25.027719 C 86.876031 25.027719 88.360406 26.512094 88.360406 28.348031 Z M 88.360406 28.348031 " transform="matrix(1,0,0,-1,4.456,61.016)"/>
<path style="fill-rule:nonzero;fill:rgb(0%,0%,0%);fill-opacity:1;stroke-width:0.3985;stroke-linecap:butt;stroke-linejoin:miter;stroke:rgb(0%,0%,0%);stroke-opacity:1;stroke-miterlimit:10;" d="M 45.840875 56.691781 C 45.840875 58.527719 44.352594 60.016 42.520562 60.016 C 40.684625 60.016 39.20025 58.527719 39.20025 56.691781 C 39.20025 54.85975 40.684625 53.371469 42.520562 53.371469 C 44.352594 53.371469 45.840875 54.85975 45.840875 56.691781 Z M 45.840875 56.691781 " transform="matrix(1,0,0,-1,4.456,61.016)"/>
<path style="fill-rule:nonzero;fill:rgb(0%,0%,0%);fill-opacity:1;stroke-width:0.3985;stroke-linecap:butt;stroke-linejoin:miter;stroke:rgb(0%,0%,0%);stroke-opacity:1;stroke-miterlimit:10;" d="M 74.188531 56.691781 C 74.188531 58.527719 72.70025 60.016 70.868219 60.016 C 69.032281 60.016 67.547906 58.527719 67.547906 56.691781 C 67.547906 54.85975 69.032281 53.371469 70.868219 53.371469 C 72.70025 53.371469 74.188531 54.85975 74.188531 56.691781 Z M 74.188531 56.691781 " transform="matrix(1,0,0,-1,4.456,61.016)"/>
<path style="fill:none;stroke-width:1.19553;stroke-linecap:butt;stroke-linejoin:miter;stroke:rgb(0%,0%,0%);stroke-opacity:1;stroke-miterlimit:10;" d="M 69.294 3.148812 L 58.266656 25.199594 " transform="matrix(1,0,0,-1,4.456,61.016)"/>
<path style="fill:none;stroke-width:1.19553;stroke-linecap:butt;stroke-linejoin:miter;stroke:rgb(0%,0%,0%);stroke-opacity:1;stroke-miterlimit:10;" d="M 72.442437 3.148812 L 83.465875 25.199594 " transform="matrix(1,0,0,-1,4.456,61.016)"/>
<path style="fill:none;stroke-width:1.19553;stroke-linecap:butt;stroke-linejoin:miter;stroke:rgb(0%,0%,0%);stroke-opacity:1;stroke-miterlimit:10;" d="M 55.118219 31.496469 L 44.094781 53.54725 " transform="matrix(1,0,0,-1,4.456,61.016)"/>
<path style="fill:none;stroke-width:1.19553;stroke-linecap:butt;stroke-linejoin:miter;stroke:rgb(0%,0%,0%);stroke-opacity:1;stroke-miterlimit:10;" d="M 58.266656 31.496469 L 69.294 53.54725 " transform="matrix(1,0,0,-1,4.456,61.016)"/>
<path style="fill-rule:nonzero;fill:rgb(0%,0%,0%);fill-opacity:1;stroke-width:0.3985;stroke-linecap:butt;stroke-linejoin:miter;stroke:rgb(0%,0%,0%);stroke-opacity:1;stroke-miterlimit:10;" d="M 130.879937 0.000375 C 130.879937 1.832406 129.395562 3.320687 127.559625 3.320687 C 125.727594 3.320687 124.239312 1.832406 124.239312 0.000375 C 124.239312 -1.835563 125.727594 -3.319938 127.559625 -3.319938 C 129.395562 -3.319938 130.879937 -1.835563 130.879937 0.000375 Z M 130.879937 0.000375 " transform="matrix(1,0,0,-1,4.456,61.016)"/>
<path style="fill-rule:nonzero;fill:rgb(0%,0%,0%);fill-opacity:1;stroke-width:0.3985;stroke-linecap:butt;stroke-linejoin:miter;stroke:rgb(0%,0%,0%);stroke-opacity:1;stroke-miterlimit:10;" d="M 116.708062 28.348031 C 116.708062 30.180062 115.219781 31.668344 113.38775 31.668344 C 111.551812 31.668344 110.067437 30.180062 110.067437 28.348031 C 110.067437 26.512094 111.551812 25.027719 113.38775 25.027719 C 115.219781 25.027719 116.708062 26.512094 116.708062 28.348031 Z M 116.708062 28.348031 " transform="matrix(1,0,0,-1,4.456,61.016)"/>
<path style="fill-rule:nonzero;fill:rgb(0%,0%,0%);fill-opacity:1;stroke-width:0.3985;stroke-linecap:butt;stroke-linejoin:miter;stroke:rgb(0%,0%,0%);stroke-opacity:1;stroke-miterlimit:10;" d="M 145.055719 28.348031 C 145.055719 30.180062 143.567437 31.668344 141.735406 31.668344 C 139.899469 31.668344 138.415094 30.180062 138.415094 28.348031 C 138.415094 26.512094 139.899469 25.027719 141.735406 25.027719 C 143.567437 25.027719 145.055719 26.512094 145.055719 28.348031 Z M 145.055719 28.348031 " transform="matrix(1,0,0,-1,4.456,61.016)"/>
<path style="fill-rule:nonzero;fill:rgb(0%,0%,0%);fill-opacity:1;stroke-width:0.3985;stroke-linecap:butt;stroke-linejoin:miter;stroke:rgb(0%,0%,0%);stroke-opacity:1;stroke-miterlimit:10;" d="M 130.879937 56.691781 C 130.879937 58.527719 129.395562 60.016 127.559625 60.016 C 125.727594 60.016 124.239312 58.527719 124.239312 56.691781 C 124.239312 54.85975 125.727594 53.371469 127.559625 53.371469 C 129.395562 53.371469 130.879937 54.85975 130.879937 56.691781 Z M 130.879937 56.691781 " transform="matrix(1,0,0,-1,4.456,61.016)"/>
<path style="fill-rule:nonzero;fill:rgb(0%,0%,0%);fill-opacity:1;stroke-width:0.3985;stroke-linecap:butt;stroke-linejoin:miter;stroke:rgb(0%,0%,0%);stroke-opacity:1;stroke-miterlimit:10;" d="M 159.227594 56.691781 C 159.227594 58.527719 157.743219 60.016 155.907281 60.016 C 154.07525 60.016 152.586969 58.527719 152.586969 56.691781 C 152.586969 54.85975 154.07525 53.371469 155.907281 53.371469 C 157.743219 53.371469 159.227594 54.85975 159.227594 56.691781 Z M 159.227594 56.691781 " transform="matrix(1,0,0,-1,4.456,61.016)"/>
<path style="fill:none;stroke-width:1.19553;stroke-linecap:butt;stroke-linejoin:miter;stroke:rgb(0%,0%,0%);stroke-opacity:1;stroke-miterlimit:10;" d="M 125.985406 3.148812 L 114.961969 25.199594 " transform="matrix(1,0,0,-1,4.456,61.016)"/>
<path style="fill:none;stroke-width:1.19553;stroke-linecap:butt;stroke-linejoin:miter;stroke:rgb(0%,0%,0%);stroke-opacity:1;stroke-miterlimit:10;" d="M 129.133844 3.148812 L 140.161187 25.199594 " transform="matrix(1,0,0,-1,4.456,61.016)"/>
<path style="fill:none;stroke-width:1.19553;stroke-linecap:butt;stroke-linejoin:miter;stroke:rgb(0%,0%,0%);stroke-opacity:1;stroke-miterlimit:10;" d="M 140.161187 31.496469 L 129.133844 53.54725 " transform="matrix(1,0,0,-1,4.456,61.016)"/>
<path style="fill:none;stroke-width:1.19553;stroke-linecap:butt;stroke-linejoin:miter;stroke:rgb(0%,0%,0%);stroke-opacity:1;stroke-miterlimit:10;" d="M 143.309625 31.496469 L 154.333062 53.54725 " transform="matrix(1,0,0,-1,4.456,61.016)"/>
</g>
</svg>
