<?xml version="1.0" encoding="UTF-8"?>
<svg xmlns="http://www.w3.org/2000/svg" xmlns:xlink="http://www.w3.org/1999/xlink" width="170" height="163" viewBox="0 0 170 163">
<path fill-rule="nonzero" fill="rgb(0%, 0%, 0%)" fill-opacity="1" stroke-width="0.3985" stroke-linecap="butt" stroke-linejoin="miter" stroke="rgb(0%, 0%, 0%)" stroke-opacity="1" stroke-miterlimit="10" d="M 4.064063 85.037688 C 4.064063 86.869719 2.575781 88.358 0.74375 88.358 C -1.092187 88.358 -2.576562 86.869719 -2.576562 85.037688 C -2.576562 83.20175 -1.092187 81.717375 0.74375 81.717375 C 2.575781 81.717375 4.064063 83.20175 4.064063 85.037688 Z M 4.064063 85.037688 " transform="matrix(1, 0, 0, -1, 85.1, 89.358)"/>
<path fill-rule="nonzero" fill="rgb(0%, 0%, 0%)" fill-opacity="1" stroke-width="0.3985" stroke-linecap="butt" stroke-linejoin="miter" stroke="rgb(0%, 0%, 0%)" stroke-opacity="1" stroke-miterlimit="10" d="M -77.322656 26.983 C -77.322656 28.818938 -78.810937 30.303313 -80.642969 30.303313 C -82.478906 30.303313 -83.967187 28.818938 -83.967187 26.983 C -83.967187 25.150969 -82.478906 23.662688 -80.642969 23.662688 C -78.810937 23.662688 -77.322656 25.150969 -77.322656 26.983 Z M -77.322656 26.983 " transform="matrix(1, 0, 0, -1, 85.1, 89.358)"/>
<path fill-rule="nonzero" fill="rgb(0%, 0%, 0%)" fill-opacity="1" stroke-width="0.3985" stroke-linecap="butt" stroke-linejoin="miter" stroke="rgb(0%, 0%, 0%)" stroke-opacity="1" stroke-miterlimit="10" d="M -47.264062 -68.36075 C -47.264062 -66.524812 -48.748437 -65.040437 -50.584375 -65.040437 C -52.416406 -65.040437 -53.904687 -66.524812 -53.904687 -68.36075 C -53.904687 -70.192781 -52.416406 -71.681062 -50.584375 -71.681062 C -48.748437 -71.681062 -47.264062 -70.192781 -47.264062 -68.36075 Z M -47.264062 -68.36075 " transform="matrix(1, 0, 0, -1, 85.1, 89.358)"/>
<path fill-rule="nonzero" fill="rgb(0%, 0%, 0%)" fill-opacity="1" stroke-width="0.3985" stroke-linecap="butt" stroke-linejoin="miter" stroke="rgb(0%, 0%, 0%)" stroke-opacity="1" stroke-miterlimit="10" d="M 52.704688 -69.231844 C 52.704688 -67.399812 51.216406 -65.911531 49.380469 -65.911531 C 47.548438 -65.911531 46.060156 -67.399812 46.060156 -69.231844 C 46.060156 -71.067781 47.548438 -72.552156 49.380469 -72.552156 C 51.216406 -72.552156 52.704688 -71.067781 52.704688 -69.231844 Z M 52.704688 -69.231844 " transform="matrix(1, 0, 0, -1, 85.1, 89.358)"/>
<path fill-rule="nonzero" fill="rgb(0%, 0%, 0%)" fill-opacity="1" stroke-width="0.3985" stroke-linecap="butt" stroke-linejoin="miter" stroke="rgb(0%, 0%, 0%)" stroke-opacity="1" stroke-miterlimit="10" d="M 84.423438 25.572844 C 84.423438 27.404875 82.939063 28.893156 81.103125 28.893156 C 79.271094 28.893156 77.782813 27.404875 77.782813 25.572844 C 77.782813 23.736906 79.271094 22.252531 81.103125 22.252531 C 82.939063 22.252531 84.423438 23.736906 84.423438 25.572844 Z M 84.423438 25.572844 " transform="matrix(1, 0, 0, -1, 85.1, 89.358)"/>
<path fill-rule="nonzero" fill="rgb(0%, 0%, 0%)" fill-opacity="1" stroke-width="0.3985" stroke-linecap="butt" stroke-linejoin="miter" stroke="rgb(0%, 0%, 0%)" stroke-opacity="1" stroke-miterlimit="10" d="M 3.802344 55.272063 C 3.802344 57.108 2.317969 58.592375 0.482031 58.592375 C -1.35 58.592375 -2.838281 57.108 -2.838281 55.272063 C -2.838281 53.440031 -1.35 51.95175 0.482031 51.95175 C 2.317969 51.95175 3.802344 53.440031 3.802344 55.272063 Z M 3.802344 55.272063 " transform="matrix(1, 0, 0, -1, 85.1, 89.358)"/>
<path fill-rule="nonzero" fill="rgb(0%, 0%, 0%)" fill-opacity="1" stroke-width="0.3985" stroke-linecap="butt" stroke-linejoin="miter" stroke="rgb(0%, 0%, 0%)" stroke-opacity="1" stroke-miterlimit="10" d="M -49.096094 17.537688 C -49.096094 19.373625 -50.584375 20.858 -52.420312 20.858 C -54.252344 20.858 -55.740625 19.373625 -55.740625 17.537688 C -55.740625 15.705656 -54.252344 14.217375 -52.420312 14.217375 C -50.584375 14.217375 -49.096094 15.705656 -49.096094 17.537688 Z M -49.096094 17.537688 " transform="matrix(1, 0, 0, -1, 85.1, 89.358)"/>
<path fill-rule="nonzero" fill="rgb(0%, 0%, 0%)" fill-opacity="1" stroke-width="0.3985" stroke-linecap="butt" stroke-linejoin="miter" stroke="rgb(0%, 0%, 0%)" stroke-opacity="1" stroke-miterlimit="10" d="M -29.557031 -44.434969 C -29.557031 -42.599031 -31.045312 -41.11075 -32.877344 -41.11075 C -34.713281 -41.11075 -36.197656 -42.599031 -36.197656 -44.434969 C -36.197656 -46.267 -34.713281 -47.755281 -32.877344 -47.755281 C -31.045312 -47.755281 -29.557031 -46.267 -29.557031 -44.434969 Z M -29.557031 -44.434969 " transform="matrix(1, 0, 0, -1, 85.1, 89.358)"/>
<path fill-rule="nonzero" fill="rgb(0%, 0%, 0%)" fill-opacity="1" stroke-width="0.3985" stroke-linecap="butt" stroke-linejoin="miter" stroke="rgb(0%, 0%, 0%)" stroke-opacity="1" stroke-miterlimit="10" d="M 35.419531 -45.001375 C 35.419531 -43.165437 33.93125 -41.681062 32.099219 -41.681062 C 30.263281 -41.681062 28.778906 -43.165437 28.778906 -45.001375 C 28.778906 -46.833406 30.263281 -48.321687 32.099219 -48.321687 C 33.93125 -48.321687 35.419531 -46.833406 35.419531 -45.001375 Z M 35.419531 -45.001375 " transform="matrix(1, 0, 0, -1, 85.1, 89.358)"/>
<path fill-rule="nonzero" fill="rgb(0%, 0%, 0%)" fill-opacity="1" stroke-width="0.3985" stroke-linecap="butt" stroke-linejoin="miter" stroke="rgb(0%, 0%, 0%)" stroke-opacity="1" stroke-miterlimit="10" d="M 56.036719 16.619719 C 56.036719 18.455656 54.552344 19.943938 52.716406 19.943938 C 50.884375 19.943938 49.396094 18.455656 49.396094 16.619719 C 49.396094 14.787688 50.884375 13.299406 52.716406 13.299406 C 54.552344 13.299406 56.036719 14.787688 56.036719 16.619719 Z M 56.036719 16.619719 " transform="matrix(1, 0, 0, -1, 85.1, 89.358)"/>
<path fill-rule="nonzero" fill="rgb(0%, 0%, 0%)" fill-opacity="1" stroke-width="0.3985" stroke-linecap="butt" stroke-linejoin="miter" stroke="rgb(0%, 0%, 0%)" stroke-opacity="1" stroke-miterlimit="10" d="M 3.134375 -21.259187 C 3.134375 -19.42325 1.65 -17.938875 -0.185937 -17.938875 C -2.017969 -17.938875 -3.50625 -19.42325 -3.50625 -21.259187 C -3.50625 -23.091219 -2.017969 -24.5795 -0.185937 -24.5795 C 1.65 -24.5795 3.134375 -23.091219 3.134375 -21.259187 Z M 3.134375 -21.259187 " transform="matrix(1, 0, 0, -1, 85.1, 89.358)"/>
<path fill-rule="nonzero" fill="rgb(0%, 0%, 0%)" fill-opacity="1" stroke-width="0.3985" stroke-linecap="butt" stroke-linejoin="miter" stroke="rgb(0%, 0%, 0%)" stroke-opacity="1" stroke-miterlimit="10" d="M 23.482031 -6.747469 C 23.482031 -4.911531 21.99375 -3.427156 20.161719 -3.427156 C 18.325781 -3.427156 16.841406 -4.911531 16.841406 -6.747469 C 16.841406 -8.5795 18.325781 -10.067781 20.161719 -10.067781 C 21.99375 -10.067781 23.482031 -8.5795 23.482031 -6.747469 Z M 23.482031 -6.747469 " transform="matrix(1, 0, 0, -1, 85.1, 89.358)"/>
<path fill-rule="nonzero" fill="rgb(0%, 0%, 0%)" fill-opacity="1" stroke-width="0.3985" stroke-linecap="butt" stroke-linejoin="miter" stroke="rgb(0%, 0%, 0%)" stroke-opacity="1" stroke-miterlimit="10" d="M 15.966406 17.088469 C 15.966406 18.924406 14.478125 20.408781 12.646094 20.408781 C 10.810156 20.408781 9.325781 18.924406 9.325781 17.088469 C 9.325781 15.256438 10.810156 13.768156 12.646094 13.768156 C 14.478125 13.768156 15.966406 15.256438 15.966406 17.088469 Z M 15.966406 17.088469 " transform="matrix(1, 0, 0, -1, 85.1, 89.358)"/>
<path fill-rule="nonzero" fill="rgb(0%, 0%, 0%)" fill-opacity="1" stroke-width="0.3985" stroke-linecap="butt" stroke-linejoin="miter" stroke="rgb(0%, 0%, 0%)" stroke-opacity="1" stroke-miterlimit="10" d="M -9.025781 17.307219 C -9.025781 19.143156 -10.510156 20.627531 -12.346094 20.627531 C -14.178125 20.627531 -15.666406 19.143156 -15.666406 17.307219 C -15.666406 15.475188 -14.178125 13.986906 -12.346094 13.986906 C -10.510156 13.986906 -9.025781 15.475188 -9.025781 17.307219 Z M -9.025781 17.307219 " transform="matrix(1, 0, 0, -1, 85.1, 89.358)"/>
<path fill-rule="nonzero" fill="rgb(0%, 0%, 0%)" fill-opacity="1" stroke-width="0.3985" stroke-linecap="butt" stroke-linejoin="miter" stroke="rgb(0%, 0%, 0%)" stroke-opacity="1" stroke-miterlimit="10" d="M -16.955469 -6.392 C -16.955469 -4.559969 -18.44375 -3.071687 -20.275781 -3.071687 C -22.107812 -3.071687 -23.596094 -4.559969 -23.596094 -6.392 C -23.596094 -8.227937 -22.107812 -9.712312 -20.275781 -9.712312 C -18.44375 -9.712312 -16.955469 -8.227937 -16.955469 -6.392 Z M -16.955469 -6.392 " transform="matrix(1, 0, 0, -1, 85.1, 89.358)"/>
<path fill="none" stroke-width="1.19553" stroke-linecap="butt" stroke-linejoin="miter" stroke="rgb(0%, 0%, 0%)" stroke-opacity="1" stroke-miterlimit="10" d="M -2.123437 83.002531 L -77.7875 29.029875 " transform="matrix(1, 0, 0, -1, 85.1, 89.358)"/>
<path fill="none" stroke-width="1.19553" stroke-linecap="butt" stroke-linejoin="miter" stroke="rgb(0%, 0%, 0%)" stroke-opacity="1" stroke-miterlimit="10" d="M -79.592187 23.631438 L -51.646875 -65.009187 " transform="matrix(1, 0, 0, -1, 85.1, 89.358)"/>
<path fill="none" stroke-width="1.19553" stroke-linecap="butt" stroke-linejoin="miter" stroke="rgb(0%, 0%, 0%)" stroke-opacity="1" stroke-miterlimit="10" d="M -47.06875 -68.395906 L 45.864844 -69.208406 " transform="matrix(1, 0, 0, -1, 85.1, 89.358)"/>
<path fill="none" stroke-width="1.19553" stroke-linecap="butt" stroke-linejoin="miter" stroke="rgb(0%, 0%, 0%)" stroke-opacity="1" stroke-miterlimit="10" d="M 50.501563 -65.899812 L 79.99375 22.236906 " transform="matrix(1, 0, 0, -1, 85.1, 89.358)"/>
<path fill="none" stroke-width="1.19553" stroke-linecap="butt" stroke-linejoin="miter" stroke="rgb(0%, 0%, 0%)" stroke-opacity="1" stroke-miterlimit="10" d="M 78.282813 27.666594 L 3.571875 82.95175 " transform="matrix(1, 0, 0, -1, 85.1, 89.358)"/>
<path fill="none" stroke-width="1.19553" stroke-linecap="butt" stroke-linejoin="miter" stroke="rgb(0%, 0%, 0%)" stroke-opacity="1" stroke-miterlimit="10" d="M 0.7125 81.525969 L 0.513281 58.799406 " transform="matrix(1, 0, 0, -1, 85.1, 89.358)"/>
<path fill="none" stroke-width="1.19553" stroke-linecap="butt" stroke-linejoin="miter" stroke="rgb(0%, 0%, 0%)" stroke-opacity="1" stroke-miterlimit="10" d="M -77.314844 25.869719 L -55.760156 18.658781 " transform="matrix(1, 0, 0, -1, 85.1, 89.358)"/>
<path fill="none" stroke-width="1.19553" stroke-linecap="butt" stroke-linejoin="miter" stroke="rgb(0%, 0%, 0%)" stroke-opacity="1" stroke-miterlimit="10" d="M -48.494531 -65.536531 L -34.975 -47.267 " transform="matrix(1, 0, 0, -1, 85.1, 89.358)"/>
<path fill="none" stroke-width="1.19553" stroke-linecap="butt" stroke-linejoin="miter" stroke="rgb(0%, 0%, 0%)" stroke-opacity="1" stroke-miterlimit="10" d="M 47.341406 -66.372469 L 34.146094 -47.872469 " transform="matrix(1, 0, 0, -1, 85.1, 89.358)"/>
<path fill="none" stroke-width="1.19553" stroke-linecap="butt" stroke-linejoin="miter" stroke="rgb(0%, 0%, 0%)" stroke-opacity="1" stroke-miterlimit="10" d="M 77.755469 24.51425 L 56.079688 17.682219 " transform="matrix(1, 0, 0, -1, 85.1, 89.358)"/>
<path fill="none" stroke-width="1.19553" stroke-linecap="butt" stroke-linejoin="miter" stroke="rgb(0%, 0%, 0%)" stroke-opacity="1" stroke-miterlimit="10" d="M 2.68125 -19.216219 L 17.298438 -8.790437 " transform="matrix(1, 0, 0, -1, 85.1, 89.358)"/>
<path fill="none" stroke-width="1.19553" stroke-linecap="butt" stroke-linejoin="miter" stroke="rgb(0%, 0%, 0%)" stroke-opacity="1" stroke-miterlimit="10" d="M 19.103125 -3.388094 L 13.704688 13.733 " transform="matrix(1, 0, 0, -1, 85.1, 89.358)"/>
<path fill="none" stroke-width="1.19553" stroke-linecap="butt" stroke-linejoin="miter" stroke="rgb(0%, 0%, 0%)" stroke-opacity="1" stroke-miterlimit="10" d="M 9.126563 17.123625 L -8.826562 17.279875 " transform="matrix(1, 0, 0, -1, 85.1, 89.358)"/>
<path fill="none" stroke-width="1.19553" stroke-linecap="butt" stroke-linejoin="miter" stroke="rgb(0%, 0%, 0%)" stroke-opacity="1" stroke-miterlimit="10" d="M -13.463281 13.971281 L -19.1625 -3.056062 " transform="matrix(1, 0, 0, -1, 85.1, 89.358)"/>
<path fill="none" stroke-width="1.19553" stroke-linecap="butt" stroke-linejoin="miter" stroke="rgb(0%, 0%, 0%)" stroke-opacity="1" stroke-miterlimit="10" d="M -17.447656 -8.48575 L -3.014062 -19.165437 " transform="matrix(1, 0, 0, -1, 85.1, 89.358)"/>
<path fill="none" stroke-width="1.19553" stroke-linecap="butt" stroke-linejoin="miter" stroke="rgb(0%, 0%, 0%)" stroke-opacity="1" stroke-miterlimit="10" d="M -2.38125 53.233 L -49.557031 19.584563 " transform="matrix(1, 0, 0, -1, 85.1, 89.358)"/>
<path fill-rule="nonzero" fill="rgb(0%, 0%, 0%)" fill-opacity="1" stroke-width="1.19553" stroke-linecap="butt" stroke-linejoin="miter" stroke="rgb(0%, 0%, 0%)" stroke-opacity="1" stroke-miterlimit="10" d="M -22.650781 36.408781 C -22.650781 38.244719 -24.135156 39.729094 -25.971094 39.729094 C -27.803125 39.729094 -29.291406 38.244719 -29.291406 36.408781 C -29.291406 34.57675 -27.803125 33.088469 -25.971094 33.088469 C -24.135156 33.088469 -22.650781 34.57675 -22.650781 36.408781 Z M -22.650781 36.408781 " transform="matrix(1, 0, 0, -1, 85.1, 89.358)"/>
<path fill="none" stroke-width="1.19553" stroke-linecap="butt" stroke-linejoin="miter" stroke="rgb(0%, 0%, 0%)" stroke-opacity="1" stroke-miterlimit="10" d="M -51.365625 14.182219 L -33.939844 -41.0795 " transform="matrix(1, 0, 0, -1, 85.1, 89.358)"/>
<path fill-rule="nonzero" fill="rgb(0%, 0%, 0%)" fill-opacity="1" stroke-width="1.19553" stroke-linecap="butt" stroke-linejoin="miter" stroke="rgb(0%, 0%, 0%)" stroke-opacity="1" stroke-miterlimit="10" d="M -39.334375 -13.446687 C -39.334375 -11.614656 -40.81875 -10.126375 -42.654687 -10.126375 C -44.486719 -10.126375 -45.975 -11.614656 -45.975 -13.446687 C -45.975 -15.282625 -44.486719 -16.767 -42.654687 -16.767 C -40.81875 -16.767 -39.334375 -15.282625 -39.334375 -13.446687 Z M -39.334375 -13.446687 " transform="matrix(1, 0, 0, -1, 85.1, 89.358)"/>
<path fill="none" stroke-width="1.19553" stroke-linecap="butt" stroke-linejoin="miter" stroke="rgb(0%, 0%, 0%)" stroke-opacity="1" stroke-miterlimit="10" d="M -29.361719 -44.466219 L 28.579688 -44.974031 " transform="matrix(1, 0, 0, -1, 85.1, 89.358)"/>
<path fill-rule="nonzero" fill="rgb(0%, 0%, 0%)" fill-opacity="1" stroke-width="1.19553" stroke-linecap="butt" stroke-linejoin="miter" stroke="rgb(0%, 0%, 0%)" stroke-opacity="1" stroke-miterlimit="10" d="M 2.93125 -44.720125 C 2.93125 -42.888094 1.442969 -41.399812 -0.389062 -41.399812 C -2.225 -41.399812 -3.713281 -42.888094 -3.713281 -44.720125 C -3.713281 -46.556062 -2.225 -48.040437 -0.389062 -48.040437 C 1.442969 -48.040437 2.93125 -46.556062 2.93125 -44.720125 Z M 2.93125 -44.720125 " transform="matrix(1, 0, 0, -1, 85.1, 89.358)"/>
<path fill="none" stroke-width="1.19553" stroke-linecap="butt" stroke-linejoin="miter" stroke="rgb(0%, 0%, 0%)" stroke-opacity="1" stroke-miterlimit="10" d="M 33.216406 -41.665437 L 51.607031 13.283781 " transform="matrix(1, 0, 0, -1, 85.1, 89.358)"/>
<path fill-rule="nonzero" fill="rgb(0%, 0%, 0%)" fill-opacity="1" stroke-width="1.19553" stroke-linecap="butt" stroke-linejoin="miter" stroke="rgb(0%, 0%, 0%)" stroke-opacity="1" stroke-miterlimit="10" d="M 45.732031 -14.192781 C 45.732031 -12.356844 44.24375 -10.872469 42.411719 -10.872469 C 40.575781 -10.872469 39.091406 -12.356844 39.091406 -14.192781 C 39.091406 -16.024812 40.575781 -17.513094 42.411719 -17.513094 C 44.24375 -17.513094 45.732031 -16.024812 45.732031 -14.192781 Z M 45.732031 -14.192781 " transform="matrix(1, 0, 0, -1, 85.1, 89.358)"/>
<path fill="none" stroke-width="1.19553" stroke-linecap="butt" stroke-linejoin="miter" stroke="rgb(0%, 0%, 0%)" stroke-opacity="1" stroke-miterlimit="10" d="M 49.892188 18.717375 L 3.314063 53.186125 " transform="matrix(1, 0, 0, -1, 85.1, 89.358)"/>
<path fill-rule="nonzero" fill="rgb(0%, 0%, 0%)" fill-opacity="1" stroke-width="1.19553" stroke-linecap="butt" stroke-linejoin="miter" stroke="rgb(0%, 0%, 0%)" stroke-opacity="1" stroke-miterlimit="10" d="M 29.923438 35.95175 C 29.923438 37.783781 28.435156 39.272063 26.603125 39.272063 C 24.767188 39.272063 23.282813 37.783781 23.282813 35.95175 C 23.282813 34.115813 24.767188 32.631438 26.603125 32.631438 C 28.435156 32.631438 29.923438 34.115813 29.923438 35.95175 Z M 29.923438 35.95175 " transform="matrix(1, 0, 0, -1, 85.1, 89.358)"/>
<path fill="none" stroke-width="1.19553" stroke-linecap="butt" stroke-linejoin="miter" stroke="rgb(0%, 0%, 0%)" stroke-opacity="1" stroke-miterlimit="10" d="M -0.217187 -24.782625 L -0.357812 -40.806062 " transform="matrix(1, 0, 0, -1, 85.1, 89.358)"/>
<path fill="none" stroke-width="1.19553" stroke-linecap="butt" stroke-linejoin="miter" stroke="rgb(0%, 0%, 0%)" stroke-opacity="1" stroke-miterlimit="10" d="M 23.501563 -7.864656 L 38.700781 -12.950594 " transform="matrix(1, 0, 0, -1, 85.1, 89.358)"/>
<path fill="none" stroke-width="1.19553" stroke-linecap="butt" stroke-linejoin="miter" stroke="rgb(0%, 0%, 0%)" stroke-opacity="1" stroke-miterlimit="10" d="M 14.739844 19.9205 L 24.275 32.803313 " transform="matrix(1, 0, 0, -1, 85.1, 89.358)"/>
<path fill="none" stroke-width="1.19553" stroke-linecap="butt" stroke-linejoin="miter" stroke="rgb(0%, 0%, 0%)" stroke-opacity="1" stroke-miterlimit="10" d="M -14.389062 20.174406 L -23.697656 33.225188 " transform="matrix(1, 0, 0, -1, 85.1, 89.358)"/>
<path fill="none" stroke-width="1.19553" stroke-linecap="butt" stroke-linejoin="miter" stroke="rgb(0%, 0%, 0%)" stroke-opacity="1" stroke-miterlimit="10" d="M -23.635156 -7.450594 L -38.920312 -12.270906 " transform="matrix(1, 0, 0, -1, 85.1, 89.358)"/>
</svg>
