<?xml version="1.0" encoding="UTF-8"?>
<svg xmlns="http://www.w3.org/2000/svg" xmlns:xlink="http://www.w3.org/1999/xlink" width="170" height="163" viewBox="0 0 170 163">
<path fill-rule="nonzero" fill="rgb(0%, 0%, 0%)" fill-opacity="1" stroke-width="0.3985" stroke-linecap="butt" stroke-linejoin="miter" stroke="rgb(0%, 0%, 0%)" stroke-opacity="1" stroke-miterlimit="10" d="M 4.064063 85.037688 C 4.064063 86.869719 2.575781 88.358 0.74375 88.358 C -1.092187 88.358 -2.576562 86.869719 -2.576562 85.037688 C -2.576562 83.20175 -1.092187 81.717375 0.74375 81.717375 C 2.575781 81.717375 4.064063 83.20175 4.064063 85.037688 Z M 4.064063 85.037688 " transform="matrix(1, 0, 0, -1, 85.1, 89.358)"/>
<path fill-rule="nonzero" fill="rgb(0%, 0%, 0%)" fill-opacity="1" stroke-width="0.3985" stroke-linecap="butt" stroke-linejoin="miter" stroke="rgb(0%, 0%, 0%)" stroke-opacity="1" stroke-miterlimit="10" d="M -77.322656 26.983 C -77.322656 28.818938 -78.810937 30.303313 -80.642969 30.303313 C -82.478906 30.303313 -83.967187 28.818938 -83.967187 26.983 C -83.967187 25.150969 -82.478906 23.662688 -80.642969 23.662688 C -78.810937 23.662688 -77.322656 25.150969 -77.322656 26.983 Z M -77.322656 26.983 " transform="matrix(1, 0, 0, -1, 85.1, 89.358)"/>
<path fill-rule="nonzero" fill="rgb(0%, 0%, 0%)" fill-opacity="1" stroke-width="0.3985" stroke-linecap="butt" stroke-linejoin="miter" stroke="rgb(0%, 0%, 0%)" stroke-opacity="1" stroke-miterlimit="10" d="M -47.264062 -68.36075 C -47.264062 -66.524812 -48.748437 -65.040437 -50.584375 -65.040437 C -52.416406 -65.040437 -53.904687 -66.524812 -53.904687 -68.36075 C -53.904687 -70.192781 -52.416406 -71.681062 -50.584375 -71.681062 C -48.748437 -71.681062 -47.264062 -70.192781 -47.264062 -68.36075 Z M -47.264062 -68.36075 " transform="matrix(1, 0, 0, -1, 85.1, 89.358)"/>
<path fill-rule="nonzero" fill="rgb(0%, 0%, 0%)" fill-opacity="1" stroke-width="0.3985" stroke-linecap="butt" stroke-linejoin="miter" stroke="rgb(0%, 0%, 0%)" stroke-opacity="1" stroke-miterlimit="10" d="M 52.704688 -69.231844 C 52.704688 -67.399812 51.216406 -65.911531 49.380469 -65.911531 C 47.548438 -65.911531 46.060156 -67.399812 46.060156 -69.231844 C 46.060156 -71.067781 47.548438 -72.552156 49.380469 -72.552156 C 51.216406 -72.552156 52.704688 -71.067781 52.704688 -69.231844 Z M 52.704688 -69.231844 " transform="matrix(1, 0, 0, -1, 85.1, 89.358)"/>
<path fill-rule="nonzero" fill="rgb(0%, 0%, 0%)" fill-opacity="1" stroke-width="0.3985" stroke-linecap="butt" stroke-linejoin="miter" stroke="rgb(0%, 0%, 0%)" stroke-opacity="1" stroke-miterlimit="10" d="M 84.423438 25.572844 C 84.423438 27.404875 82.939063 28.893156 81.103125 28.893156 C 79.271094 28.893156 77.782813 27.404875 77.782813 25.572844 C 77.782813 23.736906 79.271094 22.252531 81.103125 22.252531 C 82.939063 22.252531 84.423438 23.736906 84.423438 25.572844 Z M 84.423438 25.572844 " transform="matrix(1, 0, 0, -1, 85.1, 89.358)"/>
<path fill-rule="nonzero" fill="rgb(0%, 0%, 0%)" fill-opacity="1" stroke-width="0.3985" stroke-linecap="butt" stroke-linejoin="miter" stroke="rgb(0%, 0%, 0%)" stroke-opacity="1" stroke-miterlimit="10" d="M 3.692969 42.518156 C 3.692969 44.350188 2.204688 45.838469 0.372656 45.838469 C -1.463281 45.838469 -2.947656 44.350188 -2.947656 42.518156 C -2.947656 40.682219 -1.463281 39.197844 0.372656 39.197844 C 2.204688 39.197844 3.692969 40.682219 3.692969 42.518156 Z M 3.692969 42.518156 " transform="matrix(1, 0, 0, -1, 85.1, 89.358)"/>
<path fill-rule="nonzero" fill="rgb(0%, 0%, 0%)" fill-opacity="1" stroke-width="0.3985" stroke-linecap="butt" stroke-linejoin="miter" stroke="rgb(0%, 0%, 0%)" stroke-opacity="1" stroke-miterlimit="10" d="M -37.002344 13.490813 C -37.002344 15.32675 -38.486719 16.811125 -40.322656 16.811125 C -42.154687 16.811125 -43.642969 15.32675 -43.642969 13.490813 C -43.642969 11.658781 -42.154687 10.1705 -40.322656 10.1705 C -38.486719 10.1705 -37.002344 11.658781 -37.002344 13.490813 Z M -37.002344 13.490813 " transform="matrix(1, 0, 0, -1, 85.1, 89.358)"/>
<path fill-rule="nonzero" fill="rgb(0%, 0%, 0%)" fill-opacity="1" stroke-width="0.3985" stroke-linecap="butt" stroke-linejoin="miter" stroke="rgb(0%, 0%, 0%)" stroke-opacity="1" stroke-miterlimit="10" d="M -21.971094 -34.181062 C -21.971094 -32.345125 -23.459375 -30.856844 -25.291406 -30.856844 C -27.127344 -30.856844 -28.611719 -32.345125 -28.611719 -34.181062 C -28.611719 -36.013094 -27.127344 -37.501375 -25.291406 -37.501375 C -23.459375 -37.501375 -21.971094 -36.013094 -21.971094 -34.181062 Z M -21.971094 -34.181062 " transform="matrix(1, 0, 0, -1, 85.1, 89.358)"/>
<path fill-rule="nonzero" fill="rgb(0%, 0%, 0%)" fill-opacity="1" stroke-width="0.3985" stroke-linecap="butt" stroke-linejoin="miter" stroke="rgb(0%, 0%, 0%)" stroke-opacity="1" stroke-miterlimit="10" d="M 28.013281 -34.614656 C 28.013281 -32.782625 26.525 -31.294344 24.689063 -31.294344 C 22.857031 -31.294344 21.36875 -32.782625 21.36875 -34.614656 C 21.36875 -36.450594 22.857031 -37.934969 24.689063 -37.934969 C 26.525 -37.934969 28.013281 -36.450594 28.013281 -34.614656 Z M 28.013281 -34.614656 " transform="matrix(1, 0, 0, -1, 85.1, 89.358)"/>
<path fill-rule="nonzero" fill="rgb(0%, 0%, 0%)" fill-opacity="1" stroke-width="0.3985" stroke-linecap="butt" stroke-linejoin="miter" stroke="rgb(0%, 0%, 0%)" stroke-opacity="1" stroke-miterlimit="10" d="M 43.872656 12.783781 C 43.872656 14.619719 42.384375 16.108 40.552344 16.108 C 38.716406 16.108 37.232031 14.619719 37.232031 12.783781 C 37.232031 10.95175 38.716406 9.463469 40.552344 9.463469 C 42.384375 9.463469 43.872656 10.95175 43.872656 12.783781 Z M 43.872656 12.783781 " transform="matrix(1, 0, 0, -1, 85.1, 89.358)"/>
<path fill="none" stroke-width="1.19553" stroke-linecap="butt" stroke-linejoin="miter" stroke="rgb(0%, 0%, 0%)" stroke-opacity="1" stroke-miterlimit="10" d="M -2.123437 83.002531 L -77.7875 29.029875 " transform="matrix(1, 0, 0, -1, 85.1, 89.358)"/>
<path fill="none" stroke-width="1.19553" stroke-linecap="butt" stroke-linejoin="miter" stroke="rgb(0%, 0%, 0%)" stroke-opacity="1" stroke-miterlimit="10" d="M -79.592187 23.631438 L -51.646875 -65.009187 " transform="matrix(1, 0, 0, -1, 85.1, 89.358)"/>
<path fill="none" stroke-width="1.19553" stroke-linecap="butt" stroke-linejoin="miter" stroke="rgb(0%, 0%, 0%)" stroke-opacity="1" stroke-miterlimit="10" d="M -47.06875 -68.395906 L 45.864844 -69.208406 " transform="matrix(1, 0, 0, -1, 85.1, 89.358)"/>
<path fill="none" stroke-width="1.19553" stroke-linecap="butt" stroke-linejoin="miter" stroke="rgb(0%, 0%, 0%)" stroke-opacity="1" stroke-miterlimit="10" d="M 50.501563 -65.899812 L 79.99375 22.236906 " transform="matrix(1, 0, 0, -1, 85.1, 89.358)"/>
<path fill="none" stroke-width="1.19553" stroke-linecap="butt" stroke-linejoin="miter" stroke="rgb(0%, 0%, 0%)" stroke-opacity="1" stroke-miterlimit="10" d="M 78.282813 27.666594 L 3.571875 82.95175 " transform="matrix(1, 0, 0, -1, 85.1, 89.358)"/>
<path fill="none" stroke-width="1.19553" stroke-linecap="butt" stroke-linejoin="miter" stroke="rgb(0%, 0%, 0%)" stroke-opacity="1" stroke-miterlimit="10" d="M 0.7125 81.525969 L 0.403906 46.041594 " transform="matrix(1, 0, 0, -1, 85.1, 89.358)"/>
<path fill="none" stroke-width="1.19553" stroke-linecap="butt" stroke-linejoin="miter" stroke="rgb(0%, 0%, 0%)" stroke-opacity="1" stroke-miterlimit="10" d="M -77.314844 25.869719 L -43.6625 14.611906 " transform="matrix(1, 0, 0, -1, 85.1, 89.358)"/>
<path fill="none" stroke-width="1.19553" stroke-linecap="butt" stroke-linejoin="miter" stroke="rgb(0%, 0%, 0%)" stroke-opacity="1" stroke-miterlimit="10" d="M -48.494531 -65.536531 L -27.389062 -37.013094 " transform="matrix(1, 0, 0, -1, 85.1, 89.358)"/>
<path fill="none" stroke-width="1.19553" stroke-linecap="butt" stroke-linejoin="miter" stroke="rgb(0%, 0%, 0%)" stroke-opacity="1" stroke-miterlimit="10" d="M 47.341406 -66.372469 L 26.735938 -37.48575 " transform="matrix(1, 0, 0, -1, 85.1, 89.358)"/>
<path fill="none" stroke-width="1.19553" stroke-linecap="butt" stroke-linejoin="miter" stroke="rgb(0%, 0%, 0%)" stroke-opacity="1" stroke-miterlimit="10" d="M 77.755469 24.51425 L 43.911719 13.846281 " transform="matrix(1, 0, 0, -1, 85.1, 89.358)"/>
<path fill="none" stroke-width="1.19553" stroke-linecap="butt" stroke-linejoin="miter" stroke="rgb(0%, 0%, 0%)" stroke-opacity="1" stroke-miterlimit="10" d="M -0.744531 39.182219 L -24.178125 -30.845125 " transform="matrix(1, 0, 0, -1, 85.1, 89.358)"/>
<path fill="none" stroke-width="1.19553" stroke-linecap="butt" stroke-linejoin="miter" stroke="rgb(0%, 0%, 0%)" stroke-opacity="1" stroke-miterlimit="10" d="M -22.428125 -32.138094 L 37.689063 10.740813 " transform="matrix(1, 0, 0, -1, 85.1, 89.358)"/>
<path fill="none" stroke-width="1.19553" stroke-linecap="butt" stroke-linejoin="miter" stroke="rgb(0%, 0%, 0%)" stroke-opacity="1" stroke-miterlimit="10" d="M 37.036719 12.818938 L -36.807031 13.463469 " transform="matrix(1, 0, 0, -1, 85.1, 89.358)"/>
<path fill="none" stroke-width="1.19553" stroke-linecap="butt" stroke-linejoin="miter" stroke="rgb(0%, 0%, 0%)" stroke-opacity="1" stroke-miterlimit="10" d="M -37.494531 11.400969 L 21.864844 -32.524812 " transform="matrix(1, 0, 0, -1, 85.1, 89.358)"/>
<path fill="none" stroke-width="1.19553" stroke-linecap="butt" stroke-linejoin="miter" stroke="rgb(0%, 0%, 0%)" stroke-opacity="1" stroke-miterlimit="10" d="M 23.634375 -31.263094 L 1.43125 39.166594 " transform="matrix(1, 0, 0, -1, 85.1, 89.358)"/>
</svg>
