<?xml version="1.0" encoding="UTF-8"?>
<svg xmlns="http://www.w3.org/2000/svg" xmlns:xlink="http://www.w3.org/1999/xlink" width="108pt" height="79pt" viewBox="0 0 108 79" version="1.1">
<g id="surface1">
<path style="fill-rule:nonzero;fill:rgb(0%,0%,100%);fill-opacity:1;stroke-width:0.3985;stroke-linecap:butt;stroke-linejoin:miter;stroke:rgb(0%,0%,0%);stroke-opacity:1;stroke-miterlimit:10;" d="M 95.530187 0.00015625 C 95.530187 5.793125 90.834875 10.492344 85.041906 10.492344 C 79.245031 10.492344 74.549719 5.793125 74.549719 0.00015625 C 74.549719 -5.792812 79.245031 -10.492031 85.041906 -10.492031 C 90.834875 -10.492031 95.530187 -5.792812 95.530187 0.00015625 Z M 95.530187 0.00015625 " transform="matrix(1,0,0,-1,-73.413,39.84)"/>
<path style="fill:none;stroke-width:0.3985;stroke-linecap:butt;stroke-linejoin:miter;stroke:rgb(0%,0%,0%);stroke-opacity:1;stroke-miterlimit:10;" d="M 123.877844 0.00015625 C 123.877844 5.793125 119.182531 10.492344 113.385656 10.492344 C 107.592687 10.492344 102.897375 5.793125 102.897375 0.00015625 C 102.897375 -5.792812 107.592687 -10.492031 113.385656 -10.492031 C 119.182531 -10.492031 123.877844 -5.792812 123.877844 0.00015625 Z M 123.877844 0.00015625 " transform="matrix(1,0,0,-1,-73.413,39.84)"/>
<path style="fill:none;stroke-width:0.3985;stroke-linecap:butt;stroke-linejoin:miter;stroke:rgb(0%,0%,0%);stroke-opacity:1;stroke-miterlimit:10;" d="M 152.2255 0.00015625 C 152.2255 5.793125 147.526281 10.492344 141.733313 10.492344 C 135.940344 10.492344 131.241125 5.793125 131.241125 0.00015625 C 131.241125 -5.792812 135.940344 -10.492031 141.733313 -10.492031 C 147.526281 -10.492031 152.2255 -5.792812 152.2255 0.00015625 Z M 152.2255 0.00015625 " transform="matrix(1,0,0,-1,-73.413,39.84)"/>
<path style="fill:none;stroke-width:0.3985;stroke-linecap:butt;stroke-linejoin:miter;stroke:rgb(0%,0%,0%);stroke-opacity:1;stroke-miterlimit:10;" d="M 95.530187 28.347813 C 95.530187 34.140781 90.834875 38.836094 85.041906 38.836094 C 79.245031 38.836094 74.549719 34.140781 74.549719 28.347813 C 74.549719 22.550938 79.245031 17.855625 85.041906 17.855625 C 90.834875 17.855625 95.530187 22.550938 95.530187 28.347813 Z M 95.530187 28.347813 " transform="matrix(1,0,0,-1,-73.413,39.84)"/>
<path style="fill:none;stroke-width:0.3985;stroke-linecap:butt;stroke-linejoin:miter;stroke:rgb(0%,0%,0%);stroke-opacity:1;stroke-miterlimit:10;" d="M 123.877844 -28.3475 C 123.877844 -22.554531 119.182531 -17.855312 113.385656 -17.855312 C 107.592687 -17.855312 102.897375 -22.554531 102.897375 -28.3475 C 102.897375 -34.140469 107.592687 -38.839687 113.385656 -38.839687 C 119.182531 -38.839687 123.877844 -34.140469 123.877844 -28.3475 Z M 123.877844 -28.3475 " transform="matrix(1,0,0,-1,-73.413,39.84)"/>
<path style="fill:none;stroke-width:0.3985;stroke-linecap:butt;stroke-linejoin:miter;stroke:rgb(0%,0%,0%);stroke-opacity:1;stroke-miterlimit:10;" d="M 180.573156 28.347813 C 180.573156 34.140781 175.873938 38.836094 170.080969 38.836094 C 164.288 38.836094 159.588781 34.140781 159.588781 28.347813 C 159.588781 22.550938 164.288 17.855625 170.080969 17.855625 C 175.873938 17.855625 180.573156 22.550938 180.573156 28.347813 Z M 180.573156 28.347813 " transform="matrix(1,0,0,-1,-73.413,39.84)"/>
<path style="fill:none;stroke-width:0.3985;stroke-linecap:butt;stroke-linejoin:miter;stroke:rgb(0%,0%,0%);stroke-opacity:1;stroke-miterlimit:10;" d="M 180.573156 -28.3475 C 180.573156 -22.554531 175.873938 -17.855312 170.080969 -17.855312 C 164.288 -17.855312 159.588781 -22.554531 159.588781 -28.3475 C 159.588781 -34.140469 164.288 -38.839687 170.080969 -38.839687 C 175.873938 -38.839687 180.573156 -34.140469 180.573156 -28.3475 Z M 180.573156 -28.3475 " transform="matrix(1,0,0,-1,-73.413,39.84)"/>
<path style="fill:none;stroke-width:0.3985;stroke-linecap:butt;stroke-linejoin:miter;stroke:rgb(0%,0%,0%);stroke-opacity:1;stroke-miterlimit:10;" d="M 95.729406 0.00015625 L 102.698156 0.00015625 " transform="matrix(1,0,0,-1,-73.413,39.84)"/>
<path style="fill:none;stroke-width:0.3985;stroke-linecap:butt;stroke-linejoin:miter;stroke:rgb(0%,0%,0%);stroke-opacity:1;stroke-miterlimit:10;" d="M 124.077062 0.00015625 L 131.041906 0.00015625 " transform="matrix(1,0,0,-1,-73.413,39.84)"/>
<path style="fill:none;stroke-width:0.3985;stroke-linecap:butt;stroke-linejoin:miter;stroke:rgb(0%,0%,0%);stroke-opacity:1;stroke-miterlimit:10;" d="M 85.041906 10.691563 L 85.041906 17.656406 " transform="matrix(1,0,0,-1,-73.413,39.84)"/>
<path style="fill:none;stroke-width:0.3985;stroke-linecap:butt;stroke-linejoin:miter;stroke:rgb(0%,0%,0%);stroke-opacity:1;stroke-miterlimit:10;" d="M 113.385656 -10.69125 L 113.385656 -17.656094 " transform="matrix(1,0,0,-1,-73.413,39.84)"/>
<path style="fill:none;stroke-width:0.3985;stroke-linecap:butt;stroke-linejoin:miter;stroke:rgb(0%,0%,0%);stroke-opacity:1;stroke-miterlimit:10;" d="M 149.291906 7.55875 L 162.522375 20.789219 " transform="matrix(1,0,0,-1,-73.413,39.84)"/>
<path style="fill:none;stroke-width:0.3985;stroke-linecap:butt;stroke-linejoin:miter;stroke:rgb(0%,0%,0%);stroke-opacity:1;stroke-miterlimit:10;" d="M 149.291906 -7.558437 L 162.522375 -20.788906 " transform="matrix(1,0,0,-1,-73.413,39.84)"/>
</g>
</svg>
