<?xml version="1.0" encoding="UTF-8"?>
<svg xmlns="http://www.w3.org/2000/svg" xmlns:xlink="http://www.w3.org/1999/xlink" width="52" height="61" viewBox="0 0 52 61">
<path fill-rule="nonzero" fill="rgb(50%, 50%, 50%)" fill-opacity="1" stroke-width="0.3985" stroke-linecap="butt" stroke-linejoin="miter" stroke="rgb(0%, 0%, 0%)" stroke-opacity="1" stroke-miterlimit="10" d="M 14.171719 0.0014375 L 14.171719 14.173313 L 28.3475 14.173313 L 28.3475 28.345188 L 42.519375 28.345188 L 42.519375 42.520969 L 56.695156 42.520969 L 56.695156 0.0014375 Z M 14.171719 0.0014375 " transform="matrix(1, 0, 0, -1, -5.535, 60.478)"/>
<path fill="none" stroke-width="1.59404" stroke-linecap="butt" stroke-linejoin="miter" stroke="rgb(0%, 0%, 0%)" stroke-opacity="1" stroke-miterlimit="10" d="M 7.085781 3.813938 C 7.085781 27.356906 21.261562 41.532688 21.261562 19.192844 " transform="matrix(1, 0, 0, -1, -5.535, 60.478)"/>
<path fill="none" stroke-width="1.27522" stroke-linecap="round" stroke-linejoin="round" stroke="rgb(0%, 0%, 0%)" stroke-opacity="1" stroke-miterlimit="10" d="M -2.272751 3.028806 C -2.081345 1.892087 0.00068625 0.188962 0.567092 0.0014625 C 0.00068625 -0.189944 -2.081345 -1.893069 -2.272751 -3.029788 " transform="matrix(0, 1, 1, 0, 15.7251, 41.28447)"/>
<path fill="none" stroke-width="1.59404" stroke-linecap="butt" stroke-linejoin="miter" stroke="rgb(0%, 0%, 0%)" stroke-opacity="1" stroke-miterlimit="10" d="M 21.261562 17.989719 C 21.261562 41.532688 35.433437 55.704563 35.433437 33.368625 " transform="matrix(1, 0, 0, -1, -5.535, 60.478)"/>
<path fill="none" stroke-width="1.27522" stroke-linecap="round" stroke-linejoin="round" stroke="rgb(0%, 0%, 0%)" stroke-opacity="1" stroke-miterlimit="10" d="M -2.271216 3.027291 C -2.083716 1.894479 -0.001685 0.187447 0.568627 -0.0000525 C -0.001685 -0.187553 -2.083716 -1.894584 -2.271216 -3.027396 " transform="matrix(0, 1, 1, 0, 29.89849, 27.11106)"/>
<path fill="none" stroke-width="1.59404" stroke-linecap="butt" stroke-linejoin="miter" stroke="rgb(0%, 0%, 0%)" stroke-opacity="1" stroke-miterlimit="10" d="M 35.433437 32.161594 C 35.433437 55.704563 49.605312 69.880344 49.605312 47.5405 " transform="matrix(1, 0, 0, -1, -5.535, 60.478)"/>
<path fill="none" stroke-width="1.27522" stroke-linecap="round" stroke-linejoin="round" stroke="rgb(0%, 0%, 0%)" stroke-opacity="1" stroke-miterlimit="10" d="M -2.269701 3.029662 C -2.082201 1.892944 -0.00017 0.189819 0.566236 -0.0015875 C -0.00017 -0.189088 -2.082201 -1.892213 -2.269701 -3.028931 " transform="matrix(0, 1, 1, 0, 44.0719, 12.93767)"/>
</svg>
