<?xml version="1.0" encoding="UTF-8"?>
<svg xmlns="http://www.w3.org/2000/svg" xmlns:xlink="http://www.w3.org/1999/xlink" width="52" height="62" viewBox="0 0 52 62">
<path fill-rule="nonzero" fill="rgb(50%, 50%, 50%)" fill-opacity="1" stroke-width="0.3985" stroke-linecap="butt" stroke-linejoin="miter" stroke="rgb(0%, 0%, 0%)" stroke-opacity="1" stroke-miterlimit="10" d="M 14.171719 0.00178125 L 14.171719 14.173656 L 28.3475 14.173656 L 28.3475 28.345531 L 42.519375 28.345531 L 42.519375 42.521312 L 56.695156 42.521312 L 56.695156 0.00178125 Z M 14.171719 0.00178125 " transform="matrix(1, 0, 0, -1, -5.535, 61.326)"/>
<path fill="none" stroke-width="1.59404" stroke-linecap="butt" stroke-linejoin="miter" stroke="rgb(0%, 0%, 0%)" stroke-opacity="1" stroke-miterlimit="10" d="M 7.085781 3.814281 C 7.085781 27.35725 21.261562 41.533031 21.261562 19.193187 " transform="matrix(1, 0, 0, -1, -5.535, 61.326)"/>
<path fill="none" stroke-width="1.27522" stroke-linecap="round" stroke-linejoin="round" stroke="rgb(0%, 0%, 0%)" stroke-opacity="1" stroke-miterlimit="10" d="M -2.273095 3.028806 C -2.081689 1.892087 0.0003425 0.188962 0.566749 0.0014625 C 0.0003425 -0.189944 -2.081689 -1.893069 -2.273095 -3.029788 " transform="matrix(0, 1, 1, 0, 15.7251, 42.13247)"/>
<path fill="none" stroke-width="1.59404" stroke-linecap="butt" stroke-linejoin="miter" stroke="rgb(0%, 0%, 0%)" stroke-opacity="1" stroke-miterlimit="10" d="M 21.261562 17.986156 C 21.261562 49.380687 49.605312 77.728344 49.605312 47.540844 " transform="matrix(1, 0, 0, -1, -5.535, 61.326)"/>
<path fill="none" stroke-width="1.27522" stroke-linecap="round" stroke-linejoin="round" stroke="rgb(0%, 0%, 0%)" stroke-opacity="1" stroke-miterlimit="10" d="M -2.270045 3.029662 C -2.082545 1.892944 -0.00051375 0.189819 0.569799 -0.0015875 C -0.00051375 -0.189088 -2.082545 -1.892213 -2.270045 -3.028931 " transform="matrix(0, 1, 1, 0, 44.0719, 13.78567)"/>
</svg>
