<?xml version="1.0" encoding="UTF-8"?>
<svg xmlns="http://www.w3.org/2000/svg" xmlns:xlink="http://www.w3.org/1999/xlink" width="52" height="56" viewBox="0 0 52 56">
<path fill-rule="nonzero" fill="rgb(50%, 50%, 50%)" fill-opacity="1" stroke-width="0.3985" stroke-linecap="butt" stroke-linejoin="miter" stroke="rgb(0%, 0%, 0%)" stroke-opacity="1" stroke-miterlimit="10" d="M 14.171719 0.0014375 L 14.171719 14.173313 L 28.3475 14.173313 L 28.3475 28.345188 L 42.519375 28.345188 L 42.519375 42.520969 L 56.695156 42.520969 L 56.695156 0.0014375 Z M 14.171719 0.0014375 " transform="matrix(1, 0, 0, -1, -5.535, 55.478)"/>
<path fill="none" stroke-width="1.59404" stroke-linecap="butt" stroke-linejoin="miter" stroke="rgb(0%, 0%, 0%)" stroke-opacity="1" stroke-miterlimit="10" d="M 7.085781 3.813938 C 7.085781 27.356906 49.605312 69.880344 49.605312 47.5405 " transform="matrix(1, 0, 0, -1, -5.535, 55.478)"/>
<path fill="none" stroke-width="1.27522" stroke-linecap="round" stroke-linejoin="round" stroke="rgb(0%, 0%, 0%)" stroke-opacity="1" stroke-miterlimit="10" d="M -2.269701 3.029662 C -2.082201 1.892944 -0.00017 0.189819 0.566236 -0.0015875 C -0.00017 -0.189088 -2.082201 -1.892213 -2.269701 -3.028931 " transform="matrix(0, 1, 1, 0, 44.0719, 7.93767)"/>
</svg>
