<?xml version="1.0" encoding="UTF-8"?>
<svg xmlns="http://www.w3.org/2000/svg" xmlns:xlink="http://www.w3.org/1999/xlink" width="197.008" height="134.646" viewBox="0 0 197.008 134.646">
<path fill="none" stroke-width="0.49814" stroke-linecap="square" stroke-linejoin="round" stroke="rgb(0%, 0%, 0%)" stroke-opacity="1" stroke-miterlimit="10" d="M 28.346406 28.34525 L 198.428438 28.34525 M 28.346406 56.692906 L 198.428438 56.692906 M 28.346406 85.040562 L 198.428438 85.040562 M 28.346406 113.388219 L 198.428438 113.388219 M 28.346406 141.724156 L 198.428438 141.724156 M 28.346406 28.34525 L 28.346406 141.735875 M 56.694063 28.34525 L 56.694063 141.735875 M 85.041719 28.34525 L 85.041719 141.735875 M 113.385469 28.34525 L 113.385469 141.735875 M 141.733125 28.34525 L 141.733125 141.735875 M 170.080781 28.34525 L 170.080781 141.735875 M 198.416719 28.34525 L 198.416719 141.735875 " transform="matrix(1, 0, 0, -1, -12.655, 153.439)"/>
<path fill="none" stroke-width="1.49442" stroke-linecap="square" stroke-linejoin="round" stroke="rgb(0%, 0%, 0%)" stroke-opacity="1" stroke-miterlimit="10" d="M 28.346406 28.34525 L 28.346406 141.735875 " transform="matrix(1, 0, 0, -1, -12.655, 153.439)"/>
<path fill="none" stroke-width="1.49442" stroke-linecap="square" stroke-linejoin="round" stroke="rgb(0%, 0%, 0%)" stroke-opacity="1" stroke-miterlimit="10" d="M 28.346406 141.735875 L 198.428438 141.735875 " transform="matrix(1, 0, 0, -1, -12.655, 153.439)"/>
<path fill="none" stroke-width="1.49442" stroke-linecap="square" stroke-linejoin="round" stroke="rgb(0%, 0%, 0%)" stroke-opacity="1" stroke-miterlimit="10" d="M 198.428438 141.735875 L 198.428438 28.34525 " transform="matrix(1, 0, 0, -1, -12.655, 153.439)"/>
<path fill="none" stroke-width="1.49442" stroke-linecap="square" stroke-linejoin="round" stroke="rgb(0%, 0%, 0%)" stroke-opacity="1" stroke-miterlimit="10" d="M 198.428438 28.34525 L 28.346406 28.34525 " transform="matrix(1, 0, 0, -1, -12.655, 153.439)"/>
<path fill-rule="nonzero" fill="rgb(100%, 100%, 100%)" fill-opacity="1" stroke-width="0.3985" stroke-linecap="square" stroke-linejoin="round" stroke="rgb(0%, 0%, 0%)" stroke-opacity="1" stroke-miterlimit="10" d="M 19.842156 9.919781 C 19.842156 15.40025 15.40075 19.841656 9.920281 19.841656 C 4.443719 19.841656 -0.00159375 15.40025 -0.00159375 9.919781 C -0.00159375 4.443219 4.443719 0.0018125 9.920281 0.0018125 C 15.40075 0.0018125 19.842156 4.443219 19.842156 9.919781 Z M 19.842156 9.919781 " transform="matrix(1, 0, 0, -1, 19.943, 92.494)"/>
<path fill-rule="nonzero" fill="rgb(100%, 100%, 100%)" fill-opacity="1" stroke-width="0.3985" stroke-linecap="square" stroke-linejoin="round" stroke="rgb(0%, 0%, 0%)" stroke-opacity="1" stroke-miterlimit="10" d="M 19.842156 9.922094 C 19.842156 15.402562 15.40075 19.843969 9.920281 19.843969 C 4.443719 19.843969 -0.00159375 15.402562 -0.00159375 9.922094 C -0.00159375 4.441625 4.443719 0.00021875 9.920281 0.00021875 C 15.40075 0.00021875 19.842156 4.441625 19.842156 9.922094 Z M 19.842156 9.922094 " transform="matrix(1, 0, 0, -1, 19.943, 35.801)"/>
<path fill-rule="nonzero" fill="rgb(100%, 100%, 100%)" fill-opacity="1" stroke-width="0.3985" stroke-linecap="square" stroke-linejoin="round" stroke="rgb(0%, 0%, 0%)" stroke-opacity="1" stroke-miterlimit="10" d="M 19.842812 9.922031 C 19.842812 15.4025 15.401406 19.843906 9.920937 19.843906 C 4.440469 19.843906 -0.0009375 15.4025 -0.0009375 9.922031 C -0.0009375 4.441562 4.440469 0.00015625 9.920937 0.00015625 C 15.401406 0.00015625 19.842812 4.441562 19.842812 9.922031 Z M 19.842812 9.922031 " transform="matrix(1, 0, 0, -1, 48.29, 120.84)"/>
<path fill-rule="nonzero" fill="rgb(100%, 100%, 100%)" fill-opacity="1" stroke-width="0.3985" stroke-linecap="square" stroke-linejoin="round" stroke="rgb(0%, 0%, 0%)" stroke-opacity="1" stroke-miterlimit="10" d="M 19.844469 9.920437 C 19.844469 15.400906 15.399156 19.842312 9.922594 19.842312 C 4.442125 19.842312 0.00071875 15.400906 0.00071875 9.920437 C 0.00071875 4.439969 4.442125 -0.0014375 9.922594 -0.0014375 C 15.399156 -0.0014375 19.844469 4.439969 19.844469 9.920437 Z M 19.844469 9.920437 " transform="matrix(1, 0, 0, -1, 76.636, 64.147)"/>
<path fill-rule="nonzero" fill="rgb(0%, 0%, 0%)" fill-opacity="1" d="M 124.824219 25.878906 C 124.824219 20.398438 120.382812 15.957031 114.90625 15.957031 C 109.425781 15.957031 104.984375 20.398438 104.984375 25.878906 C 104.984375 31.359375 109.425781 35.800781 114.90625 35.800781 C 120.382812 35.800781 124.824219 31.359375 124.824219 25.878906 Z M 124.824219 25.878906 "/>
<path fill-rule="nonzero" fill="rgb(0%, 0%, 0%)" fill-opacity="1" d="M 153.171875 110.917969 C 153.171875 105.4375 148.730469 100.996094 143.25 100.996094 C 137.769531 100.996094 133.328125 105.4375 133.328125 110.917969 C 133.328125 116.398438 137.769531 120.839844 143.25 120.839844 C 148.730469 120.839844 153.171875 116.398438 153.171875 110.917969 Z M 153.171875 110.917969 "/>
<path fill-rule="nonzero" fill="rgb(0%, 0%, 0%)" fill-opacity="1" d="M 153.171875 54.226562 C 153.171875 48.746094 148.730469 44.304688 143.25 44.304688 C 137.769531 44.304688 133.328125 48.746094 133.328125 54.226562 C 133.328125 59.707031 137.769531 64.148438 143.25 64.148438 C 148.730469 64.148438 153.171875 59.707031 153.171875 54.226562 Z M 153.171875 54.226562 "/>
<path fill-rule="nonzero" fill="rgb(0%, 0%, 0%)" fill-opacity="1" d="M 181.519531 82.574219 C 181.519531 77.09375 177.074219 72.652344 171.597656 72.652344 C 166.117188 72.652344 161.675781 77.09375 161.675781 82.574219 C 161.675781 88.050781 166.117188 92.492188 171.597656 92.492188 C 177.074219 92.492188 181.519531 88.050781 181.519531 82.574219 Z M 181.519531 82.574219 "/>
</svg>
