<?xml version="1.0" encoding="UTF-8"?>
<svg xmlns="http://www.w3.org/2000/svg" xmlns:xlink="http://www.w3.org/1999/xlink" width="240" height="81" viewBox="0 0 240 81">
<path fill="none" stroke-width="0.3985" stroke-linecap="butt" stroke-linejoin="miter" stroke="rgb(0%, 0%, 0%)" stroke-opacity="1" stroke-miterlimit="10" d="M 0.00071875 19.843531 L 0.00071875 79.370875 L 39.684313 79.370875 L 39.684313 19.843531 Z M 0.00071875 19.843531 " transform="matrix(1, 0, 0, -1, 1.136, 80.199)"/>
<path fill="none" stroke-width="0.3985" stroke-linecap="butt" stroke-linejoin="miter" stroke="rgb(0%, 0%, 0%)" stroke-opacity="1" stroke-dasharray="2.98883 2.98883" stroke-miterlimit="10" d="M 19.844469 19.843531 L 19.844469 79.370875 " transform="matrix(1, 0, 0, -1, 1.136, 80.199)"/>
<path fill="none" stroke-width="0.3985" stroke-linecap="butt" stroke-linejoin="miter" stroke="rgb(0%, 0%, 0%)" stroke-opacity="1" stroke-dasharray="2.98883 2.98883" stroke-miterlimit="10" d="M 39.684313 19.843531 L 39.684313 79.370875 " transform="matrix(1, 0, 0, -1, 1.136, 80.199)"/>
<path fill="none" stroke-width="0.3985" stroke-linecap="butt" stroke-linejoin="miter" stroke="rgb(0%, 0%, 0%)" stroke-opacity="1" stroke-dasharray="2.98883 2.98883" stroke-miterlimit="10" d="M 0.00071875 39.687281 L 39.684313 39.687281 " transform="matrix(1, 0, 0, -1, 1.136, 80.199)"/>
<path fill="none" stroke-width="0.3985" stroke-linecap="butt" stroke-linejoin="miter" stroke="rgb(0%, 0%, 0%)" stroke-opacity="1" stroke-dasharray="2.98883 2.98883" stroke-miterlimit="10" d="M 0.00071875 59.527125 L 39.684313 59.527125 " transform="matrix(1, 0, 0, -1, 1.136, 80.199)"/>
<path fill="none" stroke-width="0.3985" stroke-linecap="butt" stroke-linejoin="miter" stroke="rgb(0%, 0%, 0%)" stroke-opacity="1" stroke-dasharray="2.98883 2.98883" stroke-miterlimit="10" d="M 0.00071875 79.370875 L 39.684313 79.370875 " transform="matrix(1, 0, 0, -1, 1.136, 80.199)"/>
<path fill="none" stroke-width="0.3985" stroke-linecap="butt" stroke-linejoin="miter" stroke="rgb(0%, 0%, 0%)" stroke-opacity="1" stroke-miterlimit="10" d="M 59.528063 -0.00021875 L 59.528063 79.370875 L 158.742906 79.370875 L 158.742906 -0.00021875 Z M 59.528063 -0.00021875 " transform="matrix(1, 0, 0, -1, 1.136, 80.199)"/>
<path fill="none" stroke-width="0.3985" stroke-linecap="butt" stroke-linejoin="miter" stroke="rgb(0%, 0%, 0%)" stroke-opacity="1" stroke-dasharray="2.98883 2.98883" stroke-miterlimit="10" d="M 79.371813 -0.00021875 L 79.371813 79.370875 " transform="matrix(1, 0, 0, -1, 1.136, 80.199)"/>
<path fill="none" stroke-width="0.3985" stroke-linecap="butt" stroke-linejoin="miter" stroke="rgb(0%, 0%, 0%)" stroke-opacity="1" stroke-dasharray="2.98883 2.98883" stroke-miterlimit="10" d="M 99.211656 -0.00021875 L 99.211656 79.370875 " transform="matrix(1, 0, 0, -1, 1.136, 80.199)"/>
<path fill="none" stroke-width="0.3985" stroke-linecap="butt" stroke-linejoin="miter" stroke="rgb(0%, 0%, 0%)" stroke-opacity="1" stroke-dasharray="2.98883 2.98883" stroke-miterlimit="10" d="M 119.055406 -0.00021875 L 119.055406 79.370875 " transform="matrix(1, 0, 0, -1, 1.136, 80.199)"/>
<path fill="none" stroke-width="0.3985" stroke-linecap="butt" stroke-linejoin="miter" stroke="rgb(0%, 0%, 0%)" stroke-opacity="1" stroke-dasharray="2.98883 2.98883" stroke-miterlimit="10" d="M 138.899156 -0.00021875 L 138.899156 79.370875 " transform="matrix(1, 0, 0, -1, 1.136, 80.199)"/>
<path fill="none" stroke-width="0.3985" stroke-linecap="butt" stroke-linejoin="miter" stroke="rgb(0%, 0%, 0%)" stroke-opacity="1" stroke-dasharray="2.98883 2.98883" stroke-miterlimit="10" d="M 158.742906 -0.00021875 L 158.742906 79.370875 " transform="matrix(1, 0, 0, -1, 1.136, 80.199)"/>
<path fill="none" stroke-width="0.3985" stroke-linecap="butt" stroke-linejoin="miter" stroke="rgb(0%, 0%, 0%)" stroke-opacity="1" stroke-dasharray="2.98883 2.98883" stroke-miterlimit="10" d="M 59.528063 19.843531 L 158.742906 19.843531 " transform="matrix(1, 0, 0, -1, 1.136, 80.199)"/>
<path fill="none" stroke-width="0.3985" stroke-linecap="butt" stroke-linejoin="miter" stroke="rgb(0%, 0%, 0%)" stroke-opacity="1" stroke-dasharray="2.98883 2.98883" stroke-miterlimit="10" d="M 59.528063 39.687281 L 158.742906 39.687281 " transform="matrix(1, 0, 0, -1, 1.136, 80.199)"/>
<path fill="none" stroke-width="0.3985" stroke-linecap="butt" stroke-linejoin="miter" stroke="rgb(0%, 0%, 0%)" stroke-opacity="1" stroke-dasharray="2.98883 2.98883" stroke-miterlimit="10" d="M 59.528063 59.527125 L 158.742906 59.527125 " transform="matrix(1, 0, 0, -1, 1.136, 80.199)"/>
<path fill="none" stroke-width="0.3985" stroke-linecap="butt" stroke-linejoin="miter" stroke="rgb(0%, 0%, 0%)" stroke-opacity="1" stroke-dasharray="2.98883 2.98883" stroke-miterlimit="10" d="M 59.528063 79.370875 L 158.742906 79.370875 " transform="matrix(1, 0, 0, -1, 1.136, 80.199)"/>
<path fill="none" stroke-width="0.3985" stroke-linecap="butt" stroke-linejoin="miter" stroke="rgb(0%, 0%, 0%)" stroke-opacity="1" stroke-miterlimit="10" d="M 178.58275 9.921656 L 178.58275 69.449 L 238.114 69.449 L 238.114 9.921656 Z M 178.58275 9.921656 " transform="matrix(1, 0, 0, -1, 1.136, 80.199)"/>
<path fill="none" stroke-width="0.3985" stroke-linecap="butt" stroke-linejoin="miter" stroke="rgb(0%, 0%, 0%)" stroke-opacity="1" stroke-dasharray="2.98883 2.98883" stroke-miterlimit="10" d="M 198.4265 9.921656 L 198.4265 69.449 " transform="matrix(1, 0, 0, -1, 1.136, 80.199)"/>
<path fill="none" stroke-width="0.3985" stroke-linecap="butt" stroke-linejoin="miter" stroke="rgb(0%, 0%, 0%)" stroke-opacity="1" stroke-dasharray="2.98883 2.98883" stroke-miterlimit="10" d="M 218.27025 9.921656 L 218.27025 69.449 " transform="matrix(1, 0, 0, -1, 1.136, 80.199)"/>
<path fill="none" stroke-width="0.3985" stroke-linecap="butt" stroke-linejoin="miter" stroke="rgb(0%, 0%, 0%)" stroke-opacity="1" stroke-dasharray="2.98883 2.98883" stroke-miterlimit="10" d="M 238.114 9.921656 L 238.114 69.449 " transform="matrix(1, 0, 0, -1, 1.136, 80.199)"/>
<path fill="none" stroke-width="0.3985" stroke-linecap="butt" stroke-linejoin="miter" stroke="rgb(0%, 0%, 0%)" stroke-opacity="1" stroke-dasharray="2.98883 2.98883" stroke-miterlimit="10" d="M 178.58275 29.765406 L 238.114 29.765406 " transform="matrix(1, 0, 0, -1, 1.136, 80.199)"/>
<path fill="none" stroke-width="0.3985" stroke-linecap="butt" stroke-linejoin="miter" stroke="rgb(0%, 0%, 0%)" stroke-opacity="1" stroke-dasharray="2.98883 2.98883" stroke-miterlimit="10" d="M 178.58275 49.60525 L 238.114 49.60525 " transform="matrix(1, 0, 0, -1, 1.136, 80.199)"/>
<path fill="none" stroke-width="0.3985" stroke-linecap="butt" stroke-linejoin="miter" stroke="rgb(0%, 0%, 0%)" stroke-opacity="1" stroke-dasharray="2.98883 2.98883" stroke-miterlimit="10" d="M 178.58275 69.449 L 238.114 69.449 " transform="matrix(1, 0, 0, -1, 1.136, 80.199)"/>
</svg>
