<?xml version="1.0" encoding="UTF-8"?>
<svg xmlns="http://www.w3.org/2000/svg" xmlns:xlink="http://www.w3.org/1999/xlink" width="61" height="41" viewBox="0 0 61 41">
<path fill="none" stroke-width="0.3985" stroke-linecap="butt" stroke-linejoin="miter" stroke="rgb(0%, 0%, 0%)" stroke-opacity="1" stroke-miterlimit="10" d="M 0.00071875 -0.001625 L 0.00071875 39.685875 L 59.528063 39.685875 L 59.528063 -0.001625 Z M 0.00071875 -0.001625 " transform="matrix(1, 0, 0, -1, 1.136, 40.514)"/>
<path fill="none" stroke-width="0.3985" stroke-linecap="butt" stroke-linejoin="miter" stroke="rgb(0%, 0%, 0%)" stroke-opacity="1" stroke-dasharray="2.98883 2.98883" stroke-miterlimit="10" d="M 19.844469 -0.001625 L 19.844469 39.685875 " transform="matrix(1, 0, 0, -1, 1.136, 40.514)"/>
<path fill="none" stroke-width="0.3985" stroke-linecap="butt" stroke-linejoin="miter" stroke="rgb(0%, 0%, 0%)" stroke-opacity="1" stroke-dasharray="2.98883 2.98883" stroke-miterlimit="10" d="M 39.684313 -0.001625 L 39.684313 39.685875 " transform="matrix(1, 0, 0, -1, 1.136, 40.514)"/>
<path fill="none" stroke-width="0.3985" stroke-linecap="butt" stroke-linejoin="miter" stroke="rgb(0%, 0%, 0%)" stroke-opacity="1" stroke-dasharray="2.98883 2.98883" stroke-miterlimit="10" d="M 59.528063 -0.001625 L 59.528063 39.685875 " transform="matrix(1, 0, 0, -1, 1.136, 40.514)"/>
<path fill="none" stroke-width="0.3985" stroke-linecap="butt" stroke-linejoin="miter" stroke="rgb(0%, 0%, 0%)" stroke-opacity="1" stroke-dasharray="2.98883 2.98883" stroke-miterlimit="10" d="M 0.00071875 19.842125 L 59.528063 19.842125 " transform="matrix(1, 0, 0, -1, 1.136, 40.514)"/>
<path fill="none" stroke-width="0.3985" stroke-linecap="butt" stroke-linejoin="miter" stroke="rgb(0%, 0%, 0%)" stroke-opacity="1" stroke-dasharray="2.98883 2.98883" stroke-miterlimit="10" d="M 0.00071875 39.685875 L 59.528063 39.685875 " transform="matrix(1, 0, 0, -1, 1.136, 40.514)"/>
</svg>
