<?xml version="1.0" encoding="UTF-8"?>
<svg xmlns="http://www.w3.org/2000/svg" xmlns:xlink="http://www.w3.org/1999/xlink" width="282.917pt" height="15.369pt" viewBox="0 0 282.917 15.369" version="1.1">
<defs>
<clipPath id="clip1">
  <path d="M 0 0 L 19 0 L 19 15.367188 L 0 15.367188 Z M 0 0 "/>
</clipPath>
<clipPath id="clip2">
  <path d="M 0 0 L 23 0 L 23 15.367188 L 0 15.367188 Z M 0 0 "/>
</clipPath>
<clipPath id="clip3">
  <path d="M 19 0 L 54 0 L 54 15.367188 L 19 15.367188 Z M 19 0 "/>
</clipPath>
<clipPath id="clip4">
  <path d="M 22 0 L 59 0 L 59 15.367188 L 22 15.367188 Z M 22 0 "/>
</clipPath>
<clipPath id="clip5">
  <path d="M 27 0 L 63 0 L 63 15.367188 L 27 15.367188 Z M 27 0 "/>
</clipPath>
<clipPath id="clip6">
  <path d="M 31 0 L 69 0 L 69 15.367188 L 31 15.367188 Z M 31 0 "/>
</clipPath>
<clipPath id="clip7">
  <path d="M 65 0 L 100 0 L 100 15.367188 L 65 15.367188 Z M 65 0 "/>
</clipPath>
<clipPath id="clip8">
  <path d="M 68 0 L 103 0 L 103 15.367188 L 68 15.367188 Z M 68 0 "/>
</clipPath>
<clipPath id="clip9">
  <path d="M 71 0 L 107 0 L 107 15.367188 L 71 15.367188 Z M 71 0 "/>
</clipPath>
<clipPath id="clip10">
  <path d="M 74 0 L 113 0 L 113 15.367188 L 74 15.367188 Z M 74 0 "/>
</clipPath>
<clipPath id="clip11">
  <path d="M 81 0 L 118 0 L 118 15.367188 L 81 15.367188 Z M 81 0 "/>
</clipPath>
<clipPath id="clip12">
  <path d="M 86 0 L 124 0 L 124 15.367188 L 86 15.367188 Z M 86 0 "/>
</clipPath>
<clipPath id="clip13">
  <path d="M 92 0 L 128 0 L 128 15.367188 L 92 15.367188 Z M 92 0 "/>
</clipPath>
<clipPath id="clip14">
  <path d="M 96 0 L 131 0 L 131 15.367188 L 96 15.367188 Z M 96 0 "/>
</clipPath>
<clipPath id="clip15">
  <path d="M 127 0 L 163 0 L 163 15.367188 L 127 15.367188 Z M 127 0 "/>
</clipPath>
<clipPath id="clip16">
  <path d="M 131 0 L 166 0 L 166 15.367188 L 131 15.367188 Z M 131 0 "/>
</clipPath>
<clipPath id="clip17">
  <path d="M 134 0 L 168 0 L 168 15.367188 L 134 15.367188 Z M 134 0 "/>
</clipPath>
<clipPath id="clip18">
  <path d="M 136 0 L 172 0 L 172 15.367188 L 136 15.367188 Z M 136 0 "/>
</clipPath>
<clipPath id="clip19">
  <path d="M 140 0 L 178 0 L 178 15.367188 L 140 15.367188 Z M 140 0 "/>
</clipPath>
<clipPath id="clip20">
  <path d="M 145 0 L 181 0 L 181 15.367188 L 145 15.367188 Z M 145 0 "/>
</clipPath>
<clipPath id="clip21">
  <path d="M 149 0 L 186 0 L 186 15.367188 L 149 15.367188 Z M 149 0 "/>
</clipPath>
<clipPath id="clip22">
  <path d="M 154 0 L 192 0 L 192 15.367188 L 154 15.367188 Z M 154 0 "/>
</clipPath>
<clipPath id="clip23">
  <path d="M 160 0 L 198 0 L 198 15.367188 L 160 15.367188 Z M 160 0 "/>
</clipPath>
<clipPath id="clip24">
  <path d="M 166 0 L 203 0 L 203 15.367188 L 166 15.367188 Z M 166 0 "/>
</clipPath>
<clipPath id="clip25">
  <path d="M 171 0 L 207 0 L 207 15.367188 L 171 15.367188 Z M 171 0 "/>
</clipPath>
<clipPath id="clip26">
  <path d="M 175 0 L 213 0 L 213 15.367188 L 175 15.367188 Z M 175 0 "/>
</clipPath>
<clipPath id="clip27">
  <path d="M 181 0 L 217 0 L 217 15.367188 L 181 15.367188 Z M 181 0 "/>
</clipPath>
<clipPath id="clip28">
  <path d="M 185 0 L 224 0 L 224 15.367188 L 185 15.367188 Z M 185 0 "/>
</clipPath>
<clipPath id="clip29">
  <path d="M 192 0 L 228 0 L 228 15.367188 L 192 15.367188 Z M 192 0 "/>
</clipPath>
<clipPath id="clip30">
  <path d="M 196 0 L 231 0 L 231 15.367188 L 196 15.367188 Z M 196 0 "/>
</clipPath>
<clipPath id="clip31">
  <path d="M 199 0 L 234 0 L 234 15.367188 L 199 15.367188 Z M 199 0 "/>
</clipPath>
<clipPath id="clip32">
  <path d="M 202 0 L 239 0 L 239 15.367188 L 202 15.367188 Z M 202 0 "/>
</clipPath>
<clipPath id="clip33">
  <path d="M 206 0 L 241 0 L 241 15.367188 L 206 15.367188 Z M 206 0 "/>
</clipPath>
<clipPath id="clip34">
  <path d="M 209 0 L 245 0 L 245 15.367188 L 209 15.367188 Z M 209 0 "/>
</clipPath>
<clipPath id="clip35">
  <path d="M 213 0 L 248 0 L 248 15.367188 L 213 15.367188 Z M 213 0 "/>
</clipPath>
<clipPath id="clip36">
  <path d="M 216 0 L 252 0 L 252 15.367188 L 216 15.367188 Z M 216 0 "/>
</clipPath>
<clipPath id="clip37">
  <path d="M 220 0 L 255 0 L 255 15.367188 L 220 15.367188 Z M 220 0 "/>
</clipPath>
<clipPath id="clip38">
  <path d="M 223 0 L 259 0 L 259 15.367188 L 223 15.367188 Z M 223 0 "/>
</clipPath>
<clipPath id="clip39">
  <path d="M 226 0 L 264 0 L 264 15.367188 L 226 15.367188 Z M 226 0 "/>
</clipPath>
<clipPath id="clip40">
  <path d="M 231 0 L 269 0 L 269 15.367188 L 231 15.367188 Z M 231 0 "/>
</clipPath>
<clipPath id="clip41">
  <path d="M 237 0 L 274 0 L 274 15.367188 L 237 15.367188 Z M 237 0 "/>
</clipPath>
<clipPath id="clip42">
  <path d="M 242 0 L 278 0 L 278 15.367188 L 242 15.367188 Z M 242 0 "/>
</clipPath>
<clipPath id="clip43">
  <path d="M 246 0 L 282.917969 0 L 282.917969 15.367188 L 246 15.367188 Z M 246 0 "/>
</clipPath>
<clipPath id="clip44">
  <path d="M 253 0 L 282.917969 0 L 282.917969 15.367188 L 253 15.367188 Z M 253 0 "/>
</clipPath>
<clipPath id="clip45">
  <path d="M 259 0 L 282.917969 0 L 282.917969 15.367188 L 259 15.367188 Z M 259 0 "/>
</clipPath>
<clipPath id="clip46">
  <path d="M 263 0 L 282.917969 0 L 282.917969 15.367188 L 263 15.367188 Z M 263 0 "/>
</clipPath>
</defs>
<g id="surface1">
<g clip-path="url(#clip1)" clip-rule="nonzero">
<path style="fill:none;stroke-width:1.19553;stroke-linecap:butt;stroke-linejoin:miter;stroke:rgb(0%,0%,0%);stroke-opacity:1;stroke-miterlimit:10;" d="M -1.559344 0.00146875 L -0.567156 14.173344 " transform="matrix(1,0,0,-1,2.157,14.771)"/>
</g>
<g clip-path="url(#clip2)" clip-rule="nonzero">
<path style="fill:none;stroke-width:1.19553;stroke-linecap:butt;stroke-linejoin:miter;stroke:rgb(0%,0%,0%);stroke-opacity:1;stroke-miterlimit:10;" d="M -2.380875 0.00146875 L -1.361344 14.173344 " transform="matrix(1,0,0,-1,6.584,14.771)"/>
</g>
<g clip-path="url(#clip3)" clip-rule="nonzero">
<path style="fill:none;stroke-width:1.19553;stroke-linecap:butt;stroke-linejoin:miter;stroke:rgb(0%,0%,0%);stroke-opacity:1;stroke-miterlimit:10;" d="M 1.304594 0.00146875 L 1.925688 14.173344 " transform="matrix(1,0,0,-1,34.879,14.771)"/>
</g>
<g clip-path="url(#clip4)" clip-rule="nonzero">
<path style="fill:none;stroke-width:1.19553;stroke-linecap:butt;stroke-linejoin:miter;stroke:rgb(0%,0%,0%);stroke-opacity:1;stroke-miterlimit:10;" d="M 1.589313 0.00146875 L -0.313031 14.173344 " transform="matrix(1,0,0,-1,39.731,14.771)"/>
</g>
<g clip-path="url(#clip5)" clip-rule="nonzero">
<path style="fill:none;stroke-width:1.19553;stroke-linecap:butt;stroke-linejoin:miter;stroke:rgb(0%,0%,0%);stroke-opacity:1;stroke-miterlimit:10;" d="M -0.0013125 0.00146875 L 1.643219 14.173344 " transform="matrix(1,0,0,-1,43.931,14.771)"/>
</g>
<g clip-path="url(#clip6)" clip-rule="nonzero">
<path style="fill:none;stroke-width:1.19553;stroke-linecap:butt;stroke-linejoin:miter;stroke:rgb(0%,0%,0%);stroke-opacity:1;stroke-miterlimit:10;" d="M 2.238406 0.00146875 L -0.7655 14.173344 " transform="matrix(1,0,0,-1,48.953,14.771)"/>
</g>
<g clip-path="url(#clip7)" clip-rule="nonzero">
<path style="fill:none;stroke-width:1.19553;stroke-linecap:butt;stroke-linejoin:miter;stroke:rgb(0%,0%,0%);stroke-opacity:1;stroke-miterlimit:10;" d="M -1.982656 0.00146875 L -1.443594 14.173344 " transform="matrix(1,0,0,-1,84.135,14.771)"/>
</g>
<g clip-path="url(#clip8)" clip-rule="nonzero">
<path style="fill:none;stroke-width:1.19553;stroke-linecap:butt;stroke-linejoin:miter;stroke:rgb(0%,0%,0%);stroke-opacity:1;stroke-miterlimit:10;" d="M -0.990906 0.00146875 L -1.557312 14.173344 " transform="matrix(1,0,0,-1,86.862,14.771)"/>
</g>
<g clip-path="url(#clip9)" clip-rule="nonzero">
<path style="fill:none;stroke-width:1.19553;stroke-linecap:butt;stroke-linejoin:miter;stroke:rgb(0%,0%,0%);stroke-opacity:1;stroke-miterlimit:10;" d="M 0.508813 0.00146875 L -0.139625 14.173344 " transform="matrix(1,0,0,-1,88.624,14.771)"/>
</g>
<g clip-path="url(#clip10)" clip-rule="nonzero">
<path style="fill:none;stroke-width:1.19553;stroke-linecap:butt;stroke-linejoin:miter;stroke:rgb(0%,0%,0%);stroke-opacity:1;stroke-miterlimit:10;" d="M -0.793906 0.00146875 L 2.776406 14.173344 " transform="matrix(1,0,0,-1,92.54,14.771)"/>
</g>
<g clip-path="url(#clip11)" clip-rule="nonzero">
<path style="fill:none;stroke-width:1.19553;stroke-linecap:butt;stroke-linejoin:miter;stroke:rgb(0%,0%,0%);stroke-opacity:1;stroke-miterlimit:10;" d="M -1.702312 0.00146875 L 1.332844 14.173344 " transform="matrix(1,0,0,-1,99.632,14.771)"/>
</g>
<g clip-path="url(#clip12)" clip-rule="nonzero">
<path style="fill:none;stroke-width:1.19553;stroke-linecap:butt;stroke-linejoin:miter;stroke:rgb(0%,0%,0%);stroke-opacity:1;stroke-miterlimit:10;" d="M -1.075875 0.00146875 L 1.756156 14.173344 " transform="matrix(1,0,0,-1,104.654,14.771)"/>
</g>
<g clip-path="url(#clip13)" clip-rule="nonzero">
<path style="fill:none;stroke-width:1.19553;stroke-linecap:butt;stroke-linejoin:miter;stroke:rgb(0%,0%,0%);stroke-opacity:1;stroke-miterlimit:10;" d="M 0.141438 0.00146875 L 1.645344 14.173344 " transform="matrix(1,0,0,-1,108.882,14.771)"/>
</g>
<g clip-path="url(#clip14)" clip-rule="nonzero">
<path style="fill:none;stroke-width:1.19553;stroke-linecap:butt;stroke-linejoin:miter;stroke:rgb(0%,0%,0%);stroke-opacity:1;stroke-miterlimit:10;" d="M 0.962156 0.00146875 L 0.567625 14.173344 " transform="matrix(1,0,0,-1,112.573,14.771)"/>
</g>
<g clip-path="url(#clip15)" clip-rule="nonzero">
<path style="fill:none;stroke-width:1.19553;stroke-linecap:butt;stroke-linejoin:miter;stroke:rgb(0%,0%,0%);stroke-opacity:1;stroke-miterlimit:10;" d="M -0.652094 0.00146875 L -1.784906 14.173344 " transform="matrix(1,0,0,-1,146.281,14.771)"/>
</g>
<g clip-path="url(#clip16)" clip-rule="nonzero">
<path style="fill:none;stroke-width:1.19553;stroke-linecap:butt;stroke-linejoin:miter;stroke:rgb(0%,0%,0%);stroke-opacity:1;stroke-miterlimit:10;" d="M 1.047812 0.00146875 L 0.907187 14.173344 " transform="matrix(1,0,0,-1,147.335,14.771)"/>
</g>
<g clip-path="url(#clip17)" clip-rule="nonzero">
<path style="fill:none;stroke-width:1.19553;stroke-linecap:butt;stroke-linejoin:miter;stroke:rgb(0%,0%,0%);stroke-opacity:1;stroke-miterlimit:10;" d="M 1.475031 0.00146875 L 1.389094 14.173344 " transform="matrix(1,0,0,-1,149.607,14.771)"/>
</g>
<g clip-path="url(#clip18)" clip-rule="nonzero">
<path style="fill:none;stroke-width:1.19553;stroke-linecap:butt;stroke-linejoin:miter;stroke:rgb(0%,0%,0%);stroke-opacity:1;stroke-miterlimit:10;" d="M -1.727688 0.00146875 L -0.680813 14.173344 " transform="matrix(1,0,0,-1,155.423,14.771)"/>
</g>
<g clip-path="url(#clip19)" clip-rule="nonzero">
<path style="fill:none;stroke-width:1.19553;stroke-linecap:butt;stroke-linejoin:miter;stroke:rgb(0%,0%,0%);stroke-opacity:1;stroke-miterlimit:10;" d="M 1.361469 0.00146875 L -1.388531 14.173344 " transform="matrix(1,0,0,-1,158.744,14.771)"/>
</g>
<g clip-path="url(#clip20)" clip-rule="nonzero">
<path style="fill:none;stroke-width:1.19553;stroke-linecap:butt;stroke-linejoin:miter;stroke:rgb(0%,0%,0%);stroke-opacity:1;stroke-miterlimit:10;" d="M 1.756906 0.00146875 L 0.59675 14.173344 " transform="matrix(1,0,0,-1,162.122,14.771)"/>
</g>
<g clip-path="url(#clip21)" clip-rule="nonzero">
<path style="fill:none;stroke-width:1.19553;stroke-linecap:butt;stroke-linejoin:miter;stroke:rgb(0%,0%,0%);stroke-opacity:1;stroke-miterlimit:10;" d="M -0.028875 0.00146875 L -2.239812 14.173344 " transform="matrix(1,0,0,-1,168.732,14.771)"/>
</g>
<g clip-path="url(#clip22)" clip-rule="nonzero">
<path style="fill:none;stroke-width:1.19553;stroke-linecap:butt;stroke-linejoin:miter;stroke:rgb(0%,0%,0%);stroke-opacity:1;stroke-miterlimit:10;" d="M -1.303594 0.00146875 L 2.38 14.173344 " transform="matrix(1,0,0,-1,172.62,14.771)"/>
</g>
<g clip-path="url(#clip23)" clip-rule="nonzero">
<path style="fill:none;stroke-width:1.19553;stroke-linecap:butt;stroke-linejoin:miter;stroke:rgb(0%,0%,0%);stroke-opacity:1;stroke-miterlimit:10;" d="M 2.324781 0.00146875 L -0.737719 14.173344 " transform="matrix(1,0,0,-1,178.351,14.771)"/>
</g>
<g clip-path="url(#clip24)" clip-rule="nonzero">
<path style="fill:none;stroke-width:1.19553;stroke-linecap:butt;stroke-linejoin:miter;stroke:rgb(0%,0%,0%);stroke-opacity:1;stroke-miterlimit:10;" d="M -0.198594 0.00146875 L -2.350937 14.173344 " transform="matrix(1,0,0,-1,185.64,14.771)"/>
</g>
<g clip-path="url(#clip25)" clip-rule="nonzero">
<path style="fill:none;stroke-width:1.19553;stroke-linecap:butt;stroke-linejoin:miter;stroke:rgb(0%,0%,0%);stroke-opacity:1;stroke-miterlimit:10;" d="M 0.963688 0.00146875 L 2.694156 14.173344 " transform="matrix(1,0,0,-1,187.091,14.771)"/>
</g>
<g clip-path="url(#clip26)" clip-rule="nonzero">
<path style="fill:none;stroke-width:1.19553;stroke-linecap:butt;stroke-linejoin:miter;stroke:rgb(0%,0%,0%);stroke-opacity:1;stroke-miterlimit:10;" d="M 1.815031 0.00146875 L -1.872469 14.173344 " transform="matrix(1,0,0,-1,194.267,14.771)"/>
</g>
<g clip-path="url(#clip27)" clip-rule="nonzero">
<path style="fill:none;stroke-width:1.19553;stroke-linecap:butt;stroke-linejoin:miter;stroke:rgb(0%,0%,0%);stroke-opacity:1;stroke-miterlimit:10;" d="M 0.0830313 0.00146875 L -0.678687 14.173344 " transform="matrix(1,0,0,-1,199.374,14.771)"/>
</g>
<g clip-path="url(#clip28)" clip-rule="nonzero">
<path style="fill:none;stroke-width:1.19553;stroke-linecap:butt;stroke-linejoin:miter;stroke:rgb(0%,0%,0%);stroke-opacity:1;stroke-miterlimit:10;" d="M -2.268687 0.00146875 L 2.664906 14.173344 " transform="matrix(1,0,0,-1,204.339,14.771)"/>
</g>
<g clip-path="url(#clip29)" clip-rule="nonzero">
<path style="fill:none;stroke-width:1.19553;stroke-linecap:butt;stroke-linejoin:miter;stroke:rgb(0%,0%,0%);stroke-opacity:1;stroke-miterlimit:10;" d="M -1.528812 0.00146875 L -0.341312 14.173344 " transform="matrix(1,0,0,-1,211.146,14.771)"/>
</g>
<g clip-path="url(#clip30)" clip-rule="nonzero">
<path style="fill:none;stroke-width:1.19553;stroke-linecap:butt;stroke-linejoin:miter;stroke:rgb(0%,0%,0%);stroke-opacity:1;stroke-miterlimit:10;" d="M 0.480969 0.00146875 L 0.766125 14.173344 " transform="matrix(1,0,0,-1,212.937,14.771)"/>
</g>
<g clip-path="url(#clip31)" clip-rule="nonzero">
<path style="fill:none;stroke-width:1.19553;stroke-linecap:butt;stroke-linejoin:miter;stroke:rgb(0%,0%,0%);stroke-opacity:1;stroke-miterlimit:10;" d="M -2.523625 0.00146875 L -2.691594 14.173344 " transform="matrix(1,0,0,-1,219.008,14.771)"/>
</g>
<g clip-path="url(#clip32)" clip-rule="nonzero">
<path style="fill:none;stroke-width:1.19553;stroke-linecap:butt;stroke-linejoin:miter;stroke:rgb(0%,0%,0%);stroke-opacity:1;stroke-miterlimit:10;" d="M 0.396375 0.00146875 L -1.615344 14.173344 " transform="matrix(1,0,0,-1,220.713,14.771)"/>
</g>
<g clip-path="url(#clip33)" clip-rule="nonzero">
<path style="fill:none;stroke-width:1.19553;stroke-linecap:butt;stroke-linejoin:miter;stroke:rgb(0%,0%,0%);stroke-opacity:1;stroke-miterlimit:10;" d="M 1.558938 0.00146875 L 1.445656 14.173344 " transform="matrix(1,0,0,-1,222.277,14.771)"/>
</g>
<g clip-path="url(#clip34)" clip-rule="nonzero">
<path style="fill:none;stroke-width:1.19553;stroke-linecap:butt;stroke-linejoin:miter;stroke:rgb(0%,0%,0%);stroke-opacity:1;stroke-miterlimit:10;" d="M -0.908187 0.00146875 L -1.841781 14.173344 " transform="matrix(1,0,0,-1,228.291,14.771)"/>
</g>
<g clip-path="url(#clip35)" clip-rule="nonzero">
<path style="fill:none;stroke-width:1.19553;stroke-linecap:butt;stroke-linejoin:miter;stroke:rgb(0%,0%,0%);stroke-opacity:1;stroke-miterlimit:10;" d="M 1.218094 0.00146875 L 1.897781 14.173344 " transform="matrix(1,0,0,-1,228.778,14.771)"/>
</g>
<g clip-path="url(#clip36)" clip-rule="nonzero">
<path style="fill:none;stroke-width:1.19553;stroke-linecap:butt;stroke-linejoin:miter;stroke:rgb(0%,0%,0%);stroke-opacity:1;stroke-miterlimit:10;" d="M 0.738406 0.00146875 L -0.538937 14.173344 " transform="matrix(1,0,0,-1,233.828,14.771)"/>
</g>
<g clip-path="url(#clip37)" clip-rule="nonzero">
<path style="fill:none;stroke-width:1.19553;stroke-linecap:butt;stroke-linejoin:miter;stroke:rgb(0%,0%,0%);stroke-opacity:1;stroke-miterlimit:10;" d="M -1.982312 0.00146875 L -1.4745 14.173344 " transform="matrix(1,0,0,-1,239.162,14.771)"/>
</g>
<g clip-path="url(#clip38)" clip-rule="nonzero">
<path style="fill:none;stroke-width:1.19553;stroke-linecap:butt;stroke-linejoin:miter;stroke:rgb(0%,0%,0%);stroke-opacity:1;stroke-miterlimit:10;" d="M 1.048781 0.00146875 L 1.955031 14.173344 " transform="matrix(1,0,0,-1,239.252,14.771)"/>
</g>
<g clip-path="url(#clip39)" clip-rule="nonzero">
<path style="fill:none;stroke-width:1.19553;stroke-linecap:butt;stroke-linejoin:miter;stroke:rgb(0%,0%,0%);stroke-opacity:1;stroke-miterlimit:10;" d="M 1.869875 0.00146875 L -0.481687 14.173344 " transform="matrix(1,0,0,-1,244.302,14.771)"/>
</g>
<g clip-path="url(#clip40)" clip-rule="nonzero">
<path style="fill:none;stroke-width:1.19553;stroke-linecap:butt;stroke-linejoin:miter;stroke:rgb(0%,0%,0%);stroke-opacity:1;stroke-miterlimit:10;" d="M 1.334031 0.00146875 L -1.587844 14.173344 " transform="matrix(1,0,0,-1,250.373,14.771)"/>
</g>
<g clip-path="url(#clip41)" clip-rule="nonzero">
<path style="fill:none;stroke-width:1.19553;stroke-linecap:butt;stroke-linejoin:miter;stroke:rgb(0%,0%,0%);stroke-opacity:1;stroke-miterlimit:10;" d="M -1.163594 0.00146875 L 1.133281 14.173344 " transform="matrix(1,0,0,-1,255.48,14.771)"/>
</g>
<g clip-path="url(#clip42)" clip-rule="nonzero">
<path style="fill:none;stroke-width:1.19553;stroke-linecap:butt;stroke-linejoin:miter;stroke:rgb(0%,0%,0%);stroke-opacity:1;stroke-miterlimit:10;" d="M 1.190438 0.00146875 L -0.481437 14.173344 " transform="matrix(1,0,0,-1,259.708,14.771)"/>
</g>
<g clip-path="url(#clip43)" clip-rule="nonzero">
<path style="fill:none;stroke-width:1.19553;stroke-linecap:butt;stroke-linejoin:miter;stroke:rgb(0%,0%,0%);stroke-opacity:1;stroke-miterlimit:10;" d="M 2.521875 0.00146875 L -1.388281 14.173344 " transform="matrix(1,0,0,-1,264.9,14.771)"/>
</g>
<g clip-path="url(#clip44)" clip-rule="nonzero">
<path style="fill:none;stroke-width:1.19553;stroke-linecap:butt;stroke-linejoin:miter;stroke:rgb(0%,0%,0%);stroke-opacity:1;stroke-miterlimit:10;" d="M 0.653156 0.00146875 L -2.721844 14.173344 " transform="matrix(1,0,0,-1,272.757,14.771)"/>
</g>
<g clip-path="url(#clip45)" clip-rule="nonzero">
<path style="fill:none;stroke-width:1.19553;stroke-linecap:butt;stroke-linejoin:miter;stroke:rgb(0%,0%,0%);stroke-opacity:1;stroke-miterlimit:10;" d="M 0.170938 0.00146875 L -1.645469 14.173344 " transform="matrix(1,0,0,-1,277.665,14.771)"/>
</g>
<g clip-path="url(#clip46)" clip-rule="nonzero">
<path style="fill:none;stroke-width:1.19553;stroke-linecap:butt;stroke-linejoin:miter;stroke:rgb(0%,0%,0%);stroke-opacity:1;stroke-miterlimit:10;" d="M -0.848687 0.00146875 L -2.719781 14.173344 " transform="matrix(1,0,0,-1,283.169,14.771)"/>
</g>
</g>
</svg>
