<?xml version="1.0" encoding="UTF-8"?>
<svg xmlns="http://www.w3.org/2000/svg" xmlns:xlink="http://www.w3.org/1999/xlink" width="68" height="96" viewBox="0 0 68 96">
<defs>
<clipPath id="clip-0">
<path clip-rule="nonzero" d="M 0 0.882812 L 16 0.882812 L 16 16 L 0 16 Z M 0 0.882812 "/>
</clipPath>
<clipPath id="clip-1">
<path clip-rule="nonzero" d="M 0 0.882812 L 68 0.882812 L 68 36 L 0 36 Z M 0 0.882812 "/>
</clipPath>
<clipPath id="clip-2">
<path clip-rule="nonzero" d="M 0 0.882812 L 68 0.882812 L 68 63 L 0 63 Z M 0 0.882812 "/>
</clipPath>
</defs>
<path fill-rule="nonzero" fill="rgb(0%, 0%, 0%)" fill-opacity="1" d="M 10.21875 5.589844 C 10.21875 3.097656 8.199219 1.078125 5.707031 1.078125 C 3.21875 1.078125 1.199219 3.097656 1.199219 5.589844 C 1.199219 8.078125 3.21875 10.097656 5.707031 10.097656 C 8.199219 10.097656 10.21875 8.078125 10.21875 5.589844 Z M 10.21875 5.589844 "/>
<g clip-path="url(#clip-0)">
<path fill="none" stroke-width="0.3985" stroke-linecap="butt" stroke-linejoin="miter" stroke="rgb(0%, 0%, 0%)" stroke-opacity="1" stroke-miterlimit="10" d="M 4.51075 113.386156 C 4.51075 115.878344 2.491219 117.897875 -0.00096875 117.897875 C -2.48925 117.897875 -4.508781 115.878344 -4.508781 113.386156 C -4.508781 110.897875 -2.48925 108.878344 -0.00096875 108.878344 C 2.491219 108.878344 4.51075 110.897875 4.51075 113.386156 Z M 4.51075 113.386156 " transform="matrix(1, 0, 0, -1, 5.708, 118.976)"/>
</g>
<path fill-rule="nonzero" fill="rgb(0%, 0%, 0%)" fill-opacity="1" stroke-width="0.3985" stroke-linecap="butt" stroke-linejoin="miter" stroke="rgb(0%, 0%, 0%)" stroke-opacity="1" stroke-miterlimit="10" d="M 4.51075 85.0385 C 4.51075 87.530687 2.491219 89.550219 -0.00096875 89.550219 C -2.48925 89.550219 -4.508781 87.530687 -4.508781 85.0385 C -4.508781 82.550219 -2.48925 80.530687 -0.00096875 80.530687 C 2.491219 80.530687 4.51075 82.550219 4.51075 85.0385 Z M 4.51075 85.0385 " transform="matrix(1, 0, 0, -1, 5.708, 118.976)"/>
<path fill-rule="nonzero" fill="rgb(0%, 0%, 0%)" fill-opacity="1" stroke-width="0.3985" stroke-linecap="butt" stroke-linejoin="miter" stroke="rgb(0%, 0%, 0%)" stroke-opacity="1" stroke-miterlimit="10" d="M 4.51075 56.69475 C 4.51075 59.183031 2.491219 61.202562 -0.00096875 61.202562 C -2.48925 61.202562 -4.508781 59.183031 -4.508781 56.69475 C -4.508781 54.202562 -2.48925 52.183031 -0.00096875 52.183031 C 2.491219 52.183031 4.51075 54.202562 4.51075 56.69475 Z M 4.51075 56.69475 " transform="matrix(1, 0, 0, -1, 5.708, 118.976)"/>
<path fill-rule="nonzero" fill="rgb(0%, 0%, 0%)" fill-opacity="1" stroke-width="0.3985" stroke-linecap="butt" stroke-linejoin="miter" stroke="rgb(0%, 0%, 0%)" stroke-opacity="1" stroke-miterlimit="10" d="M 4.51075 28.347094 C 4.51075 30.835375 2.491219 32.854906 -0.00096875 32.854906 C -2.48925 32.854906 -4.508781 30.835375 -4.508781 28.347094 C -4.508781 25.854906 -2.48925 23.839281 -0.00096875 23.839281 C 2.491219 23.839281 4.51075 25.854906 4.51075 28.347094 Z M 4.51075 28.347094 " transform="matrix(1, 0, 0, -1, 5.708, 118.976)"/>
<path fill-rule="nonzero" fill="rgb(0%, 0%, 0%)" fill-opacity="1" stroke-width="0.3985" stroke-linecap="butt" stroke-linejoin="miter" stroke="rgb(0%, 0%, 0%)" stroke-opacity="1" stroke-miterlimit="10" d="M 61.202156 99.214281 C 61.202156 101.702562 59.182625 103.722094 56.694344 103.722094 C 54.202156 103.722094 52.186531 101.702562 52.186531 99.214281 C 52.186531 96.722094 54.202156 94.706469 56.694344 94.706469 C 59.182625 94.706469 61.202156 96.722094 61.202156 99.214281 Z M 61.202156 99.214281 " transform="matrix(1, 0, 0, -1, 5.708, 118.976)"/>
<path fill-rule="nonzero" fill="rgb(0%, 0%, 0%)" fill-opacity="1" stroke-width="0.3985" stroke-linecap="butt" stroke-linejoin="miter" stroke="rgb(0%, 0%, 0%)" stroke-opacity="1" stroke-miterlimit="10" d="M 61.202156 70.866625 C 61.202156 73.358812 59.182625 75.374437 56.694344 75.374437 C 54.202156 75.374437 52.186531 73.358812 52.186531 70.866625 C 52.186531 68.378344 54.202156 66.358812 56.694344 66.358812 C 59.182625 66.358812 61.202156 68.378344 61.202156 70.866625 Z M 61.202156 70.866625 " transform="matrix(1, 0, 0, -1, 5.708, 118.976)"/>
<path fill-rule="nonzero" fill="rgb(0%, 0%, 0%)" fill-opacity="1" stroke-width="0.3985" stroke-linecap="butt" stroke-linejoin="miter" stroke="rgb(0%, 0%, 0%)" stroke-opacity="1" stroke-miterlimit="10" d="M 61.202156 42.518969 C 61.202156 45.011156 59.182625 47.030687 56.694344 47.030687 C 54.202156 47.030687 52.186531 45.011156 52.186531 42.518969 C 52.186531 40.030687 54.202156 38.011156 56.694344 38.011156 C 59.182625 38.011156 61.202156 40.030687 61.202156 42.518969 Z M 61.202156 42.518969 " transform="matrix(1, 0, 0, -1, 5.708, 118.976)"/>
<g clip-path="url(#clip-1)">
<path fill="none" stroke-width="1.19553" stroke-linecap="butt" stroke-linejoin="miter" stroke="rgb(0%, 0%, 0%)" stroke-opacity="1" stroke-miterlimit="10" d="M 4.569344 112.245531 L 52.124031 100.354906 " transform="matrix(1, 0, 0, -1, 5.708, 118.976)"/>
</g>
<path fill="none" stroke-width="1.19553" stroke-linecap="butt" stroke-linejoin="miter" stroke="rgb(0%, 0%, 0%)" stroke-opacity="1" stroke-miterlimit="10" d="M 4.569344 86.183031 L 52.124031 98.073656 " transform="matrix(1, 0, 0, -1, 5.708, 118.976)"/>
<path fill="none" stroke-width="1.19553" stroke-linecap="butt" stroke-linejoin="miter" stroke="rgb(0%, 0%, 0%)" stroke-opacity="1" stroke-miterlimit="10" d="M 4.569344 57.835375 L 52.124031 69.726 " transform="matrix(1, 0, 0, -1, 5.708, 118.976)"/>
<g clip-path="url(#clip-2)">
<path fill="none" stroke-width="1.19553" stroke-linecap="butt" stroke-linejoin="miter" stroke="rgb(0%, 0%, 0%)" stroke-opacity="1" stroke-miterlimit="10" d="M 3.764656 110.561937 L 52.928719 73.690844 " transform="matrix(1, 0, 0, -1, 5.708, 118.976)"/>
</g>
<path fill="none" stroke-width="1.19553" stroke-linecap="butt" stroke-linejoin="miter" stroke="rgb(0%, 0%, 0%)" stroke-opacity="1" stroke-miterlimit="10" d="M 4.569344 29.487719 L 52.124031 41.378344 " transform="matrix(1, 0, 0, -1, 5.708, 118.976)"/>
<path fill="none" stroke-width="1.19553" stroke-linecap="butt" stroke-linejoin="miter" stroke="rgb(0%, 0%, 0%)" stroke-opacity="1" stroke-miterlimit="10" d="M 3.764656 82.214281 L 52.928719 45.343187 " transform="matrix(1, 0, 0, -1, 5.708, 118.976)"/>
</svg>
