<?xml version="1.0" encoding="UTF-8"?>
<svg xmlns="http://www.w3.org/2000/svg" xmlns:xlink="http://www.w3.org/1999/xlink" width="115" height="81" viewBox="0 0 115 81">
<path fill-rule="nonzero" fill="rgb(50%, 50%, 50%)" fill-opacity="1" stroke-width="0.3985" stroke-linecap="butt" stroke-linejoin="miter" stroke="rgb(0%, 0%, 0%)" stroke-opacity="1" stroke-miterlimit="10" d="M -7.085281 -13.241438 L -7.085281 61.430437 C -7.085281 62.727312 -6.0345 63.782 -4.737625 63.782 L 103.953781 63.782 C 105.250656 63.782 106.301438 62.727312 106.301438 61.430437 L 106.301438 -13.241438 C 106.301438 -14.538313 105.250656 -15.589094 103.953781 -15.589094 L -4.737625 -15.589094 C -6.0345 -15.589094 -7.085281 -14.538313 -7.085281 -13.241438 Z M -7.085281 -13.241438 " transform="matrix(1, 0, 0, -1, 8.222, 64.782)"/>
<path fill-rule="nonzero" fill="rgb(92.498779%, 92.498779%, 92.498779%)" fill-opacity="1" stroke-width="0.3985" stroke-linecap="butt" stroke-linejoin="miter" stroke="rgb(0%, 0%, 0%)" stroke-opacity="1" stroke-miterlimit="10" d="M 28.348313 7.086687 C 28.348313 14.914812 22.000656 21.258562 14.172531 21.258562 C 6.344406 21.258562 0.00065625 14.914812 0.00065625 7.086687 C 0.00065625 -0.741438 6.344406 -7.085188 14.172531 -7.085188 C 22.000656 -7.085188 28.348313 -0.741438 28.348313 7.086687 Z M 28.348313 7.086687 " transform="matrix(1, 0, 0, -1, 8.222, 64.782)"/>
<path fill-rule="nonzero" fill="rgb(92.498779%, 92.498779%, 92.498779%)" fill-opacity="1" stroke-width="0.3985" stroke-linecap="butt" stroke-linejoin="miter" stroke="rgb(0%, 0%, 0%)" stroke-opacity="1" stroke-miterlimit="10" d="M 63.781906 7.086687 C 63.781906 14.914812 57.43425 21.258562 49.606125 21.258562 C 41.778 21.258562 35.43425 14.914812 35.43425 7.086687 C 35.43425 -0.741438 41.778 -7.085188 49.606125 -7.085188 C 57.43425 -7.085188 63.781906 -0.741438 63.781906 7.086687 Z M 63.781906 7.086687 " transform="matrix(1, 0, 0, -1, 8.222, 64.782)"/>
<path fill-rule="nonzero" fill="rgb(92.498779%, 92.498779%, 92.498779%)" fill-opacity="1" stroke-width="0.3985" stroke-linecap="butt" stroke-linejoin="miter" stroke="rgb(0%, 0%, 0%)" stroke-opacity="1" stroke-miterlimit="10" d="M 99.2155 7.086687 C 99.2155 14.914812 92.867844 21.258562 85.039719 21.258562 C 77.211594 21.258562 70.867844 14.914812 70.867844 7.086687 C 70.867844 -0.741438 77.211594 -7.085188 85.039719 -7.085188 C 92.867844 -7.085188 99.2155 -0.741438 99.2155 7.086687 Z M 99.2155 7.086687 " transform="matrix(1, 0, 0, -1, 8.222, 64.782)"/>
<path fill-rule="nonzero" fill="rgb(92.498779%, 92.498779%, 92.498779%)" fill-opacity="1" stroke-width="0.3985" stroke-linecap="butt" stroke-linejoin="miter" stroke="rgb(0%, 0%, 0%)" stroke-opacity="1" stroke-miterlimit="10" d="M 28.348313 42.520281 C 28.348313 50.348406 22.000656 56.692156 14.172531 56.692156 C 6.344406 56.692156 0.00065625 50.348406 0.00065625 42.520281 C 0.00065625 34.692156 6.344406 28.348406 14.172531 28.348406 C 22.000656 28.348406 28.348313 34.692156 28.348313 42.520281 Z M 28.348313 42.520281 " transform="matrix(1, 0, 0, -1, 8.222, 64.782)"/>
<path fill-rule="nonzero" fill="rgb(92.498779%, 92.498779%, 92.498779%)" fill-opacity="1" stroke-width="0.3985" stroke-linecap="butt" stroke-linejoin="miter" stroke="rgb(0%, 0%, 0%)" stroke-opacity="1" stroke-miterlimit="10" d="M 63.781906 42.520281 C 63.781906 50.348406 57.43425 56.692156 49.606125 56.692156 C 41.778 56.692156 35.43425 50.348406 35.43425 42.520281 C 35.43425 34.692156 41.778 28.348406 49.606125 28.348406 C 57.43425 28.348406 63.781906 34.692156 63.781906 42.520281 Z M 63.781906 42.520281 " transform="matrix(1, 0, 0, -1, 8.222, 64.782)"/>
<path fill-rule="nonzero" fill="rgb(92.498779%, 92.498779%, 92.498779%)" fill-opacity="1" stroke-width="0.3985" stroke-linecap="butt" stroke-linejoin="miter" stroke="rgb(0%, 0%, 0%)" stroke-opacity="1" stroke-miterlimit="10" d="M 99.2155 42.520281 C 99.2155 50.348406 92.867844 56.692156 85.039719 56.692156 C 77.211594 56.692156 70.867844 50.348406 70.867844 42.520281 C 70.867844 34.692156 77.211594 28.348406 85.039719 28.348406 C 92.867844 28.348406 99.2155 34.692156 99.2155 42.520281 Z M 99.2155 42.520281 " transform="matrix(1, 0, 0, -1, 8.222, 64.782)"/>
</svg>
