<?xml version="1.0" encoding="UTF-8"?>
<svg xmlns="http://www.w3.org/2000/svg" xmlns:xlink="http://www.w3.org/1999/xlink" width="7.507" height="7.507" viewBox="0 0 7.507 7.507">
<path fill-rule="nonzero" fill="rgb(100%, 100%, 100%)" fill-opacity="1" stroke-width="0.42896" stroke-linecap="butt" stroke-linejoin="miter" stroke="rgb(25%, 25%, 25%)" stroke-opacity="1" stroke-miterlimit="10" d="M 0.00084375 0.859406 L 0.00084375 6.218781 C 0.00084375 6.695344 0.383656 7.078156 0.856313 7.078156 L 6.219594 7.078156 C 6.69225 7.078156 7.078969 6.695344 7.078969 6.218781 L 7.078969 0.859406 C 7.078969 0.382844 6.69225 0.00003125 6.219594 0.00003125 L 0.856313 0.00003125 C 0.383656 0.00003125 0.00084375 0.382844 0.00084375 0.859406 Z M 0.00084375 0.859406 " transform="matrix(1, 0, 0, -1, 0.214, 7.293)"/>
<path fill-rule="nonzero" fill="rgb(0%, 0%, 0%)" fill-opacity="1" d="M 2.65625 5.578125 C 2.65625 5.175781 2.332031 4.847656 1.929688 4.847656 C 1.527344 4.847656 1.203125 5.175781 1.203125 5.578125 C 1.203125 5.980469 1.527344 6.304688 1.929688 6.304688 C 2.332031 6.304688 2.65625 5.980469 2.65625 5.578125 Z M 2.65625 5.578125 "/>
<path fill-rule="nonzero" fill="rgb(0%, 0%, 0%)" fill-opacity="1" d="M 4.480469 3.753906 C 4.480469 3.351562 4.15625 3.027344 3.753906 3.027344 C 3.351562 3.027344 3.023438 3.351562 3.023438 3.753906 C 3.023438 4.15625 3.351562 4.480469 3.753906 4.480469 C 4.15625 4.480469 4.480469 4.15625 4.480469 3.753906 Z M 4.480469 3.753906 "/>
<path fill-rule="nonzero" fill="rgb(0%, 0%, 0%)" fill-opacity="1" d="M 6.304688 1.929688 C 6.304688 1.527344 5.976562 1.203125 5.574219 1.203125 C 5.175781 1.203125 4.847656 1.527344 4.847656 1.929688 C 4.847656 2.332031 5.175781 2.660156 5.574219 2.660156 C 5.976562 2.660156 6.304688 2.332031 6.304688 1.929688 Z M 6.304688 1.929688 "/>
</svg>
