<?xml version="1.0" encoding="UTF-8"?>
<svg xmlns="http://www.w3.org/2000/svg" xmlns:xlink="http://www.w3.org/1999/xlink" width="270.067" height="103.173" viewBox="0 0 270.067 103.173">
<defs>
<clipPath id="clip-0">
<path clip-rule="nonzero" d="M 29 51 L 100 51 L 100 103.171875 L 29 103.171875 Z M 29 51 "/>
</clipPath>
<clipPath id="clip-1">
<path clip-rule="nonzero" d="M 57 99 L 62 99 L 62 103.171875 L 57 103.171875 Z M 57 99 "/>
</clipPath>
<clipPath id="clip-2">
<path clip-rule="nonzero" d="M 53 94 L 67 94 L 67 103.171875 L 53 103.171875 Z M 53 94 "/>
</clipPath>
<clipPath id="clip-3">
<path clip-rule="nonzero" d="M 39 51 L 110 51 L 110 103.171875 L 39 103.171875 Z M 39 51 "/>
</clipPath>
<clipPath id="clip-4">
<path clip-rule="nonzero" d="M 77 99 L 82 99 L 82 103.171875 L 77 103.171875 Z M 77 99 "/>
</clipPath>
<clipPath id="clip-5">
<path clip-rule="nonzero" d="M 73 94 L 86 94 L 86 103.171875 L 73 103.171875 Z M 73 94 "/>
</clipPath>
<clipPath id="clip-6">
<path clip-rule="nonzero" d="M 207 0 L 270.066406 0 L 270.066406 53 L 207 53 Z M 207 0 "/>
</clipPath>
<clipPath id="clip-7">
<path clip-rule="nonzero" d="M 261 10 L 270.066406 10 L 270.066406 24 L 261 24 Z M 261 10 "/>
</clipPath>
<clipPath id="clip-8">
<path clip-rule="nonzero" d="M 222 0 L 270.066406 0 L 270.066406 48 L 222 48 Z M 222 0 "/>
</clipPath>
</defs>
<path fill="none" stroke-width="0.42896" stroke-linecap="butt" stroke-linejoin="miter" stroke="rgb(50%, 50%, 50%)" stroke-opacity="1" stroke-miterlimit="10" d="M 19.842844 -9.920063 L 59.526438 -9.920063 " transform="matrix(1, 0, 0, -1, -19.628, 31.744)"/>
<path fill="none" stroke-width="2.14474" stroke-linecap="butt" stroke-linejoin="miter" stroke="rgb(0%, 0%, 100%)" stroke-opacity="1" stroke-miterlimit="10" d="M 29.764719 -9.920063 L 29.764719 9.919781 " transform="matrix(1, 0, 0, -1, -19.628, 31.744)"/>
<path fill-rule="nonzero" fill="rgb(100%, 100%, 100%)" fill-opacity="1" stroke-width="0.32169" stroke-linecap="butt" stroke-linejoin="miter" stroke="rgb(0%, 0%, 0%)" stroke-opacity="1" stroke-miterlimit="10" d="M 31.585031 -9.920063 C 31.585031 -8.916156 30.768625 -8.09975 29.764719 -8.09975 C 28.760813 -8.09975 27.944406 -8.916156 27.944406 -9.920063 C 27.944406 -10.927875 28.760813 -11.740375 29.764719 -11.740375 C 30.768625 -11.740375 31.585031 -10.927875 31.585031 -9.920063 Z M 31.585031 -9.920063 " transform="matrix(1, 0, 0, -1, -19.628, 31.744)"/>
<path fill-rule="nonzero" fill="rgb(100%, 100%, 100%)" fill-opacity="1" stroke-width="0.32169" stroke-linecap="butt" stroke-linejoin="miter" stroke="rgb(0%, 0%, 0%)" stroke-opacity="1" stroke-miterlimit="10" d="M 31.585031 9.919781 C 31.585031 10.927594 30.768625 11.740094 29.764719 11.740094 C 28.760813 11.740094 27.944406 10.927594 27.944406 9.919781 C 27.944406 8.915875 28.760813 8.103375 29.764719 8.103375 C 30.768625 8.103375 31.585031 8.915875 31.585031 9.919781 Z M 31.585031 9.919781 " transform="matrix(1, 0, 0, -1, -19.628, 31.744)"/>
<path fill="none" stroke-width="2.14474" stroke-linecap="butt" stroke-linejoin="miter" stroke="rgb(0%, 0%, 100%)" stroke-opacity="1" stroke-miterlimit="10" d="M 49.608469 -9.920063 L 49.608469 9.919781 " transform="matrix(1, 0, 0, -1, -19.628, 31.744)"/>
<path fill-rule="nonzero" fill="rgb(100%, 100%, 100%)" fill-opacity="1" stroke-width="0.32169" stroke-linecap="butt" stroke-linejoin="miter" stroke="rgb(0%, 0%, 0%)" stroke-opacity="1" stroke-miterlimit="10" d="M 51.424875 -9.920063 C 51.424875 -8.916156 50.612375 -8.09975 49.608469 -8.09975 C 48.600656 -8.09975 47.788156 -8.916156 47.788156 -9.920063 C 47.788156 -10.927875 48.600656 -11.740375 49.608469 -11.740375 C 50.612375 -11.740375 51.424875 -10.927875 51.424875 -9.920063 Z M 51.424875 -9.920063 " transform="matrix(1, 0, 0, -1, -19.628, 31.744)"/>
<path fill-rule="nonzero" fill="rgb(100%, 100%, 100%)" fill-opacity="1" stroke-width="0.32169" stroke-linecap="butt" stroke-linejoin="miter" stroke="rgb(0%, 0%, 0%)" stroke-opacity="1" stroke-miterlimit="10" d="M 51.424875 9.919781 C 51.424875 10.927594 50.612375 11.740094 49.608469 11.740094 C 48.600656 11.740094 47.788156 10.927594 47.788156 9.919781 C 47.788156 8.915875 48.600656 8.103375 49.608469 8.103375 C 50.612375 8.103375 51.424875 8.915875 51.424875 9.919781 Z M 51.424875 9.919781 " transform="matrix(1, 0, 0, -1, -19.628, 31.744)"/>
<path fill="none" stroke-width="2.14474" stroke-linecap="butt" stroke-linejoin="miter" stroke="rgb(100%, 0%, 0%)" stroke-opacity="1" stroke-miterlimit="10" d="M 29.764719 9.919781 L 49.608469 9.919781 " transform="matrix(1, 0, 0, -1, -19.628, 31.744)"/>
<path fill-rule="nonzero" fill="rgb(100%, 100%, 100%)" fill-opacity="1" stroke-width="0.32169" stroke-linecap="butt" stroke-linejoin="miter" stroke="rgb(0%, 0%, 0%)" stroke-opacity="1" stroke-miterlimit="10" d="M 31.585031 9.919781 C 31.585031 10.927594 30.768625 11.740094 29.764719 11.740094 C 28.760813 11.740094 27.944406 10.927594 27.944406 9.919781 C 27.944406 8.915875 28.760813 8.103375 29.764719 8.103375 C 30.768625 8.103375 31.585031 8.915875 31.585031 9.919781 Z M 31.585031 9.919781 " transform="matrix(1, 0, 0, -1, -19.628, 31.744)"/>
<path fill-rule="nonzero" fill="rgb(100%, 100%, 100%)" fill-opacity="1" stroke-width="0.32169" stroke-linecap="butt" stroke-linejoin="miter" stroke="rgb(0%, 0%, 0%)" stroke-opacity="1" stroke-miterlimit="10" d="M 51.424875 9.919781 C 51.424875 10.927594 50.612375 11.740094 49.608469 11.740094 C 48.600656 11.740094 47.788156 10.927594 47.788156 9.919781 C 47.788156 8.915875 48.600656 8.103375 49.608469 8.103375 C 50.612375 8.103375 51.424875 8.915875 51.424875 9.919781 Z M 51.424875 9.919781 " transform="matrix(1, 0, 0, -1, -19.628, 31.744)"/>
<path fill="none" stroke-width="2.14474" stroke-linecap="butt" stroke-linejoin="miter" stroke="rgb(100%, 0%, 0%)" stroke-opacity="1" stroke-miterlimit="10" d="M 29.764719 9.919781 L 29.764719 29.763531 " transform="matrix(1, 0, 0, -1, -19.628, 31.744)"/>
<path fill-rule="nonzero" fill="rgb(100%, 100%, 100%)" fill-opacity="1" stroke-width="0.32169" stroke-linecap="butt" stroke-linejoin="miter" stroke="rgb(0%, 0%, 0%)" stroke-opacity="1" stroke-miterlimit="10" d="M 31.585031 9.919781 C 31.585031 10.927594 30.768625 11.740094 29.764719 11.740094 C 28.760813 11.740094 27.944406 10.927594 27.944406 9.919781 C 27.944406 8.915875 28.760813 8.103375 29.764719 8.103375 C 30.768625 8.103375 31.585031 8.915875 31.585031 9.919781 Z M 31.585031 9.919781 " transform="matrix(1, 0, 0, -1, -19.628, 31.744)"/>
<path fill-rule="nonzero" fill="rgb(100%, 100%, 100%)" fill-opacity="1" stroke-width="0.32169" stroke-linecap="butt" stroke-linejoin="miter" stroke="rgb(0%, 0%, 0%)" stroke-opacity="1" stroke-miterlimit="10" d="M 31.585031 29.763531 C 31.585031 30.767437 30.768625 31.583844 29.764719 31.583844 C 28.760813 31.583844 27.944406 30.767437 27.944406 29.763531 C 27.944406 28.759625 28.760813 27.943219 29.764719 27.943219 C 30.768625 27.943219 31.585031 28.759625 31.585031 29.763531 Z M 31.585031 29.763531 " transform="matrix(1, 0, 0, -1, -19.628, 31.744)"/>
<path fill="none" stroke-width="0.42896" stroke-linecap="butt" stroke-linejoin="miter" stroke="rgb(50%, 50%, 50%)" stroke-opacity="1" stroke-miterlimit="10" d="M 69.448313 -69.451313 L 109.135813 -69.451313 " transform="matrix(1, 0, 0, -1, -19.628, 31.744)"/>
<g clip-path="url(#clip-0)">
<path fill="none" stroke-width="2.14474" stroke-linecap="butt" stroke-linejoin="miter" stroke="rgb(0%, 0%, 100%)" stroke-opacity="1" stroke-miterlimit="10" d="M 79.370188 -69.451313 L 89.292063 -49.607563 " transform="matrix(1, 0, 0, -1, -19.628, 31.744)"/>
</g>
<g clip-path="url(#clip-1)">
<path fill-rule="nonzero" fill="rgb(100%, 100%, 100%)" fill-opacity="1" d="M 61.5625 101.195312 C 61.5625 100.1875 60.746094 99.375 59.742188 99.375 C 58.738281 99.375 57.921875 100.1875 57.921875 101.195312 C 57.921875 102.199219 58.738281 103.011719 59.742188 103.011719 C 60.746094 103.011719 61.5625 102.199219 61.5625 101.195312 Z M 61.5625 101.195312 "/>
</g>
<g clip-path="url(#clip-2)">
<path fill="none" stroke-width="0.32169" stroke-linecap="butt" stroke-linejoin="miter" stroke="rgb(0%, 0%, 0%)" stroke-opacity="1" stroke-miterlimit="10" d="M 81.1905 -69.451313 C 81.1905 -68.4435 80.374094 -67.631 79.370188 -67.631 C 78.366281 -67.631 77.549875 -68.4435 77.549875 -69.451313 C 77.549875 -70.455219 78.366281 -71.267719 79.370188 -71.267719 C 80.374094 -71.267719 81.1905 -70.455219 81.1905 -69.451313 Z M 81.1905 -69.451313 " transform="matrix(1, 0, 0, -1, -19.628, 31.744)"/>
</g>
<path fill-rule="nonzero" fill="rgb(100%, 100%, 100%)" fill-opacity="1" stroke-width="0.32169" stroke-linecap="butt" stroke-linejoin="miter" stroke="rgb(0%, 0%, 0%)" stroke-opacity="1" stroke-miterlimit="10" d="M 91.112375 -49.607563 C 91.112375 -48.603656 90.295969 -47.78725 89.292063 -47.78725 C 88.28425 -47.78725 87.47175 -48.603656 87.47175 -49.607563 C 87.47175 -50.615375 88.28425 -51.427875 89.292063 -51.427875 C 90.295969 -51.427875 91.112375 -50.615375 91.112375 -49.607563 Z M 91.112375 -49.607563 " transform="matrix(1, 0, 0, -1, -19.628, 31.744)"/>
<g clip-path="url(#clip-3)">
<path fill="none" stroke-width="2.14474" stroke-linecap="butt" stroke-linejoin="miter" stroke="rgb(100%, 0%, 0%)" stroke-opacity="1" stroke-miterlimit="10" d="M 99.213938 -69.451313 L 89.292063 -49.607563 " transform="matrix(1, 0, 0, -1, -19.628, 31.744)"/>
</g>
<g clip-path="url(#clip-4)">
<path fill-rule="nonzero" fill="rgb(100%, 100%, 100%)" fill-opacity="1" d="M 81.40625 101.195312 C 81.40625 100.1875 80.589844 99.375 79.585938 99.375 C 78.582031 99.375 77.765625 100.1875 77.765625 101.195312 C 77.765625 102.199219 78.582031 103.011719 79.585938 103.011719 C 80.589844 103.011719 81.40625 102.199219 81.40625 101.195312 Z M 81.40625 101.195312 "/>
</g>
<g clip-path="url(#clip-5)">
<path fill="none" stroke-width="0.32169" stroke-linecap="butt" stroke-linejoin="miter" stroke="rgb(0%, 0%, 0%)" stroke-opacity="1" stroke-miterlimit="10" d="M 101.03425 -69.451313 C 101.03425 -68.4435 100.217844 -67.631 99.213938 -67.631 C 98.210031 -67.631 97.393625 -68.4435 97.393625 -69.451313 C 97.393625 -70.455219 98.210031 -71.267719 99.213938 -71.267719 C 100.217844 -71.267719 101.03425 -70.455219 101.03425 -69.451313 Z M 101.03425 -69.451313 " transform="matrix(1, 0, 0, -1, -19.628, 31.744)"/>
</g>
<path fill-rule="nonzero" fill="rgb(100%, 100%, 100%)" fill-opacity="1" stroke-width="0.32169" stroke-linecap="butt" stroke-linejoin="miter" stroke="rgb(0%, 0%, 0%)" stroke-opacity="1" stroke-miterlimit="10" d="M 91.112375 -49.607563 C 91.112375 -48.603656 90.299875 -47.78725 89.292063 -47.78725 C 88.288156 -47.78725 87.47175 -48.603656 87.47175 -49.607563 C 87.47175 -50.615375 88.288156 -51.427875 89.292063 -51.427875 C 90.299875 -51.427875 91.112375 -50.615375 91.112375 -49.607563 Z M 91.112375 -49.607563 " transform="matrix(1, 0, 0, -1, -19.628, 31.744)"/>
<path fill="none" stroke-width="2.14474" stroke-linecap="butt" stroke-linejoin="miter" stroke="rgb(0%, 0%, 100%)" stroke-opacity="1" stroke-miterlimit="10" d="M 89.292063 -49.607563 L 89.292063 -29.763813 " transform="matrix(1, 0, 0, -1, -19.628, 31.744)"/>
<path fill-rule="nonzero" fill="rgb(100%, 100%, 100%)" fill-opacity="1" stroke-width="0.32169" stroke-linecap="butt" stroke-linejoin="miter" stroke="rgb(0%, 0%, 0%)" stroke-opacity="1" stroke-miterlimit="10" d="M 91.112375 -49.607563 C 91.112375 -48.59975 90.295969 -47.78725 89.292063 -47.78725 C 88.288156 -47.78725 87.47175 -48.59975 87.47175 -49.607563 C 87.47175 -50.611469 88.288156 -51.427875 89.292063 -51.427875 C 90.295969 -51.427875 91.112375 -50.611469 91.112375 -49.607563 Z M 91.112375 -49.607563 " transform="matrix(1, 0, 0, -1, -19.628, 31.744)"/>
<path fill-rule="nonzero" fill="rgb(100%, 100%, 100%)" fill-opacity="1" stroke-width="0.32169" stroke-linecap="butt" stroke-linejoin="miter" stroke="rgb(0%, 0%, 0%)" stroke-opacity="1" stroke-miterlimit="10" d="M 91.112375 -29.763813 C 91.112375 -28.759906 90.295969 -27.9435 89.292063 -27.9435 C 88.288156 -27.9435 87.47175 -28.759906 87.47175 -29.763813 C 87.47175 -30.767719 88.288156 -31.584125 89.292063 -31.584125 C 90.295969 -31.584125 91.112375 -30.767719 91.112375 -29.763813 Z M 91.112375 -29.763813 " transform="matrix(1, 0, 0, -1, -19.628, 31.744)"/>
<path fill="none" stroke-width="2.14474" stroke-linecap="butt" stroke-linejoin="miter" stroke="rgb(100%, 0%, 0%)" stroke-opacity="1" stroke-miterlimit="10" d="M 89.292063 -29.763813 L 69.448313 -29.763813 " transform="matrix(1, 0, 0, -1, -19.628, 31.744)"/>
<path fill-rule="nonzero" fill="rgb(100%, 100%, 100%)" fill-opacity="1" stroke-width="0.32169" stroke-linecap="butt" stroke-linejoin="miter" stroke="rgb(0%, 0%, 0%)" stroke-opacity="1" stroke-miterlimit="10" d="M 91.112375 -29.763813 C 91.112375 -28.759906 90.295969 -27.9435 89.292063 -27.9435 C 88.288156 -27.9435 87.47175 -28.759906 87.47175 -29.763813 C 87.47175 -30.767719 88.288156 -31.584125 89.292063 -31.584125 C 90.295969 -31.584125 91.112375 -30.767719 91.112375 -29.763813 Z M 91.112375 -29.763813 " transform="matrix(1, 0, 0, -1, -19.628, 31.744)"/>
<path fill-rule="nonzero" fill="rgb(100%, 100%, 100%)" fill-opacity="1" stroke-width="0.32169" stroke-linecap="butt" stroke-linejoin="miter" stroke="rgb(0%, 0%, 0%)" stroke-opacity="1" stroke-miterlimit="10" d="M 71.268625 -29.763813 C 71.268625 -28.759906 70.456125 -27.9435 69.448313 -27.9435 C 68.444406 -27.9435 67.628 -28.759906 67.628 -29.763813 C 67.628 -30.767719 68.444406 -31.584125 69.448313 -31.584125 C 70.456125 -31.584125 71.268625 -30.767719 71.268625 -29.763813 Z M 71.268625 -29.763813 " transform="matrix(1, 0, 0, -1, -19.628, 31.744)"/>
<path fill="none" stroke-width="2.14474" stroke-linecap="butt" stroke-linejoin="miter" stroke="rgb(0%, 0%, 100%)" stroke-opacity="1" stroke-miterlimit="10" d="M 89.292063 -29.763813 L 109.135813 -29.763813 " transform="matrix(1, 0, 0, -1, -19.628, 31.744)"/>
<path fill-rule="nonzero" fill="rgb(100%, 100%, 100%)" fill-opacity="1" stroke-width="0.32169" stroke-linecap="butt" stroke-linejoin="miter" stroke="rgb(0%, 0%, 0%)" stroke-opacity="1" stroke-miterlimit="10" d="M 91.112375 -29.763813 C 91.112375 -28.759906 90.295969 -27.9435 89.292063 -27.9435 C 88.288156 -27.9435 87.47175 -28.759906 87.47175 -29.763813 C 87.47175 -30.767719 88.288156 -31.584125 89.292063 -31.584125 C 90.295969 -31.584125 91.112375 -30.767719 91.112375 -29.763813 Z M 91.112375 -29.763813 " transform="matrix(1, 0, 0, -1, -19.628, 31.744)"/>
<path fill-rule="nonzero" fill="rgb(100%, 100%, 100%)" fill-opacity="1" stroke-width="0.32169" stroke-linecap="butt" stroke-linejoin="miter" stroke="rgb(0%, 0%, 0%)" stroke-opacity="1" stroke-miterlimit="10" d="M 110.956125 -29.763813 C 110.956125 -28.759906 110.139719 -27.9435 109.135813 -27.9435 C 108.128 -27.9435 107.3155 -28.759906 107.3155 -29.763813 C 107.3155 -30.767719 108.128 -31.584125 109.135813 -31.584125 C 110.139719 -31.584125 110.956125 -30.767719 110.956125 -29.763813 Z M 110.956125 -29.763813 " transform="matrix(1, 0, 0, -1, -19.628, 31.744)"/>
<path fill="none" stroke-width="2.14474" stroke-linecap="butt" stroke-linejoin="miter" stroke="rgb(100%, 0%, 0%)" stroke-opacity="1" stroke-miterlimit="10" d="M 89.292063 -29.763813 L 89.292063 -19.841938 " transform="matrix(1, 0, 0, -1, -19.628, 31.744)"/>
<path fill-rule="nonzero" fill="rgb(100%, 100%, 100%)" fill-opacity="1" stroke-width="0.32169" stroke-linecap="butt" stroke-linejoin="miter" stroke="rgb(0%, 0%, 0%)" stroke-opacity="1" stroke-miterlimit="10" d="M 91.112375 -29.763813 C 91.112375 -28.759906 90.295969 -27.9435 89.292063 -27.9435 C 88.288156 -27.9435 87.47175 -28.759906 87.47175 -29.763813 C 87.47175 -30.767719 88.288156 -31.584125 89.292063 -31.584125 C 90.295969 -31.584125 91.112375 -30.767719 91.112375 -29.763813 Z M 91.112375 -29.763813 " transform="matrix(1, 0, 0, -1, -19.628, 31.744)"/>
<path fill-rule="nonzero" fill="rgb(100%, 100%, 100%)" fill-opacity="1" stroke-width="0.32169" stroke-linecap="butt" stroke-linejoin="miter" stroke="rgb(0%, 0%, 0%)" stroke-opacity="1" stroke-miterlimit="10" d="M 91.112375 -19.841938 C 91.112375 -18.838031 90.295969 -18.021625 89.292063 -18.021625 C 88.288156 -18.021625 87.47175 -18.838031 87.47175 -19.841938 C 87.47175 -20.845844 88.288156 -21.66225 89.292063 -21.66225 C 90.295969 -21.66225 91.112375 -20.845844 91.112375 -19.841938 Z M 91.112375 -19.841938 " transform="matrix(1, 0, 0, -1, -19.628, 31.744)"/>
<path fill="none" stroke-width="2.14474" stroke-linecap="butt" stroke-linejoin="miter" stroke="rgb(0%, 0%, 100%)" stroke-opacity="1" stroke-miterlimit="10" d="M 89.292063 -19.841938 C 92.608469 -19.841938 95.295969 -17.154438 95.295969 -13.838031 C 95.295969 -10.521625 92.608469 -7.830219 89.292063 -7.830219 C 85.975656 -7.830219 83.288156 -10.521625 83.288156 -13.838031 C 83.288156 -17.154438 85.975656 -19.841938 89.292063 -19.841938 " transform="matrix(1, 0, 0, -1, -19.628, 31.744)"/>
<path fill-rule="nonzero" fill="rgb(100%, 100%, 100%)" fill-opacity="1" stroke-width="0.32169" stroke-linecap="butt" stroke-linejoin="miter" stroke="rgb(0%, 0%, 0%)" stroke-opacity="1" stroke-miterlimit="10" d="M 91.112375 -19.841938 C 91.112375 -18.838031 90.295969 -18.021625 89.292063 -18.021625 C 88.288156 -18.021625 87.47175 -18.838031 87.47175 -19.841938 C 87.47175 -20.845844 88.288156 -21.66225 89.292063 -21.66225 C 90.295969 -21.66225 91.112375 -20.845844 91.112375 -19.841938 Z M 91.112375 -19.841938 " transform="matrix(1, 0, 0, -1, -19.628, 31.744)"/>
<path fill-rule="nonzero" fill="rgb(100%, 100%, 100%)" fill-opacity="1" stroke-width="0.32169" stroke-linecap="butt" stroke-linejoin="miter" stroke="rgb(0%, 0%, 0%)" stroke-opacity="1" stroke-miterlimit="10" d="M 91.108469 -19.841938 C 91.108469 -18.838031 90.292063 -18.021625 89.288156 -18.021625 C 88.280344 -18.021625 87.467844 -18.838031 87.467844 -19.841938 C 87.467844 -20.845844 88.280344 -21.66225 89.288156 -21.66225 C 90.292063 -21.66225 91.108469 -20.845844 91.108469 -19.841938 Z M 91.108469 -19.841938 " transform="matrix(1, 0, 0, -1, -19.628, 31.744)"/>
<path fill="none" stroke-width="2.14474" stroke-linecap="butt" stroke-linejoin="miter" stroke="rgb(100%, 0%, 0%)" stroke-opacity="1" stroke-miterlimit="10" d="M 109.135813 -29.763813 C 128.975656 0.0018125 99.213938 -19.841938 119.057688 9.919781 " transform="matrix(1, 0, 0, -1, -19.628, 31.744)"/>
<path fill-rule="nonzero" fill="rgb(100%, 100%, 100%)" fill-opacity="1" stroke-width="0.32169" stroke-linecap="butt" stroke-linejoin="miter" stroke="rgb(0%, 0%, 0%)" stroke-opacity="1" stroke-miterlimit="10" d="M 110.956125 -29.763813 C 110.956125 -28.759906 110.139719 -27.9435 109.135813 -27.9435 C 108.128 -27.9435 107.3155 -28.759906 107.3155 -29.763813 C 107.3155 -30.767719 108.128 -31.584125 109.135813 -31.584125 C 110.139719 -31.584125 110.956125 -30.767719 110.956125 -29.763813 Z M 110.956125 -29.763813 " transform="matrix(1, 0, 0, -1, -19.628, 31.744)"/>
<path fill="none" stroke-width="2.14474" stroke-linecap="butt" stroke-linejoin="miter" stroke="rgb(0%, 0%, 100%)" stroke-opacity="1" stroke-miterlimit="10" d="M 119.057688 9.919781 L 123.026438 29.763531 " transform="matrix(1, 0, 0, -1, -19.628, 31.744)"/>
<path fill-rule="nonzero" fill="rgb(100%, 100%, 100%)" fill-opacity="1" stroke-width="0.32169" stroke-linecap="butt" stroke-linejoin="miter" stroke="rgb(0%, 0%, 0%)" stroke-opacity="1" stroke-miterlimit="10" d="M 120.874094 9.919781 C 120.874094 10.927594 120.061594 11.740094 119.057688 11.740094 C 118.049875 11.740094 117.237375 10.927594 117.237375 9.919781 C 117.237375 8.915875 118.049875 8.103375 119.057688 8.103375 C 120.061594 8.103375 120.874094 8.915875 120.874094 9.919781 Z M 120.874094 9.919781 " transform="matrix(1, 0, 0, -1, -19.628, 31.744)"/>
<path fill-rule="nonzero" fill="rgb(100%, 100%, 100%)" fill-opacity="1" stroke-width="0.32169" stroke-linecap="butt" stroke-linejoin="miter" stroke="rgb(0%, 0%, 0%)" stroke-opacity="1" stroke-miterlimit="10" d="M 124.842844 29.763531 C 124.842844 30.767437 124.030344 31.583844 123.022531 31.583844 C 122.018625 31.583844 121.206125 30.767437 121.206125 29.763531 C 121.206125 28.755719 122.018625 27.943219 123.022531 27.943219 C 124.030344 27.943219 124.842844 28.755719 124.842844 29.763531 Z M 124.842844 29.763531 " transform="matrix(1, 0, 0, -1, -19.628, 31.744)"/>
<path fill="none" stroke-width="2.14474" stroke-linecap="butt" stroke-linejoin="miter" stroke="rgb(100%, 0%, 0%)" stroke-opacity="1" stroke-miterlimit="10" d="M 119.057688 9.919781 L 138.897531 13.888531 " transform="matrix(1, 0, 0, -1, -19.628, 31.744)"/>
<path fill-rule="nonzero" fill="rgb(100%, 100%, 100%)" fill-opacity="1" stroke-width="0.32169" stroke-linecap="butt" stroke-linejoin="miter" stroke="rgb(0%, 0%, 0%)" stroke-opacity="1" stroke-miterlimit="10" d="M 120.874094 9.919781 C 120.874094 10.927594 120.061594 11.740094 119.057688 11.740094 C 118.049875 11.740094 117.237375 10.927594 117.237375 9.919781 C 117.237375 8.915875 118.049875 8.103375 119.057688 8.103375 C 120.061594 8.103375 120.874094 8.915875 120.874094 9.919781 Z M 120.874094 9.919781 " transform="matrix(1, 0, 0, -1, -19.628, 31.744)"/>
<path fill-rule="nonzero" fill="rgb(100%, 100%, 100%)" fill-opacity="1" stroke-width="0.32169" stroke-linecap="butt" stroke-linejoin="miter" stroke="rgb(0%, 0%, 0%)" stroke-opacity="1" stroke-miterlimit="10" d="M 140.717844 13.888531 C 140.717844 14.896344 139.901437 15.708844 138.897531 15.708844 C 137.893625 15.708844 137.077219 14.896344 137.077219 13.888531 C 137.077219 12.884625 137.893625 12.068219 138.897531 12.068219 C 139.901437 12.068219 140.717844 12.884625 140.717844 13.888531 Z M 140.717844 13.888531 " transform="matrix(1, 0, 0, -1, -19.628, 31.744)"/>
<path fill="none" stroke-width="2.14474" stroke-linecap="butt" stroke-linejoin="miter" stroke="rgb(0%, 0%, 100%)" stroke-opacity="1" stroke-miterlimit="10" d="M 138.897531 13.888531 L 138.897531 29.763531 " transform="matrix(1, 0, 0, -1, -19.628, 31.744)"/>
<path fill-rule="nonzero" fill="rgb(100%, 100%, 100%)" fill-opacity="1" stroke-width="0.32169" stroke-linecap="butt" stroke-linejoin="miter" stroke="rgb(0%, 0%, 0%)" stroke-opacity="1" stroke-miterlimit="10" d="M 140.717844 13.888531 C 140.717844 14.896344 139.905344 15.708844 138.897531 15.708844 C 137.893625 15.708844 137.077219 14.896344 137.077219 13.888531 C 137.077219 12.884625 137.893625 12.068219 138.897531 12.068219 C 139.905344 12.068219 140.717844 12.884625 140.717844 13.888531 Z M 140.717844 13.888531 " transform="matrix(1, 0, 0, -1, -19.628, 31.744)"/>
<path fill-rule="nonzero" fill="rgb(100%, 100%, 100%)" fill-opacity="1" stroke-width="0.32169" stroke-linecap="butt" stroke-linejoin="miter" stroke="rgb(0%, 0%, 0%)" stroke-opacity="1" stroke-miterlimit="10" d="M 140.717844 29.763531 C 140.717844 30.767437 139.905344 31.583844 138.897531 31.583844 C 137.893625 31.583844 137.077219 30.767437 137.077219 29.763531 C 137.077219 28.759625 137.893625 27.943219 138.897531 27.943219 C 139.905344 27.943219 140.717844 28.759625 140.717844 29.763531 Z M 140.717844 29.763531 " transform="matrix(1, 0, 0, -1, -19.628, 31.744)"/>
<path fill="none" stroke-width="2.14474" stroke-linecap="butt" stroke-linejoin="miter" stroke="rgb(100%, 0%, 0%)" stroke-opacity="1" stroke-miterlimit="10" d="M 123.026438 29.763531 L 138.897531 29.763531 " transform="matrix(1, 0, 0, -1, -19.628, 31.744)"/>
<path fill-rule="nonzero" fill="rgb(100%, 100%, 100%)" fill-opacity="1" stroke-width="0.32169" stroke-linecap="butt" stroke-linejoin="miter" stroke="rgb(0%, 0%, 0%)" stroke-opacity="1" stroke-miterlimit="10" d="M 124.842844 29.763531 C 124.842844 30.767437 124.030344 31.583844 123.026438 31.583844 C 122.018625 31.583844 121.206125 30.767437 121.206125 29.763531 C 121.206125 28.759625 122.018625 27.943219 123.026438 27.943219 C 124.030344 27.943219 124.842844 28.759625 124.842844 29.763531 Z M 124.842844 29.763531 " transform="matrix(1, 0, 0, -1, -19.628, 31.744)"/>
<path fill-rule="nonzero" fill="rgb(100%, 100%, 100%)" fill-opacity="1" stroke-width="0.32169" stroke-linecap="butt" stroke-linejoin="miter" stroke="rgb(0%, 0%, 0%)" stroke-opacity="1" stroke-miterlimit="10" d="M 140.717844 29.763531 C 140.717844 30.767437 139.905344 31.583844 138.897531 31.583844 C 137.893625 31.583844 137.077219 30.767437 137.077219 29.763531 C 137.077219 28.759625 137.893625 27.943219 138.897531 27.943219 C 139.905344 27.943219 140.717844 28.759625 140.717844 29.763531 Z M 140.717844 29.763531 " transform="matrix(1, 0, 0, -1, -19.628, 31.744)"/>
<path fill="none" stroke-width="0.42896" stroke-linecap="butt" stroke-linejoin="miter" stroke="rgb(50%, 50%, 50%)" stroke-opacity="1" stroke-miterlimit="10" d="M 133.936594 -49.607563 L 233.151437 -49.607563 " transform="matrix(1, 0, 0, -1, -19.628, 31.744)"/>
<path fill="none" stroke-width="2.14474" stroke-linecap="butt" stroke-linejoin="miter" stroke="rgb(100%, 0%, 0%)" stroke-opacity="1" stroke-miterlimit="10" d="M 153.780344 -49.607563 L 153.780344 -29.763813 " transform="matrix(1, 0, 0, -1, -19.628, 31.744)"/>
<path fill-rule="nonzero" fill="rgb(100%, 100%, 100%)" fill-opacity="1" stroke-width="0.32169" stroke-linecap="butt" stroke-linejoin="miter" stroke="rgb(0%, 0%, 0%)" stroke-opacity="1" stroke-miterlimit="10" d="M 155.600656 -49.607563 C 155.600656 -48.59975 154.78425 -47.78725 153.780344 -47.78725 C 152.776437 -47.78725 151.960031 -48.59975 151.960031 -49.607563 C 151.960031 -50.611469 152.776437 -51.427875 153.780344 -51.427875 C 154.78425 -51.427875 155.600656 -50.611469 155.600656 -49.607563 Z M 155.600656 -49.607563 " transform="matrix(1, 0, 0, -1, -19.628, 31.744)"/>
<path fill-rule="nonzero" fill="rgb(100%, 100%, 100%)" fill-opacity="1" stroke-width="0.32169" stroke-linecap="butt" stroke-linejoin="miter" stroke="rgb(0%, 0%, 0%)" stroke-opacity="1" stroke-miterlimit="10" d="M 155.600656 -29.763813 C 155.600656 -28.759906 154.78425 -27.9435 153.780344 -27.9435 C 152.776437 -27.9435 151.960031 -28.759906 151.960031 -29.763813 C 151.960031 -30.767719 152.776437 -31.584125 153.780344 -31.584125 C 154.78425 -31.584125 155.600656 -30.767719 155.600656 -29.763813 Z M 155.600656 -29.763813 " transform="matrix(1, 0, 0, -1, -19.628, 31.744)"/>
<path fill="none" stroke-width="2.14474" stroke-linecap="butt" stroke-linejoin="miter" stroke="rgb(0%, 0%, 100%)" stroke-opacity="1" stroke-miterlimit="10" d="M 153.780344 -29.763813 L 153.780344 -9.920063 " transform="matrix(1, 0, 0, -1, -19.628, 31.744)"/>
<path fill-rule="nonzero" fill="rgb(100%, 100%, 100%)" fill-opacity="1" stroke-width="0.32169" stroke-linecap="butt" stroke-linejoin="miter" stroke="rgb(0%, 0%, 0%)" stroke-opacity="1" stroke-miterlimit="10" d="M 155.600656 -29.763813 C 155.600656 -28.759906 154.78425 -27.9435 153.780344 -27.9435 C 152.776437 -27.9435 151.960031 -28.759906 151.960031 -29.763813 C 151.960031 -30.767719 152.776437 -31.584125 153.780344 -31.584125 C 154.78425 -31.584125 155.600656 -30.767719 155.600656 -29.763813 Z M 155.600656 -29.763813 " transform="matrix(1, 0, 0, -1, -19.628, 31.744)"/>
<path fill-rule="nonzero" fill="rgb(100%, 100%, 100%)" fill-opacity="1" stroke-width="0.32169" stroke-linecap="butt" stroke-linejoin="miter" stroke="rgb(0%, 0%, 0%)" stroke-opacity="1" stroke-miterlimit="10" d="M 155.600656 -9.920063 C 155.600656 -8.916156 154.78425 -8.09975 153.780344 -8.09975 C 152.776437 -8.09975 151.960031 -8.916156 151.960031 -9.920063 C 151.960031 -10.927875 152.776437 -11.740375 153.780344 -11.740375 C 154.78425 -11.740375 155.600656 -10.927875 155.600656 -9.920063 Z M 155.600656 -9.920063 " transform="matrix(1, 0, 0, -1, -19.628, 31.744)"/>
<path fill="none" stroke-width="2.14474" stroke-linecap="butt" stroke-linejoin="miter" stroke="rgb(0%, 0%, 100%)" stroke-opacity="1" stroke-miterlimit="10" d="M 213.307687 -49.607563 L 213.307687 -29.763813 " transform="matrix(1, 0, 0, -1, -19.628, 31.744)"/>
<path fill-rule="nonzero" fill="rgb(100%, 100%, 100%)" fill-opacity="1" stroke-width="0.32169" stroke-linecap="butt" stroke-linejoin="miter" stroke="rgb(0%, 0%, 0%)" stroke-opacity="1" stroke-miterlimit="10" d="M 215.128 -49.607563 C 215.128 -48.59975 214.3155 -47.78725 213.307687 -47.78725 C 212.303781 -47.78725 211.487375 -48.59975 211.487375 -49.607563 C 211.487375 -50.611469 212.303781 -51.427875 213.307687 -51.427875 C 214.3155 -51.427875 215.128 -50.611469 215.128 -49.607563 Z M 215.128 -49.607563 " transform="matrix(1, 0, 0, -1, -19.628, 31.744)"/>
<path fill-rule="nonzero" fill="rgb(100%, 100%, 100%)" fill-opacity="1" stroke-width="0.32169" stroke-linecap="butt" stroke-linejoin="miter" stroke="rgb(0%, 0%, 0%)" stroke-opacity="1" stroke-miterlimit="10" d="M 215.128 -29.763813 C 215.128 -28.759906 214.3155 -27.9435 213.307687 -27.9435 C 212.303781 -27.9435 211.487375 -28.759906 211.487375 -29.763813 C 211.487375 -30.767719 212.303781 -31.584125 213.307687 -31.584125 C 214.3155 -31.584125 215.128 -30.767719 215.128 -29.763813 Z M 215.128 -29.763813 " transform="matrix(1, 0, 0, -1, -19.628, 31.744)"/>
<path fill="none" stroke-width="2.14474" stroke-linecap="butt" stroke-linejoin="miter" stroke="rgb(100%, 0%, 0%)" stroke-opacity="1" stroke-miterlimit="10" d="M 213.307687 -29.763813 L 213.307687 -9.920063 " transform="matrix(1, 0, 0, -1, -19.628, 31.744)"/>
<path fill-rule="nonzero" fill="rgb(100%, 100%, 100%)" fill-opacity="1" stroke-width="0.32169" stroke-linecap="butt" stroke-linejoin="miter" stroke="rgb(0%, 0%, 0%)" stroke-opacity="1" stroke-miterlimit="10" d="M 215.128 -29.763813 C 215.128 -28.759906 214.3155 -27.9435 213.307687 -27.9435 C 212.303781 -27.9435 211.487375 -28.759906 211.487375 -29.763813 C 211.487375 -30.767719 212.303781 -31.584125 213.307687 -31.584125 C 214.3155 -31.584125 215.128 -30.767719 215.128 -29.763813 Z M 215.128 -29.763813 " transform="matrix(1, 0, 0, -1, -19.628, 31.744)"/>
<path fill-rule="nonzero" fill="rgb(100%, 100%, 100%)" fill-opacity="1" stroke-width="0.32169" stroke-linecap="butt" stroke-linejoin="miter" stroke="rgb(0%, 0%, 0%)" stroke-opacity="1" stroke-miterlimit="10" d="M 215.128 -9.920063 C 215.128 -8.916156 214.3155 -8.09975 213.307687 -8.09975 C 212.303781 -8.09975 211.487375 -8.916156 211.487375 -9.920063 C 211.487375 -10.927875 212.303781 -11.740375 213.307687 -11.740375 C 214.3155 -11.740375 215.128 -10.927875 215.128 -9.920063 Z M 215.128 -9.920063 " transform="matrix(1, 0, 0, -1, -19.628, 31.744)"/>
<path fill="none" stroke-width="2.14474" stroke-linecap="butt" stroke-linejoin="miter" stroke="rgb(0%, 0%, 100%)" stroke-opacity="1" stroke-miterlimit="10" d="M 153.780344 -9.920063 L 183.545969 9.919781 " transform="matrix(1, 0, 0, -1, -19.628, 31.744)"/>
<path fill-rule="nonzero" fill="rgb(100%, 100%, 100%)" fill-opacity="1" stroke-width="0.32169" stroke-linecap="butt" stroke-linejoin="miter" stroke="rgb(0%, 0%, 0%)" stroke-opacity="1" stroke-miterlimit="10" d="M 155.600656 -9.920063 C 155.600656 -8.916156 154.78425 -8.09975 153.780344 -8.09975 C 152.776437 -8.09975 151.960031 -8.916156 151.960031 -9.920063 C 151.960031 -10.927875 152.776437 -11.740375 153.780344 -11.740375 C 154.78425 -11.740375 155.600656 -10.927875 155.600656 -9.920063 Z M 155.600656 -9.920063 " transform="matrix(1, 0, 0, -1, -19.628, 31.744)"/>
<path fill-rule="nonzero" fill="rgb(100%, 100%, 100%)" fill-opacity="1" stroke-width="0.32169" stroke-linecap="butt" stroke-linejoin="miter" stroke="rgb(0%, 0%, 0%)" stroke-opacity="1" stroke-miterlimit="10" d="M 185.342844 9.908062 C 185.342844 10.911969 184.530344 11.728375 183.522531 11.728375 C 182.518625 11.728375 181.706125 10.911969 181.706125 9.908062 C 181.706125 8.904156 182.518625 8.08775 183.522531 8.08775 C 184.530344 8.08775 185.342844 8.904156 185.342844 9.908062 Z M 185.342844 9.908062 " transform="matrix(1, 0, 0, -1, -19.628, 31.744)"/>
<path fill="none" stroke-width="2.14474" stroke-linecap="butt" stroke-linejoin="miter" stroke="rgb(100%, 0%, 0%)" stroke-opacity="1" stroke-miterlimit="10" d="M 183.545969 9.919781 L 213.307687 -9.920063 " transform="matrix(1, 0, 0, -1, -19.628, 31.744)"/>
<path fill-rule="nonzero" fill="rgb(100%, 100%, 100%)" fill-opacity="1" stroke-width="0.32169" stroke-linecap="butt" stroke-linejoin="miter" stroke="rgb(0%, 0%, 0%)" stroke-opacity="1" stroke-miterlimit="10" d="M 185.366281 9.919781 C 185.366281 10.927594 184.549875 11.740094 183.545969 11.740094 C 182.538156 11.740094 181.725656 10.927594 181.725656 9.919781 C 181.725656 8.915875 182.538156 8.103375 183.545969 8.103375 C 184.549875 8.103375 185.366281 8.915875 185.366281 9.919781 Z M 185.366281 9.919781 " transform="matrix(1, 0, 0, -1, -19.628, 31.744)"/>
<path fill-rule="nonzero" fill="rgb(100%, 100%, 100%)" fill-opacity="1" stroke-width="0.32169" stroke-linecap="butt" stroke-linejoin="miter" stroke="rgb(0%, 0%, 0%)" stroke-opacity="1" stroke-miterlimit="10" d="M 215.108469 -9.908344 C 215.108469 -8.900531 214.292062 -8.088031 213.288156 -8.088031 C 212.28425 -8.088031 211.467844 -8.900531 211.467844 -9.908344 C 211.467844 -10.91225 212.28425 -11.728656 213.288156 -11.728656 C 214.292062 -11.728656 215.108469 -10.91225 215.108469 -9.908344 Z M 215.108469 -9.908344 " transform="matrix(1, 0, 0, -1, -19.628, 31.744)"/>
<path fill="none" stroke-width="2.14474" stroke-linecap="butt" stroke-linejoin="miter" stroke="rgb(100%, 0%, 0%)" stroke-opacity="1" stroke-miterlimit="10" d="M 153.780344 -9.920063 L 173.624094 -9.920063 " transform="matrix(1, 0, 0, -1, -19.628, 31.744)"/>
<path fill-rule="nonzero" fill="rgb(100%, 100%, 100%)" fill-opacity="1" stroke-width="0.32169" stroke-linecap="butt" stroke-linejoin="miter" stroke="rgb(0%, 0%, 0%)" stroke-opacity="1" stroke-miterlimit="10" d="M 155.600656 -9.920063 C 155.600656 -8.916156 154.78425 -8.09975 153.780344 -8.09975 C 152.776437 -8.09975 151.960031 -8.916156 151.960031 -9.920063 C 151.960031 -10.927875 152.776437 -11.740375 153.780344 -11.740375 C 154.78425 -11.740375 155.600656 -10.927875 155.600656 -9.920063 Z M 155.600656 -9.920063 " transform="matrix(1, 0, 0, -1, -19.628, 31.744)"/>
<path fill-rule="nonzero" fill="rgb(100%, 100%, 100%)" fill-opacity="1" stroke-width="0.32169" stroke-linecap="butt" stroke-linejoin="miter" stroke="rgb(0%, 0%, 0%)" stroke-opacity="1" stroke-miterlimit="10" d="M 175.444406 -9.920063 C 175.444406 -8.916156 174.628 -8.09975 173.624094 -8.09975 C 172.620187 -8.09975 171.803781 -8.916156 171.803781 -9.920063 C 171.803781 -10.927875 172.620187 -11.740375 173.624094 -11.740375 C 174.628 -11.740375 175.444406 -10.927875 175.444406 -9.920063 Z M 175.444406 -9.920063 " transform="matrix(1, 0, 0, -1, -19.628, 31.744)"/>
<path fill="none" stroke-width="2.14474" stroke-linecap="butt" stroke-linejoin="miter" stroke="rgb(0%, 0%, 100%)" stroke-opacity="1" stroke-miterlimit="10" d="M 173.624094 -9.920063 L 213.307687 -9.920063 " transform="matrix(1, 0, 0, -1, -19.628, 31.744)"/>
<path fill-rule="nonzero" fill="rgb(100%, 100%, 100%)" fill-opacity="1" stroke-width="0.32169" stroke-linecap="butt" stroke-linejoin="miter" stroke="rgb(0%, 0%, 0%)" stroke-opacity="1" stroke-miterlimit="10" d="M 175.444406 -9.920063 C 175.444406 -8.916156 174.628 -8.09975 173.624094 -8.09975 C 172.620187 -8.09975 171.803781 -8.916156 171.803781 -9.920063 C 171.803781 -10.927875 172.620187 -11.740375 173.624094 -11.740375 C 174.628 -11.740375 175.444406 -10.927875 175.444406 -9.920063 Z M 175.444406 -9.920063 " transform="matrix(1, 0, 0, -1, -19.628, 31.744)"/>
<path fill-rule="nonzero" fill="rgb(100%, 100%, 100%)" fill-opacity="1" stroke-width="0.32169" stroke-linecap="butt" stroke-linejoin="miter" stroke="rgb(0%, 0%, 0%)" stroke-opacity="1" stroke-miterlimit="10" d="M 215.128 -9.920063 C 215.128 -8.916156 214.3155 -8.09975 213.307687 -8.09975 C 212.303781 -8.09975 211.487375 -8.916156 211.487375 -9.920063 C 211.487375 -10.927875 212.303781 -11.740375 213.307687 -11.740375 C 214.3155 -11.740375 215.128 -10.927875 215.128 -9.920063 Z M 215.128 -9.920063 " transform="matrix(1, 0, 0, -1, -19.628, 31.744)"/>
<path fill="none" stroke-width="2.14474" stroke-linecap="butt" stroke-linejoin="miter" stroke="rgb(100%, 0%, 0%)" stroke-opacity="1" stroke-miterlimit="10" d="M 193.467844 -49.607563 L 193.467844 -29.763813 " transform="matrix(1, 0, 0, -1, -19.628, 31.744)"/>
<path fill-rule="nonzero" fill="rgb(100%, 100%, 100%)" fill-opacity="1" stroke-width="0.32169" stroke-linecap="butt" stroke-linejoin="miter" stroke="rgb(0%, 0%, 0%)" stroke-opacity="1" stroke-miterlimit="10" d="M 195.28425 -49.607563 C 195.28425 -48.59975 194.47175 -47.78725 193.467844 -47.78725 C 192.460031 -47.78725 191.647531 -48.59975 191.647531 -49.607563 C 191.647531 -50.611469 192.460031 -51.427875 193.467844 -51.427875 C 194.47175 -51.427875 195.28425 -50.611469 195.28425 -49.607563 Z M 195.28425 -49.607563 " transform="matrix(1, 0, 0, -1, -19.628, 31.744)"/>
<path fill-rule="nonzero" fill="rgb(100%, 100%, 100%)" fill-opacity="1" stroke-width="0.32169" stroke-linecap="butt" stroke-linejoin="miter" stroke="rgb(0%, 0%, 0%)" stroke-opacity="1" stroke-miterlimit="10" d="M 195.28425 -29.763813 C 195.28425 -28.759906 194.47175 -27.9435 193.467844 -27.9435 C 192.460031 -27.9435 191.647531 -28.759906 191.647531 -29.763813 C 191.647531 -30.767719 192.460031 -31.584125 193.467844 -31.584125 C 194.47175 -31.584125 195.28425 -30.767719 195.28425 -29.763813 Z M 195.28425 -29.763813 " transform="matrix(1, 0, 0, -1, -19.628, 31.744)"/>
<path fill="none" stroke-width="2.14474" stroke-linecap="butt" stroke-linejoin="miter" stroke="rgb(0%, 0%, 100%)" stroke-opacity="1" stroke-miterlimit="10" d="M 193.467844 -29.763813 L 213.307687 -29.763813 " transform="matrix(1, 0, 0, -1, -19.628, 31.744)"/>
<path fill-rule="nonzero" fill="rgb(100%, 100%, 100%)" fill-opacity="1" stroke-width="0.32169" stroke-linecap="butt" stroke-linejoin="miter" stroke="rgb(0%, 0%, 0%)" stroke-opacity="1" stroke-miterlimit="10" d="M 195.28425 -29.763813 C 195.28425 -28.759906 194.47175 -27.9435 193.467844 -27.9435 C 192.460031 -27.9435 191.647531 -28.759906 191.647531 -29.763813 C 191.647531 -30.767719 192.460031 -31.584125 193.467844 -31.584125 C 194.47175 -31.584125 195.28425 -30.767719 195.28425 -29.763813 Z M 195.28425 -29.763813 " transform="matrix(1, 0, 0, -1, -19.628, 31.744)"/>
<path fill-rule="nonzero" fill="rgb(100%, 100%, 100%)" fill-opacity="1" stroke-width="0.32169" stroke-linecap="butt" stroke-linejoin="miter" stroke="rgb(0%, 0%, 0%)" stroke-opacity="1" stroke-miterlimit="10" d="M 215.128 -29.763813 C 215.128 -28.759906 214.3155 -27.9435 213.307687 -27.9435 C 212.303781 -27.9435 211.487375 -28.759906 211.487375 -29.763813 C 211.487375 -30.767719 212.303781 -31.584125 213.307687 -31.584125 C 214.3155 -31.584125 215.128 -30.767719 215.128 -29.763813 Z M 215.128 -29.763813 " transform="matrix(1, 0, 0, -1, -19.628, 31.744)"/>
<path fill="none" stroke-width="2.14474" stroke-linecap="butt" stroke-linejoin="miter" stroke="rgb(0%, 0%, 100%)" stroke-opacity="1" stroke-miterlimit="10" d="M 173.624094 -9.920063 L 173.624094 -29.763813 " transform="matrix(1, 0, 0, -1, -19.628, 31.744)"/>
<path fill-rule="nonzero" fill="rgb(100%, 100%, 100%)" fill-opacity="1" stroke-width="0.32169" stroke-linecap="butt" stroke-linejoin="miter" stroke="rgb(0%, 0%, 0%)" stroke-opacity="1" stroke-miterlimit="10" d="M 175.444406 -9.920063 C 175.444406 -8.916156 174.628 -8.09975 173.624094 -8.09975 C 172.620187 -8.09975 171.803781 -8.916156 171.803781 -9.920063 C 171.803781 -10.927875 172.620187 -11.740375 173.624094 -11.740375 C 174.628 -11.740375 175.444406 -10.927875 175.444406 -9.920063 Z M 175.444406 -9.920063 " transform="matrix(1, 0, 0, -1, -19.628, 31.744)"/>
<path fill-rule="nonzero" fill="rgb(100%, 100%, 100%)" fill-opacity="1" stroke-width="0.32169" stroke-linecap="butt" stroke-linejoin="miter" stroke="rgb(0%, 0%, 0%)" stroke-opacity="1" stroke-miterlimit="10" d="M 175.444406 -29.763813 C 175.444406 -28.759906 174.628 -27.9435 173.624094 -27.9435 C 172.620187 -27.9435 171.803781 -28.759906 171.803781 -29.763813 C 171.803781 -30.767719 172.620187 -31.584125 173.624094 -31.584125 C 174.628 -31.584125 175.444406 -30.767719 175.444406 -29.763813 Z M 175.444406 -29.763813 " transform="matrix(1, 0, 0, -1, -19.628, 31.744)"/>
<path fill="none" stroke-width="2.14474" stroke-linecap="butt" stroke-linejoin="miter" stroke="rgb(100%, 0%, 0%)" stroke-opacity="1" stroke-miterlimit="10" d="M 173.624094 -29.763813 L 153.780344 -29.763813 " transform="matrix(1, 0, 0, -1, -19.628, 31.744)"/>
<path fill-rule="nonzero" fill="rgb(100%, 100%, 100%)" fill-opacity="1" stroke-width="0.32169" stroke-linecap="butt" stroke-linejoin="miter" stroke="rgb(0%, 0%, 0%)" stroke-opacity="1" stroke-miterlimit="10" d="M 175.444406 -29.763813 C 175.444406 -28.759906 174.628 -27.9435 173.624094 -27.9435 C 172.620187 -27.9435 171.803781 -28.759906 171.803781 -29.763813 C 171.803781 -30.767719 172.620187 -31.584125 173.624094 -31.584125 C 174.628 -31.584125 175.444406 -30.767719 175.444406 -29.763813 Z M 175.444406 -29.763813 " transform="matrix(1, 0, 0, -1, -19.628, 31.744)"/>
<path fill-rule="nonzero" fill="rgb(100%, 100%, 100%)" fill-opacity="1" stroke-width="0.32169" stroke-linecap="butt" stroke-linejoin="miter" stroke="rgb(0%, 0%, 0%)" stroke-opacity="1" stroke-miterlimit="10" d="M 155.600656 -29.763813 C 155.600656 -28.759906 154.78425 -27.9435 153.780344 -27.9435 C 152.776437 -27.9435 151.960031 -28.759906 151.960031 -29.763813 C 151.960031 -30.767719 152.776437 -31.584125 153.780344 -31.584125 C 154.78425 -31.584125 155.600656 -30.767719 155.600656 -29.763813 Z M 155.600656 -29.763813 " transform="matrix(1, 0, 0, -1, -19.628, 31.744)"/>
<path fill="none" stroke-width="0.42896" stroke-linecap="butt" stroke-linejoin="miter" stroke="rgb(50%, 50%, 50%)" stroke-opacity="1" stroke-miterlimit="10" d="M 243.073312 -29.763813 L 272.835031 -29.763813 " transform="matrix(1, 0, 0, -1, -19.628, 31.744)"/>
<path fill="none" stroke-width="2.14474" stroke-linecap="butt" stroke-linejoin="miter" stroke="rgb(0%, 0%, 100%)" stroke-opacity="1" stroke-miterlimit="10" d="M 257.956125 -29.763813 L 257.956125 -9.920063 " transform="matrix(1, 0, 0, -1, -19.628, 31.744)"/>
<path fill-rule="nonzero" fill="rgb(100%, 100%, 100%)" fill-opacity="1" stroke-width="0.32169" stroke-linecap="butt" stroke-linejoin="miter" stroke="rgb(0%, 0%, 0%)" stroke-opacity="1" stroke-miterlimit="10" d="M 259.772531 -29.763813 C 259.772531 -28.759906 258.960031 -27.9435 257.956125 -27.9435 C 256.948312 -27.9435 256.135812 -28.759906 256.135812 -29.763813 C 256.135812 -30.767719 256.948312 -31.584125 257.956125 -31.584125 C 258.960031 -31.584125 259.772531 -30.767719 259.772531 -29.763813 Z M 259.772531 -29.763813 " transform="matrix(1, 0, 0, -1, -19.628, 31.744)"/>
<path fill-rule="nonzero" fill="rgb(100%, 100%, 100%)" fill-opacity="1" stroke-width="0.32169" stroke-linecap="butt" stroke-linejoin="miter" stroke="rgb(0%, 0%, 0%)" stroke-opacity="1" stroke-miterlimit="10" d="M 259.772531 -9.920063 C 259.772531 -8.916156 258.960031 -8.09975 257.956125 -8.09975 C 256.948312 -8.09975 256.135812 -8.916156 256.135812 -9.920063 C 256.135812 -10.927875 256.948312 -11.740375 257.956125 -11.740375 C 258.960031 -11.740375 259.772531 -10.927875 259.772531 -9.920063 Z M 259.772531 -9.920063 " transform="matrix(1, 0, 0, -1, -19.628, 31.744)"/>
<path fill="none" stroke-width="2.14474" stroke-linecap="butt" stroke-linejoin="miter" stroke="rgb(100%, 0%, 0%)" stroke-opacity="1" stroke-miterlimit="10" d="M 257.956125 -9.920063 L 257.956125 9.919781 " transform="matrix(1, 0, 0, -1, -19.628, 31.744)"/>
<path fill-rule="nonzero" fill="rgb(100%, 100%, 100%)" fill-opacity="1" stroke-width="0.32169" stroke-linecap="butt" stroke-linejoin="miter" stroke="rgb(0%, 0%, 0%)" stroke-opacity="1" stroke-miterlimit="10" d="M 259.772531 -9.920063 C 259.772531 -8.916156 258.960031 -8.09975 257.956125 -8.09975 C 256.948312 -8.09975 256.135812 -8.916156 256.135812 -9.920063 C 256.135812 -10.927875 256.948312 -11.740375 257.956125 -11.740375 C 258.960031 -11.740375 259.772531 -10.927875 259.772531 -9.920063 Z M 259.772531 -9.920063 " transform="matrix(1, 0, 0, -1, -19.628, 31.744)"/>
<path fill-rule="nonzero" fill="rgb(100%, 100%, 100%)" fill-opacity="1" stroke-width="0.32169" stroke-linecap="butt" stroke-linejoin="miter" stroke="rgb(0%, 0%, 0%)" stroke-opacity="1" stroke-miterlimit="10" d="M 259.772531 9.919781 C 259.772531 10.927594 258.960031 11.740094 257.956125 11.740094 C 256.948312 11.740094 256.135812 10.927594 256.135812 9.919781 C 256.135812 8.915875 256.948312 8.103375 257.956125 8.103375 C 258.960031 8.103375 259.772531 8.915875 259.772531 9.919781 Z M 259.772531 9.919781 " transform="matrix(1, 0, 0, -1, -19.628, 31.744)"/>
<path fill="none" stroke-width="2.14474" stroke-linecap="butt" stroke-linejoin="miter" stroke="rgb(0%, 0%, 100%)" stroke-opacity="1" stroke-miterlimit="10" d="M 257.956125 9.919781 L 257.956125 29.763531 " transform="matrix(1, 0, 0, -1, -19.628, 31.744)"/>
<path fill-rule="nonzero" fill="rgb(100%, 100%, 100%)" fill-opacity="1" stroke-width="0.32169" stroke-linecap="butt" stroke-linejoin="miter" stroke="rgb(0%, 0%, 0%)" stroke-opacity="1" stroke-miterlimit="10" d="M 259.772531 9.919781 C 259.772531 10.927594 258.960031 11.740094 257.956125 11.740094 C 256.948312 11.740094 256.135812 10.927594 256.135812 9.919781 C 256.135812 8.915875 256.948312 8.103375 257.956125 8.103375 C 258.960031 8.103375 259.772531 8.915875 259.772531 9.919781 Z M 259.772531 9.919781 " transform="matrix(1, 0, 0, -1, -19.628, 31.744)"/>
<path fill-rule="nonzero" fill="rgb(100%, 100%, 100%)" fill-opacity="1" stroke-width="0.32169" stroke-linecap="butt" stroke-linejoin="miter" stroke="rgb(0%, 0%, 0%)" stroke-opacity="1" stroke-miterlimit="10" d="M 259.772531 29.763531 C 259.772531 30.767437 258.960031 31.583844 257.956125 31.583844 C 256.948312 31.583844 256.135812 30.767437 256.135812 29.763531 C 256.135812 28.759625 256.948312 27.943219 257.956125 27.943219 C 258.960031 27.943219 259.772531 28.759625 259.772531 29.763531 Z M 259.772531 29.763531 " transform="matrix(1, 0, 0, -1, -19.628, 31.744)"/>
<path fill="none" stroke-width="2.14474" stroke-linecap="butt" stroke-linejoin="miter" stroke="rgb(100%, 0%, 0%)" stroke-opacity="1" stroke-miterlimit="10" d="M 257.956125 -9.920063 L 243.073312 -4.959125 " transform="matrix(1, 0, 0, -1, -19.628, 31.744)"/>
<path fill-rule="nonzero" fill="rgb(100%, 100%, 100%)" fill-opacity="1" stroke-width="0.32169" stroke-linecap="butt" stroke-linejoin="miter" stroke="rgb(0%, 0%, 0%)" stroke-opacity="1" stroke-miterlimit="10" d="M 259.772531 -9.920063 C 259.772531 -8.916156 258.960031 -8.09975 257.956125 -8.09975 C 256.948312 -8.09975 256.135812 -8.916156 256.135812 -9.920063 C 256.135812 -10.927875 256.948312 -11.740375 257.956125 -11.740375 C 258.960031 -11.740375 259.772531 -10.927875 259.772531 -9.920063 Z M 259.772531 -9.920063 " transform="matrix(1, 0, 0, -1, -19.628, 31.744)"/>
<path fill-rule="nonzero" fill="rgb(100%, 100%, 100%)" fill-opacity="1" stroke-width="0.32169" stroke-linecap="butt" stroke-linejoin="miter" stroke="rgb(0%, 0%, 0%)" stroke-opacity="1" stroke-miterlimit="10" d="M 244.893625 -4.963031 C 244.893625 -3.955219 244.081125 -3.142719 243.073312 -3.142719 C 242.069406 -3.142719 241.253 -3.955219 241.253 -4.963031 C 241.253 -5.966938 242.069406 -6.779438 243.073312 -6.779438 C 244.081125 -6.779438 244.893625 -5.966938 244.893625 -4.963031 Z M 244.893625 -4.963031 " transform="matrix(1, 0, 0, -1, -19.628, 31.744)"/>
<path fill="none" stroke-width="2.14474" stroke-linecap="butt" stroke-linejoin="miter" stroke="rgb(0%, 0%, 100%)" stroke-opacity="1" stroke-miterlimit="10" d="M 243.073312 -4.959125 L 228.1905 -4.959125 " transform="matrix(1, 0, 0, -1, -19.628, 31.744)"/>
<path fill-rule="nonzero" fill="rgb(100%, 100%, 100%)" fill-opacity="1" stroke-width="0.32169" stroke-linecap="butt" stroke-linejoin="miter" stroke="rgb(0%, 0%, 0%)" stroke-opacity="1" stroke-miterlimit="10" d="M 244.893625 -4.959125 C 244.893625 -3.955219 244.077219 -3.142719 243.073312 -3.142719 C 242.069406 -3.142719 241.253 -3.955219 241.253 -4.959125 C 241.253 -5.966938 242.069406 -6.779438 243.073312 -6.779438 C 244.077219 -6.779438 244.893625 -5.966938 244.893625 -4.959125 Z M 244.893625 -4.959125 " transform="matrix(1, 0, 0, -1, -19.628, 31.744)"/>
<path fill-rule="nonzero" fill="rgb(100%, 100%, 100%)" fill-opacity="1" stroke-width="0.32169" stroke-linecap="butt" stroke-linejoin="miter" stroke="rgb(0%, 0%, 0%)" stroke-opacity="1" stroke-miterlimit="10" d="M 230.010812 -4.959125 C 230.010812 -3.955219 229.194406 -3.142719 228.1905 -3.142719 C 227.186594 -3.142719 226.370187 -3.955219 226.370187 -4.959125 C 226.370187 -5.966938 227.186594 -6.779438 228.1905 -6.779438 C 229.194406 -6.779438 230.010812 -5.966938 230.010812 -4.959125 Z M 230.010812 -4.959125 " transform="matrix(1, 0, 0, -1, -19.628, 31.744)"/>
<path fill="none" stroke-width="2.14474" stroke-linecap="butt" stroke-linejoin="miter" stroke="rgb(100%, 0%, 0%)" stroke-opacity="1" stroke-miterlimit="10" d="M 243.073312 -4.959125 L 235.631906 4.958844 " transform="matrix(1, 0, 0, -1, -19.628, 31.744)"/>
<path fill-rule="nonzero" fill="rgb(100%, 100%, 100%)" fill-opacity="1" stroke-width="0.32169" stroke-linecap="butt" stroke-linejoin="miter" stroke="rgb(0%, 0%, 0%)" stroke-opacity="1" stroke-miterlimit="10" d="M 244.893625 -4.959125 C 244.893625 -3.955219 244.077219 -3.142719 243.073312 -3.142719 C 242.069406 -3.142719 241.253 -3.955219 241.253 -4.959125 C 241.253 -5.966938 242.069406 -6.779438 243.073312 -6.779438 C 244.077219 -6.779438 244.893625 -5.966938 244.893625 -4.959125 Z M 244.893625 -4.959125 " transform="matrix(1, 0, 0, -1, -19.628, 31.744)"/>
<path fill-rule="nonzero" fill="rgb(100%, 100%, 100%)" fill-opacity="1" stroke-width="0.32169" stroke-linecap="butt" stroke-linejoin="miter" stroke="rgb(0%, 0%, 0%)" stroke-opacity="1" stroke-miterlimit="10" d="M 237.452219 4.958844 C 237.452219 5.966656 236.635812 6.779156 235.631906 6.779156 C 234.628 6.779156 233.811594 5.966656 233.811594 4.958844 C 233.811594 3.954937 234.628 3.138531 235.631906 3.138531 C 236.635812 3.138531 237.452219 3.954937 237.452219 4.958844 Z M 237.452219 4.958844 " transform="matrix(1, 0, 0, -1, -19.628, 31.744)"/>
<g clip-path="url(#clip-6)">
<path fill="none" stroke-width="2.14474" stroke-linecap="butt" stroke-linejoin="miter" stroke="rgb(0%, 0%, 100%)" stroke-opacity="1" stroke-miterlimit="10" d="M 257.956125 9.919781 L 272.835031 14.880719 " transform="matrix(1, 0, 0, -1, -19.628, 31.744)"/>
</g>
<path fill-rule="nonzero" fill="rgb(100%, 100%, 100%)" fill-opacity="1" stroke-width="0.32169" stroke-linecap="butt" stroke-linejoin="miter" stroke="rgb(0%, 0%, 0%)" stroke-opacity="1" stroke-miterlimit="10" d="M 259.772531 9.919781 C 259.772531 10.927594 258.960031 11.740094 257.956125 11.740094 C 256.948312 11.740094 256.135812 10.927594 256.135812 9.919781 C 256.135812 8.915875 256.948312 8.103375 257.956125 8.103375 C 258.960031 8.103375 259.772531 8.915875 259.772531 9.919781 Z M 259.772531 9.919781 " transform="matrix(1, 0, 0, -1, -19.628, 31.744)"/>
<path fill-rule="nonzero" fill="rgb(100%, 100%, 100%)" fill-opacity="1" stroke-width="0.32169" stroke-linecap="butt" stroke-linejoin="miter" stroke="rgb(0%, 0%, 0%)" stroke-opacity="1" stroke-miterlimit="10" d="M 274.655344 14.880719 C 274.655344 15.884625 273.838937 16.701031 272.835031 16.701031 C 271.831125 16.701031 271.014719 15.884625 271.014719 14.880719 C 271.014719 13.876812 271.831125 13.060406 272.835031 13.060406 C 273.838937 13.060406 274.655344 13.876812 274.655344 14.880719 Z M 274.655344 14.880719 " transform="matrix(1, 0, 0, -1, -19.628, 31.744)"/>
<path fill="none" stroke-width="2.14474" stroke-linecap="butt" stroke-linejoin="miter" stroke="rgb(100%, 0%, 0%)" stroke-opacity="1" stroke-miterlimit="10" d="M 272.835031 14.880719 L 287.717844 14.880719 " transform="matrix(1, 0, 0, -1, -19.628, 31.744)"/>
<path fill-rule="nonzero" fill="rgb(100%, 100%, 100%)" fill-opacity="1" stroke-width="0.32169" stroke-linecap="butt" stroke-linejoin="miter" stroke="rgb(0%, 0%, 0%)" stroke-opacity="1" stroke-miterlimit="10" d="M 274.655344 14.880719 C 274.655344 15.888531 273.842844 16.701031 272.835031 16.701031 C 271.831125 16.701031 271.014719 15.888531 271.014719 14.880719 C 271.014719 13.876812 271.831125 13.060406 272.835031 13.060406 C 273.842844 13.060406 274.655344 13.876812 274.655344 14.880719 Z M 274.655344 14.880719 " transform="matrix(1, 0, 0, -1, -19.628, 31.744)"/>
<path fill-rule="nonzero" fill="rgb(100%, 100%, 100%)" fill-opacity="1" d="M 269.910156 16.863281 C 269.910156 15.855469 269.09375 15.042969 268.089844 15.042969 C 267.085938 15.042969 266.269531 15.855469 266.269531 16.863281 C 266.269531 17.867188 267.085938 18.683594 268.089844 18.683594 C 269.09375 18.683594 269.910156 17.867188 269.910156 16.863281 Z M 269.910156 16.863281 "/>
<g clip-path="url(#clip-7)">
<path fill="none" stroke-width="0.32169" stroke-linecap="butt" stroke-linejoin="miter" stroke="rgb(0%, 0%, 0%)" stroke-opacity="1" stroke-miterlimit="10" d="M 289.538156 14.880719 C 289.538156 15.888531 288.72175 16.701031 287.717844 16.701031 C 286.713937 16.701031 285.897531 15.888531 285.897531 14.880719 C 285.897531 13.876812 286.713937 13.060406 287.717844 13.060406 C 288.72175 13.060406 289.538156 13.876812 289.538156 14.880719 Z M 289.538156 14.880719 " transform="matrix(1, 0, 0, -1, -19.628, 31.744)"/>
</g>
<g clip-path="url(#clip-8)">
<path fill="none" stroke-width="2.14474" stroke-linecap="butt" stroke-linejoin="miter" stroke="rgb(0%, 0%, 100%)" stroke-opacity="1" stroke-miterlimit="10" d="M 272.835031 14.880719 L 280.276437 24.802594 " transform="matrix(1, 0, 0, -1, -19.628, 31.744)"/>
</g>
<path fill-rule="nonzero" fill="rgb(100%, 100%, 100%)" fill-opacity="1" stroke-width="0.32169" stroke-linecap="butt" stroke-linejoin="miter" stroke="rgb(0%, 0%, 0%)" stroke-opacity="1" stroke-miterlimit="10" d="M 274.655344 14.880719 C 274.655344 15.888531 273.842844 16.701031 272.835031 16.701031 C 271.831125 16.701031 271.014719 15.888531 271.014719 14.880719 C 271.014719 13.876812 271.831125 13.060406 272.835031 13.060406 C 273.842844 13.060406 274.655344 13.876812 274.655344 14.880719 Z M 274.655344 14.880719 " transform="matrix(1, 0, 0, -1, -19.628, 31.744)"/>
<path fill-rule="nonzero" fill="rgb(100%, 100%, 100%)" fill-opacity="1" stroke-width="0.32169" stroke-linecap="butt" stroke-linejoin="miter" stroke="rgb(0%, 0%, 0%)" stroke-opacity="1" stroke-miterlimit="10" d="M 282.09675 24.802594 C 282.09675 25.8065 281.280344 26.622906 280.276437 26.622906 C 279.272531 26.622906 278.456125 25.8065 278.456125 24.802594 C 278.456125 23.798687 279.272531 22.982281 280.276437 22.982281 C 281.280344 22.982281 282.09675 23.798687 282.09675 24.802594 Z M 282.09675 24.802594 " transform="matrix(1, 0, 0, -1, -19.628, 31.744)"/>
</svg>
