<?xml version="1.0" encoding="UTF-8"?>
<svg xmlns="http://www.w3.org/2000/svg" xmlns:xlink="http://www.w3.org/1999/xlink" width="406" height="256" viewBox="0 0 406 256">
<defs>
<clipPath id="clip-0">
<path clip-rule="nonzero" d="M 0.332031 1 L 405.542969 1 L 405.542969 256 L 0.332031 256 Z M 0.332031 1 "/>
</clipPath>
<linearGradient id="linear-pattern-0" gradientUnits="userSpaceOnUse" x1="0" y1="0" x2="0" y2="255.118" gradientTransform="matrix(1, 0, 0, -1, 0.331, 256)">
<stop offset="0" stop-color="rgb(95.999146%, 95.999146%, 95.999146%)" stop-opacity="1"/>
<stop offset="0.0625" stop-color="rgb(96.124268%, 96.124268%, 96.124268%)" stop-opacity="1"/>
<stop offset="0.125" stop-color="rgb(96.374512%, 96.374512%, 96.374512%)" stop-opacity="1"/>
<stop offset="0.1875" stop-color="rgb(96.624756%, 96.624756%, 96.624756%)" stop-opacity="1"/>
<stop offset="0.25" stop-color="rgb(96.873474%, 96.873474%, 96.873474%)" stop-opacity="1"/>
<stop offset="0.3125" stop-color="rgb(97.123718%, 97.123718%, 97.123718%)" stop-opacity="1"/>
<stop offset="0.375" stop-color="rgb(97.373962%, 97.373962%, 97.373962%)" stop-opacity="1"/>
<stop offset="0.4375" stop-color="rgb(97.624207%, 97.624207%, 97.624207%)" stop-opacity="1"/>
<stop offset="0.5" stop-color="rgb(97.874451%, 97.874451%, 97.874451%)" stop-opacity="1"/>
<stop offset="0.5625" stop-color="rgb(98.124695%, 98.124695%, 98.124695%)" stop-opacity="1"/>
<stop offset="0.625" stop-color="rgb(98.373413%, 98.373413%, 98.373413%)" stop-opacity="1"/>
<stop offset="0.6875" stop-color="rgb(98.623657%, 98.623657%, 98.623657%)" stop-opacity="1"/>
<stop offset="0.75" stop-color="rgb(98.873901%, 98.873901%, 98.873901%)" stop-opacity="1"/>
<stop offset="0.8125" stop-color="rgb(99.124146%, 99.124146%, 99.124146%)" stop-opacity="1"/>
<stop offset="0.875" stop-color="rgb(99.37439%, 99.37439%, 99.37439%)" stop-opacity="1"/>
<stop offset="0.9375" stop-color="rgb(99.624634%, 99.624634%, 99.624634%)" stop-opacity="1"/>
<stop offset="1" stop-color="rgb(99.873352%, 99.873352%, 99.873352%)" stop-opacity="1"/>
</linearGradient>
<clipPath id="clip-1">
<path clip-rule="nonzero" d="M 40 0.882812 L 60 0.882812 L 60 21 L 40 21 Z M 40 0.882812 "/>
</clipPath>
<clipPath id="clip-2">
<path clip-rule="nonzero" d="M 108 0.882812 L 128 0.882812 L 128 21 L 108 21 Z M 108 0.882812 "/>
</clipPath>
</defs>
<g clip-path="url(#clip-0)">
<path fill-rule="nonzero" fill="url(#linear-pattern-0)" d="M 0.332031 256 L 0.332031 0.882812 L 405.542969 0.882812 L 405.542969 256 Z M 0.332031 256 "/>
</g>
<path fill-rule="nonzero" fill="rgb(100%, 0%, 0%)" fill-opacity="1" d="M 25.867188 56.167969 C 25.867188 50.683594 21.417969 46.234375 15.933594 46.234375 C 10.449219 46.234375 6 50.683594 6 56.167969 C 6 61.65625 10.449219 66.101562 15.933594 66.101562 C 21.417969 66.101562 25.867188 61.65625 25.867188 56.167969 Z M 25.867188 56.167969 "/>
<path fill-rule="nonzero" fill="rgb(0%, 0%, 100%)" fill-opacity="1" d="M 31.535156 22.152344 C 31.535156 16.667969 27.089844 12.21875 21.601562 12.21875 C 16.117188 12.21875 11.671875 16.667969 11.671875 22.152344 C 11.671875 27.636719 16.117188 32.085938 21.601562 32.085938 C 27.089844 32.085938 31.535156 27.636719 31.535156 22.152344 Z M 31.535156 22.152344 "/>
<path fill-rule="nonzero" fill="rgb(0%, 0%, 100%)" fill-opacity="1" d="M 65.550781 67.507812 C 65.550781 62.023438 61.105469 57.574219 55.621094 57.574219 C 50.132812 57.574219 45.6875 62.023438 45.6875 67.507812 C 45.6875 72.992188 50.132812 77.441406 55.621094 77.441406 C 61.105469 77.441406 65.550781 72.992188 65.550781 67.507812 Z M 65.550781 67.507812 "/>
<path fill-rule="nonzero" fill="rgb(0%, 0%, 100%)" fill-opacity="1" d="M 54.210938 41.996094 C 54.210938 36.507812 49.765625 32.0625 44.28125 32.0625 C 38.792969 32.0625 34.347656 36.507812 34.347656 41.996094 C 34.347656 47.480469 38.792969 51.929688 44.28125 51.929688 C 49.765625 51.929688 54.210938 47.480469 54.210938 41.996094 Z M 54.210938 41.996094 "/>
<g clip-path="url(#clip-1)">
<path fill-rule="nonzero" fill="rgb(100%, 0%, 0%)" fill-opacity="1" d="M 59.882812 10.8125 C 59.882812 5.328125 55.433594 0.882812 49.949219 0.882812 C 44.464844 0.882812 40.015625 5.328125 40.015625 10.8125 C 40.015625 16.300781 44.464844 20.746094 49.949219 20.746094 C 55.433594 20.746094 59.882812 16.300781 59.882812 10.8125 Z M 59.882812 10.8125 "/>
</g>
<path fill-rule="nonzero" fill="rgb(0%, 0%, 100%)" fill-opacity="1" d="M 93.898438 22.152344 C 93.898438 16.667969 89.453125 12.21875 83.964844 12.21875 C 78.480469 12.21875 74.035156 16.667969 74.035156 22.152344 C 74.035156 27.636719 78.480469 32.085938 83.964844 32.085938 C 89.453125 32.085938 93.898438 27.636719 93.898438 22.152344 Z M 93.898438 22.152344 "/>
<path fill-rule="nonzero" fill="rgb(100%, 0%, 0%)" fill-opacity="1" d="M 88.230469 50.5 C 88.230469 45.011719 83.78125 40.566406 78.296875 40.566406 C 72.8125 40.566406 68.363281 45.011719 68.363281 50.5 C 68.363281 55.984375 72.8125 60.429688 78.296875 60.429688 C 83.78125 60.429688 88.230469 55.984375 88.230469 50.5 Z M 88.230469 50.5 "/>
<path fill-rule="nonzero" fill="rgb(100%, 0%, 0%)" fill-opacity="1" d="M 116.574219 67.507812 C 116.574219 62.023438 112.128906 57.574219 106.644531 57.574219 C 101.15625 57.574219 96.710938 62.023438 96.710938 67.507812 C 96.710938 72.992188 101.15625 77.441406 106.644531 77.441406 C 112.128906 77.441406 116.574219 72.992188 116.574219 67.507812 Z M 116.574219 67.507812 "/>
<path fill-rule="nonzero" fill="rgb(0%, 0%, 100%)" fill-opacity="1" d="M 116.574219 39.160156 C 116.574219 33.675781 112.128906 29.226562 106.644531 29.226562 C 101.15625 29.226562 96.710938 33.675781 96.710938 39.160156 C 96.710938 44.644531 101.15625 49.09375 106.644531 49.09375 C 112.128906 49.09375 116.574219 44.644531 116.574219 39.160156 Z M 116.574219 39.160156 "/>
<g clip-path="url(#clip-2)">
<path fill-rule="nonzero" fill="rgb(100%, 0%, 0%)" fill-opacity="1" d="M 127.914062 10.8125 C 127.914062 5.328125 123.46875 0.882812 117.980469 0.882812 C 112.496094 0.882812 108.050781 5.328125 108.050781 10.8125 C 108.050781 16.300781 112.496094 20.746094 117.980469 20.746094 C 123.46875 20.746094 127.914062 16.300781 127.914062 10.8125 Z M 127.914062 10.8125 "/>
</g>
<path fill-rule="nonzero" fill="rgb(0%, 0%, 100%)" fill-opacity="1" d="M 144.921875 33.492188 C 144.921875 28.003906 140.476562 23.558594 134.988281 23.558594 C 129.503906 23.558594 125.058594 28.003906 125.058594 33.492188 C 125.058594 38.976562 129.503906 43.421875 134.988281 43.421875 C 140.476562 43.421875 144.921875 38.976562 144.921875 33.492188 Z M 144.921875 33.492188 "/>
</svg>
